<svg width="1440" height="2300" viewBox="0 0 1440 2300" xmlns="http://www.w3.org/2000/svg" xmlns:xlink="http://www.w3.org/1999/xlink">
    <defs>
        <path id="a" d="M0 0h1440v2300H0z"/>
        <path id="c" d="M0 0h547v312H0z"/>
    </defs>
    <g fill="none" fill-rule="evenodd">
        <mask id="b" fill="#fff">
            <use xlink:href="#a"/>
        </mask>
        <use fill="#FFF9EA" xlink:href="#a"/>
        <g mask="url(#b)">
            <path d="M-37.491 593.333c-10.603 16.84-18.2 35.554-21.851 55.2-3.994 21.48-5.94 58.108 17.591 69.729 24.428 12.06 34.624-22.416 35.324-39.85.963-23.92-4.129-49.391-17.43-69.601a73.786 73.786 0 0 0-13.634-15.478m-153.88 38.652c-8.07 10.784-14.202 22.935-17.638 36.246-6.288 24.348-3.378 52.223 11.46 73.016 2.694 3.777 6.522 9.57 11.403 10.762 4.42 1.08 9.364-1.717 12.808-4.16 10.261-7.279 15.902-19.313 18.253-31.342 4.444-22.738-2.875-46.805-16.379-65.202a83.343 83.343 0 0 0-19.906-19.32m-151.35 50.683c-2.742 4.963-5.187 10.074-7.267 15.31-10.169 25.604-13.75 53.952-10.514 81.308 1.268 10.732 4.525 22.247 11.29 30.88 1.45 1.852 3.14 3.68 5.092 5.028.82.568 2.907 1.47 3.012 1.5 4.51 1.24 8.932-.048 12.865-2.374 26.985-15.943 15.454-53.942 8.766-77.622-5.186-18.361-11.465-38.4-23.243-54.03M60.72 522.49c-12.021 2.657-23.55 6.674-34.522 12.262-21.101 10.744-39.563 26.298-54.09 44.901 18.214 13.485 31.009 33.317 37.65 55.385 7.799 25.918 11.225 60.413-4.054 84.342-18.717 29.308-61.431 18.93-78.16-6.976-17.21-26.651-12.703-63.628-3.166-92.278 4.487-13.483 10.758-26.318 18.448-38.246-9.658-3.233-20.138-4.028-30.253-3.53-33.724 1.66-68.627 16.61-92.923 41.009 21.582 14.432 38.316 36.998 45.122 61.94 7.592 27.825 3.74 61.683-20.92 79.975-13.731 10.184-32.086 10.1-45.93.152-12.799-9.198-21.774-24.319-26.788-39.032-9.889-29.002-6.134-62.535 9.326-88.919 2.391-4.08 5.066-7.942 7.873-11.7a85.577 85.577 0 0 0-17.395-3.889c-41.645-4.835-79.88 17.114-103.855 49.517 7.597 7.62 14.06 16.663 19.253 26.715 6.736 13.04 11.38 27.039 15.381 41.121 4.908 17.263 10.691 35.728 9.079 53.87-1.383 15.552-8.538 30.041-21.851 38.772-13.09 8.581-30.436 7.782-43.596-.189-26.165-15.843-30.157-51.37-29.048-78.962 1.16-28.852 8.952-57.382 23.848-82.115-18.215-10.592-41.234-7.54-59.292 3.66-23.194 14.383-36.5 41.454-40.518 67.738-.837 5.475-5.754 7.241-10.927 6.397-4.17-.681-12.173-4.73-11.354-10.096 2.393-15.65 6.858-30.74 14.877-44.488 16.482-28.26 46.092-48.04 79.667-46.754 13.552.521 25.714 4.268 36.413 10.4 28.758-37.613 78.172-58.455 124.54-51.636 3.746 2.92 8.99 4.07 13.606 2.857 4.152 1.13 8.269 2.47 12.315 4.087 14.466-14.878 32.231-26.516 51.563-34.404 31.387-12.81 69.008-19.002 101.33-5.828 24.191-30.813 58.53-53.716 96.98-62.223 5.416-1.198 12.047.956 15.265 5.62 2.84 4.12 1.205 9.414-3.894 10.545" fill="#F4D4CB"/>
            <g transform="translate(1389 1156)">
                <mask id="d" fill="#fff">
                    <use xlink:href="#c"/>
                </mask>
                <path d="M125.6 123.188c18.032-6.446 34.903-16.099 49.349-28.795 15.797-13.883 39.056-40.441 28.185-63.2-11.287-23.626-39.499-3.591-50.402 9.184-14.956 17.525-26.26 39.82-28.228 63.008a70.974 70.974 0 0 0 1.097 19.803m139.284 62.09c12.515-3.37 24.376-8.922 34.894-16.954 19.235-14.69 33.617-37.51 34.774-62.05.209-4.456.762-11.11-2.219-14.91-2.695-3.44-8.099-4.259-12.153-4.454-12.085-.585-23.506 5.175-32.439 12.88-16.885 14.564-25.67 37.12-26.406 59.054a80.112 80.112 0 0 0 3.55 26.435m144.53 51.486c5.025-2.128 9.915-4.545 14.601-7.271 22.915-13.336 42.484-32.661 56.312-55.279 5.425-8.873 9.812-19.519 9.837-30.065.007-2.265-.185-4.652-.857-6.828-.284-.916-1.323-2.837-1.385-2.922-2.67-3.615-6.778-5.265-11.135-5.84-29.877-3.957-43.768 31.64-52.798 53.526-7.004 16.972-14.178 35.861-14.575 54.679M9.237 118.497c10.666 5.122 21.769 8.926 33.384 11.212 22.339 4.394 45.542 3.583 67.588-1.868-5.743-21.015-3.616-43.614 4.492-64.254 9.524-24.237 27.453-52.374 53.237-61.407 31.577-11.067 57.686 22.137 54.917 51.668-2.846 30.381-28.249 55.681-52.499 71.7-11.411 7.537-23.786 13.527-36.694 17.987 5.377 8.18 12.823 15 20.764 20.627 26.476 18.761 61.746 28.167 94.62 24.126-7.723-23.729-6.948-50.735 2.747-73.646 10.813-25.56 33.866-48.892 63.383-48.094 16.435.444 30.256 11.404 34.801 27.145 4.203 14.559 1.99 31.326-2.972 45.435-9.78 27.813-32.565 50.957-59.944 61.742-4.231 1.668-8.553 3.004-12.908 4.18a82.05 82.05 0 0 0 10.834 13.268c28.595 28.375 70.548 34.461 107.943 24.177-1.21-10.275-.715-20.953 1.34-31.64 2.667-13.866 7.483-27.213 12.834-40.246 6.563-15.973 13.175-33.378 25.187-46.145 10.296-10.949 24.321-17.663 39.578-16.366 14.995 1.275 27.63 12.176 32.836 26.018 10.348 27.516-7.77 56.769-25.021 76.986-18.04 21.142-40.901 38.105-66.87 47.975 7.465 18.825 26.678 30.18 46.987 32.426 26.086 2.884 52.244-9.701 70.917-27.205 3.89-3.646 8.654-2.064 12.06 1.646 2.749 2.99 6.389 10.803 2.578 14.377-11.118 10.422-23.469 19.188-37.707 24.832-29.268 11.601-63.412 8.99-88.019-11.912-9.932-8.437-16.896-18.492-21.332-29.481-44.11 11.39-93.854-2.171-124.838-34.853-1.093-4.434-4.376-8.415-8.584-10.237-2.466-3.32-4.78-6.776-6.875-10.402-19.784 2.672-40.132.932-59.433-4.575-31.342-8.939-63.459-26.58-80.048-55.735-36.613 8.958-76.19 5.903-110.305-10.482C3.41 135.168-.322 129.6.022 124.165c.301-4.805 4.688-7.841 9.215-5.668" fill="#FAE285" mask="url(#d)"/>
            </g>
            <path d="M198.65 330A1992.388 1992.388 0 0 1 166 414.879 997.531 997.531 0 0 1 194.912 428 2071.949 2071.949 0 0 0 224 349.94c-8.726-6.302-17.219-12.908-25.35-19.94" fill="#E47C98"/>
            <path d="M417 1175.036A2002.397 2002.397 0 0 0 487.91 1267a936.235 936.235 0 0 0 25.09-19.408A1968.874 1968.874 0 0 1 446.486 1159c-9.832 5.33-19.664 10.67-29.486 16.036" fill="#FAE285"/>
            <path d="M1092.91 1214a2002.908 2002.908 0 0 0-86.91 77.268 948.863 948.863 0 0 0 21.153 23.732 1966.86 1966.86 0 0 1 83.847-72.64c-6.014-9.458-12.04-18.914-18.09-28.36" fill="#F2ADAD"/>
            <path d="M451.57 223.553c-1.908-.43-3.803-.895-5.67-1.488-.5-.159-3.434-1.323-2.182-.748-.513-.232-1.135-.51-1.33-.597a68.383 68.383 0 0 1-3.075-1.456c-.58-.292-3.604-2.083-1.798-.923 1.816 1.166-1.148-.733-1.721-1.104a80.385 80.385 0 0 1-2.465-1.658c-.75-.523-1.479-1.077-2.214-1.62-.372-.327-.804-.632-1.15-.926a90.574 90.574 0 0 1-4.858-4.457c-.828-.812-1.835-1.614-2.507-2.558 1.548 2.178.025.015-.74-.877-2.922-3.4-5.562-7.002-8.053-10.72-.257-.412-.96-1.512-1.189-1.897a114.321 114.321 0 0 1-7.685-15.558c-.261-.652-.51-1.305-.765-1.957a103.83 103.83 0 0 0-.25-.684l-.237-.682c-.215-.663-.439-1.324-.65-1.989-6.57-20.72-6.123-42.925-3.851-64.31 2.506-23.563 7.52-46.761 10.732-70.227 2.512-18.348 3.763-37.482-2.129-55.368-6.372-19.345-20.908-36.433-41.668-40.714-10.975-2.262-21.477-.482-32.26 1.85-4.568.989-9.156 1.93-13.822 2.294-.211-.006-1.546.049-1.874.04-1.217-.036-2.418-.238-3.627-.292h-.002c-.343-.083-.686-.164-1.028-.259a42.184 42.184 0 0 1-.692-.192c-.237-.103-.475-.209-.705-.326-.036-.018-.077-.045-.115-.065-.607-.494-.845-.667-.885-.673a8.236 8.236 0 0 0-.75-.59c-.634-.738-1.175-1.621-1.737-2.363a8.4 8.4 0 0 0-.304-.387c-.05-.101-.09-.18-.177-.34-.562-1.036-1.126-2.069-1.63-3.137a46.747 46.747 0 0 1-1.185-2.753 53.676 53.676 0 0 1-.69-2.298c-2.812-10.268-1.458-20.882.803-31.129 2.587-11.73 6.285-23.192 9.046-34.884a429.62 429.62 0 0 0 6.883-35.923 431.103 431.103 0 0 0 3.593-33.39c-8.386-7.492-16.501-15.249-24.399-23.218a435.493 435.493 0 0 1-2.47 31.356c-2.89 24.935-8.392 49.152-14.968 73.341-3.336 12.276-5.856 24.54-4.924 37.328.779 10.634 4.99 21.14 11.403 29.632 7.804 10.332 19.351 17.953 32.124 20.337 10.904 2.036 21.496-.375 32.15-2.622 2.293-.482 4.592-.943 6.907-1.3a68.35 68.35 0 0 1 3.71-.474c.528-.05 1.058-.094 1.588-.136.19-.017.35-.028.494-.041.064.011.2.019.452.024 1.234.029 2.448.12 3.678.213.311.023.501.03.63.03.088.029.15.05.29.089.645.177 1.301.392 1.958.586.415.21 1.069.467 1.38.58.077.056.155.11.232.167.515.488 1.167.948 1.628 1.377.043.042.052.047.092.083.023.03.019.032.045.066.583.772 1.183 1.533 1.765 2.304.06.083.176.218.295.363.028.06.047.106.084.177.964 1.777 1.924 3.538 2.735 5.391.147.336.598 1.441.813 1.954.16.499.65 1.917.726 2.164a76.776 76.776 0 0 1 1.618 6.218c.928 4.285 1.518 8.641 1.84 13.011.017.245.085 1.466.104 1.697.036.995.059 1.99.068 2.982.019 2.323-.032 4.645-.155 6.964-.27 5.08-.901 10.143-1.554 15.185-3.149 24.36-8.443 48.405-11.094 72.833-2.455 22.63-3.044 46.738 3.698 68.725 6.284 20.5 17.565 39.308 33.04 54.211 9.122 8.785 20.086 16.305 32.02 21.185.318-.612.643-1.222.962-1.837.96-1.855 2.151-3.324 3.483-4.475 1.83-2.985 3.73-5.931 5.595-8.9-.537-.077-1.196-.196-1.43-.235" fill="#C19EC8"/>
            <path d="M1334.612 915.6c-.365-1.914-.69-3.83-.887-5.771-.053-.52-.15-3.66-.179-2.29.008-.56.015-1.24.017-1.45.011-1.131.05-2.262.115-3.388.038-.644.48-4.12.134-2.008-.349 2.12.216-1.34.33-2.01.16-.973.342-1.944.54-2.911.183-.892.401-1.777.608-2.663.151-.471.26-.984.392-1.42a91.215 91.215 0 0 1 2.159-6.205c.418-1.076.751-2.316 1.35-3.302-1.38 2.278-.002.027.512-1.027 1.96-4.014 4.214-7.856 6.636-11.606.277-.398 1.006-1.476 1.27-1.837.617-.85 1.246-1.69 1.885-2.522a113.503 113.503 0 0 1 9.337-10.667c.491-.498.994-.984 1.491-1.478.01-.007.307-.29.526-.498l.533-.486c.524-.462 1.04-.927 1.565-1.384 16.402-14.216 36.953-22.614 57.476-29.015 22.614-7.053 45.89-11.67 68.692-18.04 17.834-4.98 35.887-11.424 49.955-23.896 15.217-13.492 25.121-33.548 20.802-54.211-2.283-10.923-8.088-19.813-14.51-28.74-2.72-3.78-5.408-7.599-7.597-11.715-.08-.195-.66-1.395-.78-1.7-.45-1.122-.744-2.302-1.173-3.428-.06-.348-.123-.693-.172-1.042-.005-.044-.054-.372-.098-.708.002-.258.004-.517.02-.774.001-.041.009-.09.013-.131.212-.751.276-1.035.265-1.074a7.92 7.92 0 0 0 .243-.92c.426-.872 1.02-1.717 1.48-2.524.115-.203.18-.323.234-.432.072-.087.13-.152.241-.295.73-.928 1.45-1.85 2.232-2.734.66-.747 1.347-1.47 2.053-2.174.601-.526 1.21-1.043 1.835-1.542 8.302-6.64 18.579-9.612 28.878-11.608 11.79-2.288 23.776-3.454 35.599-5.566a430.708 430.708 0 0 0 35.696-7.956 432.402 432.402 0 0 0 32.062-9.956c3.539-10.632 7.434-21.121 11.608-31.496a435.635 435.635 0 0 1-29.75 10.174c-24.025 7.248-48.43 11.822-73.236 15.407-12.587 1.818-24.84 4.379-36.201 10.3-9.448 4.927-17.415 12.941-22.659 22.168-6.378 11.226-8.785 24.796-5.897 37.41 2.463 10.768 8.882 19.49 15.175 28.333 1.355 1.902 2.69 3.82 3.935 5.795a66.15 66.15 0 0 1 2.667 4.596c.089.17.164.31.234.436.015.062.062.188.158.423.463 1.137.86 2.283 1.264 3.443.103.295.171.47.222.588.01.092.015.156.036.3.092.66.156 1.345.239 2.021-.03.462-.004 1.162.015 1.493l-.06.276c-.243.667-.407 1.444-.618 2.034-.019.056-.023.067-.038.118-.02.032-.022.03-.043.067-.479.838-.938 1.687-1.413 2.526-.05.086-.13.246-.216.411-.044.051-.078.085-.13.149-1.247 1.584-2.48 3.16-3.858 4.636-.25.266-1.087 1.117-1.47 1.517-.394.344-1.5 1.354-1.698 1.521a76.03 76.03 0 0 1-5.06 3.943c-3.563 2.548-7.326 4.813-11.208 6.841-.218.113-1.31.66-1.516.766a110.845 110.845 0 0 1-9.16 3.864c-4.767 1.77-9.662 3.198-14.548 4.603-23.603 6.78-47.765 11.477-71.231 18.742-21.736 6.728-44.09 15.75-61.584 30.625-16.314 13.869-29.088 31.632-36.614 51.68-4.438 11.814-6.979 24.814-6.719 37.65.69.051 1.379.106 2.068.153 2.085.14 3.907.648 5.489 1.406 3.467.49 6.926 1.057 10.39 1.585-.144-.522-.296-1.172-.353-1.4" fill="#B6D6D0"/>
            <path d="M55.36 844.206c-7.7 1.122-15.256 3.101-22.557 5.794A1313.389 1313.389 0 0 0 22 827.977c.362-.105.719-.234 1.083-.336 8.875-2.511 17.979-4.052 27.205-4.37 10.337-.355 20.662.652 30.965 1.343 10.37.695 20.859 1.116 31.16-.544 10.392-1.673 20.105-5.875 28.692-11.94 17.64-12.458 29.928-31.25 39.68-50.189 5.536-10.746 10.486-21.79 15.184-32.941 5.62 7.99 11.3 15.934 17.031 23.843a595.495 595.495 0 0 1-6.48 14.545c-9.059 19.586-19.534 39.165-35.024 54.47-7.446 7.36-16.082 13.579-25.796 17.56-9.53 3.903-19.741 5.481-29.994 5.65-20.165.328-40.219-3.792-60.346-.862" fill="#B4B6D9"/>
            <path d="M718 1063.09c2.964 20.198 7.348 40.6 17.108 58.664 4.972 9.205 11.408 17.666 19.523 24.3 7.96 6.505 17.24 10.985 26.968 14.128 19.138 6.18 39.454 8.072 57.801 16.732 29.419 13.882 52.264 41.076 62.06 72.172 2.49.168 4.983.312 7.464.563 3.152.126 6.303.242 9.455.351 3.034-2.54 6.418-3.289 9.621-2.864-6.589-31.277-26.157-59.377-53.025-76.677-7.739-4.986-15.974-9.109-24.681-12.095-9.758-3.347-19.894-5.388-29.921-7.725-10.089-2.35-20.215-4.997-29.56-9.582-9.425-4.624-17.474-11.469-23.907-19.768-13.22-17.05-19.5-38.598-23.324-59.55-.712-3.9-1.335-7.816-1.923-11.739A2777.26 2777.26 0 0 1 718 1063.09" fill="#FAE285"/>
            <path d="M444.576 938.392c-1.03-.928-1.362-.902-1.026-.586.328.162.622.336.888.526.048.018.088.04.138.06M441.662 937.51c-1.364-1.27-1.548-1.151-1.118-.731.284.206.58.41.88.618.072.036.16.076.238.114" fill="#C1D5EA"/>
            <path d="M176.504 2321.542c-3.363-3.851-6.396-7.762-10.556-10.427a25.895 25.895 0 0 0-1.25-.75 228.165 228.165 0 0 0 9.611 16.62 232.39 232.39 0 0 0 20.732 27.784 229.135 229.135 0 0 0 15.798 16.423c-3.647-7.305-7.809-14.374-12.354-21.18-6.663-9.978-14.09-19.434-21.98-28.47M90.19 2434.495c.415-2.308 1.629-4.95 3.132-6.75 2.377-2.846 5.964-5.566 9.198-2.57 15.714 14.541 34.47 25.96 54.412 33.69 9.953 3.857 20.43 7.153 31.095 8.194 5.263.514 10.455.436 15.494-.943a35.645 35.645 0 0 0 3.802-1.268c.193-.079.995-.456.992-.445.263-.133.526-.263.787-.402a34.012 34.012 0 0 0 2.9-1.739c.17-.114.939-.704 1.072-.796.312-.255.628-.509.93-.774.573-.503 1.29-1.068 1.862-1.67.085-.13.188-.281.277-.39.417-.526.86-1.027 1.27-1.559.276-.353.545-.712.81-1.076l.392-.548c.611-.889.515-.738-.29.452.792-.501 1.455-2.424 1.891-3.241.27-.505.523-1.02.786-1.53.83-1.608-.068.292-.196.45.65-.806.953-2.256 1.32-3.232.41-1.099.788-2.212 1.138-3.334.088-.287.447-1.677.37-1.352.098-.392.2-.781.29-1.176a74.008 74.008 0 0 0 1.272-7.052c.062-.475.112-.95.174-1.425.02-.156.038-.282.053-.385.006-.098.011-.212.02-.351.083-1.31.168-2.614.205-3.927.14-4.932-.225-10.61-.858-15.006-.4-2.77-.9-5.516-1.48-8.239-.745-.542-1.495-1.083-2.233-1.634-10.24-7.62-19.869-16.108-28.77-25.254a233.178 233.178 0 0 1-23.733-28.644 230.7 230.7 0 0 1-10.498-16.382c-2.926-5.02-6.172-10.244-7.997-15.792-2.296-6.98-.853-14.694 3.677-20.486 4.373-5.593 10.532-8.102 17.308-5.726 5.266 1.846 9.334 5.959 12.993 10.004a325.057 325.057 0 0 1 13.055 15.33c16.086 20.163 29.846 42.867 36.958 67.819.583 2.04 1.103 4.101 1.592 6.171 3.331 2.304 6.747 4.472 10.264 6.425 4.31 2.394 9.07 4.637 13.71 5.923a39.978 39.978 0 0 0 6.713 1.242c1.167.114 2.34.176 3.512.174.58 0 1.163-.015 1.744-.049-.038.002 1.32-.127 1.296-.107 2.1-.298 4.249-.882 6.2-1.739.138-.084.702-.373.87-.467.437-.239.867-.487 1.29-.748.368-.229.735-.533 1.12-.744.144-.118.291-.232.434-.355.284-.244.564-.495.838-.753.02-.017.032-.033.049-.05-.03.067-.059.118-.094.195.04-.088.109-.178.163-.269.222-.229.355-.426.416-.555.281-.327.586-.643.84-.93-.055.12-.104.223-.168.372.073-.171.179-.338.286-.504.011-.015.026-.03.037-.043.166-.204.278-.411.346-.567.013-.022.032-.047.045-.071.213-.372.406-.755.613-1.13.317-.807.642-1.608.917-2.435.082-.246.468-2.022.182-.507-.295 1.557.068-.325.118-.54a44.129 44.129 0 0 0 .758-4.06c.035-.258.131-1.299.17-1.639.232-3.904.15-7.801-.257-11.694.002.028-.07-.586-.113-.97a78.288 78.288 0 0 1-.133-.972 96.592 96.592 0 0 0-1.99-9.674c-1.236-4.795-2.88-9.462-4.594-14.102-8.673-23.508-20.2-45.915-34.154-66.725a330.994 330.994 0 0 0-10.737-15.062c-4.309-5.708 6.64-21.374 11.612-14.79 16.699 22.124 30.459 46.298 41.163 71.856 8.2 19.579 16.03 41.31 11.579 62.838-2.351 11.358-8.227 21.849-17.823 28.596-9.502 6.683-21.048 7.175-31.896 4.014-4.193-1.22-8.186-2.898-12.029-4.877.37 14.136-2.091 28.213-8.64 41.1-5.563 10.95-14.441 20.105-25.871 24.815-11.321 4.667-24.187 3.345-35.763.458-23.11-5.765-44.993-16.224-63.927-30.674-4.82-3.679-9.403-7.632-13.85-11.75-1.188-1.1-.953-4.17-.718-5.468" fill="#E47C98"/>
            <path d="M1164.616 1074.002c-6.416-5.612-10.502-13.76-9.452-22.435 1.083-8.913 6.673-16.553 15.59-18.735a19.113 19.113 0 0 1 9.597.162c.112-4.854 1.043-9.616 3.64-13.96 1.924-3.223 4.604-6.064 7.868-7.934 3.052-2.918 6.822-5.036 11.157-5.817 9.214-1.66 18.586 4.194 22.781 12.277 4.553 8.768 4.568 18.727 3.866 28.359-.857 11.744-2.905 23.404-6.173 34.714-.8 2.766-3.43 4.437-6.229 4.365-9.259-.239-18.66-.06-27.866-1.2-8.863-1.094-17.925-3.802-24.78-9.796" fill="#EFCEE1"/>
            <path d="M663.004 1851.927c13.316-10.912 26.23-23.286 32.34-40.839 5.634-16.188 2.375-37.207-10.455-48.677-6.038-5.399-13.155-8.309-20.484-9.17-6.208-2.474-13.003-2.888-19.418-1.72-8.647 1.575-15.908 6.112-22.34 11.968a39.538 39.538 0 0 0-2.073-4.049c-1.616-8.217-5.692-15.637-12.354-21.053-7.984-6.49-18.295-9.014-28.434-8.257-20.111 1.501-42.59 14.488-49.039 34.527-2.507 4.365-3.978 9.037-4.601 13.834-2.315 9.632-1.115 19.724 3.533 28.844.471.922.97 1.828 1.484 2.72 2.867 9.59 8.753 17.55 15.802 24.382.155.217.305.44.46.66 8.852 12.514 18.744 24.264 29.636 35.038 3.111 3.078 6.3 6.079 9.566 8.995 2.461 2.197 4.857 4.532 7.76 6.064.988.976 2.056 1.881 3.29 2.636 2.149 1.314 4.353 2.057 6.567 2.354.782 2.08 2.255 3.54 3.963 2.44a296.582 296.582 0 0 0 6.986-4.645c.397-.208.798-.393 1.19-.628 3.251-1.936 6.312-4.309 9.254-6.828a297.58 297.58 0 0 0 15.344-12.272 285.644 285.644 0 0 0 22.023-16.324M601.72 296.258c1.927-10.934 7.822-20.94 17.307-25.524 9.743-4.714 20.861-3.518 28.377 5.041 2.676 3.046 4.568 6.849 5.525 10.88 5.024-3.103 10.437-5.223 16.412-5.199 4.435.019 8.924 1.14 12.768 3.56 4.792 1.483 9.19 4.309 12.558 8.656 7.158 9.238 6.736 23.65.967 33.737-6.255 10.936-16.418 17.576-26.67 23.193-12.501 6.849-25.623 12.3-39.11 16.15-3.3.944-6.566-.897-8.151-4.088-5.247-10.553-11-20.985-15.297-32.077-4.136-10.675-6.746-22.65-4.686-34.329" fill="#B6D6D0"/>
            <path d="M1397 1896.604c.04-10.608 3.953-20.985 12.107-26.845 8.38-6.022 19.002-6.706 27.439.13 3 2.435 5.392 5.706 6.943 9.345 4.21-3.738 8.946-6.616 14.555-7.564 4.163-.704 8.557-.377 12.555 1.275 4.734.618 9.318 2.56 13.18 6.107 8.21 7.532 10.146 21.17 6.367 31.602-4.1 11.316-12.559 19.222-21.266 26.175-10.621 8.481-22.05 15.748-34.08 21.568-2.942 1.424-6.304.221-8.306-2.524-6.63-9.082-13.717-17.968-19.543-27.712-5.607-9.378-9.992-20.226-9.951-31.557" fill="#F4D4CB"/>
            <path d="M865.894 401.316c-9.041-1.585-18.06-3.437-27.082-5.253A906.017 906.017 0 0 1 824.55 394c-2.826 8.263-4.445 16.897-5.685 25.621-.262.149-.262.386-.09.67-1.088 7.772-1.914 15.604-3.086 23.285-1.684 11.047-4.616 21.43-8.836 31.351-4.436 8.459-9.314 16.686-14.473 24.718a554.031 554.031 0 0 1-5.292 8.05c-17.629 23.076-39.107 43.235-54.195 68.192-6.076 10.049-10.793 20.926-13.124 32.37-.365.33-.628.704-.714 1.141-.017.089-.036.18-.055.271 16.615 3.006 33.276 5.76 49.968 8.331 4.028-6.48 6.1-14.186 7.738-21.582 2.37-10.689 4.123-21.45 8.714-31.482 8.618-18.836 23.666-33.628 37.21-48.923 14.291-16.139 26.055-33.725 33.555-54.047 7.136-19.329 10.468-40.054 9.71-60.65" fill="#EFCEE1"/>
            <path d="M1061.593 208.18a91.018 91.018 0 0 0-5.007-6.331c-6.804-7.891-14.803-14.76-22.74-21.558l-42.905-36.758c-12.693-10.873-23.857-17.331-40.796-16.611-14.948.637-30.122 6.485-45.04 5.21-12.346 2.057-24.868.579-36.562-7.226-8.848-5.904-15.111-14.785-20.895-23.522-3.692-5.577-7.07-12.745-12.241-17.384-14.698 11.547-29.16 23.61-43.407 35.493 10.697 16.32 38.366 30.203 55.492 38.568 9.188 4.483 19.377 7.842 29.516 6.526 18.922-2.46 33.561-20.477 52.634-21.092 11-.353 21.488 5.408 29.241 13.214 15.729 15.839 26.75 35.629 42.072 51.63 15.418 16.106 28.652 30.304 37.444 51.661l23.555-40.587c1.05-1.806 2.131-3.742 2.04-5.829-.084-1.998-1.231-3.78-2.401-5.404" fill="#FAE285"/>
            <path d="M975 831c0 31.48-25.52 57-57 57s-57-25.52-57-57 25.52-57 57-57 57 25.52 57 57" fill="#E47C98"/>
            <path d="M466 626c0 31.48-25.52 57-57 57s-57-25.52-57-57 25.52-57 57-57 57 25.52 57 57" fill="#C1D5EA"/>
            <path d="M261 1076.501c0 30.098-24.401 54.499-54.5 54.499s-54.5-24.4-54.5-54.499c0-30.1 24.401-54.501 54.5-54.501s54.5 24.4 54.5 54.501" fill="#E6A67B"/>
            <path d="M1360 1496c0 35.346-28.654 64-64 64-35.346 0-64-28.654-64-64 0-35.346 28.654-64 64-64 35.346 0 64 28.654 64 64" fill="#B6D6D0"/>
            <path d="M184.821 2078.886c-4.907-26.609 12.685-52.158 39.295-57.065 26.608-4.907 52.156 12.685 57.063 39.293 4.908 26.61-12.685 52.158-39.293 57.065-26.609 4.908-52.158-12.685-57.065-39.293" fill="#F1CB34"/>
            <path d="m1091.034 713.964-.108.02c.004.022.002.038.008.062a1.522 1.522 0 0 0 .1-.082c.01.004.02.006.028.01.008-.008.008-.01.012-.018-.012.004-.026.006-.04.008l.012-.008c-.014-.002-.028-.002-.042-.002l.03.01" fill="#E6A67B"/>
            <path d="M1090.992 713.998v.004a.047.047 0 0 0 .016-.004h-.016M1090.776 713.295l.002.02-.044.016.016.006.03-.002.002.014.058.018c.034-.006.068-.014.108-.024l.036-.028c.002-.002.004-.002.008-.002.002-.004.006-.008.01-.012l.088.002.012-.006-.082-.014.064-.056-.028.008c.136-.17.292-.36.436-.534-.232-.152-.756-.086-.72.554-.1-.004-.186-.008-.264-.006.036.012.07.026.11.04l.158.006" fill="#E6A67B"/>
            <path d="M1247.959 762.994c-.49 4.971-6.328 8.994-10.973 9.334-2.21.16-5.558.052-7.581 1.026.35-.07.7-.142 1.05-.214-.49.113-.977.233-1.464.36a60.647 60.647 0 0 0-4.679 1.414 68.412 68.412 0 0 0-3.173 1.177c-.127.051-.393.147-.665.243-.326.146-.654.307-.961.45a93.169 93.169 0 0 0-6.42 3.33 124.276 124.276 0 0 0-6.266 3.805c-.983.635-1.958 1.282-2.926 1.938-.54.366-1.076.735-1.616 1.105-.91.622-.753.509-.406.269-3.922 2.61-7.632 5.624-11.387 8.456-7.675 5.79-15.388 11.613-23.606 16.623-9.58 5.84-24.127 11.111-32.896.95-6.311-7.31-8.057-18.24-9.333-27.548-1.348-9.808-1.456-19.757-1.09-29.637.724-19.433 3.812-38.676 5.028-58.071.16-2.551.289-5.106.373-7.663.038-1.13.06-2.26.083-3.39l.013-.638c.003-.494.002-.986 0-1.478-.028-4.71-.244-9.418-.72-14.101l-3.455 8.89c-2.481 6.385-4.962 12.769-7.44 19.153-2.126 5.469-3.955 11.22-6.748 16.396-5.944 11.011-17.496 19.072-30.339 15.502-8.368-2.328-14.306-10.246-17.911-17.74-4.664-9.698-6.395-20.668-8.646-31.105a1055.361 1055.361 0 0 1-6.952-35.126c-8.589-47.653-13.867-95.889-15.844-144.274-.218-5.316 3.66-9.185 8.456-10.899 3.633-1.297 10.688-.394 10.896 4.667 1.05 25.703 3.02 51.364 5.94 76.922a1052.684 1052.684 0 0 0 16.538 100.997c1.2 5.59 2.44 11.169 3.729 16.737.536 2.322 1.083 4.625 1.784 6.904l.039.126c.157.424.313.848.48 1.269.35.893.725 1.781 1.124 2.656a47.995 47.995 0 0 0 3.05 5.684 37.73 37.73 0 0 0 1.573 2.302c.168.229.348.454.522.68.105.12.221.252.295.322 1.21 1.184 2.41 2.292 3.779 3.266.255.117.91.47 1.29.616-.025-.011.112.041.28.103-.215.002-.268.026.103.04l.107.04a.992.992 0 0 0-.21.104c.043-.011.131-.032.26-.06.003.01.003.017.003.026a8.411 8.411 0 0 1-.282.045c-.08.062-.129.126-.069.198.006.009.163-.076.358-.184.002.001 0 .003.002.005a.081.081 0 0 1 .011-.013c.036-.019.071-.037.109-.06l.03-.017H1091.185h.002-.028c.013-.013.026-.022.037-.034l.023-.003c.004-.008.013-.017.019-.025l.088-.005c0-.002.002-.002.003-.004l.025.002.011-.002-.002.002h.002l.008-.002c.745-.162.543-.182.166-.117l-.172.115-.026-.004.185-.109c-.065.012-.133.028-.202.043.01-.007.019-.016.028-.024.52-.158.517-.362.354-.47.118-.14.217-.264.255-.313.232-.317 1.41-2.344.352-.396.238-.437.48-.869.708-1.312.46-.89.876-1.8 1.277-2.716.905-2.076 1.695-4.205 2.516-6.317l25.302-65.114c1.401-3.608 5.45-6.15 9.06-6.92 2.752-.587 7.633-.257 8.958 2.981 8.353 20.43 9.165 42.183 7.647 63.954-1.323 18.958-4.28 37.785-4.915 56.793-.154 4.534-.167 7.715.079 12.795.223 4.639.657 9.27 1.367 13.861.71 4.577 1.812 9.015 2.985 13.486.05.188.083.321.107.434.043.1.094.217.156.375.182.454.36.909.56 1.357a22.14 22.14 0 0 0 1.336 2.572c.227.372.476.725.725 1.083l.109.094c.348.291.695.612 1.034.91.01.01.013.012.023.017-.023.004-.043-.001-.064.008.019-.008.043-.004.066-.006.545.475.52.257.318.098.16.094.251.21.096.212.193.041.373.08.588.103.036-.02.163-.047.324-.07-.037.055.07.07.437-.048a.754.754 0 0 1 .19-.002c-.02-.019-.048-.024-.072-.036.045-.015.073-.022.127-.043.354-.131.712-.257 1.068-.386.205-.08.452-.183.592-.258 1.022-.559 2.043-1.103 3.043-1.697a141.148 141.148 0 0 0 5.96-3.75c.876-.58 1.745-1.17 2.613-1.767a8.11 8.11 0 0 1 .348-.216c.085-.067.26-.199.63-.469 7.089-5.123 13.977-10.518 21.069-15.633 15.211-10.978 31.777-20.854 50.925-22.249 4.659-.34 8.858 2.187 8.354 7.31M1092.004 714h-.008.008z" fill="#E6A67B"/>
            <path d="m1091.056 714.019-.004-.026c-.01-.006-.02-.008-.032-.012-.044.006-.074.014-.076.022-.002.008.044.014.112.016M1153.295 800.977c-.222-.114-.536.012-.59.092.162-.024.33-.042.466-.05.04-.014.08-.026.124-.042M1152.171 801.055a.46.46 0 0 0-.342-.106l.002.002c.102-.004.23.04.34.104" fill="#E6A67B"/>
            <path d="m1091.032 714.005-.028-.01-.036.008a.642.642 0 0 0 .064.002M671.08-39.29l-7.033 42.264L697 37.964l-44.822.328L632.676 75l-20.669-42.063L567 20.635l32.047-26.324L590.737-50l40.473 25.793z" fill="#E6A67B"/>
            <path fill="#FFF" d="m628 827.572-26.45 35.393 14.152 41.861-41.826-14.226-35.427 26.4.601-44.185L503 847.27l42.2-13.084L558.346 792l25.478 36.1z"/>
            <path fill="#C1D5EA" d="m1495 527.148-42.077 24.365-3.79 48.487-36.165-32.503-47.268 11.378 19.724-44.452L1360 492.97l48.357 5.029L1439.912 461l10.161 47.561z"/>
            <path fill="#E47C98" d="m1253.116 1823.745-42.282-16.447L1173.39 1833l2.488-45.52-35.878-27.868 43.82-11.687L1199.09 1705l24.594 38.297 45.317 1.338-28.62 35.357z"/>
            <g fill="#B6D6D0">
                <path d="M1234.339 229.714c.09-.047.079-.043 0 0M1254.909 252.839c.002-.201.007-.57.026-.833-.004-.064-.01-.126-.013-.19-.122.186-.07.816-.013 1.023M1396.016 91.03c0-.002-.002-.002-.004-.004.044.068.085.133.125.192l-.12-.188"/>
                <path d="M1237.775 251.84a78.478 78.478 0 0 0 7.814 7.47c.282.212 1.133.88 1.421 1.1a92.503 92.503 0 0 0 5.91 4.112c.164-.529.33-1.055.497-1.581.087-.374.176-.748.256-1.126a63.385 63.385 0 0 0 1.231-8.829c.003-.015.003-.088.005-.147.041.153.079.072.041-.62l-.015-.214c.01-.141.023-.25.043-.254-.026.004-.04.04-.056.066-.045-.853-.083-1.7-.172-2.563-.037-.374-.263-1.835-.35-2.48-.113-.503-.246-1.095-.293-1.287a54.957 54.957 0 0 0-.88-3.09c-.096-.298-.416-1.023-.538-1.461-.38-.882-.746-1.763-1.171-2.637-.332-.68-1.058-1.712-1.365-2.488-.127-.2-.255-.395-.386-.588-.533-.786-1.14-1.53-1.69-2.303l-.133-.118c-.309-.293-.597-.62-.9-.92-.465-.46-1.22-1.038-1.37-1.166-.522-.36-1.038-.724-1.576-1.066-.204-.127-.413-.236-.62-.351a11.833 11.833 0 0 1-.209-.068c-1.005-.327-1.996-.6-3.001-.9 1.529.459.019.011-.75-.013-.815-.024-1.705.269-2.52.143-.281.088-.562.175-.833.282-.834.33-1.536.844-2.334 1.22.276-.132.427-.207.508-.249-.16.089-.565.327-.857.615-.555.545-1.035 1.148-1.517 1.759-.081.098-.236.365-.36.575-.017.04-.03.073-.04.092-.127.316-.545.972-.817 1.592a7.1 7.1 0 0 1-.03.276c-.056.49-.188.96-.258 1.447-.05.367-.067.75-.131 1.11a5.48 5.48 0 0 1-.09.439c.067.498.17 1.018.178 1.234.004.053.004.083.004.13.075.312.147.626.231.938.142.53.878 2.447.818 2.44.276.582.602 1.264.724 1.512.208.414.449.827.644 1.24 1.277 1.91 2.608 3.742 3.954 5.608.017.023.015.025.032.045.32.356.631.72.951 1.074m141.152-102.472a91.825 91.825 0 0 0 4.765 4.954c.942.91 1.902 1.797 2.88 2.665.283.254 1.483 1.272 1.692 1.468a97.148 97.148 0 0 0 4.479 3.373c3.127 2.216 6.371 4.185 9.663 5.999.31-1.513.619-3.028.888-4.561.76-4.362 1.343-8.801 1.727-13.31.184-2.165.324-4.345.414-6.54.034-.827.056-1.657.077-2.488-.007-.116.011-1.605.006-2.142a147.357 147.357 0 0 0-1.66-20.695c-.172-1.137-.383-2.278-.56-3.415-.019-.117-.028-.175-.038-.248-.034-.145-.07-.291-.098-.43-.97-4.763-2.182-9.54-3.647-14.302-.408-1.325-.832-2.65-1.278-3.971-.16-.47-.337-.938-.488-1.408-.482-1.486.322.887.336.869.207-.305-1.275-2.761-1.456-3.24l-.006-.02c-.167-.23-.329-.467-.485-.71.374.534.566.574-.123-.186-.026-.043-.06-.09-.084-.131.028.045.054.083.08.126-.022-.025-.035-.042-.06-.068l-.3-.327c-.287-.203-.571-.406-.863-.592-.132-.084-.676-.376-.992-.554-.18-.072-.349-.141-.379-.15-.584-.187-1.148-.397-1.736-.559-.305-.084-1.28-.24-1.534-.299a24.51 24.51 0 0 0-6.15.262l-.184.032c-.446.122-.89.253-1.322.404-.738.255-1.455.547-2.156.866-1.593.727-2.97 1.71-4.468 2.571-.23.225-.5.419-.741.631a27.593 27.593 0 0 0-1.704 1.647c-1.173 1.229-2.184 2.582-3.186 3.967-.077.107-.115.154-.164.218-.032.06-.045.092-.09.178-.379.718-.763 1.43-1.11 2.171a38.271 38.271 0 0 0-1.916 4.984c-.079.254-.15.513-.226.769-.109.712-.297 1.4-.422 2.106a50.39 50.39 0 0 0-.653 5.683c-.02.35.028.957-.026 1.342.017.682.024 1.359.062 2.045.103 1.872.3 3.764.585 5.664-.005-.028.017.164.051.421l.006.02c.232.957.424 1.912.67 2.869.492 1.905 1.11 3.794 1.753 5.686.192.453.397.929.367.86a67.986 67.986 0 0 0 2.683 5.553c.138.253.305.526.465.796 1.145 1.694 2.209 3.413 3.423 5.073a106.175 106.175 0 0 0 2.395 3.118l.017.022c.275.312.544.624.821.934m-205.3 185.475c-.338-1.588-.666-3.174-1.004-4.76-1.09-6.48-2.322-12.973-3.623-19.47.956.235 1.911.504 2.875.682.183.006 1.559.196 1.971.231.725.062 1.446.11 2.164.14 1.625.065 3.23.04 4.805-.08 3.95-.3 7.823-.896 11.624-1.593 4.332-.797 5.81-1.14 10.197-2.432 7.63-2.246 14.897-5.234 21.594-9.043a82.902 82.902 0 0 0 8.27-5.364 69.988 69.988 0 0 0 8.267-7.583 61.605 61.605 0 0 0 3.432-4.065c-.224-.169-.454-.325-.674-.498-10.3-7.968-19.1-17.455-25.228-28.873-6.16-11.485-7.96-24.157-4.415-34.257 2.86-8.148 10.27-14.673 19.967-13.77 10.697.997 20.425 8.529 27.145 18.416 11.346 16.694 13.833 34.944 10.822 50.913.699.229 1.397.464 2.096.676a94.809 94.809 0 0 0 6.503 1.708c1.088.245 2.175.466 3.26.67.27.05 1.743.285 2.063.345 8.766 1.207 17.368 1.103 25.47-.216 4.28-.697 6.091-1.18 10.422-2.661a84.717 84.717 0 0 0 11.093-4.71c7.509-3.833 13.22-7.908 18.824-12.867 5.942-5.259 11.339-11.109 16.326-17.318a194.145 194.145 0 0 0 10.811-14.897c.554-.842 1.102-1.692 1.644-2.545.309-.489.615-.981.922-1.471.006-.008.168-.27.296-.48l.554-.919c.295-.501.59-1.003.883-1.507a184.09 184.09 0 0 0 4.229-7.696 179.406 179.406 0 0 0 5.516-11.612 171.377 171.377 0 0 0 4.153-10.622c-15.99-9.69-29.821-23.27-39.228-40.163-10.68-19.187-12.918-41.282-7.358-58.25 2.653-8.095 7.558-14.65 14.125-19.363 6.99-5.018 17.612-7.662 27.758-3.426 13.69 5.715 19.997 19.24 24.038 32.083 3.523 11.19 5.752 22.569 6.836 33.623 1.486 15.13.648 29.68-1.78 43.578a86.752 86.752 0 0 0 6.542 1.552c.394.077 2.514.415 2.41.419.887.116 1.772.23 2.655.318 1.926.191 3.84.306 5.74.357a81.356 81.356 0 0 0 18.642-1.65l1.054-.23.516-.126c.951-.25 1.898-.505 2.836-.78 7.552-2.22 14.582-5.453 21.06-9.422a97.48 97.48 0 0 0 5.118-3.362 93.975 93.975 0 0 0 2.265-1.645c.42-.327.834-.656 1.247-.987a106.608 106.608 0 0 0 8.615-7.76c5.922-5.928 11.201-12.517 15.795-19.655a97.146 97.146 0 0 0 1.211-1.924 128.684 128.684 0 0 0 4.596-8.464 134.016 134.016 0 0 0 5.206-11.925 142.164 142.164 0 0 0 4.66-14.583c.011-.046.015-.074.028-.132.243-1.1.518-2.184.759-3.283.482-2.205.915-4.428 1.303-6.672.094-.55.16-1.112.25-1.665a835.173 835.173 0 0 0 18.22 12.91c-1.81 10.473-4.675 20.512-8.175 29.805-13.464 35.737-40.742 65.93-79.289 74.105-14.898 3.16-31.812 2.06-48.328-3.935-5.38 17.701-13.516 33.816-23.252 48.586-10.175 15.435-22.253 29.294-37.172 39.999-14.494 10.402-32.4 17.013-52.386 16.715-12.509-.188-25.962-2.917-38.804-8.516-7.15 12.748-18.263 22.468-30.99 29.337-7.517 4.059-15.708 7.118-24.299 9.285-8.316 2.1-17.214 4.263-26.436 3.889a58.907 58.907 0 0 1-9.241-1.115"/>
            </g>
            <path d="M889.29 1840.502a104.556 104.556 0 0 0 8.236-4.1c10.399-5.74 19.939-13.062 29.387-20.327l51.08-39.282c15.108-11.619 24.938-22.575 28.127-41.691 2.814-16.87-.128-35.221 4.808-51.605.618-14.293 5.215-27.948 16.669-39.178 8.667-8.496 20.042-13.4 31.143-17.798 7.086-2.808 15.87-4.891 22.26-9.575-9.407-19.172-19.444-38.201-29.33-56.946-20.714 8.098-42.706 35.755-56.065 52.927-7.16 9.214-13.308 19.813-14.228 31.464-1.719 21.744 14.915 42.385 11.104 63.858-2.2 12.386-11.09 22.75-21.619 29.572-21.362 13.84-46.014 21.48-67.461 34.827-21.585 13.431-40.524 24.869-66.401 29.645 13.227 11.986 26.456 23.967 39.683 35.952 1.766 1.602 3.672 3.27 6.018 3.664 2.245.378 4.503-.485 6.589-1.407" fill="#C1D5EA"/>
            <path d="M87.755 1638.886a87.767 87.767 0 0 0 2.599 7.254c3.746 9.211 8.883 17.86 13.98 26.425 9.188 15.438 18.375 30.875 27.563 46.31 8.154 13.701 16.264 22.938 31.757 27.426 13.67 3.963 29.12 3.273 42.188 8.955 11.753 1.886 22.597 7.025 30.78 17.641 6.19 8.033 9.151 17.978 11.721 27.648 1.64 6.17 2.52 13.686 5.778 19.455 16.746-5.993 33.437-12.528 49.879-18.966-4.708-18.026-25.452-38.998-38.364-51.77-6.927-6.848-15.097-12.985-24.638-14.868-17.805-3.517-36.459 8.355-53.842 3.122-10.026-3.019-17.739-11.419-22.366-20.842-9.389-19.12-13.337-40.385-22.31-59.528-9.029-19.265-16.665-36.138-18.129-58.148l-33.52 29.605c-1.493 1.317-3.055 2.741-3.606 4.659-.529 1.835-.032 3.797.53 5.622" fill="#B4B6D9"/>
            <path d="M1305.406 2099.75c7.114 4.011 14.518 6.512 20.49 3.358 11.15-5.884 14.947-29.935 26.744-33.608 6.802-2.12 15.113 3.238 22.322 11.492 14.624 16.749 27.473 38.997 41.888 56.003.86 1.014 1.684 2.003 2.529 3.005l16.874-18.74c3.217-3.572 7.102-4.645 10.747-4.126-5.802-6.981-11.86-13.112-17.891-19.132l-37.96-37.877c-11.228-11.207-20.173-17.305-30.598-13.829-9.199 3.068-16.975 12.476-26.728 13.226-7.138 4.385-15.445 4.523-25.127-3.12-7.326-5.787-13.921-15.568-20.171-25.253-3.989-6.18-8.257-14.33-12.895-19.149-5.772 16.228-11.243 33.048-16.63 49.614 11.607 18.103 33.143 30.648 46.406 38.137" fill="#F2ADAD"/>
            <path d="M26 1844c0 33.689-27.311 61-61 61s-61-27.311-61-61 27.311-61 61-61 61 27.311 61 61" fill="#F4D4CB"/>
            <path d="M630 1390.336c15.292 3.494 30.712 6.434 46.225 8.739a609.616 609.616 0 0 0 26.927 3.39c4.396.453 8.836.745 13.172 1.654 1.922.402 2.863.651 4.842 1.583.265.126.53.264.796.4.163.124.577.405.647.47.101.09.282.28.423.427.092.117.188.228.284.334.028.043.057.075.085.117.024.049.049.1.07.15.035.084.078.22.125.367.063.275.132.552.196.82.03.113.08.247.13.368l-.034-.066-.105-.21c.054.15.11.346.118.536.013.292.04.583.05.877.025.69.018 1.382-.01 2.076-.029.681-.277 2.201-.021.719-.141.82-.243 1.642-.4 2.46-.621 3.186-1.602 6.296-2.753 9.325-.274.722-.562 1.439-.852 2.153l-.05.125c-.134.313-.27.622-.407.932a135.61 135.61 0 0 1-2.06 4.403c-7.575 15.544-14.458 31.508-11.906 49.214 2.465 17.083 14.555 33.946 31.95 37.767 12.603 2.767 24.74-3.297 35.141-9.79 10.7-6.678 21.682-16.056 34.286-17.054 1.546-.122 2.216-.083 4.199.294a18.645 18.645 0 0 1 1.117.25c.051.024.102.047.203.09.318.132.64.25.956.388.117.053.62.302.939.453l.045.03c.346.255.703.517 1.057.762.015.011.038.03.057.043l.263.285c.105.12.216.236.325.353.192.298.653.888.99 1.361l.047.104c.145.308.295.611.434.92.333.732.612 1.485.92 2.226.042.096.06.145.089.213.06.219.114.43.124.466.265.92.502 1.846.713 2.781.374 1.649.636 3.31.903 4.98.002.014 0 .016.002.035.03.37.079.736.114 1.103.096.98.172 1.963.234 2.946.545 8.664.154 17.414.103 26.09l-.164 28.452-.073 12.584c5.089.666 10.168 1.38 15.236 2.169l.293-50.719c.094-16.166-1.029-33.495-12.145-46.276-5.837-6.712-13.992-10.397-22.835-10.265-7.323.11-14.312 3.19-20.634 6.674-10.597 5.845-20.108 13.935-31.38 18.508-.254.09-.999.366-1.217.44-.649.222-1.302.43-1.96.618-1.388.4-2.8.72-4.23.94-.66.101-1.325.184-1.99.241-.238.023-1.03.057-1.385.077-.354-.017-1.16-.045-1.4-.066a26.863 26.863 0 0 1-2.327-.294c-.672-.119-1.377-.394-2.05-.441-.006-.002-.006 0-.012 0-.312-.108-.626-.211-.936-.33-.798-.308-1.547-.738-2.339-1.049-.017-.007-.02-.01-.037-.015-.382-.243-.764-.484-1.135-.749-.295-.209-.581-.433-.876-.644-.384-.276-.572-.4-.636-.432-.384-.404-.75-.872-1.008-1.153-.164-.175-.32-.354-.478-.533 0 .019.013.043.005.058.006-.011-.015-.05-.022-.077l-.241-.268c-.687-.762-.293-.498.015-.143-.44-.675-1.313-1.813-1.416-1.97a7.682 7.682 0 0 0-.185-.273c-.049-.1-.105-.217-.173-.352a37.613 37.613 0 0 1-1.08-2.403c-.148-.364-.329-.875-.417-1.114-.264-.889-.523-1.777-.728-2.682-.194-.862-.322-1.731-.495-2.595.288 1.435-.02-.17-.066-.76-.165-2.17-.122-4.34-.002-6.51-.002.034.032-.402.047-.655.029-.252.076-.686.072-.656.13-.966.282-1.925.459-2.882a65.91 65.91 0 0 1 1.433-6.104c1.007-3.542 2.487-7.602 3.798-10.603 5.5-12.592 13.526-24.96 13.178-39.245-.198-8.075-3.42-16.03-9.116-21.791-7.403-7.49-17.226-9.494-27.294-10.488-18.008-1.776-35.935-4.298-53.722-7.643-5.53-1.04-11.04-2.184-16.54-3.376-.81 5.448-1.632 10.895-2.495 16.336" fill="#E6A67B"/>
            <path d="M725.054 1409.122c-.098-.272-.184-.374 0 0M726.129 1496.229c-.004-.12-.116-.292-.258-.458.132.204.212.35.24.438l.018.02" fill="#E6A67B"/>
            <path d="M109.783 45.863c.636 15.707 1.832 31.39 3.663 47.003a616.025 616.025 0 0 0 3.764 26.932c.709 4.372 1.584 8.744 1.844 13.173.116 1.966.121 2.941-.256 5.1-.05.29-.114.583-.174.875-.077.19-.238.664-.28.748-.062.121-.197.347-.302.52-.086.121-.168.242-.245.363-.033.037-.058.075-.09.113-.04.036-.084.073-.125.107-.07.057-.19.134-.318.22-.246.13-.493.269-.734.403-.101.056-.216.14-.318.22l.054-.049c.073-.068.125-.113.174-.158a1.861 1.861 0 0 1-.483.256c-.276.089-.548.189-.824.275-.657.206-1.322.381-1.992.534-.658.15-2.178.31-.694.17-.82.077-1.634.196-2.457.254-3.208.236-6.441.1-9.64-.22-.764-.076-1.523-.17-2.284-.26l-.131-.018-.999-.148a135.19 135.19 0 0 1-4.747-.841c-16.846-3.26-33.915-5.74-50.195 1.363-15.705 6.853-28.7 22.96-27.828 40.787.632 12.915 9.591 23.07 18.512 31.434 9.174 8.601 21.007 16.77 25.24 28.7.52 1.464.657 2.123.812 4.14.028.377.045.754.05 1.131 0 .008.003.008.003.015-.012.055-.021.11-.034.219-.043.343-.073.684-.124 1.027-.02.127-.127.681-.188 1.026l-.017.053c-.154.4-.312.814-.455 1.222-.005.017-.018.043-.028.066-.08.134-.159.26-.202.328-.087.134-.17.271-.254.407-.234.262-.679.864-1.045 1.314l-.086.074c-.256.218-.509.443-.769.66-.613.514-1.26.98-1.89 1.472-.08.064-.122.096-.18.141-.194.115-.383.223-.413.244-.812.496-1.638.967-2.476 1.416-1.483.793-3.003 1.48-4.53 2.175l-.034.012c-.346.126-.685.27-1.027.4a84.41 84.41 0 0 1-2.758.995c-8.15 2.796-16.625 4.708-24.94 6.929l-27.27 7.287c-4.02 1.075-8.04 2.15-12.063 3.222A648.556 648.556 0 0 1-20.11 295l48.613-12.989c15.492-4.14 31.785-9.762 41.123-23.86 4.905-7.402 6.31-16.252 3.882-24.772-2.01-7.057-6.775-13.011-11.758-18.215-8.347-8.722-18.564-15.802-25.876-25.512-.15-.222-.608-.869-.737-1.061a39.8 39.8 0 0 1-1.101-1.735 34.317 34.317 0 0 1-1.999-3.846c-.27-.61-.522-1.233-.75-1.863-.08-.222-.32-.98-.434-1.318-.074-.347-.256-1.133-.3-1.372-.14-.77-.25-1.548-.322-2.327-.064-.68.017-1.435-.112-2.1-.002-.004-.002-.004-.002-.01.02-.332.037-.661.07-.991.087-.853.304-1.69.397-2.538 0-.017 0-.023.002-.038.133-.434.267-.867.423-1.293.121-.343.263-.677.389-1.018.162-.445.233-.658.248-.73.286-.477.638-.954.84-1.277.125-.203.256-.401.385-.601-.017.006-.037.023-.054.02.013.003.045-.026.067-.043.067-.1.131-.2.195-.3.55-.865.402-.414.142-.024.53-.601 1.393-1.746 1.516-1.885.096-.112.161-.187.212-.251.084-.074.179-.158.295-.258a36.458 36.458 0 0 1 2.016-1.675c.31-.24.751-.546.959-.695.78-.489 1.561-.97 2.377-1.405.772-.413 1.57-.765 2.352-1.16-1.296.657.159-.064.712-.262 2.033-.727 4.12-1.253 6.23-1.706-.033.008.392-.073.639-.124.247-.038.677-.108.647-.102a58.958 58.958 0 0 1 2.874-.313 65.761 65.761 0 0 1 6.215-.21c3.652.048 7.923.417 11.136.9 13.48 2.027 27.404 6.552 40.985 2.475 7.678-2.302 14.45-7.502 18.482-14.52 5.24-9.119 4.602-19.146 2.934-29.144-2.984-17.887-5.238-35.887-6.664-53.968A620.586 620.586 0 0 1 126.064 44c-5.424.645-10.85 1.275-16.281 1.863" fill="#FAE285"/>
            <path d="M117.896 142.084c.236-.166.314-.276 0 0M32.813 165.184c.116-.036.252-.188.374-.368a2.428 2.428 0 0 1-.36.346l-.014.022" fill="#FAE285"/>
            <path d="M-20.69 1030.412c1.735.667 3.453 1.37 5.126 2.187.448.219 3.045 1.723 1.948 1.009.45.288.997.639 1.168.746.91.577 1.808 1.178 2.69 1.8.503.355 3.102 2.465 1.562 1.12-1.547-1.351.98.853 1.468 1.28a76.875 76.875 0 0 1 2.09 1.907c.632.597 1.239 1.221 1.856 1.836.306.36.669.707.954 1.035a86.274 86.274 0 0 1 3.954 4.879c.666.882 1.504 1.78 2.005 2.762-1.159-2.27-.02-.015.576.933 2.277 3.614 4.264 7.383 6.096 11.24.184.424.694 1.561.856 1.957a108.144 108.144 0 0 1 3.368 9.462 109.07 109.07 0 0 1 1.716 6.3c.156.65.302 1.302.45 1.954.004.012.083.396.143.68l.128.678c.112.656.23 1.312.338 1.968 3.328 20.487-.141 41.41-5.216 61.306-5.592 21.922-13.494 43.154-19.736 64.886-4.881 16.992-8.687 34.902-5.606 52.617 3.33 19.158 14.645 37.31 33.569 44.215 10.004 3.652 20.121 3.417 30.578 2.7 4.427-.305 8.87-.562 13.303-.264.199.034 1.462.168 1.768.223 1.14.2 2.242.556 3.37.775h.002a26.752 26.752 0 0 1 1.553.663c.208.13.418.262.62.405.031.021.067.051.099.076.503.552.702.748.737.758.256.301.485.533.626.662.493.784.882 1.693 1.306 2.473.107.196.173.307.233.407.036.102.06.183.12.345.387 1.058.776 2.11 1.1 3.188.276.915.52 1.837.736 2.766.128.754.242 1.508.334 2.268 1.234 10.088-1.498 19.933-5.03 29.307-4.045 10.727-9.095 21.05-13.296 31.716a411.884 411.884 0 0 0-11.407 33.002 414.245 414.245 0 0 0-7.964 31.058c6.853 8.235 13.416 16.685 19.743 25.303a417.415 417.415 0 0 1 6.63-29.29c6.141-23.166 14.642-45.294 24.145-67.246 4.823-11.142 8.876-22.384 9.756-34.595.73-10.158-1.783-20.667-6.647-29.577-5.916-10.839-15.721-19.632-27.398-23.645-9.969-3.426-20.257-2.608-30.578-1.952-2.221.14-4.446.257-6.67.276-1.185.007-2.37-.01-3.553-.064a66.951 66.951 0 0 1-1.51-.089c-.183-.011-.335-.023-.47-.03a4.41 4.41 0 0 0-.424-.085c-1.155-.196-2.283-.45-3.425-.709a8.231 8.231 0 0 0-.59-.115c-.078-.04-.134-.068-.26-.122-.582-.259-1.17-.551-1.76-.824-.36-.257-.94-.589-1.218-.74-.064-.062-.13-.124-.195-.19-.417-.531-.967-1.056-1.34-1.525-.034-.045-.044-.053-.075-.092-.017-.03-.014-.032-.034-.068-.44-.809-.9-1.612-1.343-2.42-.045-.086-.135-.23-.225-.384-.02-.06-.03-.105-.056-.179-.661-1.812-1.322-3.606-1.829-5.47-.092-.336-.364-1.445-.495-1.96-.083-.492-.35-1.9-.385-2.143a73.124 73.124 0 0 1-.668-6.1c-.284-4.177-.239-8.376.058-12.55.017-.233.122-1.397.135-1.617a108.824 108.824 0 0 1 1.447-9.387c.952-4.764 2.242-9.46 3.548-14.136 6.307-22.588 14.587-44.58 20.435-67.301 5.417-21.044 9.282-43.748 5.968-65.454-3.09-20.238-11.11-39.568-23.607-55.784-7.365-9.56-16.639-18.176-27.184-24.433-.385.535-.774 1.067-1.157 1.602-1.158 1.624-2.48 2.847-3.888 3.75-2.132 2.57-4.323 5.093-6.482 7.64.494.147 1.096.35 1.31.42M439 1468.501c0 30.098-24.4 54.499-54.501 54.499-30.098 0-54.499-24.4-54.499-54.499 0-30.1 24.4-54.501 54.499-54.501 30.1 0 54.501 24.4 54.501 54.501" fill="#EFCEE1"/>
            <path d="M1331.706 2352.101c-22.975 19.444-57.362 16.58-76.806-6.395-19.444-22.975-16.582-57.362 6.393-76.807 22.975-19.444 57.364-16.582 76.808 6.396 19.444 22.975 16.58 57.362-6.395 76.806" fill="#FAE285"/>
            <path d="M1028.303 2199.122a79.606 79.606 0 0 0-6.297-25.694c-11.942 4.655-23.014 11.392-32.5 20.435-17.35 16.533-29.066 40.569-27.598 64.895.266 4.417.43 11.038 3.761 14.47 3.016 3.105 8.414 3.338 12.421 3.1 11.943-.708 22.557-7.604 30.522-16.154 15.05-16.162 21.293-39.342 19.69-61.052m-153.836-61.1c-4.713 2.632-9.263 5.535-13.58 8.724-21.112 15.589-38.299 36.731-49.49 60.508-4.391 9.33-7.575 20.295-6.481 30.7.234 2.233.675 4.566 1.568 6.642.376.875 1.6 2.658 1.672 2.735 3.008 3.284 7.222 4.473 11.565 4.576 29.79.723 39.667-35.861 46.22-58.41 5.085-17.482 10.132-36.875 8.526-55.475m162.792 30.753c10.112 22.582 12.213 49.3 5.117 72.927-7.918 26.36-28.103 51.822-57.204 54.176-16.205 1.311-30.954-8.029-37.092-23.071-5.675-13.912-5.28-30.686-1.9-45.126 6.662-28.473 26.605-53.722 52.376-67.271 3.983-2.096 8.086-3.872 12.244-5.496a81.34 81.34 0 0 0-12.057-11.934c-31.121-24.945-73.009-26.486-108.677-12.366 2.28 10.008 2.925 20.592 2.042 31.35-1.15 13.959-4.47 27.635-8.35 41.058-4.754 16.452-9.407 34.32-19.86 48.19-8.96 11.894-22.035 20.009-37.169 20.353-14.875.337-28.453-9.07-35.039-22.17-13.093-26.038 1.612-56.815 16.427-78.59 15.488-22.77 36.161-41.93 60.64-54.43-9.336-17.772-29.427-26.928-49.628-26.982-25.95-.07-50.328 15.125-66.827 34.375-3.436 4.01-8.288 2.956-12.031-.34-3.019-2.66-7.426-9.977-4.058-13.907 9.822-11.462 21.034-21.423 34.431-28.503 27.542-14.553 61.382-15.61 87.789 2.388 10.66 7.264 18.57 16.44 24.1 26.807 42.152-15.925 92.49-7.84 126.417 21.096 1.544 4.258 5.194 7.836 9.524 9.183 2.777 3.013 5.417 6.177 7.864 9.53 19.164-4.74 39.35-5.187 58.909-1.81 13.346 2.305 26.979 6.134 39.754 11.776-4.762 4.12-9.374 8.428-13.74 12.953-23.524-8.025-49.845-9.835-74.002-4.166" fill="#C1D5EA"/>
            <path fill="#EFCEE1" d="m526.447 2025 12.205 53.625L590 2099.027l-47.52 28.112-3.647 54.861-41.576-36.249-53.602 13.503 21.826-50.516L436 2062.223l55.065 5.03z"/>
        </g>
    </g>
</svg>
