<svg width="20" height="16" viewBox="0 0 20 16" xmlns="http://www.w3.org/2000/svg" xmlns:xlink="http://www.w3.org/1999/xlink">
    <defs>
        <path id="a" d="M0 0h20v16H0z"/>
    </defs>
    <g fill="none" fill-rule="evenodd">
        <mask id="b" fill="#fff">
            <use xlink:href="#a"/>
        </mask>
        <path d="M1.5 13.09c-.828 0-1.5.652-1.5 1.455C0 15.35.672 16 1.5 16h17c.828 0 1.5-.65 1.5-1.455 0-.803-.672-1.454-1.5-1.454h-17zm0-6.545C.672 6.545 0 7.197 0 8c0 .804.672 1.454 1.5 1.454h17c.828 0 1.5-.65 1.5-1.454 0-.803-.672-1.455-1.5-1.455h-17zM1.5 0C.672 0 0 .65 0 1.454 0 2.258.672 2.91 1.5 2.91h17c.828 0 1.5-.652 1.5-1.456C20 .651 19.328 0 18.5 0h-17z" fill="#020303" mask="url(#b)"/>
    </g>
</svg>
