<svg width="48" height="48" viewBox="0 0 48 48" xmlns="http://www.w3.org/2000/svg">
    <g fill="none" fill-rule="evenodd">
        <path d="M0 0h48v48H0z"/>
        <path d="M46.912 8.535c-.754.334-1.53.617-2.321.846a10.276 10.276 0 0 0 2.09-3.674.776.776 0 0 0-1.133-.902 18.246 18.246 0 0 1-5.401 2.134A10.354 10.354 0 0 0 32.935 4C27.253 4 22.63 8.622 22.63 14.304c0 .447.028.892.084 1.331A26.382 26.382 0 0 1 4.608 6.029a.772.772 0 0 0-1.268.1 10.296 10.296 0 0 0-1.396 5.18c0 2.483.887 4.839 2.452 6.68a8.724 8.724 0 0 1-1.38-.616.774.774 0 0 0-1.15.659v.138c0 3.706 1.995 7.043 5.044 8.861a8.686 8.686 0 0 1-.783-.114.778.778 0 0 0-.726.247.776.776 0 0 0-.157.75 10.303 10.303 0 0 0 7.548 6.907c-2.914 1.825-6.246 2.78-9.744 2.78-.73 0-1.464-.042-2.183-.127a.774.774 0 0 0-.51 1.42 27.787 27.787 0 0 0 15.029 4.405c10.49 0 17.053-4.948 20.71-9.097 4.562-5.175 7.178-12.025 7.178-18.793 0-.283-.004-.568-.012-.853a20.032 20.032 0 0 0 4.61-4.883.774.774 0 0 0-.958-1.138" fill="#020303"/>
    </g>
</svg>
