<svg width="49" height="48" viewBox="0 0 49 48" xmlns="http://www.w3.org/2000/svg">
    <g fill="none" fill-rule="evenodd">
        <path d="M5.692 12.833a1.883 1.883 0 0 0-.604-1.579L.604 5.813V5h13.915l10.757 23.771L34.732 5H48v.813l-3.833 3.699a1.13 1.13 0 0 0-.425 1.084v27.202c-.07.412.094.829.425 1.085l3.744 3.7v.816H29.088v-.813l3.875-3.792c.381-.384.381-.497.381-1.083V15.723l-10.78 27.586H21.11L8.557 15.723v18.489c-.102.778.155 1.56.697 2.122l5.042 6.163v.812H0v-.812l5.039-6.163a2.472 2.472 0 0 0 .653-2.122V12.833z" fill="#020303"/>
        <path d="M.245 0h48v48h-48z"/>
    </g>
</svg>
