<svg width="48" height="48" viewBox="0 0 48 48" xmlns="http://www.w3.org/2000/svg" xmlns:xlink="http://www.w3.org/1999/xlink">
    <defs>
        <path id="ri88wudjta" d="M0 0h48v43.2H0z"/>
    </defs>
    <g fill="none" fill-rule="evenodd">
        <path d="M0 0h48v48H0z"/>
        <path d="M3.152 27.2h10.416a.344.344 0 0 0 .288-.152c.136-.208.264-.424.38-.644.9-1.512 1.7-3.148 1.992-4.356.684-2.936-.776-7.652-2.468-11.444a.346.346 0 0 0-.608-.044L3.024 26.404l-.168.264a.346.346 0 0 0 .296.532" fill="#000"/>
        <g transform="translate(0 2)">
            <mask id="ygj4evpm6b" fill="#fff">
                <use xlink:href="#ri88wudjta"/>
            </mask>
            <path d="M47.556 27.276 35.712 30.7a.333.333 0 0 0-.164.1c-1.3 1.436-2.4 2.388-2.652 2.608a4.011 4.011 0 0 1-2.608.964H26V30h3.408a.359.359 0 0 0 .236-.088l.44-.404c.188-.172.412-.38.68-.648.16-.16.336-.332.508-.524.176-.172.348-.364.508-.552.268-.288.524-.588.792-.904.192-.208.368-.444.54-.68.192-.224.38-.476.556-.716.128-.188.272-.38.412-.584.128-.192.256-.396.364-.588.336-.52.62-1.076.86-1.632.124-.268.22-.552.316-.824.096-.284.176-.552.236-.836a6.46 6.46 0 0 0 .112-1.996 3.664 3.664 0 0 0-.08-.604v-.032a2.412 2.412 0 0 0-.092-.428 10.178 10.178 0 0 0-.652-1.932 11.105 11.105 0 0 0-.316-.696A18.052 18.052 0 0 0 34 13.92c-.108-.172-.236-.348-.348-.52-.236-.364-.508-.712-.76-1.048-.192-.252-.412-.504-.62-.76a29.38 29.38 0 0 0-.62-.728c-.744-.84-1.524-1.6-2.22-2.248a7.596 7.596 0 0 0-.412-.38c-.54-.492-1.032-.92-1.444-1.252-.208-.16-.38-.316-.54-.444-.204-.152-.364-.276-.476-.36a.362.362 0 0 0-.104-.052L26 6V2.224c0-.616-.248-1.168-.644-1.572A2.172 2.172 0 0 0 23.8 0c-1.216 0-2.2.996-2.2 2.224v2.544l-.228-.064-.62-.176-.564-.156c-.004 0-.008-.004-.016-.004h-.012l-4.28-1.16a.223.223 0 0 0-.252.324l.684 1.264c.064.16.156.32.236.492.112.224.224.46.332.696.096.208.192.412.304.636.22.492.46 1.012.696 1.584.16.38.32.76.46 1.156.384.996.748 2.06 1.064 3.152.112.348.192.68.288 1.028l.044.192c.128.508.24 1.012.32 1.52.064.348.124.68.156 1.016.048.38.096.76.112 1.14.032.348.048.712.048 1.06 0 .888-.08 1.744-.268 2.552-.064.236-.128.488-.208.728-.08.284-.192.568-.3.872-.064.172-.128.348-.208.52-.396.952-.888 1.9-1.396 2.788a40.348 40.348 0 0 1-2.016 3.216c-.072.108-.14.204-.2.296a.357.357 0 0 0 .288.56H21.6v4.372H16a3.98 3.98 0 0 1-3.568-2.216 3.861 3.861 0 0 1-.404-2.172c.02-.22-.144-.428-.368-.428H.348a.348.348 0 0 0-.348.348v.232C0 37.352 5.828 43.2 13.02 43.2h20.292c4.864 0 7.04-5.668 9.888-9.632 1.116-1.552 3.8-2.784 4.584-3.12A.36.36 0 0 0 48 30.12v-2.508a.35.35 0 0 0-.444-.336" fill="#000" mask="url(#ygj4evpm6b)"/>
        </g>
    </g>
</svg>
