<svg width="48" height="48" viewBox="0 0 48 48" xmlns="http://www.w3.org/2000/svg">
    <g fill="none" fill-rule="evenodd">
        <path d="M0 0h48v48H0z"/>
        <path d="M31.974 30.331c-2.37 0-4.314-2.213-4.314-4.909 0-2.695 1.902-4.912 4.314-4.912 2.413 0 4.357 2.213 4.315 4.912 0 2.696-1.902 4.909-4.315 4.909m-15.946 0c-2.371 0-4.316-2.213-4.316-4.909 0-2.695 1.903-4.912 4.316-4.912 2.412 0 4.356 2.213 4.314 4.912.004 2.696-1.902 4.909-4.314 4.909M40.662 8.112A39.158 39.158 0 0 0 30.759 5a28.625 28.625 0 0 0-1.268 2.634 36.385 36.385 0 0 0-10.976 0A28.483 28.483 0 0 0 17.232 5a38.976 38.976 0 0 0-9.91 3.12C1.054 17.591-.645 26.826.204 35.93c4.158 3.104 8.186 4.989 12.146 6.223a30.245 30.245 0 0 0 2.602-4.283 25.604 25.604 0 0 1-4.097-1.994c.344-.254.68-.521 1.005-.795 7.897 3.694 16.478 3.694 24.282 0 .329.274.665.541 1.005.795a25.403 25.403 0 0 1-4.105 1.997 30.11 30.11 0 0 0 2.602 4.284c3.964-1.234 7.996-3.119 12.153-6.227.996-10.554-1.703-19.704-7.135-27.818" fill="#020303"/>
    </g>
</svg>
