<svg width="192" height="200" viewBox="0 0 192 200" xmlns="http://www.w3.org/2000/svg" xmlns:xlink="http://www.w3.org/1999/xlink">
    <defs>
        <path id="a" d="M0 0h52.328v49.38H0z"/>
        <path id="c" d="M0 0h163.068v166.848H0z"/>
    </defs>
    <g fill="none" fill-rule="evenodd">
        <path d="M79.247 176.923c-1.771 1.89-5.801.995-9.004-2.005l-46.84-43.864c-3.203-3.001-4.36-6.963-2.59-8.854 1.77-1.89 5.8-.995 9.004 2.006l46.839 43.864c3.203 3 4.36 6.962 2.59 8.853" fill="#EFEFEF"/>
        <path d="M72.834 183.77c-1.77 1.89-5.8.993-9.002-2.006L16.992 137.9c-3.203-3-4.361-6.962-2.592-8.851 1.77-1.89 5.8-.995 9.004 2.006l46.839 43.863c3.203 3 4.362 6.963 2.59 8.853" fill="#D6D6D6"/>
        <path d="M66.421 190.617c-1.77 1.89-5.8.994-9.002-2.006l-46.84-43.865c-3.203-3-4.36-6.962-2.592-8.853 1.77-1.888 5.802-.994 9.004 2.006l46.84 43.865c3.203 3 4.36 6.963 2.59 8.853" fill="#EFEFEF"/>
        <path d="M60.01 197.464c-1.772 1.89-5.8.995-9.004-2.005L4.167 151.594c-3.204-3-4.362-6.962-2.592-8.853 1.77-1.89 5.801-.995 9.004 2.005l46.84 43.865c3.202 3 4.36 6.963 2.59 8.853" fill="#D6D6D6"/>
        <g transform="translate(0 150.357)">
            <mask id="b" fill="#fff">
                <use xlink:href="#a"/>
            </mask>
            <path fill="#EFEFEF" mask="url(#b)" d="M27.588 23.171 2.846 0 0 3.04l6.083 12.633 15.197 14.233 15.2 14.234 13.004 5.24 2.846-3.04z"/>
        </g>
        <path d="M75.123 166.635s5.594-6.246 16.05-9.47c10.46-3.221 43.324.746 76.589-30.137 32.602-30.272 27.936-68.205-4.254-98.935l.01-.012c-.332-.316-.667-.613-.996-.925-.331-.306-.65-.622-.985-.931l-.011.012C128.75-3.873 90.593-6.045 62.522 28.472 33.886 63.689 39.996 96.22 37.466 106.87c-2.531 10.645-8.397 16.636-8.397 16.636l46.054 43.129z" fill="#F8C558"/>
        <g transform="translate(28.847)">
            <mask id="d" fill="#fff">
                <use xlink:href="#c"/>
            </mask>
            <path d="M136.382 26.29c3.207 3.304 6.429 6.586 9.275 10.23 1.529 1.729 2.814 3.656 4.146 5.543l1.981 2.843 1.749 3.003 1.745 3.001c.543 1.024.996 2.101 1.495 3.144 1.005 2.096 1.982 4.201 2.666 6.433.792 2.191 1.555 4.387 1.996 6.686l.788 3.407c.216 1.147.292 2.314.446 3.473l.399 3.476v3.506c-.019 1.167.027 2.336-.046 3.501l-.428 3.479c-.183 2.334-.765 4.596-1.353 6.848-.461 2.297-1.364 4.446-2.189 6.618-.732 2.219-1.886 4.234-2.948 6.292-.983 2.111-2.313 4.002-3.604 5.918-.651.95-1.26 1.932-1.951 2.859l-2.221 2.685c-1.472 1.809-2.948 3.599-4.589 5.116-1.662 1.572-3.061 3.195-4.944 4.733l-5.222 4.418-5.523 4.045c-1.851 1.329-3.838 2.463-5.75 3.7a103.395 103.395 0 0 1-12.156 6.247c-4.178 1.814-8.494 3.291-12.863 4.555-4.396 1.146-8.824 2.187-13.316 2.825-4.479.697-8.984 1.154-13.466 1.579-2.252.242-4.437.438-6.618.902-1.123.207-2.116.548-3.187.936-1.053.36-2.11.718-3.11 1.212-4.053 1.807-7.929 4.206-11.082 7.345l-.453-.426c3.17-3.306 7.04-5.82 11.148-7.77 1.012-.529 2.084-.924 3.155-1.313 1.039-.412 2.171-.816 3.266-1.044 2.215-.529 4.528-.789 6.745-1.082 4.483-.529 8.937-1.085 13.346-1.876 4.427-.734 8.758-1.855 13.052-3.081 4.26-1.342 8.454-2.884 12.5-4.753a101.917 101.917 0 0 0 11.733-6.373c1.838-1.258 3.753-2.403 5.53-3.741l5.294-4.067 4.997-4.428c1.595-1.341 3.134-3.169 4.707-4.728 1.644-1.582 2.998-3.302 4.339-5.017l2.046-2.559c.641-.889 1.2-1.838 1.808-2.754 1.196-1.845 2.436-3.665 3.322-5.675.966-1.966 2.035-3.884 2.675-5.979.738-2.052 1.562-4.08 1.946-6.232.511-2.114 1.028-4.229 1.151-6.407l.346-3.238c.047-1.082-.016-2.17-.017-3.256l-.052-3.256-.435-3.228c-.159-1.074-.242-2.159-.464-3.222l-.795-3.166c-.438-2.134-1.194-4.181-1.972-6.219-.671-2.075-1.63-4.045-2.607-5.997-.491-.979-.925-1.979-1.455-2.937l-1.706-2.809-1.699-2.813-1.933-2.665c-1.296-1.774-2.54-3.583-4.036-5.211-2.766-3.425-5.919-6.517-9.042-9.634l-1.731-1.73 1.633-1.77.011-.012.096 3.501-1.968-1.807 3.544-.13-.012.012-1.608 1.758-1.93-1.624c-3.37-2.848-6.716-5.717-10.358-8.177-1.739-1.345-3.643-2.426-5.513-3.561l-2.807-1.688-2.928-1.444-2.924-1.446c-.988-.445-2.015-.789-3.024-1.188-2.012-.8-4.026-1.579-6.129-2.058-2.069-.595-4.141-1.168-6.269-1.412l-3.165-.513c-1.059-.13-2.13-.111-3.192-.185l-3.184-.172-3.178.213c-1.057.082-2.121.105-3.168.237l-3.125.597c-2.106.288-4.116.957-6.128 1.625-2.058.54-3.961 1.504-5.906 2.35-1.992.758-3.787 1.935-5.633 3.009-1.892.992-3.579 2.329-5.3 3.621-.85.653-1.737 1.26-2.565 1.949l-2.385 2.197c-1.606 1.446-3.196 2.91-4.606 4.578-1.413 1.612-3.069 3.175-4.3 4.833l-4.165 5.324-3.633 5.388c-1.198 1.807-2.217 3.772-3.342 5.655a99.766 99.766 0 0 0-5.565 11.925c-1.579 4.103-2.895 8.305-4.017 12.571-1.001 4.3-1.904 8.643-2.413 13.062-.574 4.416-.895 8.867-1.219 13.376-.208 2.264-.371 4.525-.826 6.857-.136.6-.208 1.131-.399 1.775l-.532 1.608c-.345 1.069-.688 2.142-1.192 3.217-1.815 4.287-4.203 8.225-7.442 11.511L0 123.289c2.775-3.446 4.78-7.562 6.182-11.665.388-1 .652-2.099.917-3.198l.406-1.646c.094-.439.139-1.033.213-1.541.253-2.122.249-4.376.28-6.61.041-4.492.143-9.05.475-13.605.273-4.562.956-9.107 1.756-13.638.489-2.245.965-4.506 1.542-6.739.674-2.205 1.245-4.448 2.066-6.608a105.473 105.473 0 0 1 5.46-12.735c1.119-2.022 2.118-4.099 3.345-6.087l3.755-5.94 3.996-5.453c1.402-2.001 3.005-3.597 4.506-5.416 1.469-1.816 3.193-3.406 4.918-4.996l2.569-2.404c.894-.76 1.861-1.445 2.791-2.168 1.872-1.435 3.718-2.907 5.81-4.047 2.037-1.215 4.023-2.517 6.249-3.406 2.165-.993 4.315-2.027 6.642-2.617 2.279-.722 4.557-1.43 6.939-1.744L74.348.41c1.18-.134 2.378-.155 3.567-.231L81.487 0l3.562.223c1.185.092 2.378.119 3.551.288l3.496.633c2.35.336 4.613 1.003 6.861 1.704 2.292.586 4.462 1.475 6.622 2.385 1.08.456 2.185.858 3.238 1.36l3.101 1.615 3.101 1.615 2.947 1.857c1.956 1.25 3.946 2.448 5.752 3.896 3.783 2.681 7.215 5.757 10.664 8.808l-3.539.134.011-.012 1.756-1.836 1.789 1.709 1.992 1.901 1.797 1.719-1.806-1.709z" fill="#FFF" mask="url(#d)"/>
        </g>
        <path d="M79.342 83.208c-8.14 5.128-16.448 15.437-16.973 18.477.647-.106 2.18-.578 5.375-2.52 8.365-5.09 10.964-11.33 11.598-15.957zm27.234 27.127c-8.49 1.503-18.71 10.224-19.44 14.153-.089.459.021.528.122.592 2.087 1.22 6.068 1.355 10.263-1.095 2.377-1.387 7.232-5.181 9.055-13.65zM92.982 97.783c-5.33 2.292-11.072 6.154-14.97 10.117-3.264 3.319-3.566 5.095-3.413 5.456.487 1.142 2.531 1.34 5.098.48 5.083-1.705 11.507-7.187 13.285-16.053zM35.91 129.912c.14-.371 13.866-36.713 25.664-56.894 4.272-7.304 9.017-7.69 11.466-7.265 4.417.76 8.141 5.244 9.27 11.152.072.396.135.798.185 1.204 1.877-.701 3.701-1.052 5.388-.936 2.651.18 6.128 1.62 7.623 7.472.778 3.047 1.108 5.9 1.084 8.548 3.21-.82 6.205-.933 8.597.026 2.331.928 5.133 3.302 5.224 9.293a40.097 40.097 0 0 1-.17 4.519c3.718.33 6.595 2.209 8.441 5.529 1.102 1.995 1.27 4.263.496 6.747-5.02 16.083-49.986 38.987-51.939 39.954l-2.782-2.607c.466-.232 47.11-23.466 51.734-38.278.518-1.66.437-3.067-.246-4.296-1.33-2.41-3.393-3.723-6.135-3.94-1.917 10.258-7.859 14.878-10.714 16.547-4.643 2.713-9.908 3.14-13.412 1.094-1.35-.792-1.935-2.192-1.62-3.864 1.034-5.576 12.714-15.162 22.24-16.71.265-.042.53-.08.79-.111.145-1.404.218-2.913.19-4.533-.05-3.474-1.109-5.583-3.259-6.442-1.899-.76-4.617-.516-7.657.41-1.438 11.226-9.443 18.176-15.674 20.268-4.346 1.456-7.788.593-8.979-2.23-.92-2.196.448-5.177 4.07-8.86 4.193-4.27 11.088-9.05 17.641-11.51.134-2.678-.139-5.607-.952-8.782-1.048-4.122-3.234-5.696-6.865-4.96-.959.193-1.954.528-2.977.978-.266 6.728-3.812 14.653-13.264 20.403-4.909 2.986-7.67 3.694-9.237 2.36-1.068-.934-1.195-2.425-.355-4.482 2.047-5.02 11.025-15.534 19.708-20.222a16.328 16.328 0 0 0-.248-2.002c-.882-4.638-3.588-8.121-6.726-8.66-2.854-.49-5.775 1.559-8.237 5.763-11.664 19.952-25.56 57.439-25.697 57.804l-2.666-2.487z" fill="#FE875E"/>
        <path d="M125.362 21.352c-.07-4.457-7.473-7.963-16.536-7.825-9.066.138-16.362 3.863-16.294 8.324.068 4.46 7.47 7.966 16.535 7.829 9.066-.137 16.362-3.863 16.295-8.328" fill="#FFF"/>
    </g>
</svg>
