<svg width="60" height="60" viewBox="0 0 60 60" xmlns="http://www.w3.org/2000/svg" xmlns:xlink="http://www.w3.org/1999/xlink">
    <defs>
        <path id="a" d="M0 0h34.132v20H0z"/>
    </defs>
    <g fill="none" fill-rule="evenodd">
        <g transform="translate(13 20)">
            <mask id="b" fill="#fff">
                <use xlink:href="#a"/>
            </mask>
            <path d="M17.103 20a2.94 2.94 0 0 0 2.04-.847L33.265 5.032a2.944 2.944 0 0 0-1.31-4.93 2.945 2.945 0 0 0-2.847.756L17.066 12.901 5.022.858A2.947 2.947 0 0 0 .1 2.19c-.27 1.018.023 2.1.768 2.843l14.121 14.121h.001c.563.554 1.324.86 2.114.847z" fill="#EE7862" mask="url(#b)"/>
        </g>
        <path d="M0 0h60v60H0z"/>
    </g>
</svg>
