<svg width="340" height="340" viewBox="0 0 340 340" xmlns="http://www.w3.org/2000/svg" xmlns:xlink="http://www.w3.org/1999/xlink">
    <defs>
        <path id="a" d="M0 0h110.493v189.613H0z"/>
        <path id="c" d="M0 0h110.493v189.613H0z"/>
        <path id="e" d="M0 196.317h264.47V0H0z"/>
        <path id="g" d="M0 0h13.983v50.484H0z"/>
        <path id="i" d="M0 0h6.992v50.484H0z"/>
    </defs>
    <g fill="none" fill-rule="evenodd">
        <path d="M0 0h340v340H0z"/>
        <g transform="translate(39 63)">
            <path d="M259.28 196.317H132.236V32.724h124.257a7.976 7.976 0 0 1 7.976 7.976v150.427a5.19 5.19 0 0 1-5.19 5.19" fill="#40322F"/>
            <path d="M132.235 196.317H5.19a5.19 5.19 0 0 1-5.19-5.19V40.7a7.976 7.976 0 0 1 7.977-7.976h124.258v163.593z" fill="#151515"/>
            <path d="M132.235 189.613H5.19a5.19 5.19 0 0 1-5.19-5.19V34.31a7.976 7.976 0 0 1 7.956-7.976l124.28-.315v163.594zM132.236 189.613V26.02l124.278.315a7.976 7.976 0 0 1 7.955 7.976v150.113a5.19 5.19 0 0 1-5.19 5.19H132.236z" fill="#4A4A4A"/>
            <path d="M12.02 177.941V13.018S97.393 8.3 130.958 36.613c0 62.785 1.277 153 1.277 153S60.6 169.3 12.02 177.941zM252.45 177.941V13.018S167.077 8.3 133.512 36.613c0 62.785-1.277 153-1.277 153s71.636-20.314 120.215-11.672z" fill="#CCC7C2"/>
            <g transform="translate(21.742)">
                <mask id="b" fill="#fff">
                    <use xlink:href="#a"/>
                </mask>
                <path d="M110.493 26.552S97.167 0 0 0v164.082s66.539-2.042 110.493 25.532V26.553z" fill="#EDECEB" mask="url(#b)"/>
            </g>
            <g transform="translate(132.235)">
                <mask id="d" fill="#fff">
                    <use xlink:href="#c"/>
                </mask>
                <path d="M0 26.552S13.325 0 110.493 0v164.082S43.954 162.04 0 189.613V26.553z" fill="#EDECEB" mask="url(#d)"/>
            </g>
            <path d="m150.55 156.712-.764-1.691c.38-.172 38.465-17.157 74.211-13.822l-.172 1.847c-35.262-3.291-72.899 13.496-73.275 13.666M150.55 163.8l-.764-1.69c.38-.172 38.465-17.158 74.211-13.822l-.172 1.848c-35.263-3.293-72.899 13.495-73.275 13.665M114.107 37.114c-.376-.17-38.027-16.955-73.274-13.665l-.173-1.848c35.747-3.336 73.831 13.65 74.212 13.822l-.765 1.691zM114.107 44.203c-.376-.17-38.027-16.955-73.274-13.665l-.173-1.848c35.747-3.336 73.831 13.65 74.212 13.822l-.765 1.691zM114.107 51.879c-.376-.17-38.027-16.954-73.274-13.665l-.173-1.848c35.747-3.337 73.831 13.65 74.212 13.822l-.765 1.691zM114.107 69.659c-.376-.17-38.027-16.954-73.274-13.665l-.173-1.847c35.747-3.337 73.831 13.649 74.212 13.82l-.765 1.692zM114.107 76.749c-.376-.17-38.027-16.955-73.274-13.665l-.173-1.848c35.747-3.337 73.831 13.649 74.212 13.822l-.765 1.69zM114.107 84.424c-.376-.17-38.027-16.955-73.274-13.665l-.173-1.847c35.747-3.337 73.831 13.649 74.212 13.82l-.765 1.692z" fill="#000"/>
            <mask id="f" fill="#fff">
                <use xlink:href="#e"/>
            </mask>
            <path fill="#000" mask="url(#f)" d="M40.824 148.776h1.856V87.15h-1.856z"/>
            <path d="M85.52 145.734c-.473 0-.939-.083-1.398-.249-4.689-1.702-7.153-11.759-9.762-22.407-1.296-5.289-2.52-10.285-3.926-13.617-.592-1.402-1.422-2.15-2.538-2.286-5.492-.663-16.389 12.149-20.123 17.145l-1.486-1.111c1.44-1.927 14.278-18.793 21.834-17.876 1.808.22 3.162 1.366 4.022 3.405 1.464 3.469 2.706 8.535 4.02 13.899 2.154 8.795 4.836 19.741 8.592 21.103.858.311 1.79.083 2.851-.697 9.21-6.779 19.88-18.123 19.985-18.237l1.354 1.269c-.108.115-10.893 11.583-20.238 18.462-1.083.798-2.15 1.197-3.187 1.197" fill="#E06C61" mask="url(#f)"/>
            <path d="M114.107 138.651c-.376-.17-38.027-16.955-73.274-13.665l-.173-1.848c35.747-3.336 73.831 13.65 74.212 13.822l-.765 1.691z" fill="#000" mask="url(#f)"/>
            <path fill="#E06C61" mask="url(#f)" d="M150.826 71.025v67.731l9.499-3.613v-68.57z"/>
            <path fill="#5472D6" mask="url(#f)" d="M192.343 56.656v67.731l9.499-1.683v-70.5z"/>
            <path fill="#E06C61" mask="url(#f)" d="M178.778 79.896v47.877l9.5-2.554V76.75z"/>
            <path fill="#5472D6" mask="url(#f)" d="M164.48 39.346v94.192l9.5-4.356V33.154z"/>
            <path d="m223.824 23.45.173-1.849c-12.174-1.136-24.586.107-35.72 2.218v1.883c11.07-2.122 23.434-3.384 35.547-2.253M188.277 30.908v1.884c11.07-2.122 23.435-3.384 35.548-2.254l.173-1.847c-12.174-1.137-24.586.106-35.721 2.217" fill="#000" mask="url(#f)"/>
        </g>
        <g transform="rotate(30 -304.199 590.239)">
            <mask id="h" fill="#fff">
                <use xlink:href="#g"/>
            </mask>
            <path d="M13.983 0v47.179a3.305 3.305 0 0 1-3.305 3.305H3.304A3.305 3.305 0 0 1 0 47.179V0h13.983z" fill="#E67259" mask="url(#h)"/>
        </g>
        <path d="m266.474 238.168 38.89-67.36a1.08 1.08 0 0 0-.395-1.475l-10.24-5.912a1.08 1.08 0 0 0-1.475.396l-38.89 67.36 12.11 6.99z" fill="#8E5F98"/>
        <path d="m294.52 163.3 13.766-14.44c.671-.705 1.844-.072 1.622.876l-4.624 19.78-10.765-6.216z" fill="#F7EDD5"/>
        <path d="m253.523 277.072 20.513-39.783-1.494-.862-21.86 37.864-8.635.859.38 3.831 9.618-.956a1.926 1.926 0 0 0 1.478-.953" fill="#40322F"/>
        <path d="m266.474 238.168 38.89-67.36a1.08 1.08 0 0 0-.395-1.475l-5.12-2.956-39.43 68.295 6.055 3.496z" fill="#763283"/>
        <g transform="rotate(30 -307.694 603.284)">
            <mask id="j" fill="#fff">
                <use xlink:href="#i"/>
            </mask>
            <path d="M6.992 0v47.179a3.305 3.305 0 0 1-3.305 3.305H0V0h6.992z" fill="#D8503A" mask="url(#j)"/>
        </g>
        <path d="m304.987 152.32 3.803 2.197 1.118-4.78c.221-.948-.95-1.582-1.622-.877l-3.3 3.46z" fill="#40322F"/>
    </g>
</svg>
