<svg width="240" height="320" viewBox="0 0 240 320" xmlns="http://www.w3.org/2000/svg" xmlns:xlink="http://www.w3.org/1999/xlink">
    <defs>
        <path id="a" d="M0 0h20.384v28.36H0z"/>
        <path id="c" d="M0 0h171.458v230.798H0z"/>
    </defs>
    <g fill="none" fill-rule="evenodd">
        <path fill="#FEC65E" d="M40 320h156v-12H40z"/>
        <path fill="#FE875E" d="M117.5 291 40 308h155z"/>
        <path fill="#FEC65E" d="M102 294h31v-14h-31zM102 267h31v-14h-31z"/>
        <path fill="#FE875E" d="M109 281h18v-14h-18z"/>
        <path d="m90.891 229.91-8.65-3.796a.796.796 0 0 0-1.048.407L71.05 249.499c-.177.401.006.869.408 1.046l8.65 3.795a.796.796 0 0 0 1.048-.406l10.143-22.979a.792.792 0 0 0-.408-1.045" fill="#FAE0B2"/>
        <g transform="translate(160.166 24)">
            <mask id="b" fill="#fff">
                <use xlink:href="#a"/>
            </mask>
            <path d="m9.125 28.293-8.65-3.795a.792.792 0 0 1-.407-1.046L10.21.474A.796.796 0 0 1 11.26.067l8.65 3.796a.792.792 0 0 1 .407 1.045L10.174 27.887a.797.797 0 0 1-1.049.406" fill="#FAE0B2" mask="url(#b)"/>
        </g>
        <g transform="translate(64.542 24.202)">
            <mask id="d" fill="#fff">
                <use xlink:href="#c"/>
            </mask>
            <path d="M50.765 230.798c-16.516 0-32.999-3.424-48.57-10.258a3.662 3.662 0 0 1-1.883-4.83 3.677 3.677 0 0 1 4.846-1.879c27.698 12.16 58.491 12.83 86.701 1.896 28.21-10.936 50.459-32.169 62.65-59.79 25.169-57.018-.88-123.82-58.065-148.915a3.662 3.662 0 0 1-1.884-4.83A3.677 3.677 0 0 1 99.406.312c60.895 26.723 88.633 97.86 61.831 158.577-12.982 29.412-36.675 52.023-66.714 63.668-14.183 5.496-28.984 8.24-43.758 8.24" fill="#FEC65E" mask="url(#d)"/>
        </g>
        <path d="M36.595 191.894c.31 6.048 0 16.738 0 16.738l-.024.024C16.489 189.37 4 162.324 4 132.348c0-2.904.12-5.785.358-8.618h.024c0 .619.143 4.88 4.06 8.618 4.226 4.024 6.04 5.524 9.073 7.19 3.033 1.667 12.107 7.096 12.107 7.096s1.839.595 6.973 7.238c5.134 6.642 9.981 9.07 11.199 12.69 1.218 3.619 3.63 6.928 3.63 6.928s-9.074 12.38-10.89 13.595c-1.814 1.19-4.226-1.214-3.94 4.81M147.68 73.588v-9.642c-3.63 0 1.814-4.238-3.63 0-5.444 4.214-7.26 9.047-8.477 10.857-1.218 1.809-4.06 3.023-4.06 3.023l16.167-4.238zm.597 150.306c1.17 6.261 3.916 5.595 4.274 5.475v.024c-12.99 5.643-27.342 8.786-42.41 8.786 0 0 3.63-5.238 6.568-11.262 2.913-6.047-.502-4.238-1.72-16.309-1.217-12.07 0 0 .764-1.81.788-1.809 1.648-7.237 0-12.07-1.504-4.429-.262-3.786-.023-3.643-.693-.62-11.749-10.428-15.283-16.19-1.337-2.214-2.03-3.31-2.34-3.762.143-1.167.525-4.762.525-7.19 0-2.405-6.638-1.19-8.453-1.19-1.839 0-9.098 1.809-13.993 2.404-4.919.595-7.808 12.666-7.808 9.047 0-3.618-3.033-2.404-4.25-2.714-1.195-.286-3.01-3.928-4.228-6.928-1.217-3.024-3.032-1.81-5.444-4.834-2.435-3.023-4.25-4.237-6.662-10.88-2.436-6.619-4.25-4.214-9.074-13.88-4.848-9.643 0 0 1.194-4.62 1.218-4.618 3.032-2.618 7.33-6.237 4.275-3.62 5.994-1.215 5.994-1.215s4.227 3.024 6.662 7.453c2.412 4.428 10.292 3.428 10.292 3.428l-1.814-5.428c-.43-1.262-.645-1.953-.764-2.286l-.096-.31c-.072-.214-.191-.523-.358-1.047-1.218-3.62-8.477-12.667-2.412-19.31 6.041-6.642 6.041-4.213 10.292-10.856 4.226-6.643 8.477-4.833 13.3-4.238 4.848.619 3.654.619 11.51 0 7.88-.595 9.074-.595 11.51-9.047 2.412-8.452 0 0-1.218-7.857-1.218-7.833 0-6.619 0-13.333s-3.033-.548-7.26 0c-4.25.524-5.444.666-7.88 2.476-2.411 1.81-6.04 6.643-10.888 7.857-4.848 1.19-3.033 0-9.695-2.453-6.662-2.452 0-6 1.218-11.428 1.218-5.452 5.874 0 5.874 0s2.006-2.428 5.635-4.833c3.63-2.429 6.042-1.214 12.107-4.905 6.042-3.69 2.412 1.881 10.889 0 8.477-1.88 4.847-3.952 4.847-3.952V40.9s-6.065.714-11.51.095c-5.444-.595-15.139 1.214-23.592 5.166-8.477 3.953-5.468 2.69-7.88.953-2.412-1.738-16.357-.667-24.762 0 17.598-12.952 39.352-20.595 62.897-20.595 28.941 0 55.184 11.524 74.311 30.261-1.385-1.166-14.375 3.572-15.593 7.167-1.194 3.619.621 4.833-3.63 9.047-4.226 4.238-4.226 4.238-13.92 7.857-9.695 3.619-8.478-1.81-13.922 6.643-5.445 8.428-6.662 10.237-5.445 14.475 1.218 4.215-.62 11.476 7.857 9.048 8.477-2.405 5.468-10.262 14.542-7.238 9.074 3.023 17.408 3.619 17.408 3.619s-3.152-9.048 0-10.857c3.176-1.81 8.954 1.19 12.727 4.214 3.773 3.024 3.773 2.429 6.185 6.047 2.412 3.62 4.847 5.19 6.662 4.69 1.815-.475 8.477-10.118 8.477-10.118l3.916-5.762a105.368 105.368 0 0 1 6.304 29.261h-.024c-6.566-4.19-7.784-3.595-18.076-3.595-10.292 0-11.51 2.357-20.584-.024-9.074-2.38-8.477-4.19-19.365-3.595-10.89.596-9.074-1.357-15.737 3.548-6.662 4.905-10.292-.119-12.106 11.143-1.815 11.261-4.848 9.452 0 19.118 4.847 9.643 4.847 7.833 9.67 17.5 4.848 9.666 8.478 1.809 6.663 15.69-1.815 13.88-1.815 16.309-1.815 18.713 0 2.429-1.218 9.667-1.218 12.69 0 3 3.606 1.096 4.848 7.834z" fill="#466EB6"/>
        <path d="M115.754 208.799c-.765 1.81-1.982-10.262-.765 1.81 1.218 12.07 4.633 10.26 1.72 16.308-2.937 6.024-6.567 11.262-6.567 11.262-28.583 0-54.492-11.238-73.571-29.523l.024-.024s.31-10.69 0-16.737c-.287-6.024 2.125-3.62 3.94-4.81 1.815-1.214 10.888-13.595 10.888-13.595s-2.411-3.31-3.629-6.928c-1.218-3.62-6.065-6.048-11.2-12.69-5.133-6.643-6.972-7.238-6.972-7.238s-9.074-5.429-12.107-7.095c-3.032-1.667-4.847-3.167-9.073-7.19-3.917-3.739-4.06-8-4.06-8.62h-.024c2.531-31.427 18.84-58.974 42.887-76.616 8.405-.667 22.35-1.738 24.762 0 2.412 1.738-.597 3 7.88-.953 8.453-3.952 18.148-5.761 23.593-5.166 5.444.619 11.51-.095 11.51-.095v3.928s3.629 2.072-4.848 3.952c-8.477 1.881-4.847-3.69-10.889 0-6.065 3.69-8.477 2.477-12.106 4.905-3.63 2.405-5.636 4.833-5.636 4.833s-4.656-5.452-5.874 0c-1.218 5.429-7.88 8.976-1.218 11.428 6.662 2.453 4.847 3.643 9.695 2.453 4.847-1.215 8.477-6.048 10.889-7.857 2.435-1.81 3.63-1.953 7.88-2.476 4.226-.548 7.259-6.714 7.259 0s-1.218 5.5 0 13.333c1.218 7.857 3.63-.596 1.218 7.857-2.436 8.452-3.63 8.452-11.51 9.047-7.856.62-6.662.62-11.51 0-4.823-.595-9.074-2.405-13.3 4.238-4.25 6.643-4.25 4.214-10.292 10.857-6.065 6.643 1.194 15.69 2.412 19.309.167.524.286.833.358 1.047l.096.31c.119.333.334 1.024.764 2.286l1.814 5.428s-7.88 1-10.292-3.428c-2.435-4.429-6.662-7.453-6.662-7.453s-1.719-2.404-5.993 1.214c-4.299 3.62-6.113 1.62-7.331 6.239-1.194 4.618-6.042-5.024-1.194 4.618 4.823 9.667 6.638 7.262 9.074 13.881 2.412 6.643 4.227 7.857 6.662 10.88 2.412 3.024 4.227 1.81 5.444 4.834 1.218 3 3.033 6.642 4.227 6.928 1.218.31 4.25-.905 4.25 2.714 0 3.62 2.89-8.452 7.81-9.047 4.894-.595 12.153-2.405 13.992-2.405 1.815 0 8.453-1.214 8.453 1.19 0 2.43-.382 6.024-.525 7.19-.167-.237-.239-.308-.263-.285 0 .096.191.524.191.643.024-.024.048-.167.072-.357.31.452 1.003 1.548 2.34 3.762 3.534 5.762 14.59 15.57 15.283 16.19-.24-.143-1.48-.786.024 3.643 1.647 4.833.787 10.261 0 12.07M152.551 229.37c-.358.119-3.104.785-4.274-5.476-1.242-6.739-4.848-4.834-4.848-7.834 0-3.023 1.218-10.261 1.218-12.69 0-2.405 0-4.833 1.815-18.714 1.815-13.88-1.815-6.023-6.662-15.69-4.824-9.666-4.824-7.856-9.671-17.5-4.848-9.665-1.815-7.856 0-19.118 1.815-11.261 5.444-6.238 12.106-11.142 6.662-4.905 4.848-2.952 15.737-3.547 10.888-.596 10.291 1.214 19.365 3.595 9.074 2.38 10.292.023 20.584.023s11.51-.595 18.076 3.596h.024c.167 2.476.263 4.952.263 7.475 0 43.428-26.22 80.736-63.733 97.045v-.024zM144.05 63.946c5.444-4.238 0 0 3.63 0v9.642l-16.166 4.238s2.841-1.214 4.06-3.024c1.217-1.809 3.032-6.642 8.476-10.856M209.717 95.588v.023l-3.916 5.762s-6.662 9.643-8.477 10.119c-1.815.5-4.25-1.072-6.662-4.69-2.412-3.62-2.412-3.024-6.185-6.048-3.773-3.024-9.551-6.023-12.727-4.214-3.152 1.81 0 10.857 0 10.857s-8.334-.595-17.408-3.62c-9.074-3.023-6.065 4.834-14.542 7.239-8.477 2.428-6.639-4.833-7.857-9.048-1.217-4.238 0-6.047 5.445-14.475 5.444-8.453 4.226-3.024 13.921-6.643 9.695-3.619 9.695-3.619 13.922-7.857 4.25-4.214 2.435-5.428 3.63-9.047 1.217-3.595 14.207-8.333 15.592-7.167 0 .024.024.024.024.024 11.056 10.833 19.748 24.023 25.24 38.785" fill="#50BFA5"/>
        <path d="M0 0h240v320H0z"/>
    </g>
</svg>
