<svg width="580" height="200" viewBox="0 0 580 200" xmlns="http://www.w3.org/2000/svg" xmlns:xlink="http://www.w3.org/1999/xlink">
    <defs>
        <path id="a" d="M0 0h96.483v75.429H0z"/>
        <path id="c" d="M0 193.54h570V0H0z"/>
    </defs>
    <g fill="none" fill-rule="evenodd">
        <g transform="translate(5 3)">
            <path d="M62.912 12.847c-.33 4.642-.414 5.886-.414 11.19v9.698c0 11.356-.664 19.313-1.907 24.122-2.486 9.034-8.123 15.83-17.241 21.053-4.725 2.735-9.118 4.476-17.24 6.797-1.907-5.554-3.979-9.035-8.455-14.174 7.957-1.492 12.184-2.819 16.412-5.056 7.294-3.896 11.024-8.786 12.351-16.08.496-3.068.91-10.362.91-17.573v-8.62c0-6.052-.081-7.793-.496-11.357h16.08zm-38.544 0c-.33 3.814-.414 5.305-.414 11.107v16.495c0 5.885.084 8.538.414 11.854H8.288c.415-2.984.497-5.885.497-12.102V23.789c0-5.056-.082-7.295-.496-10.942h16.08z" fill="#FEFEFE"/>
            <path d="M24.368 60.59H8.288A8.287 8.287 0 0 1 .08 51.163c.328-2.364.418-4.72.418-10.962V23.79c0-4.96-.083-6.83-.444-10.007A8.288 8.288 0 0 1 8.29 4.558h16.08a8.288 8.288 0 0 1 8.256 9.007c-.296 3.426-.383 4.67-.383 10.39v16.494c0 5.723.08 8.094.374 11.03a8.291 8.291 0 0 1-8.248 9.112m1.738 33.406a8.29 8.29 0 0 1-7.836-5.6c-1.555-4.53-3.095-7.092-6.865-11.42a8.29 8.29 0 0 1 4.722-13.59c7.892-1.48 11.03-2.63 14.062-4.235 5.686-3.037 7.316-6.144 8.06-10.158.391-2.502.792-9.18.792-16.17v-8.62c0-5.994-.084-7.322-.442-10.399a8.29 8.29 0 0 1 8.234-9.247h16.08a8.287 8.287 0 0 1 8.268 8.878c-.32 4.458-.395 5.518-.395 10.601v9.698c0 11.98-.71 20.55-2.17 26.197l-.033.123c-3.068 11.148-9.974 19.668-21.113 26.047-5.336 3.09-10.338 5.076-19.083 7.574-.76.218-1.526.321-2.28.321" fill="#EF8070"/>
            <path d="M84.044 12.184c3.233.498 6.3.663 12.185.663h26.442c6.548 0 10.112-.165 13.013-.663V26.11c-3.15-.249-7.046-.415-12.765-.415H96.063c-6.548 0-8.372.082-12.019.415V12.184zm-6.88 20.722c3.73.498 6.383.664 13.346.664h41.61c3.979 0 4.559-.084 6.631-.913l6.466 6.964c-.995 1.491-1.161 1.823-2.322 5.221-4.31 12.35-10.277 21.635-18.4 28.431-6.3 5.305-12.268 8.538-23.624 12.932-2.155-4.891-4.477-8.29-9.283-13.595 9.946-2.57 15.914-5.222 21.882-9.698 6.051-4.476 9.698-9.2 12.765-16.578h-35.89c-6.55 0-7.958.084-13.181.498V32.906z" fill="#FEFEFE"/>
            <path d="M133.209 41.855c.49.764.846 1.591 1.063 2.45.272-.718.538-1.45.798-2.193l.102-.3c-.597.026-1.243.038-1.963.043m-32.336 52.64a8.29 8.29 0 0 1-7.588-4.948c-1.786-4.056-3.618-6.712-7.84-11.371a8.288 8.288 0 0 1 4.07-13.59c8.91-2.302 13.876-4.476 18.982-8.305a38.155 38.155 0 0 0 2.091-1.658H90.344c-6.377 0-7.521.074-12.524.472a8.301 8.301 0 0 1-6.28-2.174 8.29 8.29 0 0 1-2.664-6.089V32.906a8.288 8.288 0 0 1 6.88-8.167V12.184a8.288 8.288 0 0 1 9.548-8.192c2.755.423 5.513.567 10.925.567h26.441c6.153 0 9.3-.148 11.615-.544a8.29 8.29 0 0 1 9.687 8.17V26.22c.3.243.585.51.852.798l6.466 6.962a8.29 8.29 0 0 1 .824 10.237c-.506.758-.506.758-1.375 3.304-4.849 13.894-11.687 24.38-20.927 32.11-6.998 5.893-13.551 9.506-25.95 14.304-.982.38-1.994.56-2.99.56" fill="#EF8070"/>
            <path d="M167.427 27.02c-5.14 0-8.04.085-11.853.499V14.09c2.984.332 6.465.498 12.018.498h45.092c5.47 0 8.207-.084 11.854-.498V27.52c-3.979-.414-6.714-.498-11.77-.498H196.19V68.3h19.561c5.305 0 8.704-.166 12.682-.58v13.675c-3.564-.414-7.792-.58-12.765-.58h-51.473c-4.808 0-8.456.166-12.682.58V67.72c4.144.415 7.293.58 12.93.58h18.153V27.02h-15.169z" fill="#FEFEFE"/>
            <path d="M228.434 89.685a8.25 8.25 0 0 1-.957-.055c-3.039-.354-6.901-.525-11.809-.525h-51.473c-4.576 0-7.904.15-11.874.54a8.288 8.288 0 0 1-9.097-8.248V67.72c0-2.342.99-4.574 2.727-6.145a8.274 8.274 0 0 1 6.386-2.102c3.577.357 6.43.539 12.105.539h9.865V35.31h-6.88c-4.72 0-7.421.064-10.957.448a8.288 8.288 0 0 1-9.184-8.24V14.09a8.29 8.29 0 0 1 9.204-8.237c2.817.313 6.137.447 11.102.447h45.092c5.498 0 7.844-.096 10.918-.446a8.289 8.289 0 0 1 9.224 8.236V27.52a8.284 8.284 0 0 1-9.146 8.244c-3.747-.39-6.286-.453-10.913-.453h-8.29v24.702h11.274c4.932 0 8.026-.14 11.823-.536a8.292 8.292 0 0 1 9.148 8.244v13.677a8.288 8.288 0 0 1-8.288 8.288" fill="#EF8070"/>
            <path d="M292.087 19.395c0-5.387-.083-7.709-.497-10.444h13.676c-.414 3.068-.496 4.973-.496 10.444v34.068c3.481-.747 4.559-1.077 7.045-1.906l.414 13.013c-1.906.166-4.144.58-7.46 1.244v10.61c0 5.387.083 7.625.497 10.526H291.59c.414-2.9.497-5.057.497-10.61v-7.874L277 71.533c-4.558.994-6.299 1.409-8.122 1.906l-.995-13.013c2.072-.083 4.807-.415 8.04-1.078l16.163-3.315V26.856l-6.548 8.122c-5.056-5.305-8.62-8.372-15.334-13.179l7.708-9.034c6.3 4.144 11.024 7.79 14.174 10.94v-4.31zm-9.532 36.14c-6.133-6.3-9.2-9.035-15.335-13.429-1.823-.082-3.15-.164-5.056-.164h-2.486c3.73 4.641 6.05 6.879 11.024 10.444-2.57 4.724-3.233 6.216-5.47 12.599-2.487-2.818-4.063-4.974-6.218-8.538.083 1.326.166 3.648.25 6.88v12.599c0 5.222.082 7.543.496 10.775h-13.262c.332-3.315.497-5.967.497-10.775v-9.533c0-1.408.083-3.067.25-6.796-2.405 6.051-4.56 9.698-8.456 14.09-2.154-6.381-3.481-9.448-5.305-12.847 5.056-4.476 9.699-11.688 12.102-18.898h-3.232c-3.067 0-4.89.082-7.295.414V30.17c2.321.332 4.31.415 7.46.415h4.476v-5.802c-1.824.33-3.564.579-8.206 1.16-1.325-4.807-2.072-6.714-4.144-11.024 13.842-1.244 24.12-3.648 29.177-6.631l7.129 10.277c-3.15 1.327-6.798 2.487-11.688 3.73v8.29h3.068c3.066 0 4.558-.083 6.464-.415v10.03l5.968-6.963c6.714 4.642 10.279 7.543 15.336 12.516l-7.544 9.781z" fill="#FEFEFE"/>
            <path d="m252.242 37.003.068.092c.113.158.22.318.322.481.24-.389.51-.753.808-1.092a8.17 8.17 0 0 1-.31-.324 8.283 8.283 0 0 1-.888.843m-1.88 14.913c.462.187.902.414 1.314.676a8.29 8.29 0 0 1 3.266-3.365 102.19 102.19 0 0 1-1.725-2.093 7.99 7.99 0 0 1-.459-.63 55.141 55.141 0 0 1-2.396 5.412m54.905 43.323H291.59a8.287 8.287 0 0 1-8.205-9.46c.283-1.984.383-3.548.407-7.169l-5.081 1.033c-4.621 1.009-6.099 1.37-7.653 1.793a8.287 8.287 0 0 1-3.424.198 44.78 44.78 0 0 0 .347 4.013 8.29 8.29 0 0 1-8.22 9.343h-13.263a8.29 8.29 0 0 1-8.247-9.114c.135-1.346.24-2.563.315-3.902a8.29 8.29 0 0 1-7.63-5.635c-2.092-6.195-3.242-8.76-4.755-11.581a8.287 8.287 0 0 1 1.81-10.124c1.407-1.246 2.794-2.8 4.083-4.546a8.288 8.288 0 0 1-5.303-7.732V30.171a8.288 8.288 0 0 1 2.769-6.183c-.58-1.657-1.234-3.125-2.365-5.478a8.289 8.289 0 0 1 6.729-11.846c14.228-1.278 22.609-3.686 25.706-5.514a8.29 8.29 0 0 1 11.022 2.415l1.968 2.837a8.291 8.291 0 0 1 9.869-.562c.395.26.785.519 1.168.776A8.29 8.29 0 0 1 291.59.663h13.677a8.287 8.287 0 0 1 8.214 9.398c-.333 2.46-.423 3.898-.423 9.334v23.967a8.287 8.287 0 0 1 7.041 7.93l.415 13.014a8.288 8.288 0 0 1-7.456 8.51v3.608c0 5.19.081 7.026.414 9.354a8.284 8.284 0 0 1-1.944 6.602 8.285 8.285 0 0 1-6.261 2.859" fill="#EF8070"/>
            <path d="M362.538 40.2c2.238 6.963 6.548 13.926 12.102 19.563 5.72 5.719 12.267 9.863 21.468 13.51-3.647 4.477-5.719 7.71-8.289 13.346-7.791-3.896-13.096-7.626-18.484-12.765-5.637-5.471-9.532-10.942-13.014-18.485-2.403 5.72-5.387 10.444-9.448 15.003-4.228 4.725-9.036 8.787-14.092 11.853-2.487 1.492-4.393 2.487-8.621 4.394-2.403-4.89-4.476-8.123-8.04-12.433 9.863-3.814 16.247-7.958 21.8-14.175 5.14-5.636 7.957-11.77 9.118-19.81h-16.661c-6.217 0-8.371.082-11.687.498V26.773c3.067.331 6.217.497 11.604.497h17.822c.082-3.316.082-5.222.082-7.957 0-4.31-.166-6.383-.58-8.87h15.17c-.499 3.233-.499 3.233-.665 14.009v2.818h18.9c5.222 0 8.37-.166 11.686-.497v13.926c-3.73-.416-6.548-.498-11.604-.498h-18.567z" fill="#FEFEFE"/>
            <path d="M352.718 34.165a8.285 8.285 0 0 1 2.07 3.097 8.304 8.304 0 0 1 2.362-3.36 8.329 8.329 0 0 1-2.03-2.198 8.342 8.342 0 0 1-2.402 2.461zm2.179 9.328a50.91 50.91 0 0 1-.873 3.912 8.247 8.247 0 0 1 2.244-.324 51.732 51.732 0 0 1-1.371-3.588zm-30.732 51.416a8.29 8.29 0 0 1-7.444-4.635c-2.133-4.34-3.896-7.066-6.988-10.807a8.286 8.286 0 0 1 3.398-13.012c8.592-3.322 13.984-6.789 18.608-11.966.019-.02.037-.042.057-.062 1.73-1.898 3.105-3.834 4.184-5.938h-5.603c-5.985 0-7.778.073-10.657.434a8.293 8.293 0 0 1-6.515-2.01 8.292 8.292 0 0 1-2.803-6.214V26.773a8.289 8.289 0 0 1 9.18-8.242c2.494.271 5.27.45 10.712.45h9.615c-.008-3.757-.16-5.327-.467-7.176a8.289 8.289 0 0 1 8.176-9.65h15.17a8.288 8.288 0 0 1 8.19 9.55c-.315 2.052-.388 2.526-.477 7.276h10.522c5.245 0 8.045-.174 10.86-.455a8.288 8.288 0 0 1 9.114 8.247v13.926a8.29 8.29 0 0 1-9.204 8.237c-3.435-.382-6.073-.447-10.688-.447h-5.142a45.03 45.03 0 0 0 4.581 5.456c4.914 4.915 10.495 8.403 18.619 11.623a8.288 8.288 0 0 1 3.37 12.94c-3.319 4.075-4.995 6.773-7.172 11.55a8.29 8.29 0 0 1-11.25 3.974c-8.406-4.204-14.345-8.313-20.497-14.18-2.725-2.646-5.082-5.28-7.187-8.065a64.19 64.19 0 0 1-3.366 4.1c-4.85 5.42-10.223 9.932-15.981 13.425-2.955 1.773-5.17 2.903-9.512 4.862a8.25 8.25 0 0 1-3.403.735z" fill="#EF8070"/>
            <path d="M446.334 76.838c0 8.04-2.818 9.863-15.666 9.863-1.41 0-3.647-.082-7.543-.248-.829-4.725-1.658-7.46-3.647-12.185 4.56.414 7.708.663 10.029.663 3.316 0 3.896-.249 3.896-1.74v-7.875h-20.225c-4.724 0-8.62.166-11.439.498v-12.6c3.233.415 7.129.58 11.274.58h20.39c0-1.492-.082-2.901-.248-3.895h4.56c2.071-1.244 3.48-2.238 5.635-4.228h-17.158c-3.979 0-6.217.083-8.786.332v-11.19c2.735.249 4.89.33 8.87.33h24.783c3.315 0 4.973-.081 6.548-.33l6.05 6.88c-.91.746-1.242 1.077-2.486 2.237-3.066 2.984-6.797 6.134-11.604 9.865H464.9c4.477 0 9.035-.25 11.688-.58v12.599c-2.653-.332-6.963-.498-11.854-.498h-18.4v11.522zm-32.243-56.033c-1.327-2.819-2.487-4.808-4.973-8.538l12.184-2.486c2.569 3.895 4.06 6.465 6.299 11.024h5.554c-1.16-3.482-2.239-5.886-4.311-9.615l12.6-2.238c2.57 5.138 3.481 7.46 4.89 11.853h4.89c2.072-3.648 3.979-7.71 5.14-11.522l12.681 2.735c-1.16 2.57-2.818 5.72-4.641 8.787h1.658c5.14 0 7.543-.083 10.36-.332-.248 1.99-.33 3.73-.33 6.963v9.2c0 2.653.166 4.642.414 6.797h-12.6V31.746h-49.568v11.687H401.74c.333-1.989.415-3.73.415-6.88v-9.117c0-3.068-.082-4.89-.331-6.963 2.983.25 5.139.332 10.195.332h2.073z" fill="#FEFEFE"/>
            <path d="M439.363 59.555c.177.184.346.375.506.574a8.346 8.346 0 0 1 2.557-2.124 8.216 8.216 0 0 1-.49-.973 8.306 8.306 0 0 1-1.17.572 8.296 8.296 0 0 1-1.403 1.951m-8.695 35.435c-1.594 0-3.91-.087-7.896-.256a8.29 8.29 0 0 1-7.81-6.849c-.714-4.066-1.356-6.204-3.123-10.4a8.285 8.285 0 0 1-.623-3.87c-4.368.048-7.01.255-8.508.43a8.287 8.287 0 0 1-9.258-8.231v-12.6c0-1.773.569-3.483 1.597-4.89a8.292 8.292 0 0 1-1.483-6.255c.231-1.385.301-2.673.301-5.516v-9.118c0-2.77-.068-4.278-.271-5.976a8.285 8.285 0 0 1 7.235-9.215 8.289 8.289 0 0 1 6.632-8.099l12.183-2.486a8.284 8.284 0 0 1 6.778 1.604c.318-.097.642-.176.973-.234L439.994.791a8.28 8.28 0 0 1 8.863 4.454l.129.258a8.29 8.29 0 0 1 9.125-4.322l12.682 2.735a8.286 8.286 0 0 1 6.539 8.318 8.29 8.29 0 0 1 7.315 9.266c-.202 1.62-.267 3.06-.267 5.935v9.202c0 2.27.138 3.92.36 5.847a8.289 8.289 0 0 1-1.501 5.783 8.294 8.294 0 0 1 1.638 4.948v12.599a8.289 8.289 0 0 1-9.318 8.225c-2.202-.276-6.148-.435-10.823-.435h-10.113v3.234c0 18.152-14.996 18.152-23.955 18.152" fill="#EF8070"/>
            <path d="M481.806 50.562c3.398-2.57 7.958-7.543 15.25-16.827 5.39-6.797 5.72-7.211 7.628-8.952 2.568-2.403 5.884-3.73 9.2-3.73 3.398 0 6.63 1.327 9.283 3.896 1.99 1.824 1.99 1.824 8.456 9.698 6.133 7.377 14.836 16.412 23.043 23.706 3.48 3.068 4.641 3.896 7.045 5.306l-7.295 16.246c-1.077-1.078-1.574-1.492-2.983-2.818-11.19-10.196-17.656-17.158-32.825-35.394-2.735-3.233-3.398-3.813-4.641-3.813-1.326 0-1.41.083-7.045 7.792-3.234 4.392-8.372 10.858-11.523 14.339-1.823 2.072-1.823 2.072-2.9 3.315l-1.492 1.824-9.2-14.588z" fill="#FEFEFE"/>
            <g transform="translate(473.517 12.764)">
                <mask id="b" fill="#fff">
                    <use xlink:href="#a"/>
                </mask>
                <path d="M40.45 16.827c.6 0 1.167.043 1.706.123-1.125-.487-2.38-.493-3.567-.012.574-.076 1.19-.11 1.86-.11m40.45 58.6a8.29 8.29 0 0 1-5.863-2.43c-.605-.605-1-.967-1.535-1.462a188.74 188.74 0 0 1-1.216-1.13C61.288 60.381 54.776 53.45 40.843 36.775l-.747 1.023c-3.239 4.399-8.602 11.172-12.028 14.964-1.717 1.952-1.767 2.008-2.746 3.14l-1.417 1.73a8.26 8.26 0 0 1-6.924 3.026 8.292 8.292 0 0 1-6.502-3.852l-9.2-14.587a8.289 8.289 0 0 1 2.01-11.033c2.832-2.142 7.195-7.015 13.733-15.337 5.541-6.989 6.143-7.747 8.523-9.921C29.651 2.104 34.912 0 40.367 0c5.516 0 10.824 2.182 14.96 6.143 2.353 2.16 2.672 2.55 9.184 10.48 6.058 7.286 14.555 16.026 22.144 22.771 3.206 2.825 3.93 3.294 5.73 4.35a8.288 8.288 0 0 1 3.37 10.544L88.46 70.535A8.288 8.288 0 0 1 80.9 75.43" fill="#EF8070" mask="url(#b)"/>
            </g>
            <path d="M139.701 164.197c-4.973 0-8.122 1.657-8.122 4.228 0 2.734 2.57 4.393 6.714 4.393 3.398 0 6.05-1.245 6.88-3.15.331-.912.414-1.326.414-3.564v-1.078c-2.404-.663-3.648-.83-5.886-.83zm19.231-54.623c-.331 3.646-.58 9.697-.58 15.748v1.16c9.697 0 18.898-.912 24.203-2.403l.913 13.759c-1.658.084-2.405.166-5.803.498-8.372.829-11.604.994-19.064 1.16.165 3.895.165 3.895.828 15.17 8.455 2.9 14.092 5.884 23.54 12.597 1.493.995 1.742 1.162 2.654 1.742l-8.952 13.014c-3.73-4.56-9.865-9.284-17.076-13.014.083.58.083 1.077.083 1.409 0 3.895-1.16 7.045-3.482 9.367-3.481 3.48-9.78 5.47-17.324 5.47-6.714 0-12.598-1.575-16.329-4.31-3.564-2.653-5.72-7.295-5.72-12.35 0-5.057 2.24-9.284 6.466-12.434 4.228-2.985 9.284-4.394 16.164-4.394 2.155 0 3.399.084 5.802.415-.331-6.631-.828-23.623-.994-34.897-.084-4.061-.084-5.139-.415-7.791l15.086.084z" fill="#FEFEFE"/>
            <path d="m152.884 132.711.02.764c.143-.135.29-.264.44-.388a8.032 8.032 0 0 1-.46-.376m-2.23 25.755a8.301 8.301 0 0 1 3.016 4.724 8.48 8.48 0 0 1 1.125-.96c.178-.125.36-.244.545-.354a8.3 8.3 0 0 1-3.709-4.401 8.227 8.227 0 0 1-.976.99m-11.782 35.074c-8.49 0-16.03-2.1-21.231-5.914-5.72-4.257-9.107-11.36-9.107-19.035 0-7.594 3.482-14.371 9.803-19.08l.172-.125c5.067-3.576 10.877-5.459 18.112-5.838-.271-8.095-.537-18.561-.649-26.144l-.016-.792c-.066-3.282-.081-4.062-.335-6.094a8.288 8.288 0 0 1 8.225-9.315h.045l15.086.083a8.291 8.291 0 0 1 8.209 9.04c-.183 2.008-.33 4.696-.425 7.62 5.583-.334 10.498-.988 13.55-1.845a8.293 8.293 0 0 1 10.513 7.431l.912 13.759a8.287 8.287 0 0 1-7.853 8.826c-1.285.065-1.885.123-4.409.37l-1.005.1c-4.761.47-7.96.735-11.159.906l.076 1.292c6.696 2.715 12.279 5.97 20.281 11.65 1.327.885 1.573 1.05 2.404 1.578a8.288 8.288 0 0 1 2.38 11.69l-8.953 13.014a8.285 8.285 0 0 1-6.484 3.583 8.26 8.26 0 0 1-6.759-3.032c-1.373-1.679-3.233-3.432-5.416-5.138a19.376 19.376 0 0 1-2.783 3.512c-5.093 5.093-13.327 7.898-23.184 7.898" fill="#EF8070"/>
            <path d="M209.159 108.91c10.03 3.066 21.386 4.559 34.316 4.559 1.492 0 2.902 0 5.72-.084l-1.823 14.091c-16.827-.496-29.344-1.988-42.523-5.055l4.31-13.511zm-13.593 27.104c2.569 0 2.569 0 10.94-1.409 11.688-1.906 19.232-2.57 27.851-2.57 10.86 0 17.905 2.902 21.8 9.118 2.073 3.316 3.15 7.046 3.15 11.19 0 10.196-6.548 19.811-17.323 25.448-7.212 3.813-14.673 5.801-28.266 7.46-1.492-6.05-2.736-9.118-5.719-14.257 9.615-.414 16.993-1.658 23.043-4.061 5.554-2.072 9.284-4.891 11.19-8.372.995-1.824 1.575-3.896 1.575-5.637 0-4.973-3.648-7.543-10.526-7.543-9.7 0-26.028 2.818-34.483 5.968l-3.232-15.335z" fill="#FEFEFE"/>
            <path d="M213.711 193.54a8.29 8.29 0 0 1-8.04-6.304c-1.29-5.232-2.24-7.602-4.84-12.08a8.287 8.287 0 0 1 6.811-12.442c8.853-.382 15.317-1.49 20.341-3.485l.162-.062c3.49-1.302 5.91-2.93 6.817-4.587.148-.272.262-.537.346-.775a13.303 13.303 0 0 0-2.028-.135c-8.722 0-24.073 2.646-31.589 5.446a8.289 8.289 0 0 1-11.003-6.057l-3.233-15.335a8.29 8.29 0 0 1 8.11-9.998c.98 0 1.448 0 2.766-.185a8.286 8.286 0 0 1-1.378-7.639l4.31-13.511a8.29 8.29 0 0 1 10.32-5.408c9.235 2.825 19.668 4.198 31.892 4.198 1.491 0 2.779 0 5.475-.08a8.29 8.29 0 0 1 8.465 9.349l-1.823 14.09c-.018.13-.038.26-.06.389 3.097 2.011 5.639 4.615 7.649 7.823 2.931 4.691 4.415 9.934 4.415 15.591 0 13.403-8.14 25.661-21.77 32.793-8.144 4.306-16.583 6.572-31.104 8.342a8.324 8.324 0 0 1-1.01.061z" fill="#EF8070"/>
            <path d="M277.955 113.469c5.387 1.409 15.5 2.238 27.436 2.238 10.776 0 18.733-.497 23.043-1.493l.332 12.682c-5.139 2.488-15.584 9.118-23.044 14.672l-10.195-7.046c2.404-1.657 2.57-1.74 6.548-4.144 1.077-.663 1.16-.746 1.99-1.16.58-.332.663-.332 1.326-.746-2.735.248-3.979.331-6.797.331-6.3 0-10.444-.248-18.651-.994-1.491-.166-1.74-.166-2.901-.249l.913-14.091zm16.909 37.631c-4.89 3.73-7.46 7.212-7.46 10.196 0 4.31 5.387 6.217 17.987 6.217 9.78 0 21.633-1.659 27.105-3.813l.994 15.915c-2.238.082-2.238.082-8.205.829a158.882 158.882 0 0 1-20.64 1.325c-9.367 0-15.998-.911-21.054-2.983-7.378-2.985-11.108-8.04-11.108-15.004 0-7.377 3.648-13.428 11.854-19.976l10.527 7.294z" fill="#FEFEFE"/>
            <path d="M312.32 123.922a8.325 8.325 0 0 1 1.062 2.351 211.63 211.63 0 0 1 4.062-2.529 202.75 202.75 0 0 1-5.125.178m-7.675 66.136c-10.654 0-18.116-1.112-24.197-3.603-10.467-4.235-16.252-12.292-16.252-22.672 0-13.005 8.545-21.327 14.972-26.455a8.292 8.292 0 0 1 1.82-1.104l-1.795-.161a3.704 3.704 0 0 1-.165-.017 35.836 35.836 0 0 0-1.928-.174l-.644-.045a8.288 8.288 0 0 1-7.684-8.803l.913-14.091a8.285 8.285 0 0 1 10.368-7.483c3.638.952 12.205 1.969 25.338 1.969 13.602 0 19.108-.803 21.18-1.28 2.425-.561 4.971 0 6.938 1.523a8.285 8.285 0 0 1 3.21 6.335l.333 12.682a8.29 8.29 0 0 1-4.674 7.678c-4.175 2.02-14.116 8.21-21.705 13.86a8.292 8.292 0 0 1-7.699 1.171 8.287 8.287 0 0 1-3.083 8.303c-.584.445-1.09.858-1.53 1.238 1.674.17 3.954.296 7.03.296 9.481 0 20.1-1.675 24.068-3.237a8.286 8.286 0 0 1 11.31 7.194l.994 15.915a8.292 8.292 0 0 1-7.967 8.8c-1.875.07-1.875.07-7.482.77-7.03.922-14.336 1.39-21.669 1.39" fill="#EF8070"/>
            <path d="M352.218 112.557c3.067.331 4.643.414 9.616.414 7.128 0 20.308-.497 26.11-.994 4.31-.332 5.803-.58 8.04-1.41l7.212 9.533c-1.908 1.326-1.908 1.326-8.62 7.128-5.803 5.139-9.285 7.792-15.999 12.516 4.476-.579 13.428-1.326 21.137-1.906 10.693-.663 12.765-.829 14.506-1.243l.58 13.925c-1.657-.083-1.907-.083-3.399-.083-10.527 0-16.91.995-23.043 3.648-5.801 2.569-9.45 6.464-9.45 10.195 0 4.144 4.477 6.3 13.18 6.3 3.896 0 6.88-.25 10.362-.995l.662 14.672c-.994-.084-.994-.084-1.906-.084-.995 0-.995 0-4.89.166-1.41.083-2.819.083-4.145.083-8.371 0-14.174-1.078-19.147-3.399-5.886-2.9-9.367-8.122-9.367-14.422 0-5.968 2.901-10.858 8.62-14.755-2.403.498-5.553.912-13.593 1.825-10.03 1.16-13.512 1.657-17.076 2.568l-1.243-14.173c.912.082 1.576.082 1.99.082 2.653 0 8.122-.414 15.335-1.243 6.713-4.31 11.52-8.124 20.887-16.744-4.476.498-4.973.58-7.045.663-.829.083-.829.083-6.383.415-1.16.083-1.16.083-6.465.414-3.066.166-3.316.25-5.637.58l-.829-13.676z" fill="#FEFEFE"/>
            <path d="M385.98 120.434a8.235 8.235 0 0 1 .807 2.592 212.4 212.4 0 0 0 2.293-2.003l.076-.066c.341-.295.666-.575.975-.844-.488.043-1.003.086-1.553.128-.757.065-1.631.13-2.598.193m-15.385 21.543c-1.021.786-2.031 1.536-3.049 2.266a49.153 49.153 0 0 0 3.053-.513c.218-.044.435-.08.652-.108a8.413 8.413 0 0 1-.656-1.645m9.008 5.992a8.452 8.452 0 0 1 .513 1.186 31.963 31.963 0 0 1 2.608-1.543 130.146 130.146 0 0 0-3.12.357m12.567 44.741c-9.478 0-16.464-1.288-22.652-4.176a4.662 4.662 0 0 1-.16-.076c-8.76-4.318-13.99-12.489-13.99-21.857 0-1.306.098-2.734.355-4.238-6.93.83-9.487 1.248-12.062 1.907a8.29 8.29 0 0 1-10.31-7.306l-1.244-14.174a8.29 8.29 0 0 1 9.006-8.978c.537.048.911.048 1.241.048 1.178 0 3.393-.113 6.64-.396a8.294 8.294 0 0 1-4.221-6.73l-.83-13.676a8.29 8.29 0 0 1 2.554-6.499 8.32 8.32 0 0 1 6.612-2.243c2.705.293 4.014.367 8.724.367 7.014 0 19.833-.487 25.401-.965 4.06-.312 4.675-.48 5.867-.922a8.284 8.284 0 0 1 9.49 2.771l7.214 9.532a8.29 8.29 0 0 1-1.877 11.805c-.952.661-1.32.918-2.94 2.295 4.699-.308 6.492-.472 7.311-.667a8.288 8.288 0 0 1 10.2 7.718l.581 13.925a8.287 8.287 0 0 1-8.694 8.623c-1.45-.072-1.567-.072-2.986-.072-9.399 0-14.753.804-19.753 2.966-.424.188-.814.378-1.171.567.49.02 1.026.032 1.611.032 3.527 0 5.865-.22 8.626-.811a8.286 8.286 0 0 1 10.015 7.731l.663 14.672a8.289 8.289 0 0 1-8.973 8.633c-.647-.055-.647-.055-1.213-.055-.814 0-.819 0-4.475.156-1.627.093-3.184.093-4.56.093" fill="#EF8070"/>
            <mask id="d" fill="#fff">
                <use xlink:href="#c"/>
            </mask>
            <path d="M424.908 181.19h16.661v-15.667h-16.661v15.666zm1.41-21.304c.165-1.905.165-2.403.165-4.31 0-.91 0-.91-.332-5.885l-1.658-26.276c-.247-4.144-.662-8.62-.994-11.189h19.313c-.414 3.232-.663 6.714-.994 11.19l-1.658 26.275c-.166 3.316-.25 5.222-.25 6.548 0 .913 0 1.658.166 3.647h-13.758z" fill="#FEFEFE" mask="url(#d)"/>
            <path d="M432.608 120.514c.059.814.112 1.622.16 2.405l.388 6.156.39-6.182c.001-.03.004-.06.006-.089l.042-.58.127-1.71h-1.113zm8.962 68.964h-16.662a8.288 8.288 0 0 1-8.288-8.288v-15.666c0-1.747.54-3.367 1.462-4.702a8.28 8.28 0 0 1-.022-1.654c.135-1.547.135-1.78.135-3.591 0-.624 0-.636-.314-5.334l-1.66-26.306c-.258-4.304-.669-8.532-.942-10.65a8.29 8.29 0 0 1 8.22-9.35h19.314a8.287 8.287 0 0 1 8.22 9.342c-.368 2.87-.606 6.09-.907 10.168l-.04.533-1.65 26.181c-.154 3.063-.237 4.942-.237 6.079 0 .79 0 1.313.137 2.958.042.51.037 1.019-.013 1.52a8.251 8.251 0 0 1 1.535 4.806v15.666a8.289 8.289 0 0 1-8.288 8.288z" fill="#EF8070" mask="url(#d)"/>
            <path d="M58.768 8.703c-.331 4.642-.415 5.886-.415 11.19v9.698c0 11.356-.663 19.313-1.906 24.121-2.487 9.035-8.123 15.831-17.242 21.054-4.724 2.735-9.117 4.476-17.24 6.796-1.906-5.553-3.978-9.034-8.455-14.173 7.958-1.493 12.185-2.819 16.412-5.057 7.295-3.895 11.025-8.785 12.352-16.08.496-3.067.91-10.361.91-17.572v-8.621c0-6.051-.081-7.792-.496-11.356h16.08zm-38.544 0c-.33 3.813-.414 5.305-.414 11.106v16.496c0 5.885.083 8.538.414 11.853H4.144c.415-2.984.497-5.884.497-12.102V19.644c0-5.055-.082-7.294-.496-10.941h16.08zM79.9 8.04c3.232.497 6.3.663 12.185.663h26.442c6.547 0 10.112-.166 13.013-.663v13.925c-3.15-.248-7.046-.414-12.766-.414H91.92c-6.548 0-8.372.082-12.019.414V8.04zm-6.88 20.722c3.73.498 6.383.664 13.346.664h41.61c3.979 0 4.559-.084 6.63-.913l6.467 6.963c-.996 1.492-1.161 1.824-2.322 5.222-4.31 12.35-10.278 21.635-18.401 28.431-6.3 5.305-12.268 8.538-23.624 12.932-2.155-4.891-4.476-8.29-9.283-13.595 9.947-2.57 15.915-5.222 21.883-9.698 6.051-4.476 9.698-9.2 12.765-16.578H86.2c-6.549 0-7.958.084-13.18.498V28.762zM163.283 22.877c-5.14 0-8.04.083-11.853.498V9.945c2.983.333 6.465.499 12.018.499h45.092c5.47 0 8.207-.084 11.853-.498v13.429c-3.978-.415-6.713-.498-11.77-.498h-16.578v41.28h19.562c5.304 0 8.704-.166 12.682-.58v13.675c-3.564-.414-7.792-.58-12.765-.58H160.05c-4.808 0-8.455.166-12.682.58V63.576c4.145.415 7.294.58 12.93.58h18.154v-41.28h-15.17zM287.943 15.251c0-5.387-.083-7.709-.498-10.444h13.677c-.414 3.067-.496 4.973-.496 10.444V49.32c3.48-.747 4.558-1.077 7.045-1.906l.414 13.013c-1.906.165-4.144.58-7.46 1.244v10.61c0 5.387.083 7.625.497 10.526h-13.677c.415-2.901.498-5.057.498-10.61v-7.874l-15.086 3.067c-4.559.994-6.3 1.409-8.123 1.906l-.994-13.014c2.072-.083 4.807-.414 8.04-1.077l16.163-3.316V22.712l-6.548 8.122c-5.056-5.305-8.62-8.372-15.335-13.18l7.709-9.034c6.3 4.145 11.024 7.791 14.174 10.941v-4.31zm-9.532 36.14c-6.133-6.3-9.2-9.035-15.335-13.429-1.823-.082-3.15-.165-5.056-.165h-2.487c3.73 4.642 6.05 6.88 11.025 10.445-2.57 4.724-3.233 6.216-5.47 12.599-2.487-2.818-4.063-4.974-6.218-8.538.083 1.326.166 3.648.249 6.88V71.78c0 5.223.083 7.544.497 10.776h-13.262c.331-3.315.497-5.967.497-10.776V62.25c0-1.408.083-3.067.249-6.797-2.404 6.052-4.56 9.699-8.455 14.092-2.154-6.382-3.481-9.45-5.305-12.848 5.056-4.476 9.699-11.688 12.101-18.899h-3.231c-3.067 0-4.89.083-7.295.415V26.027c2.32.331 4.31.414 7.46.414h4.476V20.64c-1.824.331-3.564.58-8.206 1.16-1.325-4.806-2.072-6.714-4.144-11.024 13.842-1.243 24.12-3.647 29.177-6.63l7.128 10.277c-3.15 1.327-6.797 2.487-11.687 3.73v8.29h3.067c3.067 0 4.56-.084 6.465-.415v10.03l5.968-6.963c6.714 4.642 10.279 7.543 15.335 12.516l-7.543 9.781zM358.394 36.056c2.237 6.963 6.548 13.926 12.102 19.563 5.72 5.719 12.267 9.863 21.468 13.51-3.647 4.476-5.719 7.709-8.29 13.346-7.79-3.896-13.096-7.626-18.483-12.765-5.637-5.471-9.533-10.942-13.014-18.485-2.403 5.72-5.387 10.444-9.449 15.003-4.228 4.725-9.036 8.786-14.09 11.853-2.488 1.492-4.394 2.487-8.622 4.394-2.403-4.89-4.476-8.124-8.04-12.434 9.863-3.813 16.247-7.957 21.8-14.174 5.139-5.636 7.957-11.77 9.117-19.81h-16.66c-6.217 0-8.372.082-11.687.498V22.628c3.067.332 6.216.498 11.604.498h17.822c.082-3.317.082-5.222.082-7.957 0-4.31-.166-6.383-.58-8.87h15.169c-.498 3.233-.498 3.233-.664 14.009v2.818h18.9c5.222 0 8.37-.166 11.686-.498v13.927c-3.73-.416-6.548-.499-11.605-.499h-18.566zM442.19 72.694c0 8.04-2.818 9.863-15.666 9.863-1.41 0-3.648-.082-7.543-.248-.83-4.725-1.658-7.46-3.647-12.185 4.56.414 7.708.663 10.029.663 3.316 0 3.896-.249 3.896-1.74v-7.875h-20.225c-4.725 0-8.62.166-11.44.497V49.07c3.234.415 7.13.58 11.275.58h20.39c0-1.492-.083-2.901-.248-3.895h4.559c2.072-1.244 3.481-2.238 5.635-4.228h-17.158c-3.978 0-6.216.083-8.785.332V30.67c2.735.249 4.89.33 8.87.33h24.782c3.316 0 4.973-.081 6.55-.33l6.05 6.88c-.912.745-1.244 1.077-2.487 2.237-3.067 2.984-6.797 6.134-11.605 9.864h15.335c4.476 0 9.035-.25 11.687-.58v12.6c-2.652-.332-6.962-.498-11.853-.498H442.19v11.522zM409.946 16.66c-1.327-2.82-2.486-4.808-4.973-8.538l12.184-2.487c2.57 3.896 4.062 6.466 6.3 11.025h5.554c-1.16-3.482-2.24-5.886-4.311-9.616l12.6-2.238c2.57 5.14 3.481 7.46 4.89 11.854h4.89c2.072-3.648 3.979-7.71 5.14-11.522L464.9 7.874c-1.16 2.57-2.818 5.72-4.641 8.787h1.658c5.139 0 7.543-.083 10.36-.333-.248 1.99-.33 3.731-.33 6.963v9.201c0 2.653.166 4.642.414 6.797h-12.6V27.602h-49.568V39.29h-12.6c.333-1.99.415-3.73.415-6.88V23.29c0-3.067-.082-4.89-.33-6.963 2.983.25 5.138.333 10.195.333h2.072z" fill="#FEFEFE" mask="url(#d)"/>
            <path d="M477.662 46.418c3.398-2.57 7.958-7.544 15.25-16.827 5.389-6.797 5.72-7.211 7.628-8.952 2.568-2.404 5.884-3.73 9.2-3.73 3.398 0 6.63 1.326 9.283 3.896 1.99 1.823 1.99 1.823 8.456 9.698 6.133 7.377 14.836 16.412 23.042 23.706 3.481 3.067 4.642 3.896 7.045 5.305l-7.294 16.246c-1.077-1.077-1.574-1.491-2.983-2.818-11.19-10.195-17.656-17.157-32.825-35.394-2.735-3.232-3.398-3.812-4.641-3.812-1.327 0-1.41.083-7.046 7.792-3.233 4.392-8.372 10.857-11.522 14.339-1.824 2.072-1.824 2.072-2.901 3.315l-1.491 1.824-9.201-14.588zM135.557 160.053c-4.973 0-8.123 1.657-8.123 4.227 0 2.735 2.57 4.393 6.715 4.393 3.397 0 6.05-1.244 6.88-3.15.33-.911.414-1.325.414-3.563v-1.079c-2.404-.663-3.648-.828-5.886-.828zm19.23-54.624c-.33 3.646-.58 9.698-.58 15.75v1.159c9.698 0 18.9-.912 24.204-2.403l.912 13.759c-1.657.083-2.404.165-5.802.498-8.373.829-11.604.994-19.065 1.16.166 3.895.166 3.895.83 15.169 8.454 2.9 14.09 5.885 23.54 12.598 1.492.995 1.74 1.161 2.652 1.742l-8.951 13.013c-3.73-4.56-9.865-9.284-17.076-13.013.083.58.083 1.077.083 1.409 0 3.895-1.16 7.045-3.482 9.366-3.481 3.482-9.78 5.47-17.324 5.47-6.714 0-12.598-1.574-16.329-4.31-3.564-2.652-5.72-7.294-5.72-12.35 0-5.057 2.24-9.284 6.466-12.433 4.228-2.985 9.284-4.394 16.163-4.394 2.156 0 3.4.084 5.803.415-.331-6.631-.829-23.623-.994-34.897-.084-4.062-.084-5.14-.415-7.791l15.086.083zM205.015 104.765c10.03 3.067 21.386 4.56 34.316 4.56 1.492 0 2.901 0 5.72-.084l-1.823 14.091c-16.827-.496-29.344-1.988-42.523-5.055l4.31-13.512zm-13.593 27.105c2.568 0 2.568 0 10.94-1.409 11.688-1.906 19.231-2.57 27.851-2.57 10.859 0 17.905 2.902 21.8 9.118 2.073 3.316 3.15 7.046 3.15 11.19 0 10.196-6.548 19.811-17.324 25.447-7.211 3.814-14.672 5.802-28.265 7.46-1.492-6.05-2.736-9.117-5.719-14.256 9.615-.415 16.992-1.659 23.043-4.062 5.554-2.072 9.284-4.89 11.19-8.372.995-1.823 1.575-3.895 1.575-5.636 0-4.973-3.648-7.543-10.526-7.543-9.7 0-26.029 2.818-34.483 5.968l-3.232-15.335zM273.81 109.325c5.388 1.409 15.5 2.238 27.437 2.238 10.775 0 18.732-.498 23.042-1.493l.333 12.682c-5.14 2.487-15.584 9.118-23.044 14.671l-10.195-7.045c2.404-1.658 2.569-1.74 6.548-4.144 1.077-.663 1.16-.746 1.99-1.16.579-.332.663-.332 1.326-.746-2.736.247-3.979.331-6.798.331-6.299 0-10.443-.248-18.65-.994-1.491-.166-1.74-.166-2.901-.25l.912-14.09zm16.91 37.63c-4.89 3.73-7.46 7.213-7.46 10.196 0 4.31 5.387 6.218 17.987 6.218 9.78 0 21.633-1.659 27.104-3.813l.995 15.915c-2.238.082-2.238.082-8.205.828a158.882 158.882 0 0 1-20.641 1.326c-9.366 0-15.998-.911-21.054-2.983-7.377-2.985-11.107-8.04-11.107-15.004 0-7.377 3.648-13.428 11.853-19.976l10.528 7.294zM348.074 108.413c3.067.331 4.643.414 9.616.414 7.128 0 20.308-.497 26.11-.995 4.31-.331 5.803-.579 8.04-1.409l7.211 9.533c-1.907 1.326-1.907 1.326-8.62 7.128-5.802 5.139-9.284 7.792-15.998 12.516 4.476-.58 13.428-1.326 21.137-1.906 10.692-.663 12.764-.829 14.506-1.243l.58 13.925c-1.658-.083-1.907-.083-3.4-.083-10.526 0-16.908.995-23.042 3.648-5.802 2.568-9.45 6.464-9.45 10.195 0 4.144 4.477 6.3 13.18 6.3 3.896 0 6.88-.25 10.361-.995l.663 14.671c-.994-.083-.994-.083-1.906-.083-.995 0-.995 0-4.89.165-1.41.083-2.819.083-4.145.083-8.371 0-14.174-1.077-19.147-3.398-5.886-2.9-9.367-8.123-9.367-14.423 0-5.967 2.901-10.857 8.62-14.754-2.403.497-5.553.912-13.593 1.824-10.03 1.16-13.512 1.658-17.076 2.569l-1.243-14.173c.912.082 1.576.082 1.99.082 2.652 0 8.122-.415 15.334-1.243 6.714-4.31 11.521-8.124 20.888-16.744-4.476.498-4.973.58-7.045.663-.829.083-.829.083-6.383.415-1.16.083-1.16.083-6.465.414-3.067.166-3.316.25-5.637.58l-.829-13.676zM420.764 177.045h16.661v-15.666h-16.661v15.666zm1.41-21.303c.165-1.906.165-2.404.165-4.31 0-.91 0-.91-.332-5.885l-1.658-26.276c-.248-4.144-.662-8.62-.994-11.19h19.313c-.414 3.233-.664 6.715-.994 11.19l-1.658 26.276c-.166 3.316-.25 5.222-.25 6.548 0 .913 0 1.658.166 3.647h-13.759z" fill="#FCD290" mask="url(#d)"/>
        </g>
        <path d="M0 0h580v200H0z"/>
    </g>
</svg>
