<svg width="580" height="200" viewBox="0 0 580 200" xmlns="http://www.w3.org/2000/svg" xmlns:xlink="http://www.w3.org/1999/xlink">
    <defs>
        <path id="a" d="M0 0h93v100H0z"/>
        <path id="c" d="M0 0h91v84H0z"/>
        <path id="e" d="M0 0h36v85H0z"/>
    </defs>
    <g fill="none" fill-rule="evenodd">
        <path d="M69.978 84c-1.735 0-2.603-.86-2.603-2.578V20.579c0-1.72.78-2.579 2.516-2.579h10.587c1.735 0 2.603.86 2.516 2.579l-1.909 60.843c0 1.719-.868 2.578-2.604 2.578h-8.503zm-8.33-14.437c.26 1.632-.347 2.578-1.823 3.007-9.111 2.493-24.297 3.782-35.75 3.61C20.169 76.092 18 74.117 18 70.25V46.273c0-4.038 2.43-6.015 5.988-6.015l18.916-.086.087-8.508H22.34c-1.822 0-3.037-1.203-3.037-3.008v-6.703c0-1.805 1.215-3.008 3.037-3.008l29.937.173c3.558 0 6.074 1.976 5.987 6.015l-.434 21.828c-.086 3.782-2.082 5.93-6.073 6.016l-18.57.258v9.281c7.723.172 16.487-.43 24.296-1.805 1.822-.343 2.603.172 2.864 1.718l1.301 7.134z" fill="#FFF"/>
        <path d="M77.862 93h-8.468c-6.418 0-11.1-4.612-11.23-11.008-10.533 2.33-24.857 3.257-34.608 3.11C14.825 84.909 9 79.016 9 70.439v-24.21c0-4.213 1.412-7.81 3.847-10.396-1.602-2.004-2.551-4.567-2.551-7.394v-6.77c0-6.569 5.123-11.713 11.664-11.713l29.858.173c3.321 0 6.407.965 8.87 2.753C62.684 10.46 65.724 9 69.309 9h10.54c3.24 0 6.154 1.194 8.208 3.362 2.026 2.139 3.065 5.065 2.933 8.248L89.092 81.89C89.012 88.338 84.312 93 77.862 93z" fill="#FF866B"/>
        <path d="M143.317 84c-1.738 0-2.607-.86-2.607-2.578V20.579c0-1.72.783-2.579 2.52-2.579h10.603c1.738 0 2.607.86 2.52 2.579l-.695 20.452 7.3-.085c1.825 0 3.042 1.203 3.042 3.007V51c0 1.805-1.217 3.008-3.041 3.008l-7.649.172-.869 27.242c0 1.719-.869 2.578-2.607 2.578h-8.517zm-7.474-14.437c.262 1.632-.346 2.578-1.825 3.007-9.124 2.493-23.463 3.782-34.935 3.61-3.91-.087-6.083-2.062-6.083-5.93l.174-23.977c0-4.038 2.433-6.015 5.996-6.015l17.468-.086.086-8.508H97.345c-1.825 0-3.042-1.203-3.042-3.008v-6.703c0-1.805 1.217-3.008 3.042-3.008l28.679.173c3.562 0 6.083 1.976 5.997 6.015l-.435 21.828c-.088 3.782-2.086 5.93-6.084 6.016l-17.207.258-.087 9.281a120.45 120.45 0 0 0 23.465-1.805c1.825-.343 2.607.172 2.867 1.718l1.303 7.134z" fill="#FFF"/>
        <path d="M151.24 93h-8.48c-6.363 0-11.022-4.52-11.241-10.814-9.225 1.97-21.599 3.083-32.939 2.917C89.835 84.908 84 79.015 84 70.438l.174-24.273c0-4.127 1.377-7.668 3.756-10.24-1.65-2.015-2.632-4.616-2.632-7.487v-6.77c0-6.569 5.131-11.713 11.683-11.713l28.61.173c3.204 0 6.19.896 8.612 2.562 1.998-2.305 4.976-3.69 8.47-3.69h10.559c3.244 0 6.164 1.194 8.22 3.363 2.032 2.142 3.072 5.072 2.936 8.261l-.391 11.66c5.727.794 10.003 5.605 10.003 11.6V51c0 6.308-4.73 11.303-10.907 11.691l-.604 19.2C162.407 88.34 157.702 93 151.241 93z" fill="#FF866B"/>
        <path d="M221.716 73.45c-5.147 0-8.408 2.847-8.408 6.556 0 3.882 3.518 6.556 8.408 6.556 4.718 0 8.407-2.674 8.407-6.556 0-3.71-3.689-6.556-8.407-6.556zM220.172 97c-12.783 0-21.705-6.729-21.705-16.994 0-9.575 8.665-16.994 21.705-16.994 12.869 0 21.704 7.16 21.704 16.994 0 10.179-8.921 16.994-21.704 16.994zm13.298-52.534c-1.63-.086-2.06-.948-1.802-3.106.429-3.191.6-10.005.342-12.853h-36.889c-1.287 0-2.145-.862-2.145-2.156v-8.195c0-1.293.858-2.156 2.145-2.156h46.67c3.002 0 5.148 1.639 5.148 5.175v.863c0 5.78-.859 15.183-3.004 20.271-.6 1.467-1.543 2.502-3.345 2.416l-7.12-.259zm-42.896 16.131c-1.545.086-2.574-1.035-2.574-2.588v-6.642c0-1.553 1.03-2.588 2.574-2.588l17.244-.086-.086-10.783c-.085-1.725.687-2.588 2.402-2.674h10.381c1.716-.086 2.66.776 2.574 2.501l-.172 10.87 26.51-.173c1.544 0 2.573 1.035 2.573 2.589v5.693c0 1.552-1.03 2.501-2.574 2.587l-58.852 1.294z" fill="#FFF"/>
        <path d="M221.727 78.498a2.841 2.841 0 0 0-.166.948c0 .36.062.691.156.981.115-.293.19-.625.19-.98 0-.34-.071-.661-.18-.949zM220.173 105c-18.015 0-30.598-10.509-30.598-25.554 0-3.925.905-7.564 2.564-10.794l-1.582.035c-3.046.117-5.901-.931-8.07-2.967-2.248-2.113-3.487-5.03-3.487-8.215V50.88c0-6.272 4.95-11.185 11.268-11.185l8.686-.042-.016-1.988c-.012-.337-.01-.665.003-.982h-4.08c-6.074 0-10.834-4.725-10.834-10.755v-8.173c0-6.032 4.76-10.755 10.835-10.755h47.156c8.036 0 13.868 5.79 13.868 13.766v.86c0 1.24-.07 10.501-2.056 18.471 4.247 1.602 7.17 5.62 7.17 10.44v5.678c0 6.03-4.637 10.833-10.787 11.172l-.291.01-2.377.052c2.081 3.52 3.227 7.577 3.227 11.997 0 14.807-12.869 25.554-30.599 25.554z" fill="#FF866B"/>
        <path d="M309.474 84c-1.726 0-2.59-.86-2.59-2.578V20.579c0-1.72.778-2.579 2.504-2.579h10.53c1.725 0 2.588.86 2.502 2.579l-.69 20.452 7.25-.085c1.812 0 3.02 1.203 3.02 3.007V51c0 1.805-1.208 3.008-3.02 3.008l-7.596.172-.863 27.242c0 1.719-.863 2.578-2.589 2.578h-8.458zM286.69 59.765c-1.295-.256-2.072-1.203-1.9-3.007.95-8.336 1.382-15.04 1.037-23.46h-25.115c-1.295 0-2.158-.86-2.158-2.15v-9.022c0-1.29.863-2.149 2.158-2.149h34.435c3.02 0 5.178 1.633 5.178 5.156v1.719c0 11.344-.949 20.968-3.28 31.367-.43 1.89-1.725 2.664-3.365 2.492l-6.99-.946zm16.916 13.579c.345 1.633-.777 2.32-2.158 2.664-11.824 2.836-26.668 4.125-41.858 4.211-1.554 0-2.59-1.031-2.59-2.578v-7.047c0-1.547 1.036-2.578 2.59-2.578h6.127l-.086-18.563c0-1.719.69-2.664 2.416-2.664h8.717c1.726 0 2.59.774 2.59 2.493l-.173 18.304c6.991-.43 13.809-1.117 20.713-2.234 1.554-.258 2.33.43 2.676 2.062l1.036 5.93z" fill="#FFF"/>
        <path d="M317.366 93h-8.435c-5.074 0-9.059-2.907-10.551-7.304-11.003 2.206-24.397 3.401-39.143 3.486-6.323 0-11.237-4.956-11.237-11.28v-7.117c0-5.444 3.64-9.873 8.653-11l-.047-10.307c0-3.065.992-5.737 2.69-7.721-5.541-.499-9.747-5.064-9.747-10.803v-9.11c0-6.084 4.725-10.847 10.757-10.847h34.34c2.243 0 4.312.46 6.13 1.303 1.977-2.07 4.794-3.3 8.07-3.3h10.5c3.226 0 6.13 1.195 8.176 3.363 2.02 2.143 3.056 5.075 2.918 8.264l-.388 11.657c5.695.794 9.948 5.604 9.948 11.6V51c0 6.308-4.705 11.303-10.847 11.69l-.6 19.201C328.47 88.34 323.79 93 317.366 93" fill="#FF866B"/>
        <path d="M393.918 84c-1.726 0-2.588-.86-2.588-2.578V54.266l-6.21.086-.432 27.07c0 1.719-.862 2.578-2.587 2.578h-7.592c-1.725 0-2.587-.86-2.587-2.578l-.863-59.984c0-1.72.776-2.579 2.5-2.579h9.663c1.725 0 2.588.86 2.501 2.58l-.345 19.42 5.952-.085V20.579c0-1.72.776-2.579 2.501-2.579h9.662c1.725 0 2.587.86 2.501 2.579l-1.897 60.843c0 1.719-.863 2.578-2.588 2.578h-7.591zm-24.929-16.156c.344 1.805-.431 2.406-1.985 2.922-6.383 2.148-15.613 3.952-24.756 3.695-3.882-.086-5.952-2.063-6.038-5.93l-1.208-41.68c-.086-4.038 2.501-6.014 6.038-6.014l21.48-.173c1.81 0 3.019 1.204 3.019 3.008v7.047c0 1.804-1.209 3.008-3.02 3.008l-12.939.43v26.296c5.003.258 11.3-.515 15.786-1.547 1.81-.43 2.587.258 2.846 1.805l.777 7.133z" fill="#FFF"/>
        <path d="M358.74 42.385v9.068a57.393 57.393 0 0 0 4.635-.795l-.12-8.424h-.03l-4.486.15zM401.92 93h-7.57c-2.208 0-4.21-.552-5.89-1.538-1.68.986-3.684 1.538-5.893 1.538h-7.57c-6.453 0-11.144-4.707-11.181-11.204l-.01-.753c-5.325 1.29-12.842 2.557-21.221 2.322-8.393-.189-14.19-6.003-14.38-14.468l-1.2-42.03c-.115-5.402 2.083-8.811 3.946-10.732 2.674-2.754 6.463-4.27 10.672-4.27l21.349-.174c1.379 0 2.694.225 3.91.644 1.892-1.563 4.363-2.467 7.17-2.467h9.633c1.586 0 3.093.289 4.458.84C389.865 9.615 391.95 9 394.266 9h9.633c3.224 0 6.126 1.194 8.17 3.362 2.017 2.139 3.052 5.064 2.92 8.246l-1.887 61.28C413.02 88.339 408.344 93 401.92 93z" fill="#FF866B"/>
        <path d="M465.78 62.754c-1.73 0-2.594-.86-2.594-2.578l-.52-42.362c0-1.718.78-2.577 2.508-2.577h10.55c1.728 0 2.593.859 2.505 2.577l-.344 14.78h7.089c1.816 0 3.026 1.202 3.026 3.007v7.046c0 1.805-1.21 3.008-3.026 3.008h-7.35l-.26 14.521c-.085 1.719-.864 2.578-2.593 2.578h-8.991zm-21.703-19.935c0-4.64-3.199-8.077-7.694-8.077-4.67 0-7.869 3.437-7.869 8.077 0 4.64 3.2 8.077 7.869 8.077 4.495 0 7.694-3.437 7.694-8.077zM464.223 93c-1.557 0-2.594-1.031-2.594-2.578.087-5.069.087-7.046 0-12.631l-32.941.601c-1.298 0-2.162-.859-2.162-2.148v-8.163c0-1.289.864-2.148 2.162-2.148h42.711c3.026 0 5.275 1.633 5.189 5.156-.173 7.303-.346 12.374-1.125 19.333-.172 1.547-1.038 2.578-2.594 2.578h-8.646zm-12.797-59.977c2.508 2.578 3.892 6.358 3.892 10.57 0 9.795-7.523 17.872-19.368 17.872-11.932 0-19.54-8.077-19.54-17.873 0-3.781 1.21-7.39 3.112-9.796l-4.928.086c-1.557 0-2.594-1.03-2.594-2.577v-6.96c0-1.547 1.037-2.578 2.594-2.578h13.574l1.124-8.42c.26-1.806 1.47-2.493 3.372-2.321l9.598 1.202c1.989.26 2.766 1.461 2.334 3.438l-1.21 6.015h12.796c1.297 0 2.162.859 2.162 2.148v6.874c0 1.29-.865 2.148-2.162 2.148l-4.756.172z" fill="#FFF"/>
        <g transform="translate(403 2)">
            <mask id="b" fill="#fff">
                <use xlink:href="#a"/>
            </mask>
            <path d="M32.065 40.741c.196.262.589.514.861.52.2-.028.53-.276.696-.52-.169-.242-.506-.492-.743-.52-.236.007-.62.259-.814.52M69.298 100h-8.619c-6.283 0-11.205-4.947-11.205-11.262v-.148c.026-1.468.044-2.667.054-3.765l-24.274.447c-6.041 0-10.774-4.757-10.774-10.829v-8.23c0-1.225.192-2.395.548-3.484C8.473 57.932 4.396 50.357 4.396 41.521c0-1.086.067-2.17.196-3.238C1.791 36.255 0 32.943 0 29.133v-7.018c0-6.316 4.921-11.262 11.204-11.262h5.98l.14-1.056C18.228 3.463 23.44-.54 30 .059l.296.033 9.568 1.212c3.387.445 6.22 2.093 8.01 4.65a10.886 10.886 0 0 1 1.86 4.812h1.708c1.674-3.942 5.453-6.498 10.185-6.498h10.516c3.232 0 6.14 1.193 8.188 3.359 2.012 2.126 3.047 5.03 2.926 8.19l-.142 6.078c5.666.825 9.885 5.61 9.885 11.57v7.103c0 6.17-4.524 11.084-10.494 11.642l-.118 6.463c-.102 2.065-.654 3.928-1.567 5.504.569 1.633.845 3.417.8 5.278-.173 7.392-.348 12.798-1.172 20.24C79.782 95.76 75.196 100 69.298 100" fill="#FF866B" mask="url(#b)"/>
        </g>
        <path d="M550.835 84c-1.737 0-2.605-.86-2.605-2.578V20.579c0-1.72.78-2.579 2.518-2.579h9.728c1.736 0 2.605.86 2.518 2.579l-1.91 60.843c0 1.719-.869 2.578-2.607 2.578h-7.642zM515.75 42.922v-.602c-.609-4.554-2.866-7.733-6.254-7.733-4.516 0-6.6 4.726-6.6 10.827 0 6.102 2.345 10.742 6.6 10.742 3.3 0 5.472-2.921 6.254-7.218v-6.016zM533.553 84c-1.737 0-2.606-.86-2.606-2.578l-.434-28.101h-3.3c-2.172 9.195-8.338 15.812-18.587 15.812-13.113 0-19.626-10.656-19.626-23.719s6.513-24.234 19.626-24.234c11.117 0 17.457 8.164 19.02 18.734h2.693l-.26-18.476c0-1.72.78-2.579 2.518-2.579h9.727c1.737 0 2.605.86 2.52 2.58L543.8 81.421c0 1.719-.868 2.578-2.605 2.578h-7.642z" fill="#FFF"/>
        <g transform="translate(480 9)">
            <mask id="d" fill="#fff">
                <use xlink:href="#c"/>
            </mask>
            <path d="M77.847 84h-7.612c-1.747 0-3.366-.342-4.8-.968-1.434.626-3.053.968-4.8.968h-7.612c-6.488 0-11.205-4.705-11.244-11.198l-.11-7.167c-3.9 2.188-8.446 3.353-13.472 3.353C11.332 68.988 0 55.875 0 36.359 0 16.842 11.595 3.211 28.197 3.211c5.145 0 9.832 1.325 13.837 3.76C43.794 3.253 47.487.868 52.07.868h9.688c1.058 0 2.081.127 3.05.373C66.37.44 68.177 0 70.15 0h9.688c3.242 0 6.16 1.194 8.216 3.362 2.03 2.14 3.07 5.065 2.935 8.249l-1.897 61.278C89.01 79.337 84.306 84 77.847 84z" fill="#FF866B" mask="url(#d)"/>
        </g>
        <path d="M128.107 148.125c0-6.961-3.722-11.258-9.176-11.258-5.8 0-9.262 4.297-9.262 11.258 0 6.961 3.722 11.172 9.262 11.172 5.54 0 9.176-4.21 9.176-11.172zM150.01 188c-1.731 0-2.598-.86-2.598-2.578v-30.938l-7.011.086c-2.424 11-11.254 17.704-22.768 17.704-13.677 0-23.632-9.368-23.632-24.149s9.955-24.664 23.632-24.664c11.34 0 20.084 6.875 22.681 17.703l7.098.086V124.58c0-1.72.78-2.579 2.511-2.579h10.561c1.731 0 2.597.86 2.511 2.579l-1.904 60.843c0 1.719-.866 2.578-2.598 2.578h-8.483z" fill="#FFF"/>
        <path d="M118.322 150.656c.058.005.156.008.226.004.169-.336.436-1.17.436-2.602 0-1.517-.308-2.37-.49-2.69a2.138 2.138 0 0 0-.205.005c-.149.316-.427 1.118-.427 2.685 0 1.472.291 2.296.46 2.598zM157.884 197h-8.452c-6.498 0-11.214-4.744-11.214-11.28v-12.026c-5.527 4.737-12.811 7.426-21.046 7.426C98.53 181.12 85 167.215 85 148.058c0-19.46 13.53-33.583 32.172-33.583 8.275 0 15.633 2.82 21.204 7.769.866-5.462 5.213-9.244 10.97-9.244h10.522c3.233 0 6.142 1.194 8.193 3.362 2.023 2.139 3.06 5.065 2.928 8.25l-1.894 61.277c-.08 6.449-4.77 11.111-11.211 11.111z" fill="#FF866B"/>
        <path d="M225.988 188c-1.734 0-2.602-.86-2.602-2.578v-33.515l-13.786.172c-1.821 0-3.035-1.204-3.035-3.009v-7.562c0-1.805 1.214-3.008 3.035-3.008l13.786.087v-14.008c0-1.72.78-2.579 2.515-2.579h10.579c1.734 0 2.6.86 2.514 2.579l-1.907 60.843c0 1.719-.867 2.578-2.602 2.578h-8.497zM209.6 174.852c-.954 1.117-2.862 1.117-4.336-.086-4.596-3.781-8.67-8.594-12.139-14.266-3.902 6.188-9.105 11.86-15.869 16.93-1.56 1.117-3.381.515-4.248-.774l-4.595-4.382c-.78-1.203-.434-2.406.867-3.61 11.966-10.742 17.515-23.46 17.081-41.937-.086-2.664 1.474-3.868 3.468-3.868h9.279c2.34 0 3.468 1.634 3.381 3.868-.26 7.047-1.214 13.664-3.035 19.68 4.51 7.82 10.146 13.577 16.995 18.562 1.561 1.118 1.388 2.75.607 3.61l-7.456 6.273z" fill="#FFF"/>
        <path d="M234.869 197h-8.462c-6.505 0-11.226-4.744-11.226-11.28v-3.598c-4.17 3.386-10.347 3.304-14.902-.465a59.898 59.898 0 0 1-6.75-6.625c-3.102 3.421-6.592 6.61-10.443 9.538l-.153.113c-2.598 1.885-5.736 2.615-8.835 2.053-2.688-.488-5.143-1.942-6.894-4.054l-4.852-4.692-.548-.856c-3.055-4.776-2.178-10.539 2.235-14.679l.096-.088c10.3-9.374 14.538-20.055 14.176-35.714-.114-3.527 1.08-6.815 3.364-9.185 2.238-2.322 5.335-3.6 8.722-3.6h9.24c3.365 0 6.439 1.274 8.654 3.587 2.294 2.395 3.48 5.707 3.343 9.328-.036.973-.083 1.935-.144 2.888l3.69.023v-5.413c0-6.536 4.686-11.281 11.14-11.281h10.535c3.237 0 6.15 1.194 8.203 3.362 2.025 2.14 3.064 5.065 2.93 8.249l-1.894 61.278c-.081 6.448-4.777 11.111-11.225 11.111" fill="#FF866B"/>
        <path d="M280.287 133.495c-7.292 0-12.697 4.152-12.697 10.468 0 6.315 5.662 10.381 12.697 10.381 6.949 0 12.697-4.066 12.697-10.381 0-6.316-5.748-10.468-12.697-10.468zm-30.713 54.5c-1.545.087-2.574-1.038-2.574-2.595v-7.094c0-1.557 1.03-2.595 2.574-2.595h21.962l-.086-10.814c-11.323-2.335-19.302-10.294-19.302-21.8C252.148 129.17 263.901 120 279 120c15.014 0 26.853 9.17 26.853 23.098 0 11.42-7.979 19.29-19.132 21.8l-.086 10.727 21.791-.087c1.545 0 2.574 1.038 2.574 2.595v6.143c0 1.557-1.03 2.508-2.574 2.595l-58.852 1.124z" fill="#FFF"/>
        <path d="M280.3 141.687c-1.608 0-4.16.491-4.16 1.811 0 .919 1.943 1.725 4.16 1.725 2.179 0 4.162-.822 4.162-1.725 0-.948-1.983-1.81-4.161-1.81M249.092 196c-2.867 0-5.546-1.046-7.602-2.98-2.25-2.117-3.49-5.04-3.49-8.23v-7.07c0-6.283 4.95-11.206 11.269-11.206h5.878c-7.53-5.597-11.946-14.053-11.946-23.878 0-18.331 15.056-31.636 35.8-31.636 20.743 0 35.798 13.305 35.798 31.636 0 9.676-4.388 18.086-11.865 23.729l5.763-.023c6.354 0 11.303 4.922 11.303 11.206v6.12c0 6.042-4.638 10.855-10.79 11.192l-.314.013-59.353 1.118c-.151.006-.301.009-.451.009" fill="#FF866B"/>
        <path d="M376.818 188c-1.74 0-2.61-.86-2.61-2.578v-60.843c0-1.72.783-2.579 2.522-2.579h9.742c1.74 0 2.609.86 2.522 2.579l-1.913 60.843c0 1.719-.87 2.578-2.61 2.578h-7.653zm-17.308 0c-1.74 0-2.609-.86-2.609-2.578l-.522-34.118h-7.306c-1.826 0-3.044-1.203-3.044-3.007v-7.39c0-1.805 1.218-3.009 3.044-3.009h7.132l-.173-12.46c0-1.72.781-2.579 2.52-2.579h9.742c1.74 0 2.609.86 2.523 2.58l-1.045 59.983c0 1.719-.87 2.578-2.609 2.578h-7.653zm-11.306-13.32c-1.045 1.03-2.61.945-3.914-.086-3.566-2.836-7.22-6.789-10.176-11.258-3.132 4.812-7.393 9.281-12.96 13.234-1.564 1.118-3.39.516-4.26-.773l-3.48-5.242c-.783-1.203-.435-2.407.87-3.61 10.958-9.796 14.002-23.632 13.22-39.359-.174-2.663 1.479-3.867 3.478-3.867h8.872c2.348 0 3.479 1.633 3.392 3.867-.26 7.477-.957 14.782-2.957 21.743 3.305 5.757 8.175 10.827 14.003 15.124a2.395 2.395 0 0 1 .26 3.695l-6.348 6.532z" fill="#FFF"/>
        <path d="M383.831 197h-7.619c-1.75 0-3.37-.341-4.805-.967-1.436.626-3.057.967-4.807.967h-7.62c-6.496 0-11.217-4.704-11.257-11.197l-.024-1.645c-3.138.492-6.498-.364-9.284-2.598a52.842 52.842 0 0 1-4.76-4.368 62.645 62.645 0 0 1-7.81 6.636c-2.589 1.874-5.736 2.602-8.844 2.04-3.103-.562-5.894-2.404-7.657-5.054l-3.5-5.349c-3.109-4.844-2.228-10.607 2.198-14.747l.1-.09c7.788-7.061 11.07-17.496 10.325-32.833-.21-3.582.919-6.885 3.185-9.307 2.264-2.42 5.433-3.753 8.924-3.753h8.833c3.375 0 6.457 1.274 8.677 3.587.171.178.336.36.495.547 1.927-3.08 5.328-5.001 9.446-5.001h9.699c1.059 0 2.082.126 3.053.373 1.562-.8 3.372-1.241 5.346-1.241h9.699c3.245 0 6.167 1.194 8.225 3.362 2.031 2.14 3.073 5.065 2.94 8.25l-1.901 61.277c-.08 6.449-4.79 11.111-11.257 11.111" fill="#FF866B"/>
        <path d="M432.748 165.243c-1.887.346-3.775.433-5.748.433-1.887 0-3.775-.087-5.49-.346l-.172 10.295h11.496l-.086-10.382zm-4.46-31.748c-7.293 0-12.698 4.152-12.698 10.468 0 6.315 5.662 10.38 12.697 10.38 6.949 0 12.697-4.065 12.697-10.38 0-6.316-5.748-10.468-12.697-10.468zm-30.714 54.5c-1.545.087-2.574-1.038-2.574-2.595v-7.094c0-1.557 1.03-2.595 2.574-2.595h9.094l-.086-12.198c-.086-1.73.686-2.595 2.402-2.681h.515c-5.748-3.894-9.351-10.035-9.351-17.735C400.148 129.17 411.901 120 427 120c15.014 0 26.853 9.17 26.853 23.097 0 7.7-3.69 13.841-9.437 17.735h.685c1.717-.087 2.66.778 2.575 2.508l-.172 12.198h8.922c1.544 0 2.574 1.038 2.574 2.595v6.142c0 1.558-1.03 2.51-2.574 2.595l-58.852 1.125z" fill="#FFF"/>
        <path d="M428.3 141.687c-1.608 0-4.16.491-4.16 1.811 0 .919 1.943 1.725 4.16 1.725 2.179 0 4.162-.822 4.162-1.725 0-.948-1.983-1.81-4.161-1.81M397.09 196c-2.865 0-5.545-1.046-7.6-2.98-2.252-2.117-3.491-5.04-3.491-8.23v-7.07c0-6.283 4.95-11.206 11.268-11.206h.46l-.025-3.335c-.02-.615.003-1.214.068-1.797-4.24-5.209-6.57-11.716-6.57-18.746 0-18.331 15.056-31.636 35.8-31.636 20.743 0 35.798 13.305 35.798 31.636 0 6.854-2.243 13.223-6.34 18.383.088.657.12 1.333.097 2.02l-.048 3.303h.224c6.319 0 11.268 4.922 11.268 11.206v6.12c0 6.042-4.639 10.854-10.79 11.192l-.314.013-59.355 1.118c-.15.006-.3.009-.45.009" fill="#FF866B"/>
        <path d="M465.295 182.163c0-4.392 3.453-7.837 7.857-7.837 4.402 0 7.856 3.445 7.856 7.837 0 4.392-3.454 7.837-7.856 7.837-4.404 0-7.857-3.445-7.857-7.837zm4.058-13.09c-1.727 0-2.59-.861-2.59-2.583L464 125.583c0-1.722.776-2.583 2.503-2.583h13.987c1.727 0 2.59.861 2.504 2.583l-2.59 40.907c0 1.722-.863 2.583-2.59 2.583h-8.461z" fill="#FFF"/>
        <g transform="translate(456 114)">
            <mask id="f" fill="#fff">
                <use xlink:href="#e"/>
            </mask>
            <path d="m17.563 17.382.462 6.956.434-6.956h-.896zm.091 50.237c-.359 0-.77.416-.77.781 0 .366.411.782.77.782.36 0 .772-.416.772-.782 0-.365-.412-.781-.772-.781zm0 17.381C8.476 85 1.286 77.71 1.286 68.4c0-3.674 1.12-7.033 3.04-9.755-.96-1.626-1.521-3.561-1.578-5.696L0 11.59v-.292C0 4.751 4.65 0 11.055 0h13.884c3.212 0 6.104 1.196 8.141 3.368 2.032 2.165 3.063 5.134 2.904 8.363l-.006.115-2.558 41.08c-.062 2.439-.78 4.616-1.998 6.374 1.652 2.598 2.602 5.716 2.602 9.1 0 9.309-7.19 16.6-16.37 16.6z" fill="#FF866B" mask="url(#f)"/>
        </g>
        <path d="M64.978 80c-1.735 0-2.603-.86-2.603-2.578V16.579c0-1.72.78-2.579 2.516-2.579h10.587c1.735 0 2.603.86 2.516 2.579l-1.909 60.843c0 1.719-.868 2.578-2.604 2.578h-8.503zm-8.33-14.437c.26 1.632-.347 2.578-1.823 3.007-9.111 2.493-24.297 3.782-35.75 3.61C15.169 72.092 13 70.117 13 66.25V42.273c0-4.038 2.43-6.015 5.988-6.015l18.916-.086.087-8.508H17.34c-1.822 0-3.037-1.203-3.037-3.008v-6.703c0-1.805 1.215-3.008 3.037-3.008l29.937.173c3.558 0 6.074 1.976 5.987 6.015l-.434 21.828c-.086 3.782-2.082 5.93-6.073 6.016l-18.57.258v9.281c7.723.172 16.487-.43 24.296-1.805 1.822-.343 2.603.172 2.864 1.718l1.301 7.134zM138.317 80c-1.738 0-2.607-.86-2.607-2.578V16.579c0-1.72.783-2.579 2.52-2.579h10.603c1.738 0 2.607.86 2.52 2.579l-.695 20.452 7.3-.085c1.825 0 3.042 1.203 3.042 3.007V47c0 1.805-1.217 3.008-3.041 3.008l-7.649.172-.869 27.242c0 1.719-.869 2.578-2.607 2.578h-8.517zm-7.474-14.437c.262 1.632-.346 2.578-1.825 3.007-9.124 2.493-23.463 3.782-34.935 3.61-3.91-.087-6.083-2.062-6.083-5.93l.174-23.977c0-4.038 2.433-6.015 5.996-6.015l17.468-.086.086-8.508H92.345c-1.825 0-3.042-1.203-3.042-3.008v-6.703c0-1.805 1.217-3.008 3.042-3.008l28.679.173c3.562 0 6.083 1.976 5.997 6.015l-.435 21.828c-.088 3.782-2.086 5.93-6.084 6.016l-17.207.258-.087 9.281a120.45 120.45 0 0 0 23.465-1.805c1.825-.343 2.607.172 2.867 1.718l1.303 7.134zM216.716 69.45c-5.147 0-8.408 2.847-8.408 6.556 0 3.882 3.518 6.556 8.408 6.556 4.718 0 8.407-2.674 8.407-6.556 0-3.71-3.689-6.556-8.407-6.556zM215.172 93c-12.783 0-21.705-6.729-21.705-16.994 0-9.575 8.665-16.994 21.705-16.994 12.869 0 21.704 7.16 21.704 16.994 0 10.179-8.921 16.994-21.704 16.994zm13.298-52.534c-1.63-.086-2.06-.948-1.802-3.106.429-3.191.6-10.005.342-12.853h-36.889c-1.287 0-2.145-.862-2.145-2.156v-8.195c0-1.293.858-2.156 2.145-2.156h46.67c3.002 0 5.148 1.639 5.148 5.175v.863c0 5.78-.859 15.183-3.004 20.271-.6 1.467-1.543 2.502-3.345 2.416l-7.12-.259zm-42.896 16.131c-1.545.086-2.574-1.035-2.574-2.588v-6.642c0-1.553 1.03-2.588 2.574-2.588l17.244-.086-.086-10.783c-.085-1.725.687-2.588 2.402-2.674h10.381c1.716-.086 2.66.776 2.574 2.501l-.172 10.87 26.51-.173c1.544 0 2.573 1.035 2.573 2.589v5.693c0 1.552-1.03 2.501-2.574 2.587l-58.852 1.294zM305.474 80c-1.726 0-2.59-.86-2.59-2.578V16.579c0-1.72.778-2.579 2.504-2.579h10.53c1.725 0 2.588.86 2.502 2.579l-.69 20.452 7.25-.085c1.812 0 3.02 1.203 3.02 3.007V47c0 1.805-1.208 3.008-3.02 3.008l-7.596.172-.863 27.242c0 1.719-.863 2.578-2.589 2.578h-8.458zM282.69 55.765c-1.295-.256-2.072-1.203-1.9-3.007.95-8.336 1.382-15.04 1.037-23.46h-25.115c-1.295 0-2.158-.86-2.158-2.15v-9.022c0-1.29.863-2.149 2.158-2.149h34.435c3.02 0 5.178 1.633 5.178 5.156v1.719c0 11.344-.949 20.968-3.28 31.367-.43 1.89-1.725 2.664-3.365 2.492l-6.99-.946zm16.916 13.579c.345 1.633-.777 2.32-2.158 2.664-11.824 2.836-26.668 4.125-41.858 4.211-1.554 0-2.59-1.031-2.59-2.578v-7.047c0-1.547 1.036-2.578 2.59-2.578h6.127l-.086-18.563c0-1.719.69-2.664 2.416-2.664h8.717c1.726 0 2.59.774 2.59 2.493l-.173 18.304c6.991-.43 13.809-1.117 20.713-2.234 1.554-.258 2.33.43 2.676 2.062l1.036 5.93zM389.918 80c-1.726 0-2.588-.86-2.588-2.578V50.266l-6.21.086-.432 27.07c0 1.719-.862 2.578-2.587 2.578h-7.592c-1.725 0-2.587-.86-2.587-2.578l-.863-59.984c0-1.72.776-2.579 2.5-2.579h9.663c1.725 0 2.588.86 2.501 2.58l-.345 19.42 5.952-.085V16.579c0-1.72.776-2.579 2.501-2.579h9.662c1.725 0 2.587.86 2.501 2.579l-1.897 60.843c0 1.719-.863 2.578-2.588 2.578h-7.591zm-24.929-16.156c.344 1.805-.431 2.406-1.985 2.922-6.383 2.148-15.613 3.952-24.756 3.695-3.882-.086-5.952-2.063-6.038-5.93l-1.208-41.68c-.086-4.038 2.501-6.014 6.038-6.014l21.48-.173c1.81 0 3.019 1.204 3.019 3.008v7.047c0 1.804-1.209 3.008-3.02 3.008l-12.939.43v26.296c5.003.258 11.3-.515 15.786-1.547 1.81-.43 2.587.258 2.846 1.805l.777 7.133zM460.78 58.754c-1.73 0-2.594-.86-2.594-2.578l-.52-42.362c0-1.718.78-2.577 2.508-2.577h10.55c1.728 0 2.593.859 2.505 2.577l-.344 14.78h7.089c1.816 0 3.026 1.202 3.026 3.007v7.046c0 1.805-1.21 3.008-3.026 3.008h-7.35l-.26 14.521c-.085 1.719-.864 2.578-2.593 2.578h-8.991zm-21.703-19.935c0-4.64-3.199-8.077-7.694-8.077-4.67 0-7.869 3.437-7.869 8.077 0 4.64 3.2 8.077 7.869 8.077 4.495 0 7.694-3.437 7.694-8.077zM459.223 89c-1.557 0-2.594-1.031-2.594-2.578.087-5.069.087-7.046 0-12.631l-32.941.601c-1.298 0-2.162-.859-2.162-2.148v-8.163c0-1.289.864-2.148 2.162-2.148h42.711c3.026 0 5.275 1.633 5.189 5.156-.173 7.303-.346 12.374-1.125 19.333-.172 1.547-1.038 2.578-2.594 2.578h-8.646zm-12.797-59.977c2.508 2.578 3.892 6.358 3.892 10.57 0 9.795-7.523 17.872-19.368 17.872-11.932 0-19.54-8.077-19.54-17.873 0-3.781 1.21-7.39 3.112-9.796l-4.928.086c-1.557 0-2.594-1.03-2.594-2.577v-6.96c0-1.547 1.037-2.578 2.594-2.578h13.574l1.124-8.42c.26-1.806 1.47-2.493 3.372-2.321l9.598 1.202c1.989.26 2.766 1.461 2.334 3.438l-1.21 6.015h12.796c1.297 0 2.162.859 2.162 2.148v6.874c0 1.29-.865 2.148-2.162 2.148l-4.756.172z" fill="#FFF"/>
        <path d="M546.835 80c-1.737 0-2.605-.86-2.605-2.578V16.579c0-1.72.78-2.579 2.518-2.579h9.728c1.736 0 2.605.86 2.518 2.579l-1.91 60.843c0 1.719-.869 2.578-2.607 2.578h-7.642zM511.75 38.922v-.602c-.609-4.554-2.866-7.733-6.254-7.733-4.516 0-6.6 4.726-6.6 10.827 0 6.102 2.345 10.742 6.6 10.742 3.3 0 5.472-2.921 6.254-7.218v-6.016zM529.553 80c-1.737 0-2.606-.86-2.606-2.578l-.434-28.101h-3.3c-2.172 9.195-8.338 15.812-18.587 15.812-13.113 0-19.626-10.656-19.626-23.719s6.513-24.234 19.626-24.234c11.117 0 17.457 8.164 19.02 18.734h2.693l-.26-18.476c0-1.72.78-2.579 2.518-2.579h9.727c1.737 0 2.605.86 2.52 2.58L539.8 77.421c0 1.719-.868 2.578-2.605 2.578h-7.642zM124.107 143.125c0-6.961-3.722-11.258-9.176-11.258-5.8 0-9.262 4.297-9.262 11.258 0 6.961 3.722 11.172 9.262 11.172 5.54 0 9.176-4.21 9.176-11.172zM146.01 183c-1.731 0-2.598-.86-2.598-2.578v-30.938l-7.011.086c-2.424 11-11.254 17.704-22.768 17.704-13.677 0-23.632-9.368-23.632-24.149s9.955-24.664 23.632-24.664c11.34 0 20.084 6.875 22.681 17.703l7.098.086V119.58c0-1.72.78-2.579 2.511-2.579h10.561c1.731 0 2.597.86 2.511 2.579l-1.904 60.843c0 1.719-.866 2.578-2.598 2.578h-8.483zM221.988 183c-1.734 0-2.602-.86-2.602-2.578v-33.515l-13.786.172c-1.821 0-3.035-1.204-3.035-3.009v-7.562c0-1.805 1.214-3.008 3.035-3.008l13.786.087v-14.008c0-1.72.78-2.579 2.515-2.579h10.579c1.734 0 2.6.86 2.514 2.579l-1.907 60.843c0 1.719-.867 2.578-2.602 2.578h-8.497zM205.6 169.852c-.954 1.117-2.862 1.117-4.336-.086-4.596-3.781-8.67-8.594-12.139-14.266-3.902 6.188-9.105 11.86-15.869 16.93-1.56 1.117-3.381.515-4.248-.774l-4.595-4.382c-.78-1.203-.434-2.406.867-3.61 11.966-10.742 17.515-23.46 17.081-41.937-.086-2.664 1.474-3.868 3.468-3.868h9.279c2.34 0 3.468 1.634 3.381 3.868-.26 7.047-1.214 13.664-3.035 19.68 4.51 7.82 10.146 13.577 16.995 18.562 1.561 1.118 1.388 2.75.607 3.61l-7.456 6.273zM275.287 128.495c-7.292 0-12.697 4.152-12.697 10.468 0 6.315 5.662 10.381 12.697 10.381 6.949 0 12.697-4.066 12.697-10.381 0-6.316-5.748-10.468-12.697-10.468zm-30.713 54.5c-1.545.087-2.574-1.038-2.574-2.595v-7.094c0-1.557 1.03-2.595 2.574-2.595h21.962l-.086-10.814c-11.323-2.335-19.302-10.294-19.302-21.8C247.148 124.17 258.901 115 274 115c15.014 0 26.853 9.17 26.853 23.098 0 11.42-7.979 19.29-19.132 21.8l-.086 10.727 21.791-.087c1.545 0 2.574 1.038 2.574 2.595v6.143c0 1.557-1.03 2.508-2.574 2.595l-58.852 1.124zM371.818 183c-1.74 0-2.61-.86-2.61-2.578v-60.843c0-1.72.783-2.579 2.522-2.579h9.742c1.74 0 2.609.86 2.522 2.579l-1.913 60.843c0 1.719-.87 2.578-2.61 2.578h-7.653zm-17.308 0c-1.74 0-2.609-.86-2.609-2.578l-.522-34.118h-7.306c-1.826 0-3.044-1.203-3.044-3.007v-7.39c0-1.805 1.218-3.009 3.044-3.009h7.132l-.173-12.46c0-1.72.781-2.579 2.52-2.579h9.742c1.74 0 2.609.86 2.523 2.58l-1.045 59.983c0 1.719-.87 2.578-2.609 2.578h-7.653zm-11.306-13.32c-1.045 1.03-2.61.945-3.914-.086-3.566-2.836-7.22-6.789-10.176-11.258-3.132 4.812-7.393 9.281-12.96 13.234-1.564 1.118-3.39.516-4.26-.773l-3.48-5.242c-.783-1.203-.435-2.407.87-3.61 10.958-9.796 14.002-23.632 13.22-39.359-.174-2.663 1.479-3.867 3.478-3.867h8.872c2.348 0 3.479 1.633 3.392 3.867-.26 7.477-.957 14.782-2.957 21.743 3.305 5.757 8.175 10.827 14.003 15.124a2.395 2.395 0 0 1 .26 3.695l-6.348 6.532zM428.748 160.243c-1.887.346-3.775.433-5.748.433-1.887 0-3.775-.087-5.49-.346l-.172 10.295h11.496l-.086-10.382zm-4.46-31.748c-7.293 0-12.698 4.152-12.698 10.468 0 6.315 5.662 10.38 12.697 10.38 6.949 0 12.697-4.065 12.697-10.38 0-6.316-5.748-10.468-12.697-10.468zm-30.714 54.5c-1.545.087-2.574-1.038-2.574-2.595v-7.094c0-1.557 1.03-2.595 2.574-2.595h9.094l-.086-12.198c-.086-1.73.686-2.595 2.402-2.681h.515c-5.748-3.894-9.351-10.035-9.351-17.735C396.148 124.17 407.901 115 423 115c15.014 0 26.853 9.17 26.853 23.097 0 7.7-3.69 13.841-9.437 17.735h.685c1.717-.087 2.66.778 2.575 2.508l-.172 12.198h8.922c1.544 0 2.574 1.038 2.574 2.595v6.142c0 1.558-1.03 2.51-2.574 2.595l-58.852 1.125zM461.295 177.163c0-4.392 3.453-7.837 7.857-7.837 4.402 0 7.856 3.445 7.856 7.837 0 4.392-3.454 7.837-7.856 7.837-4.404 0-7.857-3.445-7.857-7.837zm4.058-13.09c-1.727 0-2.59-.861-2.59-2.583L460 120.583c0-1.722.776-2.583 2.503-2.583h13.987c1.727 0 2.59.861 2.504 2.583l-2.59 40.907c0 1.722-.863 2.583-2.59 2.583h-8.461z" fill="#FFD78F"/>
        <path d="M0 0h580v200H0z"/>
    </g>
</svg>
