<svg width="1440" height="960" xmlns="http://www.w3.org/2000/svg" xmlns:xlink="http://www.w3.org/1999/xlink"><defs><path id="a" d="M0 0h853.196v490.829H0z"/><path id="c" d="M0 0h649.782v346.505H0z"/><path id="e" d="M0 0h8.108v4.425H0z"/><path id="g" d="M0 0h8.11v4.424H0z"/><path id="i" d="M0 0h8.108v4.425H0z"/><path id="k" d="M0 0h8.11v4.424H0z"/><path id="m" d="M0 0h8.108v4.425H0z"/><path id="o" d="M0 0h8.11v4.424H0z"/><path id="q" d="M0 0h8.11v4.425H0z"/><path id="s" d="M0 0h8.11v4.424H0z"/><path id="u" d="M0 0h8.108v4.425H0z"/><path id="w" d="M0 0h8.108v4.425H0z"/><path id="y" d="M0 0h8.108v4.425H0z"/><path id="A" d="M0 0h8.108v4.425H0z"/><path id="C" d="M0 0h8.108v4.425H0z"/><path id="E" d="M0 0h8.11v4.425H0z"/><path id="G" d="M0 0h8.108v4.425H0z"/><path id="I" d="M0 0h8.11v4.425H0z"/><path id="K" d="M0 0h71.95v73.469H0z"/><path id="M" d="M0 0h230.442v117.057H0z"/><path id="O" d="M0 0h226.389v119.99H0z"/><path id="Q" d="M0 0h217.829v98.684H0z"/><path id="S" d="M0 0h205.068v75.343H0z"/><path id="U" d="M0 0h187.945v49.862H0z"/><path id="W" d="M0 0h165.697v21.88H0z"/><path id="Y" d="M0 0h57.17v41.374H0z"/><path id="aa" d="M0 0h86.935v64.806H0z"/><path id="ac" d="M0 0h107.474v77.973H0z"/><path id="ae" d="M0 0h123.104v86.004H0z"/><path id="ag" d="M0 0h135.087v90.367H0z"/><path id="ai" d="M0 0h143.888v91.597H0z"/><path id="ak" d="M0 0h149.59v89.823H0z"/><path id="am" d="M0 0h151.94v84.866H0z"/><path id="ao" d="M0 0h361.663v491.86H0z"/><path id="aq" d="M0 0h344.996v458.53H0z"/></defs><g fill="none" fill-rule="evenodd"><path fill="#F5ECE1" d="M0 960h1440V0H0z"/><mask id="b" fill="#fff"><use xlink:href="#a"/></mask><path d="M611.702 137.186c-41.919 7.292-64.39 43.68-82.535 78.516-21.786 41.835-34.308 69.303-74.546 95.457-67.562 43.914-146.949 45.604-221.268 18.58-33.78-11.825-62.494 10.134-77.695 33.78C119.322 426.015 69.23 481.006 0 490.83V346.506c43.707-29.495 99.629-33.398 148.902-53.927 15.2-6.756 30.401-20.27 38.847-35.472 25.336-45.602 47.294-97.964 92.9-126.678 67.562-40.537 141.88-13.513 214.51-18.58 13.512 0 28.713-5.066 40.536-13.512 11.824-6.755 23.647-6.755 33.78-13.511 32.975-25.529 60.583-52.401 80.307-84.828h203.414c-10.143 17.975-20.555 35.83-32.05 52.735-50.671 74.317-131.743 70.94-209.444 84.453" fill="#F3DEDA" mask="url(#b)"/><mask id="d" fill="#fff"><use xlink:href="#c"/></mask><path d="M569.476 84.825c-10.134 6.756-21.957 6.756-33.78 13.513-11.824 8.446-27.025 13.513-40.538 13.513-72.63 5.066-146.947-21.96-214.51 18.577-45.605 28.716-67.563 81.076-92.897 126.68-8.446 15.203-23.649 28.716-38.85 35.47C99.632 313.108 43.71 317.01 0 346.505V0h649.782c-19.724 32.425-47.332 59.297-80.306 84.826" fill="#F3C9C2" mask="url(#d)"/><path d="M6.345 304.402a4.054 4.054 0 1 1 8.11-.001 4.054 4.054 0 0 1-8.11.001m24.323 24.322a4.055 4.055 0 0 1 0-8.108 4.055 4.055 0 1 1 0 8.108M6.345 263.865a4.054 4.054 0 1 1 8.11-.002 4.054 4.054 0 0 1-8.11.002m0-40.538c0-.28.029-.553.08-.816a4.068 4.068 0 0 1 3.157-3.156 4.164 4.164 0 0 1 1.634-.001 4.058 4.058 0 0 1 3.155 4.79 4.056 4.056 0 0 1-3.973 3.236 4.055 4.055 0 0 1-4.053-4.053m48.646 40.538a4.054 4.054 0 1 1-8.109-.003 4.054 4.054 0 0 1 8.11.003m-.001 40.537a4.054 4.054 0 1 1-8.109-.002 4.054 4.054 0 0 1 8.11.002m20.267-20.268a4.054 4.054 0 1 1-8.108-.002 4.054 4.054 0 0 1 8.108.002m0-40.538a4.054 4.054 0 1 1-8.108-.002 4.054 4.054 0 0 1 8.108.002m-40.537 40.538a4.054 4.054 0 1 1-8.108-.003 4.054 4.054 0 0 1 8.108.003m0-40.538a4.054 4.054 0 0 1-8.108 0 4.053 4.053 0 0 1 4.053-4.053 4.052 4.052 0 0 1 4.055 4.053m93.235 20.269a4.053 4.053 0 1 1 4.055 4.053 4.057 4.057 0 0 1-4.055-4.053m28.377 20.269a4.054 4.054 0 1 1-8.108-.002 4.054 4.054 0 0 1 8.108.002m0-40.538a4.054 4.054 0 1 1-8.108-.002 4.054 4.054 0 0 1 8.108.002m-40.537 40.538a4.054 4.054 0 1 1-8.109-.002 4.054 4.054 0 0 1 8.109.002m0-40.538a4.054 4.054 0 1 1-8.109-.002 4.054 4.054 0 0 1 8.109.002m12.16-20.269a4.063 4.063 0 0 1 3.239-3.972 4.07 4.07 0 0 1 .816-.081c.278 0 .553.027.816.08a4.063 4.063 0 0 1 3.156 3.157 4.054 4.054 0 1 1-8.028.816m-35.664 36.567a4.056 4.056 0 0 1 3.154 4.788 4.059 4.059 0 0 1-3.972 3.235 4.057 4.057 0 0 1-4.055-4.053 4.056 4.056 0 0 1 4.873-3.97m0 40.536a4.058 4.058 0 0 1 3.154 4.788 4.061 4.061 0 0 1-3.972 3.237 4.057 4.057 0 0 1-4.055-4.053 4.056 4.056 0 0 1 4.873-3.972m100.526-52.781a4.057 4.057 0 0 1-4.055-4.053 4.056 4.056 0 0 1 4.055-4.054 4.04 4.04 0 0 1 3.423 1.901 1692.27 1692.27 0 0 1-3.318 6.196c-.036 0-.069.01-.105.01m-18.691 12.48a4.057 4.057 0 0 1 0 7.47 4.03 4.03 0 0 1-1.579.32 4.029 4.029 0 0 1-2.265-.694 4.05 4.05 0 0 1 0-6.722 4.029 4.029 0 0 1 2.265-.693c.561 0 1.095.113 1.579.319M6.345 182.79a4.054 4.054 0 1 1 4.871 3.97 4.054 4.054 0 0 1-4.871-3.969m1.788-37.178a4.006 4.006 0 0 1-.6-.495 4.048 4.048 0 0 1-1.107-2.049 4.07 4.07 0 0 1-.08-.816c0-.28.026-.555.08-.818a4.066 4.066 0 0 1 3.973-3.237 4.056 4.056 0 0 1 .818 8.026 4.104 4.104 0 0 1-1.634 0 4.054 4.054 0 0 1-1.45-.61m46.858 37.176a4.055 4.055 0 0 1-8.11 0 4.056 4.056 0 0 1 8.11 0m-.082 39.72a4.054 4.054 0 1 1-4.788-3.156 4.25 4.25 0 0 1 1.634 0 4.058 4.058 0 0 1 3.154 3.157m20.35-19.453a4.054 4.054 0 1 1-8.108-.001 4.054 4.054 0 0 1 8.108.001m0-40.536a4.054 4.054 0 1 1-8.108-.002 4.054 4.054 0 0 1 8.108.002m-40.537 40.536a4.054 4.054 0 0 1-8.108 0 4.053 4.053 0 0 1 4.053-4.053 4.052 4.052 0 0 1 4.055 4.053m0-40.536a4.054 4.054 0 1 1-8.108-.003 4.054 4.054 0 0 1 8.108.003m93.235 20.268a4.053 4.053 0 1 1 8.11-.004 4.053 4.053 0 0 1-8.11.005m28.377 20.267a4.054 4.054 0 1 1-8.108-.001 4.054 4.054 0 0 1 8.108.001m0-40.536a4.054 4.054 0 1 1-8.108-.002 4.054 4.054 0 0 1 8.108.002m-40.537 40.536a4.054 4.054 0 1 1-8.109-.001 4.054 4.054 0 0 1 8.109.001m0-40.536a4.054 4.054 0 1 1-8.109-.002 4.054 4.054 0 0 1 8.109.002m17.031-16.299a4.084 4.084 0 0 1-1.634 0 4.045 4.045 0 0 1-2.048-1.106 4.031 4.031 0 0 1-1.189-2.864 4.061 4.061 0 0 1 4.871-3.972 4.06 4.06 0 0 1 3.157 3.154 4.215 4.215 0 0 1 0 1.634 4.06 4.06 0 0 1-3.157 3.154m-40.536 32.595a4.056 4.056 0 0 1 3.154 4.789 4.056 4.056 0 0 1-8.027-.816 4.056 4.056 0 0 1 4.873-3.973m0 40.537a4.058 4.058 0 0 1 3.154 4.788 4.061 4.061 0 0 1-3.972 3.238 4.057 4.057 0 0 1-3.973-4.87 4.063 4.063 0 0 1 3.157-3.156c.263-.054.537-.08.816-.08.28 0 .553.026.818.08m120.794-32.513a4.057 4.057 0 0 1-4.055-4.05 4.056 4.056 0 0 1 4.055-4.056 4.052 4.052 0 0 1 4.054 4.055 4.052 4.052 0 0 1-4.054 4.051m24.323-24.32a4.054 4.054 0 1 1-8.109-.003 4.054 4.054 0 0 1 8.109.003m-44.591 44.589a4.057 4.057 0 0 1-4.055-4.053 4.056 4.056 0 0 1 4.055-4.053 4.053 4.053 0 1 1 0 8.106m4.053-44.589a4.054 4.054 0 1 1-8.108-.002 4.054 4.054 0 0 1 8.108.002m-22.744 16.532a4.057 4.057 0 0 1 0 7.47 4.03 4.03 0 0 1-1.579.32 4.029 4.029 0 0 1-2.265-.694 4.049 4.049 0 0 1 0-6.722 4.064 4.064 0 0 1 3.844-.374m-.761 40.301a4.062 4.062 0 0 1 3.237 3.972 4.056 4.056 0 0 1-4.055 4.054 4.029 4.029 0 0 1-2.265-.694 4.05 4.05 0 0 1 0-6.721 4.054 4.054 0 0 1 1.45-.611 4.07 4.07 0 0 1 .815-.08c.28 0 .553.026.818.08M6.345 101.716a4.054 4.054 0 1 1 8.11-.002 4.054 4.054 0 0 1-8.11.002m.082-39.721a4.054 4.054 0 1 1 7.948-1.633 4.054 4.054 0 0 1-7.948 1.633m48.564 39.721a4.054 4.054 0 1 1-8.109-.003 4.054 4.054 0 0 1 8.11.003m-.083 39.72a4.09 4.09 0 0 1 0 1.634 4.039 4.039 0 0 1-1.106 2.048 4.054 4.054 0 0 1-5.132.495 4.068 4.068 0 0 1-1.79-3.36 4.06 4.06 0 0 1 4.873-3.972 4.053 4.053 0 0 1 3.155 3.155m20.35-19.452a4.054 4.054 0 1 1-8.108-.002 4.054 4.054 0 0 1 8.108.002m0-40.537a4.054 4.054 0 1 1-8.108-.002 4.054 4.054 0 0 1 8.108.002m-40.537 40.537a4.054 4.054 0 1 1-8.108-.002 4.054 4.054 0 0 1 8.108.002m0-40.537a4.054 4.054 0 1 1-8.108-.003 4.054 4.054 0 0 1 8.108.003m93.235 20.269a4.053 4.053 0 1 1 4.055 4.053 4.057 4.057 0 0 1-4.055-4.053m28.377 20.268a4.054 4.054 0 1 1-8.108-.002 4.054 4.054 0 0 1 8.108.002m0-40.537a4.054 4.054 0 1 1-8.108-.002 4.054 4.054 0 0 1 8.108.002m-40.537 40.537a4.054 4.054 0 1 1-8.109-.002 4.054 4.054 0 0 1 8.109.002m0-40.537a4.054 4.054 0 1 1-8.109-.002 4.054 4.054 0 0 1 8.109.002m12.243-19.452a4.056 4.056 0 0 1 3.972-4.871 4.053 4.053 0 0 1 4.053 4.055c0 .278-.027.55-.08.816a4.061 4.061 0 0 1-3.973 3.237 4.06 4.06 0 0 1-3.973-3.237M92.292 97.743a4.056 4.056 0 0 1 0 7.943 4.058 4.058 0 0 1-4.873-3.97 4.056 4.056 0 0 1 4.873-3.973m0 40.537a4.056 4.056 0 0 1 3.154 4.79 4.039 4.039 0 0 1-1.106 2.048 4.054 4.054 0 0 1-5.132.495 4.056 4.056 0 0 1-1.79-3.36 4.06 4.06 0 0 1 4.873-3.972m157.279-36.565a4.054 4.054 0 1 1 8.11-.003 4.054 4.054 0 0 1-8.11.003m-32.43 0a4.054 4.054 0 1 1-8.108-.002 4.054 4.054 0 0 1 8.108.002m-.082 39.72a4.09 4.09 0 0 1 0 1.634 4.05 4.05 0 0 1-1.705 2.544 4.04 4.04 0 0 1-3.084.61 4.054 4.054 0 0 1-2.05-1.106 4.05 4.05 0 0 1-1.104-3.682 4.058 4.058 0 0 1 4.788-3.155 4.053 4.053 0 0 1 3.155 3.155m20.351-19.452a4.054 4.054 0 1 1-8.109-.002 4.054 4.054 0 0 1 8.109.002m0-40.537a4.054 4.054 0 1 1-8.109-.003 4.054 4.054 0 0 1 8.109.003m-40.538 40.537a4.054 4.054 0 1 1-8.108-.002 4.054 4.054 0 0 1 8.108.002m0-40.537a4.054 4.054 0 1 1-8.108-.002 4.054 4.054 0 0 1 8.108.002m52.781-19.452a4.056 4.056 0 0 1 3.97-4.871 4.054 4.054 0 1 1-3.97 4.87M174.127 97.98a4.055 4.055 0 1 1-3.156 7.47 4.055 4.055 0 0 1 3.156-7.47m-.761 40.3a4.062 4.062 0 0 1 3.155 4.788 4.039 4.039 0 0 1-1.106 2.05 4.006 4.006 0 0 1-1.288.87 4.104 4.104 0 0 1-2.394.236 4.054 4.054 0 0 1-2.05-1.106 4.042 4.042 0 0 1-1.107-3.683 4.062 4.062 0 0 1 3.156-3.154 4.07 4.07 0 0 1 1.634 0m157.277-36.565a4.056 4.056 0 0 1 8.11 0 4.056 4.056 0 0 1-8.11 0m-40.537 0a4.056 4.056 0 0 1 8.11 0 4.054 4.054 0 0 1-8.11 0m20.269-20.269a4.056 4.056 0 0 1 8.11 0 4.056 4.056 0 0 1-8.11 0m-32.429 40.537a4.054 4.054 0 1 1-8.108-.002 4.054 4.054 0 0 1 8.108.002m-8.108-40.537a4.054 4.054 0 1 1 8.11-.003 4.054 4.054 0 0 1-8.11.003m60.889-19.452a4.054 4.054 0 1 1 7.944-1.633 4.054 4.054 0 0 1-7.944 1.633m-40.539 0a4.056 4.056 0 1 1 7.945 0 4.058 4.058 0 0 1-3.972 3.237 4.061 4.061 0 0 1-3.973-3.237M254.44 138.28a4.053 4.053 0 0 1-.817 8.026 4.045 4.045 0 0 1-2.865-1.188 4.039 4.039 0 0 1-1.106-3.683 4.058 4.058 0 0 1 4.789-3.154m157.279-36.565a4.054 4.054 0 1 1 8.108-.002 4.054 4.054 0 0 1-8.109.002m-40.537 0a4.054 4.054 0 1 1 8.109-.002 4.054 4.054 0 0 1-8.11.002M395.504 85.5a4.057 4.057 0 0 1-4.055-4.053 4.053 4.053 0 1 1 8.108 0 4.053 4.053 0 0 1-4.053 4.053m-44.591-4.053a4.054 4.054 0 1 1 8.109-.001 4.054 4.054 0 0 1-8.109 0m60.889-19.451a4.054 4.054 0 1 1 7.944-1.633 4.054 4.054 0 0 1-7.944 1.633m48.562 39.721a4.054 4.054 0 1 1-8.108-.002 4.054 4.054 0 0 1 8.108.002m12.16-20.269a4.056 4.056 0 0 1 8.11 0 4.056 4.056 0 0 1-8.11 0m-40.536 0a4.054 4.054 0 1 1 8.109-.001 4.054 4.054 0 0 1-8.109 0m60.887-19.451a4.056 4.056 0 1 1 7.945 0 4.058 4.058 0 0 1-3.973 3.237 4.061 4.061 0 0 1-3.972-3.237m-40.535 0a4.056 4.056 0 1 1 7.943 0 4.058 4.058 0 0 1-3.973 3.237 4.057 4.057 0 0 1-3.97-3.237m84.515 35.719c-.386.208-.772.402-1.16.622-.559.4-1.127.782-1.699 1.166a4.029 4.029 0 0 1 2.859-1.788m24.853-16.267a4.054 4.054 0 1 1-8.108-.002 4.054 4.054 0 0 1 8.108.002m-44.591-4.055a4.053 4.053 0 1 1 0 8.107 4.053 4.053 0 0 1 0-8.107m56.833-15.397a4.056 4.056 0 1 1 7.945 0 4.064 4.064 0 0 1-3.973 3.237 4.061 4.061 0 0 1-3.972-3.237m-40.538 0a4.056 4.056 0 1 1 7.945 0 4.058 4.058 0 0 1-3.972 3.237 4.061 4.061 0 0 1-3.973-3.237m-32.51 39.721a4.054 4.054 0 1 1-8.108-.002 4.054 4.054 0 0 1 8.108.002M6.345 20.64a4.054 4.054 0 1 1 8.11 0 4.054 4.054 0 0 1-8.11 0m48.646 0a4.054 4.054 0 1 1-8.109-.002 4.054 4.054 0 0 1 8.11.003m-.001 40.537a4.056 4.056 0 0 1-8.11 0 4.056 4.056 0 0 1 8.11 0M75.259 40.91a4.054 4.054 0 1 1-8.108-.002 4.054 4.054 0 0 1 8.108.001" fill="#F3DEDA"/><g transform="translate(67.15)"><mask id="f" fill="#fff"><use xlink:href="#e"/></mask><path d="M0 .372C0 .245.027.124.038-.001h8.034c.011.125.036.246.036.373A4.054 4.054 0 0 1 0 .372" fill="#F3DEDA" mask="url(#f)"/></g><path d="M34.722 40.91a4.054 4.054 0 1 1-8.108-.003 4.054 4.054 0 0 1 8.108.002" fill="#F3DEDA"/><g transform="translate(26.613)"><mask id="h" fill="#fff"><use xlink:href="#g"/></mask><path d="M8.072-.001c.011.124.038.245.038.372a4.056 4.056 0 0 1-8.11 0C0 .244.027.123.036 0h8.036z" fill="#F3DEDA" mask="url(#h)"/></g><path d="M127.957 20.64a4.053 4.053 0 1 1 4.055 4.053 4.057 4.057 0 0 1-4.055-4.052m28.377 20.269a4.054 4.054 0 1 1-8.108-.002 4.054 4.054 0 0 1 8.108.001" fill="#F3DEDA"/><g transform="translate(148.226)"><mask id="j" fill="#fff"><use xlink:href="#i"/></mask><path d="M0 .372C0 .245.027.124.038-.001h8.034c.011.125.036.246.036.373A4.054 4.054 0 0 1 0 .372" fill="#F3DEDA" mask="url(#j)"/></g><path d="M115.797 40.91a4.054 4.054 0 1 1-8.109-.002 4.054 4.054 0 0 1 8.109.001" fill="#F3DEDA"/><g transform="translate(107.687)"><mask id="l" fill="#fff"><use xlink:href="#k"/></mask><path d="M8.072-.001c.011.124.038.245.038.372a4.054 4.054 0 0 1-8.11 0C0 .244.027.123.038 0h8.034z" fill="#F3DEDA" mask="url(#l)"/></g><path d="M92.292 16.668a4.058 4.058 0 0 1 3.154 4.789 4.061 4.061 0 0 1-3.972 3.237 4.057 4.057 0 0 1-4.055-4.053 4.056 4.056 0 0 1 4.873-3.973m0 40.538a4.058 4.058 0 0 1 3.154 4.788 4.061 4.061 0 0 1-3.972 3.237 4.06 4.06 0 0 1-4.055-4.053 4.056 4.056 0 0 1 4.873-3.972M249.57 20.64a4.054 4.054 0 1 1 8.11-.003 4.054 4.054 0 0 1-8.11.004m-32.43-.001a4.054 4.054 0 1 1-8.108-.001 4.054 4.054 0 0 1 8.108.002m0 40.537a4.055 4.055 0 0 1-8.108 0 4.053 4.053 0 1 1 8.108 0m20.269-20.268a4.054 4.054 0 1 1-8.109-.003 4.054 4.054 0 0 1 8.109.002" fill="#F3DEDA"/><g transform="translate(229.3)"><mask id="n" fill="#fff"><use xlink:href="#m"/></mask><path d="M0 .372C0 .245.027.124.038-.001h8.034c.01.125.036.246.036.373A4.054 4.054 0 0 1 0 .372" fill="#F3DEDA" mask="url(#n)"/></g><path d="M196.871 40.91a4.054 4.054 0 1 1-8.108-.002 4.054 4.054 0 0 1 8.108.001" fill="#F3DEDA"/><g transform="translate(188.762)"><mask id="p" fill="#fff"><use xlink:href="#o"/></mask><path d="M8.072-.001c.011.124.038.245.038.372a4.054 4.054 0 0 1-8.11 0C0 .244.027.123.038 0h8.034z" fill="#F3DEDA" mask="url(#p)"/></g><path d="M174.127 16.905a4.055 4.055 0 1 1-3.156 7.47 4.055 4.055 0 0 1 3.156-7.47m0 40.537a4.055 4.055 0 1 1-3.156 7.47 4.055 4.055 0 0 1 3.156-7.47M330.643 20.64a4.056 4.056 0 0 1 8.11 0 4.056 4.056 0 0 1-8.11 0m-32.428 0a4.054 4.054 0 1 1-8.109-.002 4.054 4.054 0 0 1 8.11.003m16.214 24.321a4.057 4.057 0 0 1-4.056-4.053 4.055 4.055 0 1 1 4.055 4.053" fill="#F3DEDA"/><g transform="translate(310.374)"><mask id="r" fill="#fff"><use xlink:href="#q"/></mask><path d="M4.055 4.425A4.057 4.057 0 0 1 0 .372C0 .245.027.124.038-.001h8.034c.011.125.038.246.038.373a4.054 4.054 0 0 1-4.055 4.053" fill="#F3DEDA" mask="url(#r)"/></g><path d="M269.838 40.91a4.054 4.054 0 1 1 8.11-.003 4.054 4.054 0 0 1-8.11.002" fill="#F3DEDA"/><g transform="translate(269.837)"><mask id="t" fill="#fff"><use xlink:href="#s"/></mask><path d="M8.072-.001c.011.124.038.245.038.372a4.054 4.054 0 0 1-8.11 0C0 .244.027.123.038 0h8.034z" fill="#F3DEDA" mask="url(#t)"/></g><path d="M411.72 20.64a4.054 4.054 0 1 1 8.108 0 4.054 4.054 0 0 1-8.109 0m-40.537 0a4.054 4.054 0 1 1 8.109 0 4.054 4.054 0 0 1-8.11 0m8.109 40.538a4.054 4.054 0 1 1-8.107-.001 4.054 4.054 0 0 1 8.106.001m12.16-20.268a4.056 4.056 0 0 1 8.11 0 4.054 4.054 0 0 1-8.11 0" fill="#F3DEDA"/><g transform="translate(391.45)"><mask id="v" fill="#fff"><use xlink:href="#u"/></mask><path d="M4.055 4.425A4.057 4.057 0 0 1 0 .372C0 .245.027.124.038-.001h8.034c.011.125.036.246.036.373a4.053 4.053 0 0 1-4.053 4.053" fill="#F3DEDA" mask="url(#v)"/></g><path d="M350.913 40.91a4.054 4.054 0 1 1 8.109-.002 4.054 4.054 0 0 1-8.109.001" fill="#F3DEDA"/><g transform="translate(350.913)"><mask id="x" fill="#fff"><use xlink:href="#w"/></mask><path d="M0 .372C0 .245.027.124.038-.001H8.07c.011.125.038.246.038.373A4.054 4.054 0 0 1 0 .372" fill="#F3DEDA" mask="url(#x)"/></g><path d="M492.792 20.64a4.056 4.056 0 0 1 8.11 0 4.056 4.056 0 0 1-8.11 0m-40.537 0a4.056 4.056 0 0 1 8.11 0 4.056 4.056 0 0 1-8.11 0m20.269 20.27a4.056 4.056 0 0 1 8.11 0 4.056 4.056 0 0 1-8.11 0" fill="#F3DEDA"/><g transform="translate(472.524)"><mask id="z" fill="#fff"><use xlink:href="#y"/></mask><path d="M4.055 4.425A4.057 4.057 0 0 1 0 .372C0 .245.025.124.038-.001h8.034c.011.125.036.246.036.373a4.054 4.054 0 0 1-4.053 4.053" fill="#F3DEDA" mask="url(#z)"/></g><path d="M431.988 40.91a4.054 4.054 0 1 1 8.109-.002 4.054 4.054 0 0 1-8.109.001" fill="#F3DEDA"/><g transform="translate(431.988)"><mask id="B" fill="#fff"><use xlink:href="#A"/></mask><path d="M0 .372C0 .245.025.124.038-.001H8.07c.011.125.038.246.038.373A4.055 4.055 0 0 1 0 .372" fill="#F3DEDA" mask="url(#B)"/></g><path d="M573.867 20.64a4.056 4.056 0 1 1 8.028.817 4.064 4.064 0 0 1-3.973 3.237 4.057 4.057 0 0 1-4.055-4.053m-40.537-.001a4.056 4.056 0 0 1 8.11 0 4.056 4.056 0 0 1-8.11 0m20.269 20.27a4.056 4.056 0 0 1 8.11 0 4.056 4.056 0 0 1-8.11 0" fill="#F3DEDA"/><g transform="translate(553.6)"><mask id="D" fill="#fff"><use xlink:href="#C"/></mask><path d="M4.055 4.425A4.057 4.057 0 0 1 0 .372C0 .245.025.124.036-.001h8.036c.011.125.036.246.036.373a4.054 4.054 0 0 1-4.053 4.053" fill="#F3DEDA" mask="url(#D)"/></g><path d="M513.061 40.91a4.056 4.056 0 0 1 8.11 0 4.056 4.056 0 0 1-8.11 0" fill="#F3DEDA"/><g transform="translate(513.061)"><mask id="F" fill="#fff"><use xlink:href="#E"/></mask><path d="M0 .372C0 .245.027.124.038-.001h8.034c.011.125.038.246.038.373a4.056 4.056 0 0 1-8.11 0" fill="#F3DEDA" mask="url(#F)"/></g><path d="M614.405 20.64a4.056 4.056 0 0 1 8.11 0 4.056 4.056 0 0 1-8.11 0" fill="#F3DEDA"/><g transform="translate(634.674)"><mask id="H" fill="#fff"><use xlink:href="#G"/></mask><path d="M4.053 4.425A4.057 4.057 0 0 1 0 .372C0 .245.025.124.036-.001h8.036c.011.125.036.246.036.373a4.054 4.054 0 0 1-4.055 4.053" fill="#F3DEDA" mask="url(#H)"/></g><path d="M598.192 36.855a4.053 4.053 0 0 1 0 8.108 4.057 4.057 0 0 1-4.055-4.053 4.056 4.056 0 0 1 4.055-4.055" fill="#F3DEDA"/><g transform="translate(594.136)"><mask id="J" fill="#fff"><use xlink:href="#I"/></mask><path d="M0 .372C0 .245.027.124.038-.001h8.034c.011.125.038.246.038.373a4.056 4.056 0 0 1-8.11 0" fill="#F3DEDA" mask="url(#J)"/></g><path d="M857.437 914.973c28.308-33.701 41.789-74.142 74.14-102.45 32.355-28.31 71.448-41.79 113.236-39.094 49.878 4.045 88.971 33.702 125.369 67.402 18.871 18.873 44.486 29.656 70.097 32.352 47.182 5.393 84.927-24.263 125.367-45.833 25.493-14.38 51.302-12.595 74.353-1.563v-183.24c-53.437 71.994-164.411 91.334-242.857 52.696-63.358-31.006-153.676-126.714-208.945-45.833-31.007 45.833-32.352 102.45-79.535 137.5-40.44 29.656-93.016 28.308-121.324 71.446-19.803 32.62-23.515 70.267-43.294 101.643h62.094c18.788-12.107 35.893-27.152 51.299-45.026" fill="#F4E3C6"/><path d="M1440 825.787c-23.052-11.032-48.86-12.818-74.355 1.563-40.439 21.57-78.184 51.226-125.366 45.834-25.611-2.697-51.226-13.48-70.097-32.354-36.398-33.7-75.49-63.356-125.369-67.401-41.788-2.696-80.882 10.784-113.236 39.093-32.352 28.308-45.832 68.75-74.14 102.451-15.406 17.873-32.512 32.919-51.299 45.026H1440V825.787z" fill="#F4BC60"/><path d="m1403.382 925.43-68.392-68.392-.238-.238-.238-.238-7.375-7.375c-.981.547-1.958 1.094-2.941 1.634l8.025 8.027.238.239 68.395 68.392.238.238.002.002.238.238 32.04 32.043h4.576l-34.568-34.57zm-22.876 22.877-.239-.238-68.392-68.392-15.4-15.4c-1.093.441-2.187.871-3.287 1.288l16.159 16.16.238.239.24.238 68.392 68.392h.002l9.402 9.406h4.577l-11.454-11.455-.238-.238zm-11.44 11.438-.238-.238-68.392-68.39-21.078-21.079c-1.215.323-2.436.626-3.663.912l22.214 22.215.238.238.238.238 66.36 66.359h4.574l-.015-.017-.238-.238zm22.877-22.877-.238-.238-68.392-68.393-.239-.238-10.867-10.865a323.31 323.31 0 0 1-3.062 1.513l11.64 11.641.239.238.238.238 68.394 68.39v.002L1410.498 960h4.577l-22.894-22.894-.238-.238zm22.877-22.878-68.392-68.391-.238-.239-.239-.238-4.256-4.256c-.966.56-1.932 1.12-2.9 1.678l4.868 4.865.238.238 68.394 68.394.238.238.238.239L1440 943.747v-4.575l-25.179-25.18v-.001zm-30.358-94.413 55.538 55.54v-4.575l-51.85-51.852a73.936 73.936 0 0 0-3.688.887m55.538 6.21a98.876 98.876 0 0 0-6.343-2.767l6.342 6.342v-3.575z" fill="#F4E3C6"/><g transform="translate(1368.05 824.525)"><mask id="L" fill="#fff"><use xlink:href="#K"/></mask><path d="M0 1.519 67.121 68.64l.238.238.238.238 4.353 4.353v-4.576l-2.064-2.064-.24-.24-.236-.238L3.059 0C2.039.484 1.019.985 0 1.519" fill="#F4E3C6" mask="url(#L)"/></g><path d="m1440 847.665-30.37-30.369a71.612 71.612 0 0 0-4.81-.236l35.18 35.18v-4.575zm-82.371-13.742-.238-.238-1.16-1.16c-.973.551-1.949 1.1-2.922 1.655l1.795 1.791.238.239 68.392 68.394.238.238.238.238 15.79 15.79v-4.575l-13.74-13.742-68.392-68.392-.238-.238zm-114.385 114.384-.24-.238-68.392-68.392-68.63-68.63-.238-.24v.001l-31.951-31.952a146.986 146.986 0 0 0-6.298-1.72l36.198 36.197.238.238 68.154 68.154.238.239.24.238 68.393 68.392 9.404 9.406h4.575l-11.453-11.455-.238-.238zm22.876-22.877-61.567-61.568a117.205 117.205 0 0 1-8.817-4.24l67.858 67.857.239.238v.002l.238.238L1296.113 960h4.576l-34.568-34.57h-.002zm-34.315 34.315-.238-.238-68.392-68.39v-.003l-68.393-68.392-.238-.238-.238-.238-48.745-48.743c-.25-.023-.497-.052-.749-.073-1.37-.09-2.741-.158-4.11-.211l51.314 51.313.24.239 68.39 68.394.24.238.238.238 66.36 66.359h4.574l-.015-.017-.238-.238zm22.877-22.877-.238-.238-68.393-68.393-.238-.238-68.154-68.154-.238-.238-.238-.238-1.423-1.42a203.145 203.145 0 0 0-10.748-6.174l9.882 9.883.238.236.238.24 68.155 68.154.238.238.238.238 68.394 68.39v.002L1273.237 960h4.575l-22.892-22.894-.238-.238zm34.236-34.393-29.016-29.017a99.66 99.66 0 0 1-4.31.265l30.88 30.879.159.16.078.078.239.238 54.92 54.922h4.577l-57.449-57.447-.079-.078zm-11.598 11.28-41.074-41.077c-1.816-.25-3.63-.532-5.443-.866l44.23 44.23.239.237.238.239L1318.99 960h4.576l-46.007-46.01-.238-.235zm-125.585-11.202-68.392-68.392-.239-.238-.238-.238-60.15-60.152c-1.407.104-2.808.227-4.208.369l62.07 62.07.238.238 68.394 68.392.238.238.238.238 54.92 54.922h4.575l-57.446-57.447zm-45.754 45.754-.238-.238-68.392-68.392-.238-.238-68.393-68.393-.238-.24-.002.002-14.728-14.73c-.937.582-1.868 1.177-2.797 1.78l15.477 15.475.238.238 68.154 68.154.238.239.238.238 68.395 68.392 9.404 9.406h4.575l-11.455-11.455-.238-.238zm-11.437 11.438-.238-.238-68.393-68.39-.002-.003-68.39-68.392-.238-.238-.238-.238-16.812-16.812c-.86.66-1.72 1.325-2.573 2.005l17.332 17.332 68.393 68.394.238.238.24.238L1090.222 960h4.575l-.015-.017-.238-.238zm22.956-22.797-.08-.08-.237-.238-68.393-68.393-.24-.238-68.152-68.154-.24-.238-11.62-11.62a167.64 167.64 0 0 0-3.064 1.511l12.157 12.16.238.238.238.238 68.155 68.154.238.238.24.238 68.394 68.392.079.08L1135.975 960h4.576l-22.892-22.894-.16-.158zm22.797-22.955-68.392-68.394-.238-.239-.238-.238-68.154-68.154-.238-.238-.24-.238-.127-.127c-1.248.263-2.494.546-3.736.84l1.574 1.574.238.238.238.238 68.154 68.154.238.24 68.395 68.392.238.238.238.239 43.48 43.482h4.577l-46.007-46.007zm-11.517 11.358-68.314-68.313-.238-.238-.238-.238-68.155-68.155-.238-.238-.238-.238-6.612-6.612c-1.127.39-2.249.793-3.368 1.208l7.692 7.691.238.238.238.238 68.154 68.154.238.239 68.394 68.392.16.16.078.078.238.24L1158.85 960h4.578l-34.57-34.57-.079-.079zm-114.306-22.798-68.393-68.392-.238-.238-.238-.238-17.754-17.754a135.84 135.84 0 0 0-2.33 2.246l17.796 17.795.238.238 68.394 68.392.238.238.238.238L1067.343 960h4.577l-57.446-57.447zm-45.754 45.754-.238-.238-68.393-68.392-11.203-11.203c-.576.948-1.15 1.898-1.726 2.849l10.4 10.402.239.239.24.238 68.394 68.392.238.238 9.164 9.168h4.578l-11.455-11.455-.238-.238zm22.877-22.877-68.392-68.392-.239-.238-.238-.238-15.957-15.957a240.85 240.85 0 0 0-1.887 2.69l15.554 15.553.24.239 68.394 68.392.238.238v.002l.238.238L1021.59 960h4.577l-34.57-34.57zm-34.236 34.395-.079-.08-.238-.238-68.156-68.153h.002l-.24-.24-8.43-8.43a365.37 365.37 0 0 1-1.76 2.818l7.663 7.663.238.238L952.96 960h4.577l-.015-.017-.16-.158zm22.799-22.957h-.003l-.238-.238-68.392-68.393-.238-.238-13.682-13.682c-.593.934-1.18 1.87-1.768 2.81L909 870.287l.238.238.24.238 68.393 68.39v.002L998.712 960h4.577l-22.892-22.894-.238-.238zm22.874-22.875-68.39-68.394-.24-.239-.238-.238-17.418-17.418c-.703.826-1.398 1.657-2.08 2.494l17.21 17.211.237.24 68.394 68.392.239.238.238.239 43.48 43.482h4.577l-46.007-46.007h-.002zm-171.575 34.314-.238-.238-3.721-3.72c-.837.692-1.682 1.368-2.529 2.046l3.961 3.96.238.239h.002l9.402 9.406h4.577l-11.454-11.455-.238-.238zm22.876-22.877-3.31-3.308c-.735.793-1.49 1.56-2.234 2.34l3.018 3.017.238.238v.002l.24.238L884.327 960h4.576l-34.568-34.57zm-34.315 34.315-.239-.238-5.236-5.236c-.89.635-1.787 1.267-2.688 1.887l3.84 3.842h4.575l-.015-.017-.238-.238zm22.876-22.877-.238-.238-3.005-3.005c-.789.743-1.593 1.455-2.388 2.189l3.106 3.102.238.239v.001L861.451 960h4.577l-22.894-22.894-.238-.238zm22.877-22.878-4.172-4.17c-.668.853-1.34 1.704-2.026 2.55l3.673 3.671.238.238.238.239L907.204 960h4.578l-46.009-46.007v-.002zm11.201-11.675-5.739-5.739c-.616.907-1.236 1.811-1.864 2.713l5.316 5.313.239.238.238.238L930.08 960h4.578l-57.447-57.447-.238-.238z" fill="#F4E3C6"/><path d="M1149.361 156.806c8.425 8.423 8.425 22.08 0 30.505-8.423 8.423-22.08 8.423-30.505 0-8.42-8.425-8.42-22.082 0-30.505 8.425-8.423 22.082-8.423 30.505 0" fill="#F6BD60"/><path d="M1164.03 150.41c8.424 8.423 8.424 22.08 0 30.505-8.424 8.423-22.08 8.423-30.506 0-8.42-8.425-8.423-22.082 0-30.505 8.425-8.423 22.082-8.423 30.505 0z" stroke="#F28482" stroke-width=".75"/><path d="M418.385 876.264c-10.316-5.958-13.853-19.15-7.895-29.466 5.956-10.316 19.146-13.853 29.464-7.895 10.316 5.957 13.851 19.15 7.897 29.466-5.958 10.316-19.15 13.85-29.466 7.895" fill="#F28482"/><path d="M394.565 893.36c-10.318-5.956-13.853-19.148-7.895-29.464 5.956-10.318 19.146-13.853 29.464-7.895 10.316 5.958 13.851 19.148 7.895 29.466-5.956 10.316-19.148 13.851-29.464 7.893z" stroke="#F6BD60" stroke-width=".75"/><path d="M180.05 135.665c1.054-11.867 11.526-20.632 23.393-19.578 11.866 1.054 20.63 11.528 19.577 23.393-1.053 11.866-11.528 20.633-23.394 19.579-11.865-1.055-20.63-11.528-19.576-23.394" fill="#F6BD60"/><path d="M154.506 121.27c1.054-11.868 11.528-20.633 23.393-19.58 11.866 1.055 20.63 11.529 19.576 23.394-1.052 11.866-11.527 20.632-23.393 19.578-11.865-1.054-20.63-11.527-19.576-23.393z" stroke="#85A8C6" stroke-width=".75"/><path d="M1096.297 798.116c1.054-11.868 11.527-20.63 23.395-19.576 11.866 1.054 20.63 11.527 19.576 23.391-1.054 11.868-11.527 20.63-23.393 19.578-11.866-1.054-20.632-11.527-19.578-23.393" fill="#85A8C6"/><path d="M1070.754 783.72c1.054-11.868 11.527-20.63 23.395-19.577 11.864 1.054 20.63 11.528 19.576 23.392-1.054 11.867-11.527 20.63-23.395 19.58-11.864-1.056-20.63-11.53-19.576-23.395z" stroke="#F28482" stroke-width=".75"/><path d="M313.172 783.498c0 77.664-62.959 140.623-140.623 140.623-77.665 0-140.624-62.959-140.624-140.623 0-77.664 62.959-140.624 140.624-140.624 77.664 0 140.623 62.96 140.623 140.624z" stroke="#F6BD60" stroke-width=".75"/><path d="m193.814 828.933-86.137-41.8c-3.974-.351-7.987-.563-12.054-.563-2.02 0-4.022.064-6.019.152l115.73 56.162a135.316 135.316 0 0 0-11.52-13.95M49.092 794.799l174.942 84.895a134.152 134.152 0 0 0-3.765-10.186L59.504 791.491c-3.527.977-7.008 2.06-10.412 3.308M21.138 808.97l209.077 101.46c-.246-2.973-.557-5.926-.991-8.84L28.745 804.3a137.59 137.59 0 0 0-7.607 4.67" fill="#F5CAC3"/><g transform="translate(0 820.863)"><mask id="N" fill="#fff"><use xlink:href="#M"/></mask><path d="m-.137 5.52 229.843 111.537c.32-2.646.573-5.313.736-8.003L5.714 0a135.575 135.575 0 0 0-5.85 5.52" fill="#F5CAC3" mask="url(#N)"/></g><g transform="translate(0 840.01)"><mask id="P" fill="#fff"><use xlink:href="#O"/></mask><path d="m-16.445 6.194 240.69 116.803a133.636 133.636 0 0 0 2.144-7.32L-11.985 0a136.384 136.384 0 0 0-4.46 6.194" fill="#F5CAC3" mask="url(#P)"/></g><g transform="translate(0 861.316)"><mask id="R" fill="#fff"><use xlink:href="#Q"/></mask><path d="m-28.425 6.812 242.87 117.86a134.775 134.775 0 0 0 3.384-6.719L-25.238 0a135.023 135.023 0 0 0-3.187 6.812" fill="#F5CAC3" mask="url(#R)"/></g><g transform="translate(0 884.657)"><mask id="T" fill="#fff"><use xlink:href="#S"/></mask><path d="m-36.185 7.442 236.59 114.812a135.64 135.64 0 0 0 4.663-6.096L-34.296 0a134.777 134.777 0 0 0-1.89 7.442" fill="#F5CAC3" mask="url(#T)"/></g><g transform="translate(0 910.138)"><mask id="V" fill="#fff"><use xlink:href="#U"/></mask><path d="m-39.385 8.145 221.24 107.362c2.09-1.734 4.11-3.548 6.09-5.403L-38.945 0a135.725 135.725 0 0 0-.44 8.145" fill="#F5CAC3" mask="url(#V)"/></g><g transform="translate(0 938.12)"><mask id="X" fill="#fff"><use xlink:href="#W"/></mask><path d="m-37.034 9.04 194.711 94.488c2.723-1.41 5.409-2.88 8.02-4.466L-38.436 0c.37 3.045.834 6.06 1.402 9.04" fill="#F5CAC3" mask="url(#X)"/></g><g transform="translate(1382.83 253.016)"><mask id="Z" fill="#fff"><use xlink:href="#Y"/></mask><path d="M76.564 31.125 13.279.415A99.73 99.73 0 0 0 4.422 0 99.73 99.73 0 0 0 0 .111l85.03 41.263a99.784 99.784 0 0 0-8.466-10.249" fill="#85A8C6" mask="url(#Z)"/></g><g transform="translate(1353.065 256.631)"><mask id="ab" fill="#fff"><use xlink:href="#aa"/></mask><path d="m0 2.43 128.534 62.376a98.668 98.668 0 0 0-2.766-7.484L7.649 0A99.441 99.441 0 0 0 0 2.43" fill="#85A8C6" mask="url(#ab)"/></g><g transform="translate(1332.526 266.045)"><mask id="ad" fill="#fff"><use xlink:href="#ac"/></mask><path d="m0 3.43 153.613 74.543c-.18-2.183-.409-4.353-.727-6.495L5.59 0A99.167 99.167 0 0 0 0 3.43" fill="#85A8C6" mask="url(#ad)"/></g><g transform="translate(1316.896 278.212)"><mask id="af" fill="#fff"><use xlink:href="#ae"/></mask><path d="m0 4.055 168.87 81.95c.234-1.945.42-3.904.54-5.881L4.298 0A100.838 100.838 0 0 0 0 4.055" fill="#85A8C6" mask="url(#af)"/></g><g transform="translate(1304.913 292.28)"><mask id="ah" fill="#fff"><use xlink:href="#ag"/></mask><path d="m0 4.55 176.84 85.817a98.925 98.925 0 0 0 1.576-5.378L3.277 0A100.792 100.792 0 0 0 0 4.55" fill="#85A8C6" mask="url(#ah)"/></g><g transform="translate(1296.112 307.935)"><mask id="aj" fill="#fff"><use xlink:href="#ai"/></mask><path d="m0 5.004 178.441 86.593a96.396 96.396 0 0 0 2.484-4.936L2.342 0A98.123 98.123 0 0 0 0 5.004" fill="#85A8C6" mask="url(#aj)"/></g><g transform="translate(1290.41 325.082)"><mask id="al" fill="#fff"><use xlink:href="#ak"/></mask><path d="m0 5.468 173.827 84.355a99.673 99.673 0 0 0 3.427-4.479L1.39 0A97.766 97.766 0 0 0 0 5.468" fill="#85A8C6" mask="url(#al)"/></g><g transform="translate(1288.06 343.803)"><mask id="an" fill="#fff"><use xlink:href="#am"/></mask><path d="m0 5.985 162.55 78.88a99.618 99.618 0 0 0 4.473-3.97L.32 0A99.371 99.371 0 0 0 0 5.985" fill="#85A8C6" mask="url(#an)"/></g><path d="m1289.787 371.004 143.058 69.423c2-1.036 3.974-2.115 5.892-3.28l-149.98-72.784a97.84 97.84 0 0 0 1.03 6.641m7.977 24.25 111.058 53.894a97.692 97.692 0 0 0 8.19-2.168l-122.555-59.472a99.075 99.075 0 0 0 3.307 7.746m25.2 32.608 44.797 21.74a99.481 99.481 0 0 0 16.464 1.847l-73.048-35.45a99.533 99.533 0 0 0 11.787 11.863" fill="#85A8C6"/><g transform="translate(1078.337 108.546)"><mask id="ap" fill="#fff"><use xlink:href="#ao"/></mask><path d="M491.862 245.93c0 135.826-110.108 245.93-245.931 245.93C110.106 491.86 0 381.756 0 245.93 0 110.107 110.106 0 245.93 0s245.932 110.106 245.932 245.93z" stroke="#85A8C6" stroke-width=".75" mask="url(#ap)"/></g><g transform="translate(1095.004 125.212)"><mask id="ar" fill="#fff"><use xlink:href="#aq"/></mask><path d="M458.529 229.265c0 126.619-102.645 229.266-229.264 229.266C102.645 458.53 0 355.884 0 229.265 0 102.645 102.645 0 229.265 0 355.884 0 458.53 102.645 458.53 229.265z" stroke="#85A8C6" stroke-width=".75" mask="url(#ar)"/></g><path d="M988.002 166.094c3.138.384-108.71 46.642-108.71 46.642l55.515-104.494 53.195 57.852z" fill="#F6BD60"/><path d="M992.214 144.18c3.135.384-108.71 46.642-108.71 46.642L939.015 86.33l53.198 57.85z" fill="#F6BD60"/><path d="m992.214 144.18-.355-.386-1.951 1.795c1.764-.866 2.62-1.37 2.306-1.41m-22.024 10.213 17.02-15.652-.842-.918-19.644 18.062c1.183-.507 2.339-1.006 3.466-1.492m-22.367 9.544 33.896-31.17-.843-.917-36.461 33.527c1.139-.48 2.275-.96 3.408-1.44m-22.11 9.305 50.513-46.448-.844-.918-53.052 48.783c1.12-.468 2.246-.94 3.383-1.417m-21.966 9.176 66.987-61.598-.844-.918-69.506 63.915c1.084-.45 2.206-.918 3.363-1.4m-19.398 6.815 80.893-74.384-.847-.918-78.288 71.99zm11.451-21.555 63.949-58.802-.845-.917-61.344 56.407zm11.45-21.552 47.005-43.223-.844-.918-44.402 40.83zm11.45-21.554 30.062-27.643-.843-.916-27.46 25.248zm13.21-24.864-1.759 3.312 13.12-12.064-.843-.918z" fill="#F28482"/><path d="M852.627 510.963c.64 1.98-58.003-52.049-58.003-52.049l77.837 4.222-19.834 47.827z" fill="#F6BD60"/><path d="M859.458 501.031c.64 1.98-58.003-52.049-58.003-52.049l77.837 4.222-19.834 47.827z" fill="#F5CAC3"/><path d="m859.458 501.031.13-.318-1.61-.67c1.006.814 1.543 1.186 1.48.988m-12.206-10.334 14.072 5.836.312-.758-16.237-6.735c.63.566 1.25 1.119 1.853 1.657m-11.905-10.723 28.025 11.621.315-.76-30.144-12.5 1.804 1.639m-11.687-10.636 41.759 17.319.315-.759-43.859-18.19 1.786 1.63m-11.571-10.586 55.377 22.965.314-.758-57.461-23.83 1.77 1.623m-9.45-9.706 66.875 27.735.313-.759-64.72-26.841zm16.055.871 52.868 21.925.315-.759-50.715-21.031zm16.056.871 38.859 16.117.315-.759-36.709-15.223zm16.054.872 24.852 10.306.315-.759-22.7-9.414zm18.523 1.004-2.467-.134 10.844 4.498.315-.76z" fill="#F28482"/><path d="M1043.557 314.003c-2.563-.296 58.44-26.71 58.44-26.71l11.087 63.35-69.527-36.64z" fill="#F6BD60"/><path d="M1050.206 296.025c-2.564-.296 58.443-26.711 58.443-26.711l11.086 63.35-69.53-36.64z" fill="#F28482"/><path d="M329.134 623.613c.4 2.612-46.714-54.002-46.714-54.002l68.103-21.623-21.39 75.625z" fill="#F6BD60"/><path d="M325.816 608.934c.4 2.611-46.713-54.002-46.713-54.002l68.104-21.623-21.39 75.625z" fill="#F28482"/><path d="m325.816 608.934.142-.505-1.363-.384c.818.81 1.261 1.152 1.221.889m-9.882-10.476 11.892 3.364.34-1.2-13.724-3.882c.509.586 1.006 1.16 1.492 1.718m-9.582-11.143 23.683 6.7.34-1.2-25.477-7.207 1.454 1.707m-9.402-11.092 35.294 9.982.34-1.2-37.068-10.485c.474.564.953 1.13 1.434 1.703m-9.3-11.065 46.803 13.239.34-1.198-48.566-13.738c.459.545.933 1.114 1.423 1.697m-7.509-10.556 56.52 15.986.339-1.2-54.7-15.47zm14.048-4.46 44.68 12.639.34-1.2-42.862-12.123zm14.046-4.459 32.844 9.289.34-1.2-31.026-8.775zm14.047-4.461 21.005 5.942.34-1.2-19.187-5.425zm16.205-5.145-2.158.686 9.166 2.592.34-1.2z" fill="#F7EDE2"/><path d="M319.907 191.433c-.64-1.98 58.003 52.048 58.003 52.048l-77.836-4.22 19.833-47.828z" fill="#F6BD60"/><path d="M315.769 173.53c-.64-1.981 58.003 52.047 58.003 52.047l-77.837-4.222 19.834-47.825z" fill="#85A8C6"/><path d="m315.769 173.53-.133.319 1.615.668c-1.006-.814-1.545-1.187-1.482-.987m12.207 10.333-14.072-5.837-.314.76 16.237 6.734-1.85-1.657m11.902 10.724-28.023-11.622-.315.759 30.142 12.501c-.602-.55-1.205-1.094-1.804-1.638m11.688 10.635-41.76-17.318-.315.758 43.859 18.188c-.59-.54-1.185-1.08-1.784-1.628m11.571 10.585-55.379-22.965-.312.759 57.461 23.83-1.77-1.624m9.448 9.706-66.873-27.734-.315.76 64.723 26.84zm-16.056-.871-52.867-21.924-.313.758 50.715 21.034zm-16.053-.87-38.86-16.117-.314.76 36.707 15.224zm-16.055-.872-24.852-10.306-.315.759 22.7 9.415zm-18.523-1.003 2.467.134-10.846-4.499-.313.759zM745.53 812.943c2.562.294-58.442 26.711-58.442 26.711l-11.086-63.352 69.527 36.641z" fill="#F6BD60"/><path d="M736.932 793.037c2.562.293-58.442 26.71-58.442 26.71l-11.086-63.352 69.528 36.642z" fill="#F6BD60"/><path d="M53.599 514.637a4.547 4.547 0 0 1 4.546 4.544 4.547 4.547 0 0 1-9.093 0 4.546 4.546 0 0 1 4.547-4.544m0-33.4a4.547 4.547 0 1 1-.002 9.092 4.547 4.547 0 0 1 .002-9.092m0-33.398a4.547 4.547 0 1 1-.002 9.094 4.547 4.547 0 0 1 .002-9.094m0-33.399a4.547 4.547 0 1 1-.002 9.095 4.547 4.547 0 0 1 .002-9.095m0-33.398a4.547 4.547 0 1 1-.002 9.092 4.547 4.547 0 0 1 .002-9.092m34.388 133.595a4.546 4.546 0 1 1 0 9.09 4.546 4.546 0 1 1 0-9.09m0-33.4a4.547 4.547 0 1 1-.001 9.095 4.547 4.547 0 0 1 .001-9.095m0-33.398a4.546 4.546 0 1 1 .001 9.092 4.546 4.546 0 0 1 0-9.092m-.001-33.399a4.546 4.546 0 1 1 .001 9.092 4.546 4.546 0 0 1 0-9.092m-.001-33.398a4.547 4.547 0 1 1-.001 9.095 4.547 4.547 0 0 1 .001-9.095m34.39 133.595a4.546 4.546 0 1 1 0 9.09 4.546 4.546 0 1 1 0-9.09m0-33.4a4.547 4.547 0 1 1-.002 9.095 4.547 4.547 0 0 1 .002-9.095m0-33.398a4.546 4.546 0 1 1 0 9.092 4.546 4.546 0 0 1 0-9.092m0-33.399a4.546 4.546 0 1 1 0 9.092 4.546 4.546 0 0 1 0-9.092m0-33.398a4.547 4.547 0 1 1-.002 9.095 4.547 4.547 0 0 1 .002-9.095m1133.75 366.016a4.544 4.544 0 0 1-4.544 4.544 4.546 4.546 0 1 1 4.545-4.545m33.399.001a4.547 4.547 0 1 1-9.095-.002 4.547 4.547 0 0 1 9.095.002m33.397 0a4.546 4.546 0 1 1-9.09 0 4.546 4.546 0 1 1 9.09 0m33.4 0a4.547 4.547 0 1 1-9.095-.002 4.547 4.547 0 0 1 9.095.002m33.397 0a4.546 4.546 0 1 1-9.092 0 4.546 4.546 0 0 1 9.092 0m-133.594 34.389a4.546 4.546 0 1 1-9.09 0 4.546 4.546 0 1 1 9.09 0m33.4 0a4.547 4.547 0 1 1-9.095-.001 4.547 4.547 0 0 1 9.095.001m33.397 0a4.546 4.546 0 1 1-9.09 0 4.546 4.546 0 1 1 9.09 0m33.4 0a4.547 4.547 0 1 1-9.095-.001 4.547 4.547 0 0 1 9.095.001m33.397 0a4.546 4.546 0 1 1-9.092.001 4.546 4.546 0 0 1 9.092 0" fill="#F28482"/></g></svg>