<svg width="340" height="340" xmlns="http://www.w3.org/2000/svg" xmlns:xlink="http://www.w3.org/1999/xlink"><defs><path id="a" d="M0 278.394h258.164V0H0z"/></defs><g fill="none" fill-rule="evenodd"><g transform="translate(43 31)"><path d="M127.655 151.451H32.84c-5.967 0-10.804-4.837-10.804-10.805V41.068c0-5.968 4.837-10.805 10.804-10.805h94.815c5.967 0 10.804 4.837 10.804 10.805v99.578c0 5.968-4.837 10.805-10.804 10.805" fill="#40322F"/><path d="M127.655 141.111H32.84c-5.967 0-10.804-4.836-10.804-10.804V30.728c0-5.967 4.837-10.804 10.804-10.804h94.815c5.967 0 10.804 4.837 10.804 10.804v99.579c0 5.968-4.837 10.804-10.804 10.804" fill="#544945"/><path d="M122.805 39.313c0 21.71-19.054 39.312-42.558 39.312S37.69 61.024 37.69 39.313 56.743 0 80.247 0s42.558 17.6 42.558 39.312" fill="#544945"/><path d="M80.247 10.385c-18.776 0-33.998 14.77-33.998 32.99h67.996c0-18.22-15.221-32.99-33.998-32.99" fill="#FFF"/><path fill="#E06C61" d="m81.312 43.976-2.13-1.203 16.349-28.93 2.13 1.203z"/><path d="M83.671 43.374a3.424 3.424 0 1 1-6.848 0 3.424 3.424 0 0 1 6.848 0" fill="#E06C61"/><mask id="b" fill="#fff"><use xlink:href="#a"/></mask><path fill="#2C3F5D" mask="url(#b)" d="M79.024 16.402h2.446v-6.016h-2.446zm28.965 24.136h5.997v-2.446h-5.997zm-61.481 0h5.998v-2.446h-5.998zm51.681-17.436-1.73-1.729 4.418-4.422 1.73 1.728zm-35.884 0-4.417-4.423 1.73-1.728 4.417 4.422zm42.208 7.63-.926-2.264 5.841-2.387.926 2.264zM70.345 18.278l-2.305-5.64 2.265-.925 2.304 5.64zm19.633-.068-2.272-.906 2.254-5.655 2.273.906zM55.879 30.912l-5.856-2.333.45-1.13-.002-1.23h.24l6.074 2.42z"/><path d="M85.66 82.474a5.413 5.413 0 1 1-10.826 0 5.413 5.413 0 0 1 10.826 0" fill="#D8503A" mask="url(#b)"/><path d="M85.66 81.007a5.412 5.412 0 1 1-10.825 0 5.412 5.412 0 0 1 10.825 0" fill="#E67259" mask="url(#b)"/><path d="M61.69 105.466a5.412 5.412 0 1 1-10.824 0 5.412 5.412 0 0 1 10.824 0" fill="#D8503A" mask="url(#b)"/><path d="M61.69 103.998a5.413 5.413 0 1 1-10.826 0 5.413 5.413 0 0 1 10.826 0" fill="#E67259" mask="url(#b)"/><path d="M108.406 105.466a5.412 5.412 0 1 1-10.824 0 5.412 5.412 0 0 1 10.824 0" fill="#D8503A" mask="url(#b)"/><path d="M108.406 103.998a5.413 5.413 0 1 1-10.826 0 5.413 5.413 0 0 1 10.826 0" fill="#E67259" mask="url(#b)"/><path d="M196.495 137.696c-.015-.015-3.02-3.402-10.648-5.706-12.953-3.91-28.901-1.732-39.998.784-15.325 3.474-27.213 2.143-35.334-3.957-9.212-6.918-9.936-17.353-9.962-17.793l4.882-.301c.006.086.666 8.706 8.078 14.228 6.922 5.158 17.437 6.185 31.254 3.052 41.584-9.428 54.936 5.903 55.485 6.56l-3.757 3.133z" fill="#F7941E" mask="url(#b)"/><path d="M235.315 154.613c0 13.38-10.846 24.226-24.226 24.226-13.378 0-24.225-10.847-24.225-24.226s10.847-24.225 24.225-24.225c13.38 0 24.226 10.846 24.226 24.225" fill="#544945" mask="url(#b)"/><path fill="#000" mask="url(#b)" d="M208.644 130.388h4.892V92.611h-4.892z"/><path d="M223.942 92.61c0 7.098-5.753 12.856-12.851 12.856a12.837 12.837 0 0 1-11.138-6.443 12.733 12.733 0 0 1-1.717-6.413c0-7.098 5.753-12.855 12.855-12.855 2.333 0 4.52.621 6.409 1.717a12.837 12.837 0 0 1 6.442 11.138" fill="#D8503A" mask="url(#b)"/><path d="M219.216 87.885c0 7.098-5.753 12.855-12.855 12.855-2.333 0-4.52-.621-6.409-1.717a12.74 12.74 0 0 1-1.716-6.413c0-7.098 5.752-12.855 12.855-12.855 2.333 0 4.52.62 6.408 1.717a12.733 12.733 0 0 1 1.717 6.413" fill="#E67259" mask="url(#b)"/><path d="M203.03 87.137c0 1.495 1.275 2.707 2.848 2.707s2.848-1.212 2.848-2.707c0-1.494-1.275-2.706-2.848-2.706s-2.848 1.212-2.848 2.706" fill="#FFF" mask="url(#b)"/><path d="M83.263 194.065H6.426A6.427 6.427 0 0 1 0 187.639v-32.97a6.427 6.427 0 0 1 6.426-6.426h245.312a6.427 6.427 0 0 1 6.426 6.426v32.97a6.426 6.426 0 0 1-6.426 6.426H83.263z" fill="#777" mask="url(#b)"/><path d="M251.738 194.065H6.426a6.427 6.427 0 0 1 0-12.853h245.312a6.426 6.426 0 0 1 0 12.853" fill="#544945" mask="url(#b)"/><path d="M95.444 253.192c-4.12 0-8.283-.462-12.361-1.411-13.6-3.166-23.975-10.585-30.837-22.049-8.443-14.104-11.626-34.489-9.461-60.589 1.418-17.116 5.06-36.382 11.13-58.902l4.724 1.273c-14.723 54.613-15.463 93.541-2.196 115.705 6.155 10.283 15.49 16.944 27.749 19.798 13.276 3.09 27.502.546 37.126-6.639 2.319-1.732 4.4-3.58 6.415-5.367 6.245-5.541 12.145-10.775 22.95-10.775v4.892c-8.95 0-13.695 4.211-19.703 9.543-2.09 1.854-4.251 3.771-6.736 5.626-7.754 5.79-18.126 8.895-28.8 8.895" fill="#F7941E" mask="url(#b)"/><path d="M104.64 278.394a6.98 6.98 0 0 1-6.98-6.98v-42.248a6.98 6.98 0 0 1 6.98-6.98h107.174a6.98 6.98 0 0 1 6.98 6.98v42.248a6.98 6.98 0 0 1-6.98 6.98H104.64zm26.324-67.564a5.09 5.09 0 1 1-10.179 0 5.09 5.09 0 0 1 10.18 0m21.862 0a5.09 5.09 0 1 1-10.18-.001 5.09 5.09 0 0 1 10.18 0m21.862.001a5.09 5.09 0 1 1-10.18 0 5.09 5.09 0 0 1 10.18 0m21.862 0a5.09 5.09 0 1 1-10.18-.001 5.09 5.09 0 0 1 10.18 0" fill="#D8503A" mask="url(#b)"/><path d="M211.814 267.037H104.64a6.98 6.98 0 0 1-6.98-6.98V217.81a6.98 6.98 0 0 1 6.98-6.981h107.173a6.98 6.98 0 0 1 6.98 6.98v42.248a6.98 6.98 0 0 1-6.98 6.98" fill="#FE875E" mask="url(#b)"/></g><path d="M0 0h340v340H0z"/></g></svg>