<svg width="1333" height="648" xmlns="http://www.w3.org/2000/svg" xmlns:xlink="http://www.w3.org/1999/xlink"><defs><path id="a" d="M0 0h1333v648H0z"/><path id="c" d="M0 0h1246.709v57.707H0z"/><path id="e" d="M0 0h1246.709v44.688H0z"/><path id="g" d="M0 533.666h1246.709V0H0z"/></defs><g fill="none" fill-rule="evenodd"><mask id="b" fill="#fff"><use xlink:href="#a"/></mask><path d="M286.509 648S-6.118 447.618.098 348.411C6.31 249.206 687.479-13.62 863.81.551c176.331 14.173 227.057 237.06 84.542 399.396-142.513 162.334 205.317 45.094 236.72-52.823 31.4-97.918 357.492 119.901-72.466 300.876H286.51z" fill="#FFF0D2" mask="url(#b)"/><g mask="url(#b)"><g transform="translate(43 114)"><g transform="translate(0 475.959)"><mask id="d" fill="#fff"><use xlink:href="#c"/></mask><path d="M1217.855 57.707H28.854C12.918 57.707 0 44.789 0 28.853 0 12.918 12.918 0 28.854 0h1189.001c15.936 0 28.854 12.918 28.854 28.853 0 15.936-12.918 28.854-28.854 28.854" fill="#BFD3DB" mask="url(#d)"/></g><g transform="translate(0 475.959)"><mask id="f" fill="#fff"><use xlink:href="#e"/></mask><path d="M1217.855 0H28.854C12.918 0 0 12.918 0 28.854a28.708 28.708 0 0 0 4.737 15.834C9.895 36.849 18.768 31.67 28.854 31.67h1189.001c10.086 0 18.958 5.179 24.116 13.018a28.708 28.708 0 0 0 4.738-15.834c0-15.936-12.918-28.854-28.854-28.854" fill="#D9E8ED" mask="url(#f)"/></g><path d="M346.467 227.642h-12V44.884c0-.44-.01-.877-.029-1.312-.355-7.879-6.3-10.522-11.32-10.429-4.188.095-11.276 2.586-11.276 11.323 0 12.904-10.458 23.362-23.314 23.362h-7.982c-12.855 0-23.314-10.458-23.314-23.314v-16.94c0-6.239-5.076-11.315-11.314-11.315h-3.952c-6.239 0-11.314 5.076-11.314 11.314v16.941c0 12.856-10.459 23.314-23.314 23.314h-5.657c-12.856 0-23.315-10.458-23.315-23.314 0-8.785-7.087-11.276-11.275-11.37-4.997-.089-10.965 2.55-11.319 10.425-.02.434-.03.873-.03 1.315v182.758h-12V44.884c0-.62.014-1.239.041-1.853.663-14.702 12.351-22.12 23.578-21.885 11.432.258 23.005 8.351 23.005 23.32 0 6.287 5.076 11.362 11.315 11.362h5.657c6.238 0 11.314-5.075 11.314-11.314v-16.94c0-12.856 10.46-23.315 23.314-23.315h3.952c12.855 0 23.314 10.46 23.314 23.314v16.941c0 6.24 5.075 11.314 11.314 11.314h7.982c6.24 0 11.314-5.075 11.314-11.314 0-15.017 11.574-23.11 23.006-23.368 11.206-.249 22.915 7.184 23.577 21.883.028.613.042 1.232.042 1.855v182.758z" fill="#A8BEE6"/><path d="M339.467 222.642V44.884c0-.515-.01-1.027-.034-1.537-.474-10.504-8.407-15.206-16.06-15.206l-.348.003c-7.804.176-16.183 5.358-16.183 16.322 0 10.125-8.215 18.362-18.314 18.362h-7.982c-10.099 0-18.314-8.216-18.314-18.314v-16.94c0-8.996-7.319-16.315-16.314-16.315h-3.952c-8.996 0-16.314 7.32-16.314 16.314v16.941c0 10.098-8.216 18.314-18.314 18.314h-5.657c-10.099 0-18.315-8.216-18.315-18.314 0-10.997-8.378-16.194-16.163-16.369l-.355-.004c-7.659 0-15.598 4.701-16.07 15.203a34.098 34.098 0 0 0-.036 1.54v177.758h-2V44.884c0-.547.013-1.09.037-1.63.53-11.757 9.734-17.113 18.063-17.113l.414.004c8.718.197 18.11 6.014 18.11 18.321 0 9.022 7.32 16.362 16.315 16.362h5.657c8.995 0 16.314-7.318 16.314-16.314v-16.94c0-10.099 8.216-18.315 18.314-18.315h3.952c10.098 0 18.314 8.216 18.314 18.314v16.941c0 8.996 7.318 16.314 16.314 16.314h7.982c8.996 0 16.314-7.318 16.314-16.314 0-12.34 9.393-18.172 18.12-18.369l.432-.004c8.316 0 17.507 5.355 18.036 17.113.025.54.037 1.083.037 1.63v177.758h-2z" fill="#F57142"/><path d="M61.82 510.83h179.527c7.908 0 13.18-8.16 9.928-15.368l-68.942-181.703v-89.712h1.24c6.073 0 11.282-4.751 11.393-10.823.114-6.187-4.867-11.238-11.028-11.238h-64.344c-6.073 0-11.283 4.752-11.394 10.824-.113 6.187 4.868 11.237 11.028 11.237h1.606v89.712L51.891 495.462c-3.25 7.208 2.021 15.369 9.928 15.369" fill="#B8CBEE"/><path fill="#923E95" d="m203.315 382.88 43.43 114.46z"/><path d="M208.14 503.188c1.125-1.74 1.28-3.822.428-5.712l-.061-.136-43.43-114.46H99.851L56.422 497.34l-.062.136c-.852 1.89-.696 3.972.429 5.712 1.124 1.741 2.958 2.74 5.03 2.74h141.29c2.073 0 3.906-.999 5.031-2.74" fill="#DD9AE2"/><path fill="#A8BEE6" d="M177.43 314.658v-90.572h-38.238v90.572l25.885 68.223h38.238z"/><path d="m246.806 497.476-.062-.136-43.429-114.46h-38.238l43.43 114.46.061.136c.852 1.89.696 3.972-.428 5.712-1.125 1.741-2.958 2.74-5.031 2.74h38.239c2.072 0 3.905-.999 5.03-2.74 1.124-1.74 1.281-3.822.428-5.712" fill="#BF7EC4"/><path d="M118.44 412.401a9.2 9.2 0 1 1-18.4 0 9.2 9.2 0 0 1 18.4 0m54.22 2.022c0 7.351-5.96 13.312-13.311 13.312-7.352 0-13.311-5.96-13.311-13.313 0-7.352 5.958-13.31 13.31-13.31s13.311 5.958 13.311 13.31m-34.288 60.842a4.6 4.6 0 1 1-9.2-.001 4.6 4.6 0 0 1 9.2.001m61.33-41.397a4.6 4.6 0 1 1-9.201-.002 4.6 4.6 0 0 1 9.201.002M90.84 487.53a4.6 4.6 0 1 1-9.198.001 4.6 4.6 0 0 1 9.199-.001m125.939-14.224a7.879 7.879 0 1 1 0 15.756 7.879 7.879 0 0 1 0-15.756m-35.795-7.849a8.274 8.274 0 1 1-16.549 0 8.274 8.274 0 0 1 16.549 0" fill="#FFF"/><path d="m85.988 460.498 22.821-60.86a6.926 6.926 0 1 1 12.97 4.864L98.96 465.36a6.926 6.926 0 1 1-12.97-4.863z" fill-opacity=".5" fill="#FFF"/><path d="M365.509 227.952v-34.686h.995c4.992 0 9.274-3.906 9.365-8.897.094-5.085-4.001-9.237-9.065-9.237h-48.1c-4.801 0-8.965 3.627-9.3 8.417-.34 4.855 3.15 8.954 7.749 9.614v36.124c0 10.562-5.92 20.144-15.218 25.154-27.177 14.642-45.568 43.492-45.222 76.607.492 47.199 39.602 85.474 86.8 84.996 47.044-.477 85.032-38.76 85.032-85.913 0-33.62-19.311-62.725-47.444-76.838-9.576-4.803-15.592-14.628-15.592-25.341" fill="#B8CBEE"/><path d="M342.65 412.277c.277 0 .549 0 .826-.005 21.763-.22 42.189-8.862 57.514-24.335 15.336-15.482 23.782-36.013 23.782-57.806 0-31.28-17.382-59.43-45.363-73.467-10.9-5.468-17.672-16.47-17.672-28.712v-38.458h4.767c3.033 0 5.542-2.331 5.595-5.194a5.263 5.263 0 0 0-1.516-3.811 5.258 5.258 0 0 0-3.78-1.585h-26.336v233.343c.723.019 1.447.03 2.173.03h.01z" fill="#A8BEE6"/><path d="M271.922 288.25c-7.513 12.688-11.599 27.399-11.438 42.759.468 44.808 37.323 81.265 82.156 81.268h.01c.277 0 .548-.002.826-.005 21.763-.22 42.19-8.862 57.514-24.334 15.336-15.483 23.782-36.013 23.782-57.807 0-15.104-4.063-29.472-11.406-41.88H271.922z" fill="#F57142"/><path d="M342.65 412.277c.277 0 .549-.002.826-.005 21.763-.22 42.189-8.862 57.514-24.335 15.336-15.482 23.782-36.013 23.782-57.806 0-15.104-4.063-29.472-11.405-41.88h-72.9v123.996c.723.019 1.447.03 2.173.03h.01z" fill="#E8673A"/><path d="M395.845 339.45a7.078 7.078 0 1 1-14.156-.002 7.078 7.078 0 0 1 14.156.002m-95.548-1.18a7.078 7.078 0 1 1-14.156-.002 7.078 7.078 0 0 1 14.156.002m41.286 50.723a7.077 7.077 0 1 1-14.155 0 7.077 7.077 0 0 1 14.155 0m-5.898-70.777a7.077 7.077 0 1 1-14.155.001 7.077 7.077 0 0 1 14.155 0m36.567 56.62a3.539 3.539 0 1 1-7.078 0 3.539 3.539 0 0 1 7.078 0m-50.722-14.155a3.539 3.539 0 1 1-7.078 0 3.539 3.539 0 0 1 7.078 0m27.13-17.694a3.538 3.538 0 1 1-7.076.001 3.538 3.538 0 0 1 7.077-.001" fill="#FFF"/><path d="M272.356 334.077a5.28 5.28 0 0 1 5.28-5.28 5.28 5.28 0 0 1 5.281 5.28c0 31.44 25.58 57.02 57.022 57.02a5.28 5.28 0 0 1 5.28 5.283 5.28 5.28 0 0 1-5.28 5.28c-37.265 0-67.583-30.317-67.583-67.583z" fill-opacity=".5" fill="#FFF"/><path d="M467.584 379.705h-239.21a4.108 4.108 0 0 1 0-8.216h239.21a4.108 4.108 0 1 1 0 8.216" fill="#D69D67"/><mask id="h" fill="#fff"><use xlink:href="#g"/></mask><path fill="#E08D41" mask="url(#h)" d="M314.61 495.469h56.031V466.55H314.61z"/><path fill="#CF823C" mask="url(#h)" d="M342.625 495.469h28.016V466.55h-28.016z"/><path fill="#EAEAEA" mask="url(#h)" d="M297.647 510.739h89.958v-19.311h-89.958z"/><path fill="#D6D6D6" mask="url(#h)" d="M297.647 501.084h89.958v-9.655h-89.958z"/><path d="M353.376 449.96c0 10.885-4.813 14.37-10.75 14.37s-10.75-3.485-10.75-14.37c0-10.884 10.75-30.36 10.75-30.36s10.75 19.476 10.75 30.36" fill="#FF6E4A" mask="url(#h)"/><path d="M349.592 455.018c0 7.054-3.119 9.313-6.966 9.313s-6.966-2.259-6.966-9.313c0-7.053 6.966-19.674 6.966-19.674s6.966 12.621 6.966 19.674" fill="#FFAE4A" mask="url(#h)"/><path d="M869.962 494.464a8.23 8.23 0 0 1-8.23-8.229V174.812a8.23 8.23 0 1 1 16.459 0v311.423a8.23 8.23 0 0 1-8.23 8.23" fill="#EDAE72" mask="url(#h)"/><path d="M892.839 500.034h-310.89a8.229 8.229 0 0 1-8.23-8.23 8.229 8.229 0 0 1 8.23-8.228h310.89a8.229 8.229 0 0 1 8.229 8.229 8.229 8.229 0 0 1-8.23 8.229" fill="#B88758" mask="url(#h)"/><path d="M551.326 372.682v-143.21h1.496c3.964 0 7.426-2.992 7.682-6.948a7.445 7.445 0 0 0-7.427-7.938h-40.024c-3.964 0-7.425 2.992-7.682 6.948a7.444 7.444 0 0 0 7.427 7.938h1.752v143.214c0 7.586-3.151 14.795-8.6 20.071-7.35 7.116-11.895 17.112-11.812 28.17.158 21.455 17.343 38.506 38.8 38.506 21.429 0 38.8-17.372 38.8-38.8 0-11.083-4.645-21.078-12.096-28.147-5.404-5.129-8.316-12.354-8.316-19.804" fill="#B8CBEE" mask="url(#h)"/><path d="M567.967 420.632c0-9.702-3.879-18.728-10.92-25.41-6.034-5.725-9.494-13.94-9.494-22.54V225.698h5.268c2.04 0 3.796-1.533 3.918-3.419a3.657 3.657 0 0 0-.983-2.76 3.641 3.641 0 0 0-2.68-1.162H532.36v237.29c.193.003.384.013.578.013 19.316 0 35.03-15.715 35.03-35.029" fill="#A8BEE6" mask="url(#h)"/><path d="M557.046 395.221c-6.033-5.724-9.492-13.938-9.492-22.54V288.14H518.32v84.547c0 8.478-3.552 16.782-9.748 22.781-6.948 6.727-10.735 15.76-10.664 25.431.144 19.493 15.53 34.763 35.029 34.763 19.316 0 35.029-15.714 35.029-35.029 0-9.702-3.88-18.727-10.921-25.41" fill="#42D3F4" mask="url(#h)"/><path d="M567.967 420.632c0-9.702-3.879-18.728-10.92-25.41-6.034-5.725-9.494-13.94-9.494-22.54v-84.543H532.36v167.51c.193.002.384.012.578.012 19.316 0 35.03-15.715 35.03-35.029" fill="#38C8E8" mask="url(#h)"/><path d="M553.138 400.64a6.35 6.35 0 1 1-12.699.002 6.35 6.35 0 0 1 12.699-.002m-5.568 23.304a3.174 3.174 0 1 1-6.348.002 3.174 3.174 0 0 1 6.348-.002m-21.684-28.034a3.175 3.175 0 1 1-6.35.001 3.175 3.175 0 0 1 6.35 0m22.432 44.811a3.175 3.175 0 1 1-6.35 0 3.175 3.175 0 0 1 6.35 0m-12.744-2.457a4.805 4.805 0 1 1-9.61 0 4.805 4.805 0 0 1 9.61 0m-16.064-19.146a2.403 2.403 0 1 1-4.805-.002 2.403 2.403 0 0 1 4.806.002m6.539-67.219a4.001 4.001 0 0 1-4.001-4.001v-99.226a4 4 0 1 1 8.002 0v99.226a4.002 4.002 0 0 1-4.001 4.001" fill="#FFF" mask="url(#h)"/><path d="M649.391 372.682v-143.21h1.497c3.963 0 7.425-2.992 7.681-6.948a7.445 7.445 0 0 0-7.426-7.938h-40.024c-3.965 0-7.426 2.992-7.683 6.948a7.444 7.444 0 0 0 7.428 7.938h1.751v143.214c0 7.586-3.15 14.795-8.6 20.071-7.35 7.116-11.894 17.112-11.812 28.17.159 21.455 17.344 38.506 38.8 38.506 21.43 0 38.801-17.372 38.801-38.8 0-11.083-4.645-21.078-12.096-28.147-5.404-5.129-8.317-12.354-8.317-19.804" fill="#B8CBEE" mask="url(#h)"/><path d="M666.033 420.632c0-9.702-3.879-18.728-10.922-25.41-6.032-5.725-9.49-13.94-9.49-22.54V225.698h5.266c2.04 0 3.796-1.533 3.918-3.419a3.653 3.653 0 0 0-.983-2.76 3.641 3.641 0 0 0-2.68-1.162h-20.716v237.29c.193.003.383.013.578.013 19.315 0 35.03-15.715 35.03-35.029" fill="#A8BEE6" mask="url(#h)"/><path d="M655.111 395.221c-6.032-5.724-9.49-13.938-9.49-22.54V288.14h-29.234v84.547c0 8.478-3.553 16.782-9.749 22.781-6.948 6.727-10.735 15.76-10.664 25.431.145 19.493 15.532 34.763 35.03 34.763 19.315 0 35.03-15.714 35.03-35.029 0-9.702-3.88-18.727-10.923-25.41" fill="#DD9AE2" mask="url(#h)"/><path d="M655.111 395.221c-6.032-5.724-9.49-13.939-9.49-22.54V288.14h-15.195v167.51c.193.002.383.012.578.012 19.315 0 35.03-15.715 35.03-35.029 0-9.702-3.88-18.728-10.923-25.41z" fill="#BF7EC4" mask="url(#h)"/><path d="M651.204 400.64a6.35 6.35 0 1 1-12.7 0 6.35 6.35 0 0 1 12.7 0m-5.567 23.304a3.175 3.175 0 1 1-6.35 0 3.175 3.175 0 0 1 6.35 0m-21.686-28.034a3.175 3.175 0 1 1-6.35.001 3.175 3.175 0 0 1 6.35 0m22.433 44.811a3.175 3.175 0 1 1-6.35 0 3.175 3.175 0 0 1 6.35 0m-12.744-2.457a4.804 4.804 0 1 1-9.609.002 4.804 4.804 0 0 1 9.609-.002m-16.064-19.146a2.402 2.402 0 1 1-4.804 0 2.402 2.402 0 0 1 4.804 0m6.539-67.219c-2.209 0-4-1.792-4-4.001v-99.226a4 4 0 1 1 8.001 0v99.226a4.001 4.001 0 0 1-4 4.001" fill="#FFF" mask="url(#h)"/><path d="M747.457 372.682v-143.21h1.496c3.965 0 7.426-2.992 7.682-6.948a7.443 7.443 0 0 0-7.426-7.938h-40.024c-3.964 0-7.426 2.992-7.682 6.948a7.443 7.443 0 0 0 7.427 7.938h1.75v143.214c0 7.586-3.15 14.795-8.6 20.071-7.35 7.116-11.893 17.112-11.811 28.17.159 21.455 17.343 38.506 38.8 38.506 21.429 0 38.8-17.372 38.8-38.8 0-11.083-4.645-21.078-12.096-28.147-5.404-5.129-8.316-12.354-8.316-19.804" fill="#B8CBEE" mask="url(#h)"/><path d="M764.098 420.632c0-9.702-3.877-18.728-10.92-25.41-6.033-5.725-9.492-13.94-9.492-22.54V225.698h5.266c2.04 0 3.797-1.533 3.918-3.419a3.649 3.649 0 0 0-.982-2.76 3.639 3.639 0 0 0-2.68-1.162h-20.716v237.29c.192.003.383.013.577.013 19.316 0 35.03-15.715 35.03-35.029" fill="#A8BEE6" mask="url(#h)"/><path d="M753.178 395.221c-6.032-5.724-9.492-13.938-9.492-22.54V288.14h-29.233v84.547c0 8.478-3.552 16.782-9.748 22.781-6.95 6.727-10.736 15.76-10.664 25.431.144 19.493 15.532 34.763 35.029 34.763 19.315 0 35.029-15.714 35.029-35.029 0-9.702-3.878-18.727-10.921-25.41" fill="#F4DC42" mask="url(#h)"/><path d="M764.098 420.632c0-9.702-3.877-18.728-10.92-25.41-6.033-5.725-9.492-13.94-9.492-22.54v-84.543H728.49v167.51c.193.002.384.012.578.012 19.316 0 35.03-15.715 35.03-35.029" fill="#E0CA3D" mask="url(#h)"/><path d="M749.27 400.64a6.349 6.349 0 1 1-12.697 0 6.349 6.349 0 1 1 12.696 0m-5.567 23.304a3.174 3.174 0 1 1-6.349.001 3.174 3.174 0 0 1 6.349-.001m-21.684-28.034a3.175 3.175 0 1 1-6.35 0 3.175 3.175 0 0 1 6.35 0m22.432 44.812a3.175 3.175 0 1 1-6.35 0 3.175 3.175 0 0 1 6.35 0m-12.744-2.457a4.805 4.805 0 1 1-9.61 0 4.805 4.805 0 0 1 9.61 0m-16.063-19.146a2.403 2.403 0 1 1-4.806-.002 2.403 2.403 0 0 1 4.806.002m6.539-67.219a4.001 4.001 0 0 1-4.001-4.001v-99.226a4 4 0 1 1 8.001 0v99.226a4.001 4.001 0 0 1-4 4.001" fill="#FFF" mask="url(#h)"/><path fill="#D69D67" mask="url(#h)" d="M448.952 480.396h25.255V219.948h-25.255z"/><path fill="#C48E58" mask="url(#h)" d="M461.58 480.396h12.627V219.948H461.58z"/><path d="M486.835 504.073h-50.511v-6.313c0-13.95 11.307-25.256 25.256-25.256 13.948 0 25.255 11.307 25.255 25.256v6.313z" fill="#B88758" mask="url(#h)"/><path d="M485.802 506.347h-48.775a5.709 5.709 0 0 1 0-11.416h48.775a5.709 5.709 0 0 1 0 11.416m303.537-25.951h25.256V219.948h-25.256z" fill="#D69D67" mask="url(#h)"/><path fill="#C48E58" mask="url(#h)" d="M801.967 480.396h12.628V219.948h-12.628z"/><path d="M827.222 504.073h-50.511v-6.313c0-13.95 11.308-25.256 25.255-25.256 13.948 0 25.256 11.307 25.256 25.256v6.313z" fill="#B88758" mask="url(#h)"/><path d="M826.19 506.347h-48.775a5.708 5.708 0 1 1 0-11.416h48.774a5.709 5.709 0 0 1 0 11.416m14.239-217.857h-417.64a4.108 4.108 0 1 1 0-8.216h417.64a4.108 4.108 0 1 1 0 8.216m0 23.278h-417.64a4.108 4.108 0 1 1 0-8.216h417.64a4.108 4.108 0 1 1 0 8.216" fill="#D69D67" mask="url(#h)"/><path d="M1165.663 487.042a6.084 6.084 0 0 1-6.084-6.083v-377.18a6.084 6.084 0 0 1 12.167 0v377.18a6.084 6.084 0 0 1-6.083 6.083m-196 0a6.084 6.084 0 0 1-6.084-6.083v-377.18a6.084 6.084 0 0 1 12.167 0v377.18a6.084 6.084 0 0 1-6.083 6.083" fill="#EDAE72" mask="url(#h)"/><path d="M1091.66 184.49v-65.546h.994c4.992 0 9.275-3.906 9.365-8.897a9.066 9.066 0 0 0-9.064-9.237h-48.1c-4.802 0-8.967 3.627-9.3 8.416-.339 4.855 3.15 8.955 7.75 9.615v66.983c0 10.562-5.92 20.145-15.22 25.154-27.177 14.641-45.568 43.493-45.222 76.606.492 47.2 39.602 85.476 86.802 84.997 47.042-.476 85.03-38.759 85.03-85.914 0-33.618-19.31-62.723-47.444-76.837-9.575-4.803-15.592-14.628-15.592-25.34" fill="#B8CBEE" mask="url(#h)"/><path d="M1068.8 368.814c.277 0 .55 0 .827-.004 21.763-.22 42.189-8.863 57.514-24.336 15.336-15.482 23.782-36.012 23.782-57.806 0-31.279-17.382-59.429-45.363-73.466-10.901-5.468-17.672-16.47-17.672-28.713v-69.317h4.767c3.032 0 5.542-2.33 5.594-5.193a5.254 5.254 0 0 0-1.515-3.81 5.254 5.254 0 0 0-3.78-1.586h-26.336v264.202c.722.018 1.447.03 2.173.03h.01z" fill="#A8BEE6" mask="url(#h)"/><path d="M998.072 244.789c-7.513 12.686-11.598 27.397-11.438 42.758.468 44.807 37.324 81.264 82.157 81.267h.01c.276 0 .548 0 .826-.004 21.762-.22 42.188-8.863 57.513-24.335 15.336-15.483 23.783-36.012 23.783-57.807 0-15.104-4.064-29.472-11.406-41.88H998.072z" fill="#42D3F4" mask="url(#h)"/><path d="M1068.8 368.814c.277 0 .55 0 .827-.004 21.763-.22 42.189-8.863 57.514-24.336 15.336-15.482 23.782-36.012 23.782-57.806 0-15.104-4.063-29.472-11.405-41.879h-72.9v123.996c.722.018 1.447.03 2.173.03h.01z" fill="#38C8E8" mask="url(#h)"/><path d="M1121.995 295.987a7.078 7.078 0 1 1-14.156 0 7.078 7.078 0 0 1 14.156 0" fill="#FFF" mask="url(#h)"/><path d="M1071.181 70.074a7.077 7.077 0 1 1-14.155 0 7.078 7.078 0 0 1 14.155 0m16.295 13.274a4.726 4.726 0 1 1-9.452 0 4.726 4.726 0 0 1 9.452 0m-24.646-44.547a4.725 4.725 0 1 1-9.451.001 4.725 4.725 0 0 1 9.451 0m23.351-1.726a7.078 7.078 0 1 1-14.156 0 7.078 7.078 0 0 1 14.156 0m-16.499-29.998a7.078 7.078 0 1 1-14.156 0 7.078 7.078 0 0 1 14.156 0" fill="#42D3F4" mask="url(#h)"/><path d="M1026.447 294.807a7.077 7.077 0 1 1-14.154.002 7.077 7.077 0 0 1 14.154-.002m41.286 50.723a7.078 7.078 0 1 1-14.155 0 7.078 7.078 0 0 1 14.155 0m-5.897-70.775a7.077 7.077 0 1 1-14.155-.001 7.077 7.077 0 0 1 14.155 0m36.567 56.622a3.539 3.539 0 1 1-7.077-.002 3.539 3.539 0 0 1 7.077.002m-50.723-14.156a3.539 3.539 0 1 1-7.077-.001 3.539 3.539 0 0 1 7.077.001m27.131-17.694a3.54 3.54 0 1 1-7.079-.001 3.54 3.54 0 0 1 7.08.001" fill="#FFF" mask="url(#h)"/><path d="M998.507 290.614a5.281 5.281 0 0 1 10.562 0c0 31.442 25.579 57.022 57.02 57.022a5.28 5.28 0 0 1 5.28 5.28 5.28 5.28 0 0 1-5.28 5.282c-37.264 0-67.582-30.318-67.582-67.584z" fill-opacity=".5" fill="#FFF" mask="url(#h)"/><path d="M1182.574 182.864H952.751a6.083 6.083 0 0 1 0-12.167h229.823a6.084 6.084 0 0 1 0 12.167" fill="#D69D67" mask="url(#h)"/><path fill="#E08D41" mask="url(#h)" d="M1036.007 464.925h65.539v-33.827h-65.539z"/><path fill="#CF823C" mask="url(#h)" d="M1068.776 464.925h32.77v-33.827h-32.77z"/><path fill="#EAEAEA" mask="url(#h)" d="M1016.165 482.786h105.224v-22.587h-105.224z"/><path fill="#D6D6D6" mask="url(#h)" d="M1016.165 471.493h105.224v-11.294h-105.224z"/><path d="M1081.35 411.693c0 12.732-5.628 16.81-12.573 16.81-6.946 0-12.574-4.078-12.574-16.81 0-12.731 12.573-35.513 12.573-35.513s12.574 22.782 12.574 35.513" fill="#FF6E4A" mask="url(#h)"/><path d="M1076.925 417.61c0 8.25-3.648 10.893-8.148 10.893s-8.148-2.643-8.148-10.893 8.148-23.013 8.148-23.013 8.148 14.763 8.148 23.013" fill="#FFAE4A" mask="url(#h)"/><path d="M1195.776 500.034h-254c-5.522 0-10-4.477-10-10 0-5.522 4.478-10 10-10h254c5.523 0 10 4.478 10 10 0 5.523-4.477 10-10 10" fill="#B88758" mask="url(#h)"/></g></g></g></svg>