<svg width="340" height="340" xmlns="http://www.w3.org/2000/svg" xmlns:xlink="http://www.w3.org/1999/xlink"><defs><path id="a" d="M0 0h295v124H0z"/></defs><g fill="none" fill-rule="evenodd"><path d="M251.516 140.51c13.468 40.421-4.385 83.734-40.397 103.61a87.315 87.315 0 0 1-14.634 6.4 87.49 87.49 0 0 1-15.521 3.647c-13.286 1.86-26.519.559-38.784-3.427-25.364-8.237-46.615-28.001-55.698-55.25-15.182-45.577 9.452-94.824 55.02-110.01 32.67-10.878 67.225-1.307 89.769 21.78 8.908 9.112 15.946 20.34 20.245 33.25" fill="#5472D6"/><path d="M175.892 119.707c3.753 11.264-2.335 23.433-13.595 27.187-11.267 3.75-23.44-2.34-27.19-13.603-3.752-11.26 2.34-23.433 13.6-27.182 11.262-3.754 23.432 2.331 27.185 13.598m-39.612 59.869c2.441 7.333-1.522 15.26-8.855 17.702-7.336 2.445-15.259-1.522-17.704-8.854-2.442-7.333 1.521-15.26 8.854-17.702 7.336-2.445 15.259 1.522 17.704 8.854m48.361-8.788a7 7 0 0 1-4.429 8.851 6.998 6.998 0 0 1-4.425-13.277 7 7 0 0 1 8.854 4.426" fill="#44A0A7"/><path d="M251.509 141.083c13.49 40.22-4.392 83.315-40.461 103.091a87.753 87.753 0 0 1-14.657 6.368 88.116 88.116 0 0 1-15.546 3.63A87.25 87.25 0 0 1 142 250.76c5.295 1.709 24.464-10.931 29.177-13.541 10.758-5.957 21.232-12.981 29.635-21.993 13.725-14.716 23.796-32.724 29.886-51.81 2.732-8.566 4.579-17.155 4.762-26.166.134-6.591.671-24.273-4.228-29.251 8.922 9.067 15.97 20.24 20.277 33.083" fill="#3A52A1"/><path d="M211.119 238.405a16.43 16.43 0 0 1 .877 5.68 88.52 88.52 0 0 1-14.718 6.32A89.22 89.22 0 0 1 181.661 254a16.28 16.28 0 0 1-2.784-5.059c-2.968-8.73 1.844-18.171 10.745-21.083 8.904-2.908 18.532 1.816 21.497 10.547m27.521-70.615a6.999 6.999 0 1 1-13.282 4.42 6.999 6.999 0 0 1 13.282-4.42" fill="#44A0A7"/><g transform="translate(22 106)"><mask id="b" fill="#fff"><use xlink:href="#a"/></mask><path d="M274.72 1.033c-8.855-1.42-20.667-1.376-35.104.13-8.293.868-17.23 2.189-26.65 3.932a86.035 86.035 0 0 1 7.538 10.003c7.107-1.21 13.89-2.159 20.276-2.826 13.27-1.384 24.393-1.454 32.158-.208 7.163 1.15 10.269 3.245 10.752 4.684.48 1.447-.744 4.978-5.787 10.181-5.463 5.645-14.407 12.24-25.858 19.068-24.423 14.565-58.482 29.434-95.906 41.867-37.42 12.436-73.618 20.91-101.92 23.863-13.27 1.384-24.393 1.454-32.162.208-7.159-1.146-10.264-3.242-10.748-4.685-.48-1.442.744-4.973 5.787-10.177 5.463-5.649 14.407-12.24 25.858-19.071 5.512-3.287 11.514-6.584 17.937-9.874a85.17 85.17 0 0 1 .015-12.514c-8.595 4.243-16.542 8.535-23.698 12.8C24.742 75.847 15.266 82.875 9.037 89.31 1.376 97.221-1.436 104.443.68 110.781c2.12 6.339 8.714 10.437 19.6 12.184 8.854 1.42 20.666 1.38 35.103-.13 29.09-3.034 66.128-11.69 104.296-24.371 38.172-12.681 73.016-27.91 98.112-42.88 12.466-7.432 21.942-14.46 28.171-20.896 7.662-7.907 10.473-15.132 8.357-21.47-2.12-6.336-8.714-10.434-19.6-12.185" fill="#34D2DF" mask="url(#b)"/></g><path d="M123.93 262.088a.74.74 0 0 1-.596-.044 18.37 18.37 0 0 1-.684-.356c-.24-.12-.468-.24-.696-.36a.773.773 0 1 1 .724-1.368l.676.36c.236.12.46.232.684.352.38.192.528.66.332 1.036a.758.758 0 0 1-.44.38" fill="#34D2DF"/><path d="M123.15 260.756a.384.384 0 0 0-.348.208.385.385 0 0 0-.031.304.424.424 0 0 0 .192.232l.696.364.68.352c.092.048.204.06.304.024.096-.036.18-.1.228-.196a.39.39 0 0 0 .024-.3.396.396 0 0 0-.192-.232l-.684-.348c-.232-.124-.456-.244-.684-.36a.383.383 0 0 0-.184-.048m1.368 2.256c-.18 0-.36-.04-.524-.124-.232-.116-.456-.236-.688-.356l-.696-.364a1.159 1.159 0 0 1-.556-.68 1.115 1.115 0 0 1 .08-.876c.14-.272.384-.468.676-.56.292-.092.604-.06.88.084.22.12.448.236.676.356.228.12.452.236.68.348.272.144.472.38.564.672.1.296.072.608-.068.876a1.142 1.142 0 0 1-1.024.624" fill="#34D2DF"/><path d="M141.63 71.927c-.004.004-.012.004-.015.008a83.32 83.32 0 0 0-1.366.427.716.716 0 0 1-.445-1.358s.003-.005.007-.005c.46-.148.92-.293 1.384-.434a.72.72 0 0 1 .895.475.713.713 0 0 1-.46.887m-10.812 3.983a.713.713 0 0 1-.884-.394.72.72 0 0 1 .372-.942c.441-.193.887-.383 1.336-.564a.716.716 0 1 1 .55 1.32c-.443.183-.88.372-1.315.558a.837.837 0 0 0-.06.022m20.585-6.466-.09.023c-.467.092-.93.193-1.398.293a.714.714 0 0 1-.85-.546.718.718 0 0 1 .545-.853c.472-.104.947-.205 1.422-.301a.724.724 0 0 1 .846.56.723.723 0 0 1-.475.824m-29.633 10.92a.715.715 0 0 1-.571-1.307c.419-.237.846-.467 1.273-.698a.727.727 0 0 1 .972.294.727.727 0 0 1-.293.972 68 68 0 0 0-1.258.687.577.577 0 0 1-.123.052m39.598-12.438a.962.962 0 0 1-.155.034c-.475.044-.947.1-1.422.156a.72.72 0 0 1-.794-.631.72.72 0 0 1 .63-.795c.48-.055.958-.107 1.44-.156a.71.71 0 0 1 .784.639.716.716 0 0 1-.483.753m-48.16 17.76a.724.724 0 0 1-.817-.27.723.723 0 0 1 .182-1c.397-.274.798-.545 1.199-.816a.716.716 0 1 1 .798 1.188c-.394.267-.79.534-1.18.809a.827.827 0 0 1-.182.089m58.234-18.29a.757.757 0 0 1-.223.037c-.479 0-.958.007-1.44.015a.716.716 0 1 1-.022-1.433c.486-.011.972-.015 1.454-.015a.715.715 0 0 1 .23 1.396m-66.232 24.433a.724.724 0 0 1-.772-.216.719.719 0 0 1 .086-1.013c.367-.312.738-.623 1.113-.931a.717.717 0 0 1 1.006.1.713.713 0 0 1-.097 1.006c-.367.304-.73.612-1.095.92a.739.739 0 0 1-.24.134m76.308-23.966a.703.703 0 0 1-.293.037c-.479-.048-.954-.089-1.432-.13a.721.721 0 0 1-.657-.772.722.722 0 0 1 .775-.657c.483.041.965.086 1.448.13a.714.714 0 0 1 .16 1.392M97.855 98.725a.713.713 0 0 1-.724-.164.724.724 0 0 1-.019-1.017c.338-.341.672-.69 1.014-1.031a.72.72 0 0 1 1.017-.004.72.72 0 0 1 .003 1.013c-.338.338-.672.68-1.002 1.02a.708.708 0 0 1-.29.183m93.643-29.4a.707.707 0 0 1-.364.027c-.471-.097-.939-.182-1.41-.271a.718.718 0 0 1-.576-.832.71.71 0 0 1 .832-.575c.479.085.954.174 1.429.27.39.075.642.454.564.84a.704.704 0 0 1-.475.542M91.216 106.315a.726.726 0 0 1-.672-.123.71.71 0 0 1-.115-1.002c.297-.382.601-.757.905-1.132a.719.719 0 0 1 1.01-.104.714.714 0 0 1 .104 1.006c-.3.371-.601.746-.895 1.117a.762.762 0 0 1-.337.238m110.07-34.555a.721.721 0 0 1-.435.004c-.457-.137-.913-.27-1.373-.4a.722.722 0 0 1-.494-.892.714.714 0 0 1 .887-.486c.464.13.932.267 1.392.408a.712.712 0 0 1 .482.891.71.71 0 0 1-.46.475M85.351 114.517a.743.743 0 0 1-.616-.078.723.723 0 0 1-.215-.99c.264-.409.527-.81.794-1.218a.717.717 0 0 1 .995-.197c.33.216.42.66.2.991l-.786 1.2a.7.7 0 0 1-.372.292m125.436-39.38a.699.699 0 0 1-.498-.018c-.441-.178-.883-.36-1.328-.534a.72.72 0 0 1-.405-.932.722.722 0 0 1 .932-.404c.449.178.898.36 1.347.545a.72.72 0 0 1 .39.936.7.7 0 0 1-.438.408M80.31 123.25a.714.714 0 0 1-.861-1.006c.223-.43.442-.861.672-1.288a.71.71 0 0 1 .965-.293c.352.185.486.62.3.968-.222.42-.445.843-.66 1.266a.717.717 0 0 1-.416.353m139.602-43.826a.718.718 0 0 1-.564-.049c-.42-.222-.842-.441-1.265-.66a.72.72 0 0 1-.312-.965.723.723 0 0 1 .965-.312c.43.223.86.445 1.284.672a.71.71 0 0 1 .297.968.686.686 0 0 1-.405.346M76.151 132.437a.714.714 0 0 1-.89-.943c.177-.45.359-.898.54-1.344a.715.715 0 1 1 1.325.542c-.181.442-.36.884-.534 1.329a.718.718 0 0 1-.441.416M228.58 84.58a.72.72 0 0 1-.624-.082c-.4-.267-.798-.527-1.195-.783a.716.716 0 1 1 .776-1.202c.404.26.805.523 1.21.79.33.22.42.66.2.991a.692.692 0 0 1-.367.286M72.903 141.986a.674.674 0 0 1-.42.008.716.716 0 0 1-.493-.884l.048-.163c.115-.416.238-.824.364-1.228a.712.712 0 0 1 .89-.483.717.717 0 0 1 .48.895c-.12.4-.242.805-.357 1.21l-.048.16a.71.71 0 0 1-.464.485m163.794-51.43a.712.712 0 0 1-.68-.127c-.37-.3-.742-.597-1.113-.894a.71.71 0 0 1-.119-1.002.72.72 0 0 1 1.006-.123c.383.3.754.605 1.132.913a.713.713 0 0 1-.226 1.233M70.609 151.803a.665.665 0 0 1-.352.026.711.711 0 0 1-.58-.831c.09-.475.179-.95.272-1.429a.714.714 0 0 1 .842-.56c.39.074.642.452.56.838-.089.468-.178.94-.263 1.407a.713.713 0 0 1-.479.55m173.582-54.508a.715.715 0 0 1-.732-.171 59.678 59.678 0 0 0-1.02-.998.716.716 0 1 1 .994-1.032c.346.334.69.672 1.032 1.013a.716.716 0 0 1-.274 1.188m-174.903 64.51a.721.721 0 0 1-.282.037.718.718 0 0 1-.657-.772c.04-.486.082-.969.126-1.451a.724.724 0 0 1 .783-.646c.394.04.683.394.646.783-.048.475-.09.95-.126 1.43a.723.723 0 0 1-.49.619m181.695-57.069a.722.722 0 0 1-.78-.222c-.304-.368-.608-.731-.917-1.095a.717.717 0 0 1 1.092-.928c.311.367.623.738.931 1.11a.722.722 0 0 1-.326 1.135M68.958 171.89a.792.792 0 0 1-.216.034.716.716 0 0 1-.727-.702c-.008-.486-.011-.972-.015-1.458a.72.72 0 0 1 1.436 0c0 .475.004.953.015 1.432a.73.73 0 0 1-.493.694m188.052-59.073a.719.719 0 0 1-.824-.282c-.263-.393-.534-.787-.805-1.18a.716.716 0 0 1 .182-.998.72.72 0 0 1 .998.182c.275.397.546.797.817 1.198a.717.717 0 0 1-.368 1.08M69.63 181.956c-.049.011-.097.022-.145.03a.713.713 0 0 1-.795-.631c-.059-.48-.111-.962-.16-1.444a.713.713 0 0 1 .643-.783.711.711 0 0 1 .783.638c.048.475.1.95.156 1.425a.72.72 0 0 1-.483.765m192.577-60.506a.714.714 0 0 1-.853-.341c-.227-.416-.453-.839-.687-1.255a.718.718 0 0 1 .278-.972.72.72 0 0 1 .977.282c.233.42.463.843.694 1.266a.723.723 0 0 1-.29.972.664.664 0 0 1-.119.048M71.285 191.907a.717.717 0 0 1-.928-.527c-.1-.476-.204-.95-.297-1.426a.716.716 0 0 1 .557-.846.722.722 0 0 1 .846.564c.096.468.193.936.297 1.403a.72.72 0 0 1-.475.832m195.253-61.348a.716.716 0 0 1-.884-.405c-.185-.442-.37-.883-.56-1.318a.715.715 0 1 1 1.314-.568c.193.442.382.888.568 1.333a.716.716 0 0 1-.386.939c-.015.007-.034.011-.052.019m-192.63 71.09h-.007a.711.711 0 0 1-.902-.46c-.148-.464-.293-.928-.434-1.388a.714.714 0 0 1 .457-.89c.007 0 .01-.004.018-.004a.72.72 0 0 1 .895.475c.137.456.282.913.427 1.365a.716.716 0 0 1-.453.902m196.058-61.6c-.007 0-.011.004-.018.004a.713.713 0 0 1-.895-.472c-.14-.46-.282-.916-.43-1.37a.72.72 0 0 1 .456-.901h.008a.717.717 0 0 1 .901.46c.149.464.294.924.435 1.388a.715.715 0 0 1-.457.891M77.461 211.092a.722.722 0 0 1-.884-.394 90.974 90.974 0 0 1-.567-1.34.713.713 0 0 1 .386-.935.715.715 0 0 1 .939.386c.181.442.367.88.556 1.314a.718.718 0 0 1-.37.943c-.02.01-.042.018-.06.026m194.997-61.267a.714.714 0 0 1-.928-.534 188.76 188.76 0 0 0-.297-1.403.715.715 0 1 1 1.399-.305c.104.475.204.947.3 1.422a.718.718 0 0 1-.474.82M81.91 220.137a.715.715 0 0 1-.85-.33c-.234-.424-.464-.85-.694-1.274a.717.717 0 1 1 1.262-.679c.226.423.453.839.686 1.254.19.346.067.78-.282.973a.46.46 0 0 1-.122.056m192.065-60.335a.722.722 0 0 1-.939-.609c-.045-.475-.1-.95-.156-1.425a.717.717 0 0 1 1.425-.167c.056.482.108.965.16 1.447a.727.727 0 0 1-.49.754M87.233 228.699a.716.716 0 0 1-.816-.27c-.275-.398-.546-.799-.817-1.2a.717.717 0 0 1 1.192-.798c.263.394.53.79.801 1.18a.72.72 0 0 1-.178.999.823.823 0 0 1-.182.09m187.273-58.825a.718.718 0 0 1-.943-.68c0-.478-.007-.953-.014-1.432a.714.714 0 0 1 .701-.727.711.711 0 0 1 .731.701c.012.486.015.969.019 1.455a.725.725 0 0 1-.494.683M93.372 236.697a.723.723 0 0 1-.776-.219 86.378 86.378 0 0 1-.928-1.11.717.717 0 0 1 .093-1.009.714.714 0 0 1 1.01.097c.304.367.612.73.92 1.095a.72.72 0 0 1-.319 1.146m180.667-56.749a.645.645 0 0 1-.293.033.71.71 0 0 1-.646-.783c.044-.475.085-.95.126-1.421a.716.716 0 0 1 .772-.657c.397.033.69.375.657.772-.041.482-.086.965-.13 1.444a.706.706 0 0 1-.486.612m-173.77 64.102a.722.722 0 0 1-.725-.167c-.349-.334-.69-.676-1.035-1.013a.716.716 0 1 1 1.01-1.017c.337.334.679.668 1.024 1.002.282.275.29.727.015 1.01a.693.693 0 0 1-.29.185m172.308-54.122a.654.654 0 0 1-.36.026.72.72 0 0 1-.568-.842c.097-.472.182-.94.271-1.41a.717.717 0 0 1 .832-.576c.39.074.646.446.575.835-.085.479-.174.954-.27 1.425a.708.708 0 0 1-.48.542m-164.718 60.758a.702.702 0 0 1-.672-.115c-.378-.3-.753-.601-1.132-.91a.716.716 0 0 1 .906-1.11c.371.302.739.599 1.117.896a.72.72 0 0 1 .115 1.01.69.69 0 0 1-.334.23m162.291-50.968a.75.75 0 0 1-.434.008.721.721 0 0 1-.479-.895c.137-.456.27-.916.4-1.373a.725.725 0 0 1 .892-.494.714.714 0 0 1 .486.887c-.13.468-.267.932-.405 1.396a.72.72 0 0 1-.46.471m-154.092 56.835a.71.71 0 0 1-.612-.078c-.405-.263-.81-.527-1.214-.794a.714.714 0 1 1 .79-1.191c.398.263.798.523 1.2.779a.715.715 0 0 1-.164 1.284m150.718-47.333a.708.708 0 0 1-.5-.015.721.721 0 0 1-.39-.939c.181-.438.36-.88.534-1.325a.714.714 0 0 1 .932-.4.71.71 0 0 1 .4.927 55.66 55.66 0 0 1-.542 1.347.698.698 0 0 1-.434.405m-4.287 9.13a.718.718 0 0 1-.86-1.017c.226-.423.445-.842.664-1.269a.715.715 0 0 1 .965-.308c.349.182.49.612.311.965-.222.43-.449.857-.671 1.284a.741.741 0 0 1-.409.345m-128.441 47.426a.73.73 0 0 1-.486-.007c-.453-.182-.902-.36-1.348-.546a.719.719 0 0 1-.393-.935.718.718 0 0 1 .935-.39l1.333.535a.719.719 0 0 1 .4.928.691.691 0 0 1-.441.415m123.29-38.76a.72.72 0 0 1-.624-.08.722.722 0 0 1-.204-.996c.264-.397.527-.798.783-1.198a.72.72 0 0 1 .991-.216c.334.216.43.657.215.991-.263.405-.523.813-.794 1.214a.73.73 0 0 1-.367.286m-113.74 42.003a.7.7 0 0 1-.42.008 86.299 86.299 0 0 1-1.395-.409.717.717 0 0 1-.48-.89.713.713 0 0 1 .892-.48l1.373.402a.716.716 0 0 1 .03 1.37m107.764-33.883a.717.717 0 0 1-.783-1.132c.304-.375.601-.743.898-1.118a.714.714 0 1 1 1.121.887 61.6 61.6 0 0 1-.91 1.132.723.723 0 0 1-.326.23m-97.94 36.173a.805.805 0 0 1-.353.026c-.478-.089-.953-.178-1.428-.27a.714.714 0 0 1-.565-.84.714.714 0 0 1 .84-.567c.467.092.938.181 1.406.267a.715.715 0 0 1 .1 1.384m91.2-28.679a.705.705 0 0 1-.727-.174.711.711 0 0 1-.004-1.01c.334-.341.664-.683.995-1.024a.717.717 0 0 1 1.017-.015.715.715 0 0 1 .018 1.01c-.338.348-.675.697-1.017 1.035a.689.689 0 0 1-.282.178m-81.201 29.993a.65.65 0 0 1-.282.034c-.483-.041-.965-.078-1.448-.127a.718.718 0 0 1 .134-1.429c.475.049.954.09 1.429.127a.718.718 0 0 1 .167 1.395m73.763-23.2a.714.714 0 0 1-.78-.223.718.718 0 0 1 .097-1.01c.364-.3.731-.609 1.091-.917a.718.718 0 0 1 1.014.086c.252.3.219.75-.086 1.006-.363.315-.735.623-1.106.931a.65.65 0 0 1-.23.126m-63.679 23.524a.844.844 0 0 1-.215.037c-.486.008-.969.011-1.451.015a.717.717 0 1 1-.007-1.433c.478-.003.957-.007 1.432-.018a.718.718 0 0 1 .241 1.399m55.603-17.496a.708.708 0 0 1-.817-.282.709.709 0 0 1 .193-.991c.397-.267.787-.535 1.18-.806a.711.711 0 0 1 .995.182.712.712 0 0 1-.182.995c-.393.275-.79.55-1.195.816a.693.693 0 0 1-.174.086m-45.537 16.82a2.002 2.002 0 0 1-.145.03c-.482.06-.965.112-1.447.16a.719.719 0 0 1-.787-.642.72.72 0 0 1 .642-.783c.475-.049.95-.1 1.425-.156a.715.715 0 0 1 .794.627.723.723 0 0 1-.482.765m36.904-11.614a.725.725 0 0 1-.858-.341.714.714 0 0 1 .294-.973c.419-.226.835-.456 1.254-.686a.717.717 0 0 1 .973.278.71.71 0 0 1-.279.972c-.42.238-.846.468-1.273.698-.033.022-.074.037-.111.052m-26.957 9.947-.074.022c-.475.1-.95.204-1.422.297a.716.716 0 1 1-.286-1.403c.468-.093.936-.189 1.403-.297a.716.716 0 0 1 .85.55.71.71 0 0 1-.471.831m17.849-5.62a.717.717 0 0 1-.501-1.343 67.52 67.52 0 0 0 1.317-.557c.36-.16.787.012.943.372a.713.713 0 0 1-.375.942c-.442.193-.887.383-1.332.568-.019.008-.034.015-.052.019m-8.11 2.991h-.004c-.46.149-.924.297-1.388.438a.717.717 0 0 1-.894-.471.725.725 0 0 1 .46-.895l.015-.003c.456-.141.909-.282 1.366-.43a.722.722 0 0 1 .905.463.716.716 0 0 1-.46.898" fill="#000"/><path d="M170.712 66.699c-.487.004-.97.007-1.457.015a.377.377 0 0 0-.257.111.359.359 0 0 0-.1.26c0 .1.037.19.112.26a.38.38 0 0 0 .26.1c.48-.007.962-.01 1.442-.014a.3.3 0 0 0 .115-.019.363.363 0 0 0 .141-.606.366.366 0 0 0-.256-.107zm-1.45 1.45a1.057 1.057 0 0 1-1.066-1.052 1.064 1.064 0 0 1 1.048-1.086c.487-.007.977-.011 1.464-.011h.004c.282 0 .55.108.754.312.201.197.313.465.313.751.003.465-.29.87-.729 1.015a1.13 1.13 0 0 1-.334.06c-.476 0-.956.003-1.435.01h-.019zm10.103-1.108a.368.368 0 0 0-.282.606c.067.07.152.119.249.126.48.04.959.086 1.438.126.052.008.1 0 .149-.014a.364.364 0 0 0 .249-.313.37.37 0 0 0-.327-.401c-.48-.048-.963-.09-1.446-.127-.011-.003-.022-.003-.03-.003zm1.442 1.565c-.033 0-.07 0-.104-.004a44.256 44.256 0 0 0-1.427-.126 1.077 1.077 0 0 1-.729-.376 1.068 1.068 0 0 1 .903-1.758c.484.04.97.085 1.458.13a1.069 1.069 0 0 1-.1 2.134zm-20.183-1.376a61.439 61.439 0 0 0-1.476.16.327.327 0 0 0-.245.138.364.364 0 0 0 .06.513c.074.06.174.089.267.078.48-.056.955-.108 1.431-.156a.372.372 0 0 0 .327-.405.358.358 0 0 0-.364-.328zm-1.439 1.591c-.237 0-.468-.078-.657-.23a1.06 1.06 0 0 1-.175-1.502 1.07 1.07 0 0 1 .714-.398c.483-.055.966-.107 1.45-.16a1.075 1.075 0 0 1 1.17.956 1.071 1.071 0 0 1-.955 1.17c-.476.049-.944.105-1.416.157-.045.003-.09.007-.13.007zm30.19-.46a.372.372 0 0 0-.357.3.368.368 0 0 0 .298.432c.472.085.944.17 1.416.267.06.011.122.008.186-.011a.376.376 0 0 0 .241-.279.365.365 0 0 0-.286-.43c-.476-.094-.952-.183-1.427-.272-.023-.004-.045-.008-.071-.008zm1.424 1.705a1.29 1.29 0 0 1-.205-.018c-.468-.093-.936-.179-1.405-.268a1.07 1.07 0 0 1-.42-1.929c.238-.16.52-.223.8-.17.483.085.958.178 1.438.27.576.112.955.677.844 1.253a1.09 1.09 0 0 1-.714.81 1.13 1.13 0 0 1-.338.052zm-40.155-1.315a.458.458 0 0 0-.075.007 69.1 69.1 0 0 0-1.42.297.369.369 0 0 0-.226.16.346.346 0 0 0-.052.275.367.367 0 0 0 .435.283c.472-.1.94-.205 1.408-.298l.045-.01a.364.364 0 0 0 .242-.42.365.365 0 0 0-.357-.294zm-1.416 1.732c-.201 0-.402-.06-.577-.168a1.1 1.1 0 0 1-.468-.672 1.1 1.1 0 0 1 .149-.807 1.09 1.09 0 0 1 .669-.468c.476-.1.951-.201 1.427-.298a1.063 1.063 0 0 1 1.26.833 1.07 1.07 0 0 1-.836 1.26c-.465.097-.93.193-1.394.297a1.21 1.21 0 0 1-.23.023zm49.986.178a.384.384 0 0 0-.178.045.368.368 0 0 0 .082.676c.46.13.921.268 1.378.405a.367.367 0 0 0 .431-.524.36.36 0 0 0-.219-.178c-.464-.138-.93-.279-1.394-.409a.285.285 0 0 0-.1-.015zm1.39 1.844a1.1 1.1 0 0 1-.312-.045c-.454-.137-.91-.271-1.372-.405a1.057 1.057 0 0 1-.729-1.32 1.055 1.055 0 0 1 1.32-.732c.465.134.933.268 1.398.41.275.08.502.263.636.52.133.249.163.538.078.81-.097.33-.354.598-.684.706a1.036 1.036 0 0 1-.335.056zm-59.743-1.264a.384.384 0 0 0-.112.015c-.46.141-.922.286-1.383.435a.365.365 0 1 0 .227.695c.457-.145.915-.29 1.372-.431l.119.33-.108-.33a.366.366 0 0 0-.115-.714zm-1.38 1.87c-.45 0-.873-.294-1.018-.744a1.073 1.073 0 0 1 .68-1.342 99.61 99.61 0 0 1 1.402-.438 1.068 1.068 0 0 1 .654 2.033l-.048.015c-.432.134-.889.275-1.339.42a1.047 1.047 0 0 1-.33.056zm69.297.799a.372.372 0 0 0-.342.234.37.37 0 0 0 .208.476l1.334.535a.358.358 0 0 0 .476-.197.365.365 0 0 0-.197-.48c-.446-.182-.896-.364-1.345-.542a.319.319 0 0 0-.134-.026zm1.342 1.977a1.03 1.03 0 0 1-.41-.082c-.438-.182-.88-.356-1.322-.531a1.07 1.07 0 0 1 .784-1.992c.453.182.903.364 1.353.55a1.067 1.067 0 0 1-.405 2.055zm-78.764-1.223a.473.473 0 0 0-.141.026c-.446.186-.888.376-1.33.57a.354.354 0 0 0-.19.479c.07.174.271.263.45.204l.03-.015c.438-.186.88-.372 1.323-.557a.36.36 0 0 0 .197-.201.34.34 0 0 0 0-.279.367.367 0 0 0-.339-.227zm-1.33 2a1.066 1.066 0 0 1-.99-1.464 1.07 1.07 0 0 1 .57-.588c.446-.193.892-.383 1.341-.565.26-.115.55-.115.814-.003.268.107.472.316.584.576a1.08 1.08 0 0 1 0 .821 1.06 1.06 0 0 1-.58.576 81.67 81.67 0 0 0-1.312.558l-.085.033c-.116.038-.23.056-.342.056zm87.951 1.416a.344.344 0 0 0-.107.015.364.364 0 0 0-.242.46.374.374 0 0 0 .182.217c.428.219.851.438 1.275.665a.39.39 0 0 0 .29.026.386.386 0 0 0 .204-.178.369.369 0 0 0-.152-.498c-.424-.227-.851-.447-1.279-.67a.356.356 0 0 0-.17-.037zm1.283 2.1a1.11 1.11 0 0 1-.502-.122c-.42-.227-.844-.443-1.268-.662a1.078 1.078 0 0 1-.531-.624 1.07 1.07 0 0 1 .07-.814c.127-.257.354-.443.625-.528a1.05 1.05 0 0 1 .814.063c.431.223.859.446 1.29.676a1.067 1.067 0 0 1-.498 2.011zm-97.025-1.182a.428.428 0 0 0-.175.041c-.424.227-.844.457-1.271.695a.368.368 0 0 0-.141.498.375.375 0 0 0 .501.142c.417-.235.84-.461 1.26-.688a.366.366 0 0 0-.175-.688zm-1.264 2.123c-.38 0-.743-.205-.937-.55a1.069 1.069 0 0 1 .42-1.45 83.52 83.52 0 0 1 1.275-.702 1.078 1.078 0 0 1 1.45.438c.275.52.078 1.167-.439 1.446-.42.227-.836.454-1.252.684-.06.033-.12.056-.179.078h-.004a1.052 1.052 0 0 1-.334.056zm105.756 2a.367.367 0 0 0-.197.676c.402.26.8.52 1.2.784a.36.36 0 0 0 .32.041.356.356 0 0 0 .19-.145c.052-.078.074-.178.052-.275a.36.36 0 0 0-.156-.234c-.401-.264-.807-.528-1.212-.788a.341.341 0 0 0-.197-.06zm1.208 2.226a1.09 1.09 0 0 1-.59-.178 46.992 46.992 0 0 0-1.198-.781 1.092 1.092 0 0 1-.464-.676 1.058 1.058 0 0 1 .145-.803 1.066 1.066 0 0 1 1.48-.32l1.218.795c.234.157.398.402.457.68.052.28 0 .562-.16.804a1.056 1.056 0 0 1-.55.42h-.003a.948.948 0 0 1-.335.059zm-114.35-1.145a.353.353 0 0 0-.204.067c-.402.268-.803.54-1.197.81a.373.373 0 0 0-.093.513c.093.13.264.194.42.138a.299.299 0 0 0 .09-.048c.397-.272.791-.54 1.192-.807a.374.374 0 0 0 .153-.234.37.37 0 0 0-.36-.439zm-1.185 2.245c-.346 0-.68-.163-.885-.457a1.072 1.072 0 0 1 .268-1.487c.4-.275.802-.546 1.208-.821a1.071 1.071 0 0 1 1.479.29 1.073 1.073 0 0 1-.29 1.487c-.394.263-.788.531-1.178.802a1.242 1.242 0 0 1-.272.138 1.004 1.004 0 0 1-.33.048zm122.542 2.543c-.015 0-.03 0-.041.003a.367.367 0 0 0-.25.138.371.371 0 0 0 .064.517c.372.297.747.594 1.119.895a.357.357 0 0 0 .513-.052.361.361 0 0 0-.048-.513c-.376-.304-.755-.605-1.13-.907a.369.369 0 0 0-.227-.081zm1.119 2.338c-.238 0-.476-.082-.673-.238-.364-.305-.74-.602-1.108-.896a1.062 1.062 0 0 1-.175-1.498c.175-.227.428-.368.71-.398.287-.033.565.045.788.223.383.301.759.603 1.138.911.453.372.524 1.044.152 1.505a1.076 1.076 0 0 1-.832.39zM105.49 90.242a.365.365 0 0 0-.23.082 65.06 65.06 0 0 0-1.112.93.362.362 0 0 0-.127.252.34.34 0 0 0 .086.264.362.362 0 0 0 .517.045c.364-.313.732-.617 1.103-.922a.374.374 0 0 0 .13-.253.344.344 0 0 0-.085-.268.358.358 0 0 0-.282-.13zm-1.108 2.36a1.04 1.04 0 0 1-.81-.379 1.048 1.048 0 0 1-.253-.776c.026-.283.156-.54.375-.725.368-.316.744-.628 1.12-.937a1.067 1.067 0 1 1 1.36 1.647c-.368.3-.736.606-1.097.914a1.047 1.047 0 0 1-.695.257zm138.157 3.034a.363.363 0 0 0-.364.375c0 .097.037.19.112.257.342.33.68.665 1.022 1.003.1.097.245.134.375.086a.44.44 0 0 0 .145-.086.369.369 0 0 0-.004-.52c-.342-.342-.687-.68-1.03-1.015a.379.379 0 0 0-.256-.1zm1.03 2.442a1.06 1.06 0 0 1-.755-.312c-.334-.331-.676-.662-1.018-.993a1.08 1.08 0 0 1-.327-.75c-.004-.287.1-.558.301-.759a1.065 1.065 0 0 1 1.51-.03c.348.339.698.673 1.04 1.015a1.072 1.072 0 0 1-.416 1.777 1.047 1.047 0 0 1-.335.052zm-145.54-1.034a.379.379 0 0 0-.26.108c-.342.342-.68.688-1.01 1.037a.36.36 0 0 0-.108.26.37.37 0 0 0 .487.342.344.344 0 0 0 .144-.096c.335-.342.67-.684 1.008-1.026a.369.369 0 0 0 0-.52.392.392 0 0 0-.26-.105zm-1.01 2.465a1.066 1.066 0 0 1-.766-1.81c.338-.35.673-.695 1.018-1.037a1.061 1.061 0 0 1 1.51-.008c.42.416.423 1.093.003 1.51-.33.338-.665.676-.996 1.018a1.129 1.129 0 0 1-.427.275 1.212 1.212 0 0 1-.342.052zm152.427 3.486a.354.354 0 0 0-.238.086.386.386 0 0 0-.127.249c-.007.1.023.193.086.271.308.36.613.729.918 1.097.1.115.256.163.401.115a.326.326 0 0 0 .12-.07.361.361 0 0 0 .048-.514 91.51 91.51 0 0 0-.926-1.104.374.374 0 0 0-.253-.13h-.03zm.921 2.535c-.312 0-.61-.137-.821-.386a52.403 52.403 0 0 0-.914-1.09 1.08 1.08 0 0 1-.25-.78c.023-.282.153-.543.372-.725.22-.186.495-.278.777-.252.286.022.546.156.729.375.312.364.624.736.933 1.111a1.067 1.067 0 0 1-.142 1.502 1.04 1.04 0 0 1-.342.193h-.003a1.167 1.167 0 0 1-.339.052zm-159.091-.98c-.015 0-.026.003-.041.003a.354.354 0 0 0-.245.134c-.305.371-.606.747-.907 1.126a.373.373 0 0 0-.078.271.373.373 0 0 0 .137.246.373.373 0 0 0 .517-.06c.297-.375.594-.75.9-1.122a.375.375 0 0 0 .081-.272.367.367 0 0 0-.137-.245.34.34 0 0 0-.227-.082zm-.907 2.56c-.238 0-.469-.078-.662-.23a1.049 1.049 0 0 1-.398-.718 1.048 1.048 0 0 1 .223-.784c.302-.38.606-.762.911-1.134.182-.223.435-.36.725-.39a1.064 1.064 0 0 1 1.167.955c.03.283-.056.558-.23.78-.301.373-.602.74-.9 1.116a1.028 1.028 0 0 1-.494.346v.003a1.097 1.097 0 0 1-.342.056zm165.225 3.884a.376.376 0 0 0-.212.067.379.379 0 0 0-.149.234.359.359 0 0 0 .06.276c.27.394.542.788.81 1.189a.374.374 0 0 0 .42.145.26.26 0 0 0 .089-.048.343.343 0 0 0 .152-.235.365.365 0 0 0-.052-.275c-.271-.397-.542-.799-.817-1.193a.364.364 0 0 0-.301-.16zm.817 2.628a1.08 1.08 0 0 1-.892-.472 82.277 82.277 0 0 0-.803-1.178 1.056 1.056 0 0 1-.17-.8 1.065 1.065 0 0 1 1.925-.416c.275.398.554.796.821 1.205a1.058 1.058 0 0 1-.29 1.479 1.052 1.052 0 0 1-.591.182zm-171.123-.944a.357.357 0 0 0-.305.167 70.05 70.05 0 0 0-.796 1.212.357.357 0 0 0-.048.275.341.341 0 0 0 .16.23.358.358 0 0 0 .312.042.359.359 0 0 0 .193-.15c.26-.404.52-.806.788-1.207.053-.078.071-.175.053-.271a.37.37 0 0 0-.357-.298zm-.792 2.647c-.204 0-.405-.06-.58-.171a1.06 1.06 0 0 1-.465-.673 1.052 1.052 0 0 1 .145-.803c.264-.409.532-.818.796-1.22.16-.24.401-.4.68-.456.279-.056.565 0 .803.152.238.16.398.402.457.68.056.28.004.565-.156.803-.26.394-.524.796-.78 1.197-.13.204-.331.357-.562.431a.984.984 0 0 1-.338.06zm176.431 4.248a.36.36 0 0 0-.178.041.36.36 0 0 0-.175.223.349.349 0 0 0 .03.279c.23.416.465.84.688 1.26a.37.37 0 0 0 .676-.07.35.35 0 0 0-.03-.28c-.23-.423-.457-.847-.695-1.27a.355.355 0 0 0-.316-.183zm.688 2.695c-.383 0-.747-.204-.94-.561-.223-.417-.454-.837-.68-1.253a1.03 1.03 0 0 1-.097-.81 1.063 1.063 0 0 1 1.959-.223c.238.42.468.847.698 1.271.138.257.168.543.082.814a1.057 1.057 0 0 1-.68.71h-.004a1.187 1.187 0 0 1-.338.052zm-181.494-.91a.383.383 0 0 0-.327.196c-.227.424-.45.852-.67 1.283a.37.37 0 0 0-.021.282.35.35 0 0 0 .178.208.369.369 0 0 0 .286.026v-.003a.36.36 0 0 0 .212-.179c.22-.427.439-.85.665-1.27a.368.368 0 0 0-.323-.543zm-.673 2.717c-.167 0-.33-.041-.487-.123a1.043 1.043 0 0 1-.527-.62 1.052 1.052 0 0 1 .066-.815c.223-.435.45-.866.677-1.293a1.07 1.07 0 0 1 1.446-.443c.249.134.435.357.516.632.086.271.056.561-.074.81-.227.424-.446.844-.665 1.268a1.067 1.067 0 0 1-.952.584zm185.944 4.55a.365.365 0 0 0-.338.513c.189.438.375.88.56 1.322a.364.364 0 0 0 .45.208l.034-.01a.365.365 0 0 0 .197-.48l-.569-1.33a.356.356 0 0 0-.204-.198.338.338 0 0 0-.13-.026zm.565 2.765c-.42 0-.822-.253-.99-.658a82.068 82.068 0 0 0-.557-1.316 1.072 1.072 0 0 1 .554-1.405c.26-.112.55-.115.814-.015.264.108.476.308.591.572.193.446.383.892.573 1.342a1.076 1.076 0 0 1-.577 1.398c-.022.011-.048.018-.07.026l-.004.004a1.142 1.142 0 0 1-.334.052zm-190.133-.892a.364.364 0 0 0-.338.23c-.186.446-.368.892-.546 1.342a.38.38 0 0 0 .007.279.36.36 0 0 0 .2.197.363.363 0 0 0 .476-.208c.179-.447.357-.889.54-1.331a.372.372 0 0 0 0-.283.354.354 0 0 0-.198-.197.401.401 0 0 0-.14-.03zm-.539 2.772a1.19 1.19 0 0 1-.394-.07c-.55-.22-.818-.84-.598-1.387.174-.453.357-.907.542-1.356a1.072 1.072 0 0 1 1.394-.58c.264.108.472.312.58.576.112.264.112.554 0 .818-.178.438-.357.88-.531 1.327a1.067 1.067 0 0 1-.993.672zm194.206 6.91.12.327-.112-.33a.372.372 0 0 0 .238-.454c-.142-.465-.29-.93-.439-1.39a.365.365 0 0 0-.465-.234.367.367 0 0 0-.234.46c.149.458.294.915.435 1.376a.37.37 0 0 0 .457.245zm-.111.714a1.062 1.062 0 0 1-1.019-.75 86.53 86.53 0 0 0-.43-1.369 1.071 1.071 0 0 1 1.508-1.278c.253.13.443.353.528.624.149.461.294.926.435 1.394a1.068 1.068 0 0 1-.68 1.323l-.004.004-.108-.335.104.335a1.08 1.08 0 0 1-.334.052zm-196.938-.877c-.156 0-.309.1-.353.256-.123.41-.246.818-.365 1.227l-.048.167a.37.37 0 0 0 .256.45.33.33 0 0 0 .216-.004.366.366 0 0 0 .238-.245l.048-.164c.115-.409.234-.814.357-1.215a.366.366 0 0 0-.35-.472zm-.41 2.817a1.056 1.056 0 0 1-.933-.55 1.03 1.03 0 0 1-.092-.81l.045-.167c.122-.413.241-.822.364-1.234a1.07 1.07 0 0 1 2.048.616c-.123.402-.242.807-.36 1.209l-.042.16c-.1.338-.356.609-.69.724h-.005a1.031 1.031 0 0 1-.334.052zm199.548 5.003c-.026 0-.052.004-.078.008a.37.37 0 0 0-.282.435c.104.472.204.94.297 1.412a.395.395 0 0 0 .156.234c.086.052.182.07.275.052a.184.184 0 0 0 .049-.015.359.359 0 0 0 .238-.416 64.593 64.593 0 0 0-.298-1.423.346.346 0 0 0-.16-.227.341.341 0 0 0-.197-.06zm.298 2.851c-.212 0-.417-.063-.588-.178a1.047 1.047 0 0 1-.457-.68 97.838 97.838 0 0 0-.297-1.402 1.073 1.073 0 0 1 .818-1.27 1.082 1.082 0 0 1 1.271.818c.1.475.204.954.3 1.43a1.075 1.075 0 0 1-1.047 1.282zM70 149.815a.33.33 0 0 0-.201.063.367.367 0 0 0-.156.23c-.093.476-.182.952-.272 1.428a.367.367 0 0 0 .294.424.426.426 0 0 0 .182-.008.383.383 0 0 0 .25-.286c.081-.472.174-.944.267-1.413a.368.368 0 0 0-.29-.43c-.026-.008-.048-.008-.074-.008zm-.268 2.854a1.065 1.065 0 0 1-1.048-1.26c.085-.48.178-.959.271-1.434a1.065 1.065 0 0 1 1.253-.84c.576.111.959.672.844 1.256a85.26 85.26 0 0 0-.268 1.405 1.074 1.074 0 0 1-1.052.873zm203.514 5.134c-.015 0-.03 0-.045.003a.367.367 0 0 0-.323.406c.055.475.111.955.156 1.43a.372.372 0 0 0 .405.331.376.376 0 0 0 .327-.405c-.048-.48-.104-.959-.156-1.438a.382.382 0 0 0-.138-.25.398.398 0 0 0-.226-.077zm.156 2.87a1.068 1.068 0 0 1-1.063-.96c-.049-.472-.104-.944-.156-1.42a1.072 1.072 0 0 1 .94-1.185 1.07 1.07 0 0 1 1.182.937c.056.482.108.97.16 1.453a1.07 1.07 0 0 1-.725 1.122v.004c-.074.018-.149.037-.23.044-.038.004-.071.004-.108.004zm-204.863-.863a.373.373 0 0 0-.368.334c-.045.48-.086.96-.127 1.439a.362.362 0 0 0 .335.398c.048.007.1 0 .149-.015a.37.37 0 0 0 .245-.32c.04-.48.086-.955.13-1.435a.366.366 0 0 0-.33-.397c-.008-.004-.023-.004-.034-.004zm-.127 2.873c-.03 0-.059 0-.089-.004a1.065 1.065 0 0 1-.728-.371 1.08 1.08 0 0 1-.253-.777c.04-.487.085-.974.134-1.457a1.073 1.073 0 0 1 1.163-.963c.587.06 1.019.584.963 1.167-.045.476-.09.952-.126 1.427-.038.424-.32.789-.729.926-.108.033-.22.052-.335.052zm205.506 5.2h-.003a.38.38 0 0 0-.264.112.359.359 0 0 0-.1.26c.007.48.01.963.014 1.442 0 .097.041.19.108.257a.363.363 0 0 0 .375.092v-.003a.365.365 0 0 0 .25-.35c0-.483-.008-.966-.015-1.45a.367.367 0 0 0-.365-.36zm.015 2.88c-.286 0-.554-.11-.758-.311a1.075 1.075 0 0 1-.312-.755l-.011-1.431c-.008-.282.1-.554.297-.758a1.07 1.07 0 0 1 1.836.721c.011.487.015.974.015 1.46 0 .465-.29.874-.732 1.02a.997.997 0 0 1-.331.055h-.004zm-205.866-.862a.368.368 0 0 0-.368.365c0 .483.007.97.015 1.453.003.205.16.353.375.36a.365.365 0 0 0 .357-.375c-.008-.48-.015-.959-.015-1.438a.366.366 0 0 0-.364-.365zm.018 2.877a1.064 1.064 0 0 1-1.07-1.048 63.8 63.8 0 0 1-.015-1.46 1.07 1.07 0 0 1 1.063-1.071h.004c.587 0 1.067.476 1.067 1.063.003.48.007.955.014 1.431a1.063 1.063 0 0 1-1.048 1.085h-.015zm205.506 5.2a.35.35 0 0 0-.238.09.366.366 0 0 0-.13.249c-.04.48-.078.955-.126 1.435a.36.36 0 0 0 .33.397c.049.004.101 0 .15-.015a.365.365 0 0 0 .248-.312c.049-.48.093-.963.13-1.446a.355.355 0 0 0-.085-.264.37.37 0 0 0-.249-.133h-.03zm-.126 2.878c-.034 0-.07-.004-.108-.008a1.069 1.069 0 0 1-.959-1.167c.045-.468.09-.944.13-1.42a1.063 1.063 0 0 1 1.148-.978c.283.023.547.157.726.376.185.215.278.49.252.777-.04.483-.085.966-.126 1.453a1.081 1.081 0 0 1-1.063.967zm-204.874-.867h-.034a.349.349 0 0 0-.249.134.373.373 0 0 0-.078.272c.045.48.097.962.156 1.442a.362.362 0 0 0 .134.245.37.37 0 0 0 .272.074.24.24 0 0 0 .074-.014.372.372 0 0 0 .249-.39c-.06-.48-.108-.956-.156-1.435a.377.377 0 0 0-.134-.246.36.36 0 0 0-.234-.082zm.156 2.874a1.04 1.04 0 0 1-.658-.234 1.051 1.051 0 0 1-.401-.714c-.056-.483-.108-.97-.16-1.453-.03-.283.056-.562.238-.781.182-.223.435-.357.717-.387.286-.03.561.056.784.23.223.183.36.44.39.726.045.472.097.947.153 1.42.06.498-.245.977-.721 1.133-.07.026-.145.041-.216.052a1.44 1.44 0 0 1-.126.008zm203.521 5.133a.368.368 0 0 0-.204.063.354.354 0 0 0-.153.238c-.089.472-.178.944-.271 1.412a.373.373 0 0 0 .29.432.35.35 0 0 0 .186-.012.38.38 0 0 0 .245-.278c.093-.472.182-.948.271-1.424a.365.365 0 0 0-.063-.275.351.351 0 0 0-.234-.152c-.022-.004-.045-.004-.067-.004zm-.268 2.85c-.07 0-.137-.007-.208-.014a1.074 1.074 0 0 1-.84-1.256c.093-.469.182-.937.268-1.405.052-.283.208-.528.442-.688.238-.164.52-.223.8-.175.278.056.527.212.687.446.163.234.223.52.17.8-.085.479-.174.955-.27 1.434-.075.376-.35.688-.71.807a1.038 1.038 0 0 1-.339.052zm-201.885-.869a.356.356 0 0 0-.309.164.344.344 0 0 0-.052.275c.093.475.194.947.298 1.42a.36.36 0 0 0 .435.282l.037-.011h.003a.358.358 0 0 0 .238-.424c-.1-.472-.197-.944-.293-1.412a.368.368 0 0 0-.357-.294zm.293 2.851c-.204 0-.4-.06-.58-.167a1.092 1.092 0 0 1-.464-.677c-.104-.476-.2-.951-.301-1.427-.056-.283 0-.569.16-.807a1.07 1.07 0 0 1 1.937.383c.092.465.193.933.293 1.401a1.061 1.061 0 0 1-.706 1.238c-.034.015-.075.023-.112.034a1.172 1.172 0 0 1-.227.022zm199.563 5.003a.373.373 0 0 0-.353.268c-.13.46-.264.922-.402 1.382a.37.37 0 0 0 .242.458.368.368 0 0 0 .457-.249c.145-.465.279-.926.413-1.39a.371.371 0 0 0-.357-.469zm-.405 2.821a1.066 1.066 0 0 1-1.022-1.375c.133-.457.27-.914.401-1.372a1.066 1.066 0 0 1 1.32-.732c.568.164.895.755.732 1.32-.13.468-.268.933-.41 1.397a1.057 1.057 0 0 1-.683.707 1.058 1.058 0 0 1-.338.055zm-196.418 1.212.115.335-.111-.335a.36.36 0 0 0 .23-.46c-.145-.458-.29-.915-.431-1.376a.355.355 0 0 0-.178-.216.362.362 0 0 0-.28-.026.361.361 0 0 0-.24.457c.14.465.285.926.434 1.387.03.093.093.17.182.212a.35.35 0 0 0 .279.022zm-.119.721c-.167 0-.33-.04-.48-.119a1.054 1.054 0 0 1-.531-.624c-.149-.465-.297-.93-.439-1.394a1.06 1.06 0 0 1 .688-1.323 1.05 1.05 0 0 1 .836.07c.253.134.435.353.52.628.138.458.283.915.428 1.368a1.064 1.064 0 0 1-1.022 1.394zm193.697 4.814a.385.385 0 0 0-.145.026.392.392 0 0 0-.197.204c-.178.446-.353.888-.535 1.33a.365.365 0 0 0 .197.48.364.364 0 0 0 .48-.197c.181-.446.363-.895.542-1.345a.362.362 0 0 0-.208-.476.338.338 0 0 0-.134-.022zm-.539 2.773a1.067 1.067 0 0 1-.989-1.476c.182-.442.36-.881.532-1.323.108-.268.308-.476.572-.588.26-.119.55-.122.818-.015a1.074 1.074 0 0 1 .602 1.386c-.182.454-.364.904-.55 1.354a1.05 1.05 0 0 1-.65.606 1.036 1.036 0 0 1-.335.056zm-190.155-.896a.366.366 0 0 0-.14.026.371.371 0 0 0-.198.483c.182.446.372.888.565 1.334.07.171.271.26.45.201l.033-.011a.369.369 0 0 0 .19-.483c-.19-.439-.38-.881-.565-1.324a.367.367 0 0 0-.335-.226zm.569 2.765c-.416 0-.814-.249-.985-.643a85.758 85.758 0 0 1-.569-1.345 1.017 1.017 0 0 1-.003-.814 1.068 1.068 0 0 1 1.39-.588c.264.112.472.313.583.584.182.438.372.877.558 1.312a1.073 1.073 0 0 1-.554 1.405c-.033.011-.063.026-.09.033a1.03 1.03 0 0 1-.33.056zm185.962 4.554a.369.369 0 0 0-.327.204c-.22.424-.443.847-.666 1.275a.362.362 0 0 0 .153.49c.09.053.19.06.286.027a.348.348 0 0 0 .208-.175c.227-.428.45-.855.673-1.282a.392.392 0 0 0 .022-.283.367.367 0 0 0-.182-.212.342.342 0 0 0-.167-.044zm-.67 2.717a1.03 1.03 0 0 1-.501-.127 1.045 1.045 0 0 1-.517-.632c-.089-.27-.06-.557.075-.81.223-.424.442-.844.661-1.267a1.09 1.09 0 0 1 .625-.532c.271-.082.557-.06.814.07.253.13.442.35.528.621.089.272.067.562-.064.818a85.09 85.09 0 0 1-.676 1.29c-.13.245-.346.427-.606.513a1.041 1.041 0 0 1-.338.056zm-181.53-.911a.376.376 0 0 0-.175.04.374.374 0 0 0-.149.499c.23.424.461.851.695 1.271a.37.37 0 0 0 .435.171c.023-.007.041-.018.063-.03a.364.364 0 0 0 .175-.223.368.368 0 0 0-.03-.278c-.234-.417-.46-.833-.691-1.26a.365.365 0 0 0-.323-.19zm.691 2.699c-.38 0-.74-.205-.933-.55-.238-.424-.468-.852-.699-1.28a1.068 1.068 0 0 1 1.881-1.01c.227.424.454.836.688 1.252.137.253.17.54.089.814a1.048 1.048 0 0 1-.688.718 1.092 1.092 0 0 1-.338.056zm176.469 4.248c-.026 0-.052.004-.078.008a.362.362 0 0 0-.235.163c-.256.402-.516.8-.78 1.2a.365.365 0 0 0 .42.55.356.356 0 0 0 .19-.144c.267-.402.527-.807.787-1.212a.346.346 0 0 0 .052-.275.361.361 0 0 0-.16-.234.403.403 0 0 0-.196-.056zm-.788 2.643c-.209 0-.413-.06-.591-.175a1.072 1.072 0 0 1-.301-1.483c.263-.398.524-.795.78-1.197a1.06 1.06 0 0 1 .673-.464c.275-.064.561-.012.806.145a1.074 1.074 0 0 1 .32 1.475l-.795 1.22a1.08 1.08 0 0 1-.892.479zm-171.165-.94a.365.365 0 0 0-.305.568c.268.402.54.8.81 1.193a.374.374 0 0 0 .42.142.374.374 0 0 0 .097-.045.376.376 0 0 0 .093-.513 60.826 60.826 0 0 1-.81-1.186.366.366 0 0 0-.305-.16zm.814 2.624c-.342 0-.68-.168-.884-.461-.276-.398-.547-.8-.818-1.205a1.066 1.066 0 0 1 .293-1.479c.484-.33 1.153-.2 1.48.29.264.398.535.788.806 1.182a1.07 1.07 0 0 1-.27 1.483.971.971 0 0 1-.272.134h-.004a.924.924 0 0 1-.33.056zm165.27 3.888a.371.371 0 0 0-.29.14c-.298.373-.595.748-.896 1.116a.37.37 0 0 0 .052.52c.096.078.227.1.345.064a.34.34 0 0 0 .168-.12c.305-.371.61-.75.91-1.126a.371.371 0 0 0-.063-.516.365.365 0 0 0-.227-.078zm-.904 2.56a1.07 1.07 0 0 1-.673-.237 1.07 1.07 0 0 1-.152-1.506c.297-.368.595-.74.892-1.111a1.061 1.061 0 0 1 1.498-.175c.461.36.543 1.037.175 1.498-.301.38-.602.759-.91 1.138a1.022 1.022 0 0 1-.492.334v.004a1.075 1.075 0 0 1-.338.056zm-159.147-.98c-.09 0-.167.03-.234.085a.369.369 0 0 0-.134.245c-.008.1.022.194.085.272.309.371.617.743.93 1.107.096.115.252.16.394.112a.275.275 0 0 0 .119-.07.366.366 0 0 0 .044-.518c-.308-.364-.617-.732-.922-1.1a.362.362 0 0 0-.245-.134h-.037zm.925 2.542c-.308 0-.605-.134-.814-.38a87.462 87.462 0 0 1-.936-1.114 1.066 1.066 0 0 1-.238-.781 1.061 1.061 0 0 1 1.163-.963c.283.026.543.164.721.38.309.367.614.735.918 1.096.38.446.324 1.126-.122 1.51a1.056 1.056 0 0 1-.353.192v.004a1.092 1.092 0 0 1-.339.056zm152.483 3.479a.349.349 0 0 0-.264.111c-.334.346-.669.684-1.007 1.026a.37.37 0 0 0 .004.52.37.37 0 0 0 .52-.003c.338-.342.677-.688 1.011-1.033a.369.369 0 0 0-.007-.52.379.379 0 0 0-.257-.101zm-1.01 2.464a1.066 1.066 0 0 1-.755-1.821c.334-.335.665-.676.996-1.018a1.072 1.072 0 0 1 1.509-.03c.204.2.32.464.327.75.004.287-.1.558-.301.763-.338.349-.673.695-1.015 1.04-.119.12-.26.209-.42.26a1.097 1.097 0 0 1-.342.056zm-145.596-1.026a.355.355 0 0 0-.26.112.361.361 0 0 0 .004.517c.338.338.683.676 1.033 1.014a.361.361 0 0 0 .368.082.402.402 0 0 0 .152-.093.361.361 0 0 0 .1-.264.361.361 0 0 0-.11-.256c-.343-.331-.689-.67-1.027-1.004a.372.372 0 0 0-.26-.108zm1.03 2.443c-.272 0-.536-.1-.74-.298-.35-.334-.695-.676-1.04-1.018a1.069 1.069 0 0 1 1.505-1.517c.338.338.676.666 1.018.996.204.201.32.465.323.751a1.04 1.04 0 0 1-.297.762 1.054 1.054 0 0 1-.77.323zm138.22 3.029c-.089 0-.17.03-.238.085-.364.309-.732.617-1.1.922a.37.37 0 0 0-.048.517c.096.115.253.163.398.115a.295.295 0 0 0 .115-.067c.375-.305.743-.613 1.107-.925a.37.37 0 0 0 .045-.52.386.386 0 0 0-.249-.127h-.03zm-1.107 2.36a1.067 1.067 0 0 1-.676-1.892c.363-.305.731-.61 1.088-.918.22-.182.498-.271.777-.253a1.072 1.072 0 0 1 .61 1.881c-.368.312-.744.625-1.116.933a1.042 1.042 0 0 1-.683.25zM105.91 249.36c-.012 0-.023 0-.034.004a.345.345 0 0 0-.249.13.389.389 0 0 0-.082.267.354.354 0 0 0 .134.246c.372.305.751.61 1.13.91.097.075.223.1.342.06a.37.37 0 0 0 .115-.636c-.379-.297-.75-.598-1.122-.9a.36.36 0 0 0-.234-.081zm1.126 2.338c-.238 0-.472-.078-.665-.23-.38-.302-.759-.606-1.134-.915a1.054 1.054 0 0 1-.39-.717 1.05 1.05 0 0 1 .237-.785 1.059 1.059 0 0 1 1.502-.152c.372.301.74.598 1.115.892.461.364.535 1.04.175 1.502a1.075 1.075 0 0 1-.84.405zm122.617 2.52a.345.345 0 0 0-.205.067c-.394.271-.788.543-1.186.81a.356.356 0 0 0-.156.234.368.368 0 0 0 .565.376c.398-.271.8-.543 1.193-.814a.377.377 0 0 0 .153-.238.35.35 0 0 0-.063-.275.365.365 0 0 0-.301-.16zm-1.182 2.249c-.354 0-.688-.171-.889-.472-.16-.238-.22-.52-.163-.803.055-.279.211-.52.453-.68.39-.264.784-.532 1.175-.8.234-.163.52-.226.799-.174.279.048.524.204.687.442.164.234.223.517.175.8a1.049 1.049 0 0 1-.446.683c-.398.275-.795.554-1.2.822a1.07 1.07 0 0 1-.591.182zm-114.429-1.123a.278.278 0 0 0-.074.011.37.37 0 0 0-.13.665c.405.265.807.529 1.212.789a.355.355 0 0 0 .316.04.353.353 0 0 0 .193-.148.371.371 0 0 0-.112-.51c-.401-.256-.802-.52-1.2-.783a.378.378 0 0 0-.205-.064zm1.205 2.23c-.201 0-.398-.059-.573-.17-.412-.268-.817-.532-1.223-.8a1.07 1.07 0 0 1 1.182-1.784c.398.268.796.528 1.194.785.498.32.639.98.32 1.475a1.077 1.077 0 0 1-.9.495zm105.838 1.978a.384.384 0 0 0-.179.045c-.416.234-.84.464-1.263.691a.368.368 0 1 0 .353.647c.42-.23.843-.461 1.267-.695a.37.37 0 0 0 .145-.498.374.374 0 0 0-.323-.19zm-1.268 2.126c-.386 0-.75-.208-.94-.561a1.07 1.07 0 0 1 .435-1.446c.42-.227.84-.454 1.252-.688a1.07 1.07 0 0 1 1.037 1.87c-.423.234-.847.468-1.274.699a.796.796 0 0 1-.171.07.993.993 0 0 1-.339.056zm-7.79 2.338a.404.404 0 0 0-.145.03c-.44.193-.881.379-1.324.561a.379.379 0 0 0-.2.2.356.356 0 0 0 .003.283.374.374 0 0 0 .454.208l.018-.007c.454-.19.896-.38 1.338-.572a.362.362 0 0 0 .193-.48.367.367 0 0 0-.338-.223zm-1.324 2c-.42 0-.821-.25-.992-.658a1.065 1.065 0 0 1 0-.814c.108-.268.312-.472.576-.584.442-.182.88-.368 1.316-.557a1.074 1.074 0 0 1 1.405.554 1.075 1.075 0 0 1-.558 1.405c-.446.193-.892.386-1.342.572-.022.011-.048.019-.07.026a1.087 1.087 0 0 1-.335.056zm-78.778-1.178a.361.361 0 0 0-.335.226.365.365 0 0 0 .197.48c.446.182.896.364 1.346.542.1.038.19.023.249.008a.392.392 0 0 0 .227-.216.39.39 0 0 0-.004-.282.385.385 0 0 0-.204-.193 141.97 141.97 0 0 1-1.331-.54.399.399 0 0 0-.145-.025zm1.342 1.973c-.134 0-.268-.026-.394-.078a60.375 60.375 0 0 1-1.353-.542 1.068 1.068 0 0 1 .814-1.974c.438.182.88.357 1.323.531.268.108.476.305.587.573.116.26.123.55.015.814a1.061 1.061 0 0 1-.992.676zm69.307.766a.436.436 0 0 0-.111.019c-.454.148-.911.29-1.368.43a.372.372 0 0 0-.246.458.38.38 0 0 0 .179.22c.09.044.186.051.279.025.46-.145.921-.29 1.386-.438l.112.334-.112-.334a.365.365 0 0 0-.119-.714zm-1.375 1.87c-.175 0-.342-.041-.502-.123a1.074 1.074 0 0 1 .164-1.959c.48-.149.933-.29 1.386-.438a1.07 1.07 0 0 1 1.35.69 1.07 1.07 0 0 1-.68 1.339l-.016.007-.096-.338.092.338a75.12 75.12 0 0 1-1.382.435 1.036 1.036 0 0 1-.316.049zm-59.751-1.23c-.16 0-.305.1-.357.26a.38.38 0 0 0 .03.278.375.375 0 0 0 .22.179c.464.137.925.271 1.39.409.07.018.144.014.215-.004a.369.369 0 0 0 .238-.253.326.326 0 0 0-.034-.275.356.356 0 0 0-.219-.175c-.46-.133-.922-.267-1.379-.405a.336.336 0 0 0-.104-.015zm1.383 1.84c-.097 0-.197-.016-.294-.042-.468-.133-.933-.271-1.401-.409a1.072 1.072 0 0 1-.71-1.334c.163-.561.765-.88 1.327-.714.457.138.914.272 1.371.402.272.078.502.26.64.51.14.248.174.538.093.81a1.061 1.061 0 0 1-1.026.776zm49.99.152a.258.258 0 0 0-.075.01c-.472.101-.94.202-1.412.298a.356.356 0 0 0-.234.156.372.372 0 0 0 .104.51c.082.052.182.07.275.052a64.315 64.315 0 0 0 1.457-.312.361.361 0 0 0 .245-.424.37.37 0 0 0-.36-.29zm-1.416 1.735c-.495 0-.945-.349-1.045-.858a1.057 1.057 0 0 1 .156-.803c.156-.238.402-.398.68-.457.465-.093.933-.19 1.398-.294a1.07 1.07 0 0 1 .565 2.06c-.037.01-.07.022-.108.03-.476.103-.955.207-1.43.3a1.09 1.09 0 0 1-.216.022zm-40.155-1.297a.366.366 0 0 0-.075.725c.476.097.952.182 1.428.271a.38.38 0 0 0 .182-.01.367.367 0 0 0 .241-.283.368.368 0 0 0-.293-.431 63.104 63.104 0 0 1-1.416-.264c-.023-.008-.045-.008-.067-.008zm1.42 1.703a1.1 1.1 0 0 1-.194-.019c-.48-.085-.955-.178-1.434-.268a1.077 1.077 0 0 1-.844-1.256 1.07 1.07 0 0 1 1.256-.84c.465.09.933.178 1.405.264a1.07 1.07 0 0 1 .145 2.067 1.142 1.142 0 0 1-.334.052zm30.19-.472h-.045c-.476.06-.956.107-1.432.16a.369.369 0 0 0-.33.405c.022.197.2.345.405.323a63.326 63.326 0 0 0 1.516-.171.37.37 0 0 0 .246-.394.357.357 0 0 0-.36-.323zm-1.44 1.594a1.071 1.071 0 0 1-.11-2.133c.475-.049.947-.1 1.423-.156.286-.03.565.044.784.223.227.178.368.43.401.717a1.075 1.075 0 0 1-.936 1.182c-.483.06-.97.108-1.454.16-.037.003-.07.007-.107.007zm-20.179-1.368a.371.371 0 0 0-.23.082.356.356 0 0 0-.134.25.37.37 0 0 0 .33.4c.48.049.963.086 1.446.127a.32.32 0 0 0 .145-.019.365.365 0 0 0-.085-.71c-.48-.04-.955-.085-1.435-.13h-.037zm1.442 1.565c-.03 0-.06-.004-.089-.004-.483-.04-.966-.085-1.453-.13a1.053 1.053 0 0 1-.721-.382 1.065 1.065 0 0 1 .145-1.505c.219-.183.498-.272.776-.242.476.048.952.089 1.428.126a1.072 1.072 0 0 1-.086 2.137zm10.096-1.115h-.008c-.48.008-.959.015-1.438.015a.36.36 0 0 0-.26.108.365.365 0 0 0 .26.624c.483 0 .97-.007 1.453-.015a.36.36 0 0 0 .357-.372.367.367 0 0 0-.364-.36zM171.333 274c-.283 0-.55-.108-.751-.309a1.036 1.036 0 0 1-.316-.754 1.056 1.056 0 0 1 1.063-1.07c.476-.004.955-.008 1.431-.015h.019c.58 0 1.059.464 1.07 1.051.008.469-.286.885-.736 1.03a.912.912 0 0 1-.316.056c-.487.011-.974.011-1.46.011h-.004z" fill="#000"/><path d="M237.95 115.53a82.065 82.065 0 0 1 2.819 3.91c34.81-5.974 59.029-4.948 62.104 4.31 5.136 15.463-50.638 48.032-124.577 72.745-73.939 24.714-138.037 32.218-143.169 16.755-3.076-9.262 15.698-24.654 47.128-40.823a87.198 87.198 0 0 1-.09-4.825c-37.052 18.758-59.504 37.285-55.76 48.562 5.896 17.758 74.516 10.81 153.27-15.512 78.752-26.326 137.814-62.058 131.92-79.816-3.746-11.277-32.784-12.59-73.645-5.307" fill="#00BFD9"/><path d="M91.998 112.62c-.026 1.238-.375 2.52-1.24 3.445-.694.731-1.57 1.027-2.434 1.47-1.971 1.002-2.268 3.479-3.779 4.964-.88.865-2.123 1.501-3.385 1.501-1.024 0-1.856-.492-2.806-.798-1.317-.418-2.583.24-3.923.173-1.306-.062-2.394-.743-3.273-1.67-.178-.189-.35-.38-.516-.57-.69-.79-1.322-1.592-2.186-2.243-.75-.562-1.474-1.127-1.915-1.974-1.118-2.136-.368-4.283 1.017-6.013.708-.887.493-1.33.022-2.31-.509-1.046-.79-2.055-.587-3.22.334-1.907 1.622-2.997 3.278-3.507-.516-2.388 5.545-2.676 6.862-2.783 3.474-.281 7.817.015 10.307 2.75.249.266.42.558.55.865.552 1.33.3 2.953 1.19 4.154.662.89 1.552 1.567 2.098 2.554.53.965.746 2.122.72 3.212" fill="#5472D6"/><path d="M91.998 112.78c-.026 1.221-.369 2.485-1.219 3.396-.682.722-1.544 1.013-2.394 1.45-1.938.988-2.23 3.43-3.715 4.895-.865.852-2.087 1.479-3.328 1.479-1.007 0-1.825-.485-2.759-.787-1.295-.412-2.54.237-3.857.171-1.285-.062-2.354-.732-3.219-1.647a23.485 23.485 0 0 1-.507-.561c.84-.995 2.365-1.41 3.78-1.556 1.54-.16 3.781.186 3.876-1.837.091-2.098-.795-4.65 1.43-6.023.982-.605 2.143-.408 3.143-.878 1.284-.612.61-2.693.773-3.823.186-1.33.942-2.452 2.08-3.163.617-.386 1.3-.626 1.975-.896.543 1.312.295 2.912 1.171 4.096.65.878 1.526 1.545 2.062 2.518.522.95.733 2.091.708 3.166" fill="#3A52A1"/><path d="M279.998 225.62c-.026 1.238-.374 2.52-1.243 3.445-.69.731-1.566 1.027-2.435 1.47-1.967 1.002-2.267 3.479-3.774 4.964-.884.865-2.127 1.501-3.385 1.501-1.024 0-1.86-.492-2.806-.798-1.317-.418-2.583.24-3.923.173-1.31-.062-2.394-.743-3.277-1.67a29.56 29.56 0 0 1-.512-.57c-.69-.79-1.325-1.592-2.19-2.243-.746-.562-1.474-1.127-1.911-1.974-1.118-2.132-.372-4.283 1.013-6.013.709-.887.497-1.33.026-2.31-.509-1.046-.79-2.055-.587-3.22.33-1.907 1.622-2.997 3.278-3.507-.516-2.388 5.54-2.676 6.862-2.783 3.474-.281 7.813.015 10.307 2.75.245.266.42.558.545.865.557 1.33.305 2.953 1.195 4.154.657.89 1.548 1.567 2.097 2.554.531.965.743 2.122.72 3.212" fill="#5472D6"/><path d="M278.998 225.78c-.025 1.221-.368 2.485-1.222 3.396-.679.722-1.54 1.013-2.394 1.45-1.934.988-2.23 3.43-3.711 4.895-.869.852-2.092 1.479-3.329 1.479-1.007 0-1.828-.485-2.759-.787-1.295-.412-2.54.237-3.857.171-1.288-.062-2.354-.732-3.222-1.647-.172-.186-.34-.375-.504-.561.84-.995 2.365-1.41 3.78-1.556 1.54-.16 3.781.186 3.876-1.837.092-2.098-.795-4.65 1.427-6.023.982-.605 2.142-.408 3.142-.878 1.289-.612.613-2.693.778-3.823.186-1.33.941-2.452 2.08-3.163.613-.386 1.299-.626 1.97-.896.548 1.312.3 2.912 1.176 4.096.646.878 1.521 1.545 2.061 2.518.522.95.73 2.091.708 3.166" fill="#3A52A1"/><path d="M0 0h340v340H0z"/></g></svg>