<svg width="307" height="252" xmlns="http://www.w3.org/2000/svg"><g fill="none" fill-rule="evenodd"><path d="m248.325 85.937 24.032 46.143s-50.538 14.091-78.961 28.894c-32.076 16.705-68.941 48.134-68.941 48.134l-24.031-46.143-24.032-46.142s24.913-40.167 62.81-59.905c35.15-18.305 85.092-17.124 85.092-17.124l24.03 46.143z" fill="#355389"/><path d="m306.985 12.06-57.431 73.236-1.229.641-24.031-46.142s-49.942-1.181-85.091 17.123c-37.898 19.738-62.811 59.905-62.811 59.905l24.031 46.142-1.211.631-92.931 5.071 116.443-143.39L306.985 12.06z" fill="#13375B"/><path d="M111.482 17.871 0 156.608l6.281 12.06L118.278 30.753a16.294 16.294 0 0 1 11.48-5.981l177.227-12.713L300.704 0 123.1 11.82a16.29 16.29 0 0 0-11.618 6.051" fill="#355389"/><path d="M78.046 216.963s1.145 13.389 7.435 20.99c6.29 7.602 14.61 12.98 14.61 12.98l2.076-1.08-7.01-8.393 10.742 10.334 2.683-2.952-13.401-16.135 13.073 12.422s2.405-3.585 1.77-4.807c-.638-1.222-12.422-12.566-12.422-12.566l14.626 12.973s3.041-.032-5.712-16.84c-8.754-16.807-25.492-13.14-25.492-13.14l-2.978 6.214z" fill="#FEC65E"/><path d="m68.248 71.676-8.01 9.98c-1.975.753-4.33 1.795-6.86 3.114-11.464 5.969-26.65 17.9-27.297 39.385a52.897 52.897 0 0 0 .086 4.667 64.966 64.966 0 0 0 2.07 12.804c5.259 19.672 19.064 32.94 33.545 46.843 7.876 7.575 16.02 15.4 22.742 24.38a4.05 4.05 0 0 1-.827 5.694 3.63 3.63 0 0 1-.568.365 4.066 4.066 0 0 1-5.135-1.164c-6.33-8.448-14.216-16.042-21.86-23.392-13.48-12.953-27.322-26.247-34.062-45.148a70.396 70.396 0 0 1-3.631-15.531 66.747 66.747 0 0 1-.408-4.315C15.156 84.908 63.45 71.938 63.96 71.81c1.298-.331 2.786-.28 4.288-.135" fill="#FEC65E"/><path d="M82.673 205.042a8.498 8.498 0 0 1 5.996 10.416 8.498 8.498 0 1 1-5.996-10.416" fill="#F7F07F"/></g></svg>