<svg width="960" height="750" xmlns="http://www.w3.org/2000/svg" xmlns:xlink="http://www.w3.org/1999/xlink"><defs><path id="a" d="M0 0h137.643v182.475H0z"/><path id="c" d="M0 0h314.33v21.394H0z"/><path d="M21.417 0 0 6.941l46.437 127.834c2.684 7.405 2.173 14.12-1.426 18.894-3.613 4.78-10.165 7.413-18.453 7.413h292.569c8.288 0 14.83-2.633 18.441-7.413 3.61-4.774 4.122-11.49 1.429-18.894L292.572 6.941 313.977 0H21.417z" id="e"/><linearGradient x1="48.637%" y1="35.14%" x2="51.294%" y2="62.634%" id="f"><stop stop-color="#E8E8E7" offset="0%"/><stop stop-color="#D1D1D1" offset="100%"/></linearGradient></defs><g fill="none" fill-rule="evenodd"><g transform="translate(539.554 567.525)"><mask id="b" fill="#fff"><use xlink:href="#a"/></mask><path d="M130.328 166.098c-7.855 10.409-21.304 16.377-36.87 16.377H0c0-5.596 5.66-21.394 21.758-21.394h71.7c8.288 0 14.83-2.632 18.441-7.413 3.61-4.774 4.122-11.488 1.428-18.893L66.903 6.941 88.307 0l46.437 127.832c5.06 13.918 3.441 27.867-4.416 38.266" fill="#BCC6DA" mask="url(#b)"/></g><g transform="translate(246.98 728.606)"><mask id="d" fill="#fff"><use xlink:href="#c"/></mask><path d="M314.33 0c-16.098 0-21.757 15.798-21.757 21.394H0C0 15.798 5.66 0 21.759 0H314.33z" fill="#D8E1F3" mask="url(#d)"/></g><g transform="translate(313.885 567.525)"><mask id="g" fill="#fff"><use xlink:href="#e"/></mask><path d="M21.417 0 0 6.941l46.437 127.834c2.684 7.405 2.173 14.12-1.426 18.894-3.613 4.78-10.165 7.413-18.453 7.413h292.569c8.288 0 14.83-2.633 18.441-7.413 3.61-4.774 4.122-11.49 1.429-18.894L292.572 6.941 313.977 0H21.417z" fill="url(#f)" mask="url(#g)"/></g><path d="M960 23.962V572.21c0 13.179-11.41 23.962-25.358 23.962H898.51c13.946 0 25.358-10.783 25.358-23.962V23.96C923.867 10.784 912.455 0 898.51 0h36.133C948.59 0 960 10.783 960 23.962" fill="#EF8482"/><path d="M924.179 572.212c0 13.18-11.412 23.962-25.358 23.962H25.357C11.41 596.174 0 585.39 0 572.212V23.963C0 10.785 11.41.002 25.357.002H898.82c13.946 0 25.358 10.783 25.358 23.961v548.25z" fill="#F5BCC6"/><path fill-opacity=".5" fill="#F1F1F1" d="M322.546.002 67.076 596.174h294.93L498.161.002zm223.091 0-94.094 596.172h111.151L629.95.002z"/><path fill="#E6E5E5" d="m638.269 596.173 4.298 11.83-299.534 46.703-20.75-58.429z"/><path d="M898.82 542.25c0 3.295-2.853 5.99-6.34 5.99H31.695c-3.488 0-6.339-2.695-6.339-5.99V29.956c0-3.295 2.851-5.99 6.34-5.99H892.48c3.487 0 6.34 2.695 6.34 5.99V542.25z" fill="#FFF"/></g></svg>