<svg width="240" height="320" xmlns="http://www.w3.org/2000/svg" xmlns:xlink="http://www.w3.org/1999/xlink"><defs><path id="a" d="M0 0h236.249v271.45H0z"/><path id="c" d="M0 0h27.01v51.437H0z"/></defs><g fill="none" fill-rule="evenodd"><g transform="translate(3.75 48.55)"><mask id="b" fill="#fff"><use xlink:href="#a"/></mask><path fill="#CFD0D2" mask="url(#b)" d="M236.249 251.673 17.212 271.449 0 19.777 219.037 0z"/></g><path fill="#FFAB5E" d="m0 64.018 17.212 251.673 219.038-19.777L219.037 44.24z"/><path fill="#FF886B" d="m217.35 63.594-.747.068-2.243.203-.746.067-2.243.203-.748.067-2.244.203-.746.067-2.244.202-.746.067-2.244.203-.747.067-2.243.203-.746.067-2.245.203-.747.067-2.243.203-.746.068-2.244.202-.747.068-2.243.202-.746.068-2.245.202-.747.068-2.243.202-.747.067-2.243.203-.746.067-2.244.203-.747.067-2.244.203-.746.067-2.244.203-.747.068-2.243.202-.746.068-2.244.202-.747.068-2.243.202-.748.068-2.243.201-.747.068-2.243.202-.747.068-2.243.203-.747.067-2.243.203-.747.067-2.244.203-.746.067-2.245.203-.746.067-2.243.203-.747.068-2.244.202-.746.068-2.244.201-.747.068-2.243.202-.747.068-2.243.203-.747.067-2.243.203-.747.067-2.244.203-.747.067-2.243.203-.747.067-2.244.203-.746.067-2.243.203-.747.067-2.244.202-.747.068-2.243.202-.747.068-2.244.203-.746.067-2.244.203-.746.067-2.243.203-.747.067-2.245.203-.746.067-2.243.203-.747.068-2.244.202-.746.068-2.244.201-.746.068-2.245.202-.747.068-2.243.202-.746.068-2.244.202-.747.068-2.243.203-.746.067-2.244.203-.748.067-2.243.203-.746.067-2.244.203-.746.067-2.244.202-.747.068-2.243.202-.746.068-2.245.202-.747.068-2.243.202-.746.068-2.244.202-.747.068-2.243.202-.746.068-2.245.203-.747.067-2.243.203-.747.067-2.243.202-.747.067-2.243.203-.747.067-2.244.204-.747.066-2.243.204-.747.067-2.243.203-.746.067-2.244.203-.747.067-2.243.203-.748.067-2.243.203-.747.068-2.243.201-.747.068-2.243.202-.747.068-2.243.202-.747.068-2.244.202-.747.068-2.99.27.03.43 2.991-.27.746-.068 2.243-.203.747-.067 2.243-.203.747-.067 2.243-.203.747-.067 2.244-.203.747-.067 2.243-.202.747-.068 2.243-.202.747-.068 2.244-.202.746-.068 2.243-.202.748-.068 2.244-.202.746-.068 2.243-.202.747-.068 2.244-.203.746-.067 2.243-.203.747-.067 2.244-.202.747-.067 2.244-.203.746-.067 2.243-.203.747-.067 2.244-.203.746-.068 2.244-.203.747-.067 2.244-.203.746-.067 2.243-.203.747-.067 2.244-.203.746-.067 2.245-.202.746-.067 2.244-.203.747-.067 2.243-.203.746-.067 2.243-.203.747-.068 2.244-.202.747-.068 2.243-.202.747-.068 2.244-.203.746-.067 2.244-.203.746-.067 2.244-.202.747-.067 2.244-.203.746-.067 2.244-.203.747-.068 2.243-.202.746-.068 2.244-.202.747-.068 2.244-.202.747-.068 2.243-.202.746-.068 2.244-.202.747-.068 2.243-.202.746-.067 2.244-.203.748-.067 2.243-.203.746-.067 2.244-.203.747-.067 2.243-.203.747-.068 2.243-.202.747-.068 2.244-.202.747-.068 2.243-.202.747-.068 2.243-.201.747-.068 2.243-.203.747-.067 2.245-.203.746-.067 2.243-.203.747-.067 2.243-.203.747-.067 2.243-.203.747-.067 2.244-.203.747-.067 2.243-.204.747-.067 2.243-.202.747-.067 2.244-.203.746-.067 2.243-.203.748-.067 2.244-.203.746-.067 2.243-.203.747-.068 2.244-.202.746-.068 2.243-.202.747-.068 2.244-.202.747-.068 2.244-.201.746-.068 2.243-.203.747-.067 2.244-.203.746-.067 2.244-.203.747-.067 2.244-.203.746-.067 2.243-.203.747-.068 2.244-.202.746-.068 2.244-.202.747-.068 2.244-.201.747-.068 2.243-.202.746-.068 2.244-.202.747-.068 2.99-.27-.03-.43zm.547 18.974-2.244.203-.746.067-2.243.203-.747.067-2.245.203-.746.067-2.244.203-.746.067-2.244.203-.747.067-2.243.202-.746.068-2.245.202-.747.068-2.243.202-.746.068-2.244.202-.747.068-2.243.202-.746.068-2.244.203-.748.067-2.243.203-.747.067-2.243.203-.746.066-2.244.203-.747.067-2.243.203-.747.067-2.244.203-.747.068-2.243.202-.746.068-2.244.202-.747.068-2.243.202-.747.068-2.244.202-.747.068-2.243.203-.747.066-2.243.203-.747.067-2.243.203-.747.067-2.244.203-.746.067-2.244.203-.747.067-2.243.204-.747.067-2.243.203-.747.067-2.243.203-.748.067-2.243.203-.747.066-2.243.203-.747.067-2.243.203-.747.068-2.244.202-.746.068-2.244.202-.747.068-2.244.202-.746.068-2.243.202-.747.068-2.244.202-.746.068-2.244.203-.747.066-2.243.203-.747.067-2.244.203-.746.067-2.243.203-.747.067-2.244.203-.747.068-2.243.202-.747.068-2.244.202-.746.068-2.244.202-.746.068-2.244.202-.747.067-2.244.202-.746.068-2.244.203-.747.067-2.243.203-.746.067-2.243.203-.748.067L69.13 96l-.746.067-2.244.203-.746.068-2.244.203-.747.067-2.243.203-.746.066-2.245.203-.747.067-2.243.203-.746.067-2.244.203-.747.067-2.243.203-.746.067-2.244.203-.748.068-2.243.202-.747.068-2.243.202-.747.068-2.243.202-.747.067-2.243.203-.747.067-2.244.203-.747.067-2.243.203-.746.067-2.244.203-.747.067-2.243.203-.747.068-2.244.202-.747.068-2.243.202-.747.068-2.243.202-.747.067-2.243.202-.747.068-2.244.202-.746.068-2.99.27.028.43 2.992-.27.746-.067 2.243-.204.747-.067 2.243-.203.747-.067 2.243-.203.747-.067 2.244-.202.747-.067 2.243-.203.747-.067 2.243-.203.747-.067 2.244-.203.746-.068 2.244-.202.747-.068 2.244-.202.746-.068 2.243-.202.747-.068 2.244-.202.746-.068 2.244-.202.747-.067 2.244-.203.746-.067 2.244-.203.746-.067 2.243-.203.748-.067 2.243-.203.747-.067 2.243-.203.747-.068 2.244-.202.746-.068 2.243-.202.747-.068 2.244-.201.746-.068 2.245-.202.746-.068 2.244-.202.747-.068 2.243-.203.746-.067 2.244-.203.747-.067 2.244-.203.746-.067 2.243-.203.748-.068 2.243-.203.746-.067 2.244-.202.746-.067 2.244-.203.748-.067 2.243-.203.746-.067 2.244-.203.747-.067 2.243-.203.746-.068 2.244-.202.747-.068 2.244-.202.747-.068 2.243-.202.747-.068 2.243-.201.747-.068 2.243-.202.747-.068 2.244-.203.747-.067 2.243-.203.746-.067 2.245-.203.746-.067 2.243-.203.747-.067 2.244-.203.747-.068 2.243-.202.747-.068 2.243-.201.747-.068 2.243-.202.747-.068 2.243-.202.748-.068 2.244-.203.746-.067 2.243-.203.747-.067 2.244-.203.746-.067 2.243-.203.747-.067 2.245-.203.746-.067 2.243-.202.747-.068 2.243-.202.747-.068 2.244-.203.746-.067 2.244-.203.747-.067 2.244-.203.746-.067 2.243-.203.747-.067 2.244-.203.746-.067 2.244-.203.747-.067 2.244-.202.746-.068 2.244-.202.746-.068 2.244-.202.747-.068 2.243-.203.747-.067 2.243-.203.747-.067 2.244-.203.746-.067 2.243-.203.747-.067 2.244-.203.746-.068 2.245-.201.746-.068 2.244-.202.747-.068 2.243-.202.746-.068 2.244-.202.747-.068 2.99-.27-.03-.43-2.989.27zm1.293 18.906-2.244.203-.746.067-2.243.203-.747.067-2.245.203-.746.067-2.244.203-.746.068-2.244.202-.747.068-2.243.202-.746.068-2.245.202-.747.067-2.243.202-.746.068-2.243.202-.747.068-2.244.202-.746.068-2.244.203-.747.067-2.244.203-.747.067-2.243.203-.746.067-2.244.203-.747.068-2.243.202-.747.067-2.244.202-.747.068-2.243.202-.746.068-2.244.202-.747.068-2.243.202-.747.068-2.244.203-.746.067-2.244.203-.747.067-2.243.203-.746.067-2.244.203-.747.066-2.244.203-.746.067-2.244.203-.747.068-2.243.203-.747.067-2.243.203-.747.067-2.243.203-.748.067-2.243.203-.747.067-2.243.203-.747.068-2.243.202-.746.067-2.245.202-.746.068-2.244.202-.747.068-2.244.202-.746.068-2.243.202-.747.068-2.243.203-.747.067-2.244.203-.747.067-2.243.203-.747.067-2.244.203-.746.066-2.243.203-.747.068-2.244.202-.747.068-2.243.202-.747.068-2.244.202-.746.068-2.244.202-.746.068-2.244.202-.747.068-2.244.203-.746.067-2.243.203-.747.066-2.244.203-.746.067-2.243.203-.747.067-2.245.203-.746.067-2.244.203-.746.068-2.244.203-.747.067-2.243.203-.746.067-2.245.203-.747.067-2.243.203-.746.066-2.244.203-.747.067-2.243.203-.746.067-2.244.203-.747.068-2.244.202-.747.068-2.243.202-.746.068-2.244.203-.747.067-2.243.203-.747.067-2.244.203-.747.067-2.243.202-.746.067-2.244.203-.747.067-2.243.203-.747.068-2.244.202-.747.068-2.243.202-.747.068-2.243.202-.747.068-2.243.202-.747.068-2.244.202-.746.068-2.991.27.029.43 2.992-.27.746-.068 2.243-.203.747-.067 2.244-.202.746-.068 2.243-.203.747-.067 2.245-.203.746-.067 2.243-.203.747-.067 2.243-.203.747-.067 2.244-.203.746-.068 2.244-.202.747-.068 2.244-.202.746-.068 2.243-.201.747-.068 2.244-.202.746-.068 2.244-.202.747-.068 2.244-.203.746-.067 2.244-.203.746-.067 2.244-.203.747-.067 2.243-.203.747-.067 2.243-.203.747-.068 2.244-.201.746-.068 2.243-.202.747-.068 2.244-.202.746-.068 2.245-.202.746-.068 2.244-.202.747-.068 2.243-.203.746-.067 2.244-.203.747-.067 2.244-.203.746-.067 2.244-.202.747-.067 2.243-.203.746-.067 2.244-.204.747-.067 2.243-.203.748-.067 2.243-.203.746-.067 2.244-.203.747-.067 2.243-.203.746-.068 2.244-.202.747-.068 2.244-.201.747-.068 2.243-.202.747-.068 2.243-.202.747-.068 2.243-.202.747-.068 2.244-.203.747-.067 2.243-.203.747-.067 2.244-.203.746-.067 2.243-.203.747-.067 2.244-.202.747-.067 2.243-.203.747-.068 2.243-.202.747-.068 2.243-.202.747-.068 2.243-.202.748-.068 2.244-.202.746-.068 2.243-.203.747-.067 2.244-.203.746-.067 2.243-.202.747-.067 2.245-.203.746-.067 2.243-.203.747-.067 2.243-.203.747-.067 2.244-.204.746-.067 2.244-.203.747-.067 2.244-.203.746-.067 2.243-.203.747-.067 2.244-.202.746-.067 2.244-.203.747-.067 2.244-.203.746-.068 2.244-.202.746-.068 2.244-.202.747-.068 2.243-.202.747-.068 2.244-.203.747-.067 2.243-.203.746-.067 2.243-.202.748-.067 2.243-.203.746-.067 2.245-.203.746-.068 2.244-.202.747-.068 2.243-.202.746-.068 2.244-.202.747-.068 2.99-.27-.03-.43-2.989.271zm1.293 18.907-2.244.203-.746.067-2.243.203-.747.067-2.245.203-.746.067-2.244.203-.746.067-2.243.203-.748.067-2.243.202-.746.068-2.244.202-.747.068-2.244.202-.746.068-2.243.202-.747.068-2.244.202-.746.068-2.244.203-.747.067-2.244.203-.747.067-2.243.203-.746.067-2.244.202-.747.068-2.243.202-.747.068-2.244.202-.746.068-2.244.202-.746.068-2.244.202-.746.068-2.244.202-.747.068-2.244.203-.746.067-2.244.203-.747.067-2.243.202-.746.067-2.244.203-.747.067-2.244.203-.746.067-2.244.203-.747.068-2.243.203-.747.067-2.243.203-.747.067-2.243.203-.748.067-2.243.203-.746.067-2.244.202-.747.068-2.243.202-.746.068-2.244.202-.747.068-2.244.202-.747.068-2.243.202-.747.068-2.243.202-.747.068-2.243.203-.747.067-2.244.203-.747.067-2.243.202-.747.067-2.244.203-.746.067-2.243.203-.747.068-2.244.202-.747.068-2.243.202-.747.068-2.244.202-.746.068-2.244.202-.746.068-2.243.202-.748.068-2.244.202-.746.067-2.243.203-.747.067-2.244.203-.746.067-2.243.203-.747.067-2.245.203-.746.067-2.244.203-.746.068-2.244.203-.747.067-2.243.203-.746.067-2.245.202-.747.067-2.243.203-.746.067-2.243.203-.747.067-2.244.203-.746.067-2.244.203-.747.068-2.244.202-.747.068-2.243.202-.746.068-2.244.202-.747.068-2.243.202-.747.067-2.244.203-.747.067-2.243.203-.746.067-2.244.203-.747.067-2.243.203-.747.068-2.244.202-.746.068-2.244.202-.747.068-2.243.202-.746.068-2.244.201-.747.068-2.244.203-.746.067-2.991.27.029.429 2.992-.27.746-.067 2.243-.203.747-.067 2.244-.203.746-.067 2.243-.203.747-.068 2.245-.202.746-.067 2.243-.203.747-.067 2.244-.203.746-.067 2.244-.203.746-.067 2.244-.203.747-.068 2.244-.202.746-.068 2.243-.202.747-.068 2.244-.202.746-.068 2.244-.201.747-.068 2.244-.202.746-.068 2.244-.203.746-.067 2.244-.203.747-.067 2.243-.203.747-.067 2.244-.203.747-.067 2.243-.203.746-.067 2.243-.203.747-.068 2.244-.201.746-.068L71 134.31l.746-.068 2.244-.202.747-.068 2.243-.202.746-.068 2.244-.202.747-.068 2.244-.203.746-.067 2.244-.203.747-.067 2.243-.203.746-.067 2.244-.202.747-.067 2.243-.203.748-.068 2.243-.203.746-.067 2.244-.203.747-.067 2.243-.203.746-.067 2.245-.203.746-.067 2.244-.203.747-.068 2.243-.202.747-.068 2.243-.201.747-.068 2.243-.202.747-.068 2.244-.202.747-.068 2.243-.202.747-.068 2.244-.203.746-.067 2.243-.203.747-.067 2.244-.203.747-.067 2.243-.203.747-.067 2.243-.202.747-.068 2.243-.202.747-.068 2.243-.202.748-.068 2.244-.202.746-.068 2.243-.202.747-.068 2.244-.203.746-.067 2.243-.203.747-.067 2.245-.203.746-.067 2.243-.202.747-.067 2.244-.203.746-.067 2.244-.203.746-.067 2.244-.203.748-.068 2.243-.203.746-.067 2.243-.203.747-.067 2.244-.203.746-.067 2.244-.203.747-.067 2.244-.202.746-.067 2.244-.203.746-.067 2.244-.203.747-.068 2.243-.202.747-.068 2.244-.202.747-.068 2.243-.203.746-.067 2.243-.203.748-.067 2.243-.203.746-.067 2.245-.202.746-.067 2.244-.203.747-.067 2.243-.203.746-.068 2.244-.202.747-.068 2.99-.27-.03-.429-2.989.271zm1.293 18.907-2.243.203-.747.067-2.243.203-.747.067-2.244.203-.747.067-2.244.203-.746.066-2.243.203-.747.068-2.244.202-.746.068-2.244.202-.747.068-2.244.202-.746.068-2.243.202-.747.068-2.244.203-.746.067-2.244.203-.747.067-2.244.203-.747.066-2.243.203-.746.067-2.243.203-.748.068-2.243.202-.747.068-2.243.202-.747.068-2.244.202-.746.068-2.244.202-.746.068-2.244.202-.747.068-2.244.202-.746.067-2.244.203-.747.067-2.243.203-.746.067-2.244.203-.747.067-2.244.203-.746.067-2.244.204-.747.067-2.243.203-.747.067-2.243.203-.746.067-2.244.203-.748.066-2.243.203-.746.067-2.244.203-.747.068-2.243.202-.746.068-2.244.202-.747.068-2.244.202-.747.068-2.243.202-.747.068-2.243.202-.747.068-2.243.203-.747.066-2.244.203-.747.067-2.243.203-.746.067-2.245.203-.746.067-2.243.203-.747.068-2.244.202-.747.068-2.243.202-.747.068-2.243.202-.747.068-2.244.202-.746.067-2.243.202-.748.068-2.244.203-.746.067-2.243.203-.747.067-2.244.203-.746.067-2.243.203-.747.067-2.245.203-.746.068-2.244.202-.746.068-2.243.203-.747.066-2.244.203-.746.067-2.244.203-.747.067-2.244.203-.746.067-2.243.203-.747.067-2.244.203-.746.067-2.244.203-.747.068-2.244.202-.747.068-2.243.202-.746.067-2.244.202-.747.068-2.243.203-.747.067-2.243.203-.747.067-2.244.203-.746.067-2.244.203-.746.068-2.244.202-.747.068-2.244.202-.746.068-2.244.202-.747.067-2.243.202-.746.068-2.244.202-.747.068-2.244.203-.746.067-2.991.27.029.429 2.992-.27.746-.067 2.243-.203.747-.067 2.244-.203.746-.067 2.243-.203.747-.068 2.245-.203.746-.067 2.243-.202.747-.067 2.244-.203.746-.067 2.244-.203.746-.067 2.244-.203.748-.068 2.243-.202.746-.068 2.243-.202.747-.068 2.244-.202.746-.068 2.244-.202.747-.068 2.244-.201.746-.068 2.244-.203.746-.067 2.244-.203.747-.067 2.243-.203.747-.067 2.244-.203.747-.067 2.243-.203.746-.068 2.244-.202.747-.068 2.243-.202.746-.068 2.245-.201.747-.068 2.243-.202.747-.068 2.243-.202.746-.068 2.244-.202.747-.068 2.244-.203.746-.067 2.244-.203.747-.067 2.243-.203.746-.067 2.244-.203.747-.067 2.243-.202.748-.068 2.243-.203.747-.067 2.243-.203.747-.067 2.243-.203.747-.067 2.244-.203.746-.067 2.244-.203.747-.068 2.243-.202.747-.068 2.243-.202.747-.068 2.243-.201.747-.068 2.244-.202.747-.068 2.243-.203.747-.067 2.244-.203.746-.067 2.243-.203.747-.067 2.244-.203.747-.067 2.243-.203.747-.067 2.244-.203.746-.068 2.243-.201.747-.068 2.244-.202.747-.068 2.244-.202.746-.068 2.243-.202.748-.068 2.243-.202.746-.068 2.243-.203.747-.067 2.245-.203.746-.067 2.243-.203.747-.067 2.244-.202.746-.067 2.244-.203.746-.067 2.245-.204.747-.067 2.243-.203.746-.067 2.244-.203.747-.067 2.243-.203.746-.067 2.244-.203.748-.067 2.243-.203.746-.067 2.244-.202.746-.067 2.244-.203.747-.068 2.243-.202.747-.068 2.244-.202.747-.068 2.243-.203.746-.067 2.244-.203.747-.067 2.243-.203.746-.067 2.245-.203.747-.067 2.243-.202.747-.067 2.243-.203.747-.068 2.243-.202.747-.068 2.99-.27-.03-.428-2.989.27zm1.293 18.906-2.243.203-.747.067-2.243.203-.747.066-2.244.203-.747.067-2.244.203-.746.068-2.243.202-.747.068-2.244.202-.746.068-2.244.202-.747.068-2.244.202-.746.068-2.243.203-.747.067-2.244.203-.746.066-2.244.203-.747.067-2.243.203-.748.067-2.243.203-.746.068-2.243.202-.747.068-2.244.202-.747.068-2.243.202-.747.068-2.244.202-.746.068-2.244.203-.746.066-2.244.203-.747.067-2.244.203-.746.067-2.244.203-.747.067-2.243.203-.746.067-2.244.203-.747.067-2.244.204-.746.067-2.244.203-.746.067-2.244.203-.747.066-2.243.203-.746.067-2.244.203-.748.067-2.243.203-.746.067-2.244.203-.747.068-2.243.202-.746.068-2.244.202-.747.068-2.244.202-.747.068-2.243.203-.747.066-2.243.203-.747.067-2.243.203-.746.067-2.245.203-.747.067-2.243.203-.746.067-2.244.203-.747.068-2.243.202-.747.068-2.244.202-.747.068-2.243.202-.747.067-2.243.202-.747.068-2.244.203-.746.067-2.243.203-.748.067-2.244.203-.746.067-2.243.203-.747.067-2.244.203-.746.067-2.243.203-.747.068-2.244.202-.747.067-2.244.202-.746.068-2.243.203-.747.067-2.244.203-.746.067-2.244.203-.747.067-2.244.203-.746.067-2.243.203-.747.067-2.244.203-.746.067-2.244.203-.747.067-2.244.202-.747.068-2.243.203-.746.067-2.244.203-.746.067-2.244.203-.747.067-2.243.203-.747.067-2.244.203-.746.067-2.244.203-.746.068-2.244.202-.747.067-2.244.202-.746.068-2.244.202-.747.068-2.243.202-.746.068-2.244.203-.747.067-2.244.203-.746.067-2.991.27.03.429 2.991-.27.746-.067 2.243-.203.747-.067 2.244-.203.746-.067 2.243-.203.747-.068 2.245-.202.746-.068 2.243-.203.747-.067 2.244-.203.746-.067 2.244-.202.746-.067 2.245-.203.747-.067 2.243-.203.746-.067 2.244-.203.747-.068 2.243-.202.746-.068 2.244-.202.747-.068 2.244-.202.746-.068 2.244-.202.746-.068 2.244-.201.747-.068 2.243-.203.747-.067 2.244-.203.747-.067 2.243-.203.746-.067 2.244-.203.747-.067 2.243-.203.746-.067 2.245-.203.747-.068 2.243-.202.747-.068 2.243-.201.746-.068 2.244-.202.747-.068 2.244-.203.746-.067 2.244-.203.747-.067 2.243-.203.746-.067 2.244-.203.747-.067 2.243-.203.748-.067 2.243-.203.747-.068 2.243-.202.747-.067 2.243-.203.747-.067 2.244-.203.746-.067 2.244-.203.747-.067 2.244-.203.746-.067 2.243-.203.747-.068 2.243-.202.747-.068 2.244-.202.747-.068 2.243-.201.747-.068 2.244-.202.746-.068 2.243-.202.747-.068 2.244-.203.747-.067 2.243-.203.747-.067 2.244-.203.746-.067 2.243-.203.747-.068 2.244-.202.747-.068 2.244-.201.746-.068 2.243-.202.748-.068 2.243-.202.746-.068 2.243-.202.747-.068 2.245-.203.746-.067 2.243-.203.747-.067 2.244-.203.746-.067 2.244-.203.746-.067 2.245-.202.747-.067 2.243-.203.746-.068 2.244-.203.747-.067 2.243-.203.746-.067 2.244-.203.748-.067 2.243-.203.746-.067 2.244-.203.746-.067 2.244-.203.747-.068 2.243-.201.747-.068 2.244-.202.747-.068 2.243-.202.746-.068 2.244-.202.747-.068 2.243-.203.746-.067 2.245-.203.747-.067 2.243-.203.747-.067 2.243-.203.747-.067 2.243-.202.747-.068 2.991-.27-.031-.428-2.989.27zm1.293 18.906-2.243.203-.747.067-2.243.203-.747.067-2.244.203-.747.068-2.244.202-.746.068-2.243.202-.747.068-2.244.202-.746.068-2.244.202-.747.068-2.243.202-.747.068-2.243.202-.747.067-2.243.203-.747.067-2.244.203-.747.067-2.243.203-.747.067-2.244.203-.746.068-2.243.202-.747.068-2.244.202-.747.068-2.243.202-.747.068-2.244.202-.746.067-2.244.202-.746.068-2.244.202-.747.068-2.244.203-.746.067-2.243.203-.748.067-2.243.203-.746.067-2.243.203-.747.068-2.245.203-.746.067-2.244.203-.746.066-2.244.203-.747.067-2.243.203-.746.067-2.244.203-.748.067-2.243.203-.746.067-2.244.203-.747.068-2.243.202-.746.068-2.244.202-.747.068-2.244.202-.747.067-2.243.203-.746.067-2.244.203-.747.067-2.243.203-.746.067-2.245.203-.747.067-2.243.203-.746.067-2.244.203-.747.068-2.243.202-.747.068-2.244.202-.747.067-2.243.202-.747.068-2.243.202-.747.068-2.244.203-.746.067-2.243.203-.748.067-2.244.203-.746.067-2.243.203-.747.067-2.243.203-.747.067-2.243.203-.747.067-2.244.202-.747.068-2.244.202-.746.068-2.243.203-.747.067-2.244.203-.746.067-2.244.203-.747.067-2.244.203-.746.067-2.243.203-.747.067-2.244.203-.746.066-2.244.203-.747.068-2.243.202-.748.068-2.243.203-.746.067-2.243.203-.747.067-2.244.203-.747.067-2.243.203-.747.067-2.244.203-.746.068-2.244.202-.746.067-2.244.202-.747.068-2.244.202-.746.068-2.244.202-.747.068-2.243.202-.746.068-2.243.203-.748.067-2.244.203-.746.067-2.99.27.029.428 2.99-.27.747-.066 2.243-.203.748-.067 2.243-.203.746-.067 2.243-.203.747-.068 2.245-.202.746-.068 2.243-.203.747-.067 2.244-.203.746-.067 2.244-.203.746-.067 2.245-.202.747-.067 2.243-.203.746-.067 2.244-.203.747-.068 2.243-.202.746-.068 2.244-.202.748-.068 2.243-.202.746-.068 2.244-.202.747-.068 2.243-.202.747-.068 2.243-.202.747-.067 2.244-.203.747-.067 2.243-.203.746-.067 2.244-.203.747-.067 2.243-.203.746-.068 2.245-.202.747-.068 2.243-.202.747-.068 2.243-.202.747-.068 2.243-.201.747-.068 2.244-.203.747-.067 2.243-.203.747-.067 2.243-.203.746-.067 2.244-.203.747-.067 2.243-.203.748-.067 2.243-.203.747-.068 2.243-.203.747-.067 2.243-.202.747-.067 2.244-.203.746-.067 2.244-.203.747-.067 2.244-.203.746-.068 2.243-.202.747-.068 2.244-.202.746-.068 2.244-.202.747-.068 2.244-.202.746-.068 2.244-.201.746-.068 2.243-.203.748-.067 2.243-.203.747-.067 2.243-.203.747-.067 2.244-.203.746-.067 2.243-.203.747-.067 2.244-.203.747-.068 2.244-.202.746-.068 2.244-.201.747-.068 2.243-.202.746-.068 2.244-.202.747-.068 2.244-.203.746-.067 2.243-.203.748-.067 2.243-.203.746-.067 2.244-.203.746-.067 2.245-.203.747-.067 2.243-.203.746-.067 2.244-.203.747-.067 2.243-.203.746-.067 2.244-.203.748-.067 2.243-.203.746-.067 2.244-.203.747-.067 2.243-.203.747-.068 2.243-.202.747-.068 2.244-.201.747-.068 2.243-.202.746-.068 2.244-.202.747-.068 2.243-.203.746-.067 2.245-.203.747-.067 2.243-.203.747-.067 2.243-.203.747-.067 2.243-.203.747-.068 2.99-.27-.03-.427-2.99.27zm1.293 18.906-2.243.203-.747.067-2.243.203-.747.068-2.244.202-.747.068-2.244.202-.746.068-2.243.202-.747.068-2.244.202-.746.068-2.244.202-.747.067-2.243.203-.747.067-2.243.203-.747.067-2.243.203-.747.067-2.244.203-.747.067-2.243.203-.747.068-2.244.202-.746.068-2.243.202-.747.068-2.244.202-.747.067-2.243.202-.747.068-2.244.203-.746.067-2.244.203-.746.067-2.243.203-.748.067-2.244.203-.746.067-2.243.203-.747.067-2.244.203-.746.068-2.243.203-.747.066-2.245.203-.746.067-2.244.203-.746.067-2.244.203-.747.067-2.243.203-.746.067-2.244.203-.748.067-2.243.203-.746.067-2.243.203-.748.068-2.243.202-.746.067-2.244.203-.747.067-2.244.203-.747.067-2.243.203-.746.067-2.244.203-.747.067-2.243.203-.746.067-2.245.203-.747.068-2.243.202-.746.068-2.244.202-.747.067-2.243.202-.747.068-2.244.202-.747.068-2.243.202-.747.068-2.243.203-.747.067-2.244.203-.746.067-2.243.203-.748.067-2.243.203-.747.067-2.243.203-.747.067-2.243.202-.747.068-2.243.202-.747.068-2.244.202-.747.068-2.244.202-.746.068-2.243.203-.747.067-2.244.203-.746.067-2.244.203-.747.067-2.244.203-.746.066-2.243.203-.747.067-2.243.203-.747.067-2.244.204-.747.067-2.243.203-.747.067-2.244.203-.746.067-2.243.203-.747.067-2.244.203-.747.067-2.243.203-.747.067-2.244.202-.746.068-2.244.202-.746.068-2.244.202-.747.068-2.244.202-.746.068-2.244.202-.746.068-2.244.203-.746.067-2.243.203-.747.067-2.245.203-.746.066-2.99.27.029.43 2.99-.27.747-.068 2.244-.203.747-.067 2.243-.202.746-.067 2.243-.203.748-.068 2.244-.202.746-.068 2.243-.202.747-.068 2.244-.202.746-.068 2.244-.203.746-.067 2.245-.203.747-.067 2.243-.203.746-.067 2.244-.202.747-.067 2.243-.203.746-.067 2.244-.203.748-.068 2.243-.202.746-.068 2.244-.202.747-.068 2.243-.202.747-.068 2.243-.202.747-.068 2.244-.203.747-.067 2.243-.202.746-.067 2.244-.203.747-.067 2.243-.203.746-.067 2.245-.203.747-.067 2.243-.203.747-.068 2.243-.202.747-.068 2.243-.202.747-.068 2.244-.203.747-.067 2.243-.202.747-.067 2.243-.203.746-.067 2.245-.203.746-.067 2.243-.203.748-.067 2.243-.203.747-.067 2.243-.203.747-.068 2.243-.203.747-.067 2.244-.203.746-.067 2.244-.202.747-.067 2.244-.203.746-.067 2.243-.203.747-.067 2.244-.203.746-.068 2.244-.202.747-.068 2.244-.202.746-.068 2.244-.202.746-.068 2.243-.202.748-.068 2.243-.201.747-.068 2.243-.203.747-.067 2.244-.203.746-.067 2.243-.203.747-.067 2.244-.203.747-.067 2.244-.203.746-.068 2.244-.202.747-.068 2.243-.202.746-.068 2.244-.201.747-.068 2.244-.202.746-.068 2.243-.202.748-.068 2.243-.203.746-.067 2.244-.203.746-.067 2.245-.203.747-.067 2.243-.203.746-.067 2.244-.203.747-.068 2.243-.202.746-.067 2.244-.203.748-.067 2.243-.203.746-.067 2.244-.203.747-.067 2.243-.203.747-.068 2.243-.202.747-.068 2.244-.202.747-.068 2.243-.202.747-.068 2.243-.201.747-.068 2.243-.202.746-.068 2.245-.203.747-.067 2.243-.203.747-.067 2.243-.203.747-.067 2.243-.203.747-.067 2.99-.27-.03-.428-2.99.27zm1.293 18.907-2.243.203-.747.067-2.243.203-.747.068-2.244.202-.746.068-2.244.202-.747.068-2.243.202-.747.067-2.243.202-.747.068-2.244.202-.747.068-2.243.203-.747.067-2.243.203-.747.067-2.243.203-.747.067-2.244.203-.747.068-2.243.202-.747.068-2.244.202-.746.067-2.243.202-.747.068-2.243.202-.748.068-2.243.202-.747.068-2.243.202-.747.068-2.244.203-.746.067-2.243.203-.747.067-2.245.203-.746.067-2.243.203-.747.066-2.244.203-.746.068-2.243.203-.747.067-2.245.203-.746.067-2.244.203-.746.067-2.244.203-.747.067-2.243.203-.746.067-2.243.203-.75.067-2.242.203-.746.066-2.243.203-.747.068-2.244.202-.746.068-2.244.202-.747.068-2.244.203-.747.067-2.243.203-.746.067-2.244.203-.747.067-2.243.203-.746.067-2.245.203-.747.067-2.243.202-.746.068-2.244.202-.747.068-2.243.202-.747.068-2.244.202-.746.068-2.244.202-.747.068-2.243.203-.746.067-2.244.203-.747.067-2.243.203-.748.066-2.243.203-.747.067-2.243.203-.747.067-2.243.203-.747.068-2.243.202-.747.068-2.244.202-.747.068-2.244.202-.746.068-2.243.203-.747.067-2.244.203-.746.066-2.244.203-.747.067-2.243.203-.747.067-2.243.203-.747.067-2.243.203-.747.067-2.244.204-.747.067-2.243.203-.747.067-2.244.203-.746.067-2.243.203-.747.066-2.244.203-.747.067-2.243.203-.747.068-2.244.202-.746.068-2.244.202-.746.068-2.243.202-.748.068-2.244.202-.746.068-2.243.203-.747.067-2.244.203-.746.066-2.243.203-.747.067-2.245.203-.746.067-2.99.27.029.429 2.99-.27.747-.067 2.244-.203.747-.067 2.243-.203.746-.067 2.244-.203.747-.068 2.244-.201.746-.068 2.244-.202.747-.068 2.243-.202.746-.068 2.244-.203.747-.067 2.244-.203.747-.067 2.243-.203.746-.067 2.244-.203.747-.067 2.243-.203.746-.067 2.244-.202.748-.068 2.243-.202.746-.068 2.244-.202.747-.068 2.243-.202.747-.068 2.243-.202.748-.068 2.243-.203.747-.067 2.243-.203.747-.067 2.243-.203.747-.067 2.243-.202.746-.067 2.245-.203.747-.068 2.243-.202.747-.068 2.243-.202.747-.068 2.243-.202.747-.068 2.244-.203.747-.067 2.243-.203.747-.067 2.243-.203.747-.067 2.244-.202.746-.067 2.243-.203.748-.067 2.244-.203.746-.067 2.243-.203.747-.067 2.244-.203.746-.068 2.244-.203.746-.067 2.244-.203.748-.067 2.243-.203.746-.067 2.243-.202.747-.068 2.244-.202.746-.068 2.244-.202.747-.068 2.244-.202.746-.068 2.244-.202.746-.068 2.244-.202.747-.068 2.243-.203.747-.067 2.244-.203.747-.067 2.243-.202.746-.067 2.243-.203.748-.067 2.243-.203.747-.067 2.244-.203.746-.068 2.244-.202.747-.068 2.243-.202.746-.068 2.244-.202.747-.068 2.244-.202.746-.068 2.244-.201.747-.068 2.243-.203.746-.067 2.244-.203.747-.067 2.244-.203.747-.067 2.243-.203.747-.067 2.243-.203.747-.068 2.243-.203.746-.067 2.244-.203.748-.067 2.243-.202.746-.067 2.244-.203.747-.067 2.243-.203.747-.068 2.243-.202.747-.068 2.244-.202.747-.068 2.243-.202.747-.068 2.243-.202.747-.068 2.243-.202.747-.068 2.245-.202.746-.067 2.243-.203.747-.067 2.244-.203.746-.067 2.243-.203.747-.067 2.99-.27-.03-.429-2.99.27zm1.292 18.907-2.242.202-.746.067-2.244.203-.747.067-2.244.203-.746.067-2.244.203-.747.067-2.243.203-.747.068-2.243.202-.747.068-2.244.202-.747.068-2.243.201-.747.068-2.243.202-.747.068-2.243.202-.747.068-2.244.203-.747.067-2.243.203-.747.067-2.244.203-.746.067-2.243.203-.747.067-2.243.203-.748.067-2.243.202-.747.068-2.243.202-.747.068-2.244.202-.746.068-2.243.202-.747.068-2.245.202-.746.068-2.243.202-.747.068-2.244.203-.746.067-2.243.203-.747.067-2.245.202-.746.067-2.244.203-.746.067-2.243.204-.748.067-2.243.203-.746.067-2.243.203-.748.067-2.244.203-.746.067-2.243.203-.747.068-2.244.202-.746.068-2.244.201-.747.068-2.244.202-.747.068-2.243.202-.746.068-2.244.202-.747.068-2.243.202-.746.068-2.244.203-.748.067-2.243.203-.746.067-2.244.203-.746.067-2.244.202-.747.067-2.244.203-.746.068-2.244.202-.747.068-2.243.202-.746.068-2.244.202-.747.068-2.243.202-.748.068-2.243.203-.747.067-2.243.203-.747.067-2.243.202-.747.067-2.243.203-.747.067-2.244.203-.747.067-2.244.203-.746.068-2.243.203-.747.067-2.243.203-.747.067-2.244.203-.747.067-2.243.203-.747.067-2.243.202-.747.067-2.243.203-.747.067-2.244.203-.747.068-2.243.202-.747.068-2.244.202-.746.068-2.243.202-.747.068-2.244.203-.747.067-2.243.203-.747.067-2.243.202-.747.067-2.244.203-.746.067-2.243.203-.747.067-2.245.203-.746.068-2.243.202-.747.068-2.244.202-.746.068-2.243.202-.747.068-2.245.202-.746.068-2.99.27.029.428 2.99-.27.747-.067 2.244-.202.747-.067 2.243-.203.746-.068 2.244-.203.747-.067 2.244-.203.746-.067 2.244-.203.747-.067 2.243-.203.746-.067 2.244-.203.747-.067 2.244-.203.747-.068 2.243-.201.746-.068 2.244-.202.747-.068 2.243-.202.746-.068 2.244-.202.748-.068 2.243-.202.746-.068 2.244-.203.747-.067 2.243-.203.747-.067 2.243-.203.748-.067 2.243-.202.747-.068 2.243-.202.747-.068 2.243-.202.747-.068 2.243-.202.746-.068 2.246-.202.746-.068 2.243-.202.747-.068 2.243-.203.747-.067 2.243-.203.747-.067 2.244-.202.747-.067 2.243-.203.747-.067 2.243-.203.747-.067 2.244-.203.746-.068 2.243-.203.748-.067 2.244-.203.746-.067 2.243-.203.747-.067 2.244-.203.746-.067 2.244-.202.746-.068 2.244-.202.748-.068 2.243-.202.746-.068 2.243-.202.747-.068 2.244-.202.746-.068 2.244-.202.747-.068 2.244-.203.746-.067 2.244-.203.746-.067 2.244-.202.747-.067 2.243-.203.747-.067 2.244-.203.747-.068 2.243-.202.746-.068 2.243-.202.748-.068 2.243-.202.747-.068 2.244-.202.746-.068 2.244-.202.747-.068 2.243-.202.746-.067 2.244-.203.747-.067 2.244-.203.746-.067 2.244-.203.747-.067 2.243-.203.746-.067 2.244-.203.747-.068 2.244-.203.747-.067 2.243-.203.747-.067 2.243-.202.747-.067 2.243-.203.747-.067 2.243-.203.748-.067 2.243-.203.746-.067 2.244-.203.747-.067 2.243-.203.747-.068 2.243-.202.747-.068 2.244-.202.747-.068 2.243-.202.747-.067 2.243-.203.747-.067 2.243-.203.747-.067 2.245-.203.746-.067 2.243-.203.747-.068 2.244-.202.746-.068 2.243-.202.747-.068 2.99-.27-.03-.428-2.99.27zm1.294 18.906-2.243.203-.746.067-2.244.203-.747.067-2.244.203-.746.067-2.244.203-.747.067-2.243.203-.747.068-2.243.201-.747.068-2.244.202-.747.068-2.243.202-.747.068-2.243.202-.747.068-2.243.202-.746.068-2.245.203-.747.067-2.243.203-.747.067-2.243.203-.747.067-2.243.202-.747.067-2.243.203-.748.067-2.243.203-.747.068-2.243.202-.747.068-2.244.202-.746.068-2.243.202-.747.068-2.245.202-.746.068-2.243.202-.747.068-2.243.202-.747.067-2.243.203-.747.067-2.244.203-.747.067-2.244.203-.746.068-2.243.203-.747.067-2.244.203-.746.067-2.243.203-.748.067-2.244.203-.746.067-2.243.202-.747.067-2.244.203-.746.068-2.244.202-.747.068-2.244.202-.747.068-2.243.202-.746.068-2.243.202-.748.068-2.243.202-.746.068-2.244.203-.747.067-2.244.202-.746.067-2.244.203-.746.067-2.244.203-.747.068-2.244.202-.746.068-2.244.202-.747.068-2.243.202-.746.068-2.244.202-.747.068-2.243.202-.748.068-2.243.203-.747.066-2.243.203-.747.067-2.243.203-.746.067-2.244.203-.747.067-2.244.203-.746.067-2.244.203-.747.068-2.243.203-.747.067-2.243.203-.747.067-2.244.203-.747.066-2.243.203-.747.067-2.243.203-.747.067-2.243.203-.747.067-2.244.203-.747.068-2.243.202-.747.068-2.244.202-.746.068-2.243.202-.747.068-2.243.203-.748.066-2.243.203-.747.067-2.243.203-.747.067-2.244.203-.746.067-2.243.203-.747.068-2.245.202-.746.068-2.243.202-.747.068-2.244.202-.746.068-2.243.202-.747.067-2.245.202-.746.068-2.99.27.029.429 2.99-.27.748-.067 2.243-.203.747-.067 2.243-.203.746-.068 2.244-.202.747-.067 2.244-.203.746-.067 2.244-.203.747-.067 2.243-.203.746-.067 2.244-.203.747-.067 2.244-.203.747-.068 2.243-.202.747-.068 2.243-.202.747-.068 2.243-.201.747-.068 2.243-.202.748-.068 2.243-.202.746-.068 2.244-.203.747-.067 2.243-.203.747-.067 2.243-.203.748-.067 2.243-.203.747-.067 2.243-.203.747-.068 2.243-.201.747-.068 2.243-.202.747-.068 2.245-.202.746-.068 2.243-.202.747-.068 2.244-.203.746-.067 2.243-.203.747-.067 2.245-.203.746-.067 2.243-.203.747-.067 2.243-.202.747-.067 2.244-.203.746-.068 2.243-.203.748-.067 2.244-.203.746-.067 2.243-.203.747-.067 2.244-.203.746-.067 2.244-.203.746-.068 2.245-.202.747-.068 2.243-.201.746-.068 2.244-.202.747-.068 2.243-.202.746-.068 2.244-.202.748-.068 2.243-.203.746-.067 2.244-.203.746-.067 2.244-.203.747-.067 2.243-.203.747-.067 2.244-.202.747-.067 2.243-.203.746-.068 2.244-.202.747-.068 2.243-.202.747-.068 2.244-.202.747-.068 2.243-.202.747-.068 2.243-.203.746-.067 2.244-.203.747-.067 2.244-.202.746-.067 2.244-.203.747-.067 2.243-.203.746-.067 2.244-.203.747-.068 2.244-.203.747-.067 2.243-.203.747-.067 2.243-.203.747-.067 2.243-.203.747-.067 2.243-.202.748-.067 2.243-.203.746-.067 2.245-.203.746-.067 2.243-.203.747-.068 2.244-.202.746-.068 2.244-.203.747-.067 2.243-.203.747-.067 2.243-.203.747-.067 2.243-.202.747-.067 2.245-.203.746-.067 2.243-.203.747-.068 2.244-.202.746-.068 2.243-.202.747-.068 2.99-.27-.03-.429-2.99.27zm1.293 18.906-2.243.203-.746.067-2.244.203-.747.067-2.244.203-.746.067-2.244.203-.747.067-2.243.202-.747.068-2.243.202-.747.068-2.244.202-.747.068-2.243.202-.746.068-2.244.202-.747.068-2.243.203-.746.067-2.245.203-.747.067-2.243.203-.747.066-2.243.203-.747.067-2.243.203-.747.068-2.243.202-.748.068-2.243.202-.747.068-2.243.202-.747.068-2.244.202-.746.068-2.243.202-.747.068-2.245.203-.746.066-2.243.203-.747.067-2.243.203-.747.067-2.243.203-.747.067-2.244.203-.747.068-2.244.203-.746.067-2.243.203-.747.067-2.244.203-.746.067-2.243.203-.748.066-2.244.203-.746.067-2.243.203-.747.068-2.244.202-.746.068-2.244.202-.747.068-2.243.202-.748.068-2.243.202-.746.068-2.243.202-.747.068-2.244.203-.746.066-2.244.203-.747.067-2.244.203-.746.067-2.244.203-.746.068-2.244.202-.747.068-2.244.202-.746.068-2.244.202-.747.068-2.243.202-.746.068-2.244.202-.747.067-2.243.203-.748.067-2.243.203-.746.067-2.244.203-.747.067-2.243.203-.746.067-2.244.203-.747.067-2.244.203-.746.068-2.244.202-.747.068-2.243.203-.747.066-2.243.203-.747.067-2.244.203-.747.067-2.243.203-.747.067-2.243.203-.747.067-2.243.203-.747.067-2.244.203-.747.068-2.243.202-.747.068-2.243.203-.747.066-2.243.203-.747.067-2.243.203-.748.067-2.243.203-.747.067-2.243.203-.747.067-2.244.203-.746.068-2.243.202-.747.068-2.245.202-.746.068-2.243.202-.747.067-2.244.202-.746.068-2.243.202-.747.068-2.244.203-.747.067-2.99.27.029.429 2.99-.27.748-.067 2.243-.203.747-.067 2.243-.203.746-.067 2.244-.203.747-.068 2.244-.203.746-.067 2.244-.202.747-.067 2.243-.203.746-.067 2.244-.203.747-.067 2.244-.203.747-.067 2.243-.203.747-.067 2.243-.203.747-.068 2.243-.202.747-.068 2.243-.202.748-.068 2.243-.201.746-.068 2.245-.202.746-.068 2.243-.203.747-.067 2.243-.203.748-.067 2.243-.203.747-.067 2.243-.203.747-.067 2.243-.203.747-.068 2.243-.202.747-.068 2.245-.201.746-.068 2.243-.202.747-.068 2.244-.202.746-.068 2.243-.202.747-.068 2.245-.203.746-.067 2.243-.203.747-.067 2.243-.203.747-.067 2.244-.203.746-.067 2.243-.202.748-.068 2.244-.203.746-.067 2.243-.203.747-.067 2.244-.203.746-.067 2.244-.203.746-.067 2.245-.203.747-.068 2.243-.202.746-.068 2.244-.202.747-.068 2.243-.201.746-.068 2.244-.202.748-.068 2.243-.202.746-.068 2.244-.203.746-.067 2.244-.203.747-.067 2.243-.203.747-.067 2.244-.203.747-.067 2.243-.203.746-.067 2.244-.202.747-.068 2.243-.202.747-.068 2.244-.202.747-.068 2.243-.202.747-.068 2.243-.202.747-.068 2.243-.202.747-.068 2.244-.203.747-.067 2.243-.203.747-.067 2.243-.202.746-.067 2.244-.203.747-.067 2.244-.203.747-.068 2.243-.203.747-.067 2.243-.203.747-.067 2.243-.203.747-.067 2.243-.203.748-.067 2.243-.203.747-.067 2.244-.202.746-.067 2.243-.203.747-.068 2.244-.202.746-.068 2.244-.202.747-.068 2.243-.202.747-.068 2.243-.202.747-.068 2.243-.203.747-.067 2.245-.203.746-.067 2.243-.202.747-.067 2.244-.203.746-.068 2.243-.202.747-.068 2.99-.27-.03-.428-2.99.27zm1.293 18.907-2.243.203-.746.067-2.244.203-.747.067-2.244.202-.746.067-2.244.203-.746.068-2.244.202-.747.068-2.243.202-.746.068-2.245.202-.747.068-2.243.202-.746.068-2.244.202-.747.068-2.243.203-.746.067-2.245.202-.747.067-2.243.203-.747.067-2.243.203-.747.067-2.243.203-.747.068-2.243.202-.748.068-2.243.202-.747.068-2.243.202-.746.068-2.245.202-.746.068-2.243.201-.747.068-2.244.203-.747.067-2.243.203-.747.067-2.243.203-.747.067-2.243.203-.747.067-2.244.203-.747.068-2.244.203-.746.067-2.243.203-.747.067-2.244.202-.746.067-2.243.203-.748.067-2.244.203-.746.067-2.243.203-.747.068-2.243.202-.747.068-2.244.202-.747.068-2.243.202-.747.068-2.244.202-.746.068-2.243.201-.747.068-2.244.203-.746.067-2.244.203-.747.067-2.244.203-.746.067-2.244.203-.746.068-2.244.202-.747.068-2.244.202-.746.068-2.243.202-.748.068-2.243.201-.746.068-2.244.202-.746.068-2.244.203-.748.067-2.243.203-.746.067-2.244.203-.747.067-2.243.203-.746.067-2.244.203-.747.067-2.244.203-.746.068-2.244.201-.747.068-2.243.203-.747.067-2.243.203-.747.067-2.244.203-.747.067-2.243.203-.746.067-2.244.203-.747.067-2.243.203-.746.067-2.244.203-.748.068-2.243.201-.747.068-2.243.203-.747.067-2.243.203-.747.067-2.243.203-.748.067-2.243.203-.747.067-2.243.203-.747.067-2.244.203-.746.068-2.243.202-.747.068-2.245.201-.746.068-2.243.202-.747.068-2.243.202-.747.068-2.243.202-.747.068-2.244.203-.747.067-2.99.27.029.429 2.99-.27.748-.067 2.243-.203.747-.067 2.243-.203.747-.067 2.243-.203.747-.068 2.244-.202.747-.068 2.243-.203.747-.067 2.243-.202.746-.067 2.244-.203.747-.067 2.244-.203.747-.067 2.243-.203.747-.067 2.243-.203.747-.068 2.243-.202.747-.068 2.243-.202.748-.068 2.243-.202.747-.068 2.244-.201.746-.068 2.243-.203.747-.067 2.244-.203.747-.067 2.243-.203.747-.067 2.244-.203.746-.067 2.243-.203.747-.068 2.243-.202.747-.068 2.245-.202.746-.068 2.243-.201.747-.068 2.244-.202.746-.068 2.243-.202.747-.068 2.245-.203.746-.067 2.243-.203.747-.067 2.244-.203.746-.067 2.244-.203.746-.067 2.244-.203.748-.067 2.243-.202.746-.068 2.243-.203.747-.067 2.244-.203.746-.067 2.244-.203.746-.067 2.245-.203.747-.068 2.243-.202.746-.068 2.244-.202.747-.068 2.243-.202.746-.068 2.245-.201.747-.068 2.243-.202.746-.068 2.244-.203.747-.067 2.243-.203.747-.067 2.243-.203.747-.067 2.244-.203.747-.067 2.243-.203.746-.067 2.244-.203.747-.068 2.243-.201.747-.068 2.244-.202.747-.068 2.243-.202.747-.068 2.243-.202.747-.068 2.243-.202.747-.068 2.244-.203.747-.067 2.243-.203.747-.067 2.243-.203.746-.067 2.245-.202.746-.067 2.244-.203.747-.068 2.244-.203.746-.067 2.243-.203.747-.067 2.243-.203.747-.067 2.243-.203.748-.067 2.243-.203.747-.067 2.244-.203.746-.067 2.243-.202.747-.068 2.244-.202.746-.068 2.244-.202.747-.068 2.244-.202.746-.068 2.243-.203.747-.067 2.244-.203.746-.067 2.245-.203.746-.067 2.243-.203.747-.067 2.244-.202.746-.067 2.243-.203.747-.068 2.99-.27-.03-.428-2.99.27z"/><path fill="#A22430" d="m55.808 312.206.542-.05L39.137 60.485l-.542.049z"/><path d="M21.706 89.178a24.952 24.952 0 0 0 6.719-2.664c2.67-1.532 5.196-3.593 8.128-4.206L24.62 36.224c-1.085.552-2.527.854-3.516 1.244a240.502 240.502 0 0 1-8.645 3.219c-3.14 1.1-6.298 2.13-9.456 3.155l12.394 47.87c.922-.489 1.813-1.128 2.759-1.553 1.135-.51 2.355-.7 3.549-.98" fill="#86CBCA"/><g transform="translate(183.454 21.99)"><mask id="d" fill="#fff"><use xlink:href="#c"/></mask><path d="M4.318 0 0 49.604c3.172.056 6.341.345 9.478.892 1.307.227 2.638.498 3.941.24.506-.102 1.021-.283 1.526-.169.386.086.727.338 1.096.493.554.233 1.158.244 1.749.251 1.335.154 3.468-.487 4.773.126L27.01.354A97.245 97.245 0 0 0 13.846.207C10.671.39 7.401.712 4.318 0" fill="#86CBCA" mask="url(#d)"/></g><path d="M0 0h240v319.852H0z"/></g></svg>