<svg width="240" height="320" xmlns="http://www.w3.org/2000/svg" xmlns:xlink="http://www.w3.org/1999/xlink"><defs><path id="a" d="M0 0h240v308.006H0z"/></defs><g fill="none" fill-rule="evenodd"><g transform="translate(0 11.994)"><mask id="b" fill="#fff"><use xlink:href="#a"/></mask><path d="M12.997 308.006h214.005c9.426 0 15.71-9.724 11.834-18.312L156.654 73.202V26.284h1.478c7.24 0 13.45-5.66 13.582-12.896C171.85 6.018 165.912 0 158.568 0h-76.7c-7.24 0-13.45 5.661-13.584 12.896-.135 7.371 5.803 13.388 13.147 13.388h1.914v46.917L1.163 289.694c-3.876 8.588 2.407 18.312 11.834 18.312" fill="#B8CBEE" mask="url(#b)"/></g><path fill="#923E95" d="m181.666 167.553 51.77 136.374z"/><path d="M187.417 310.894c1.341-2.074 1.526-4.554.511-6.805l-.074-.162-51.769-136.374H58.332L6.563 303.927l-.074.162c-1.015 2.25-.829 4.731.511 6.805 1.341 2.074 3.526 3.265 5.997 3.265h168.424c2.471 0 4.656-1.19 5.996-3.265" fill="#F8C558"/><path fill="#A8BEE6" d="M150.81 86.267V38.325h-45.581v47.942l30.856 81.286h45.58z"/><path d="m233.51 304.089-.074-.162-51.77-136.374h-45.58l51.77 136.374.072.162c1.016 2.251.83 4.73-.51 6.806-1.34 2.074-3.526 3.263-5.997 3.263h45.581c2.471 0 4.656-1.19 5.996-3.263 1.341-2.075 1.528-4.555.511-6.806" fill="#F2B03B"/><path d="M80.49 202.725c0 6.054-4.91 10.961-10.965 10.961-6.056 0-10.967-4.907-10.967-10.96 0-6.055 4.91-10.961 10.967-10.961 6.056 0 10.966 4.906 10.966 10.96m64.632 2.408c0 8.76-7.104 15.86-15.867 15.86-8.764 0-15.867-7.1-15.867-15.86 0-8.758 7.103-15.859 15.867-15.859 8.763 0 15.867 7.1 15.867 15.86m-40.873 72.49a5.481 5.481 0 0 1-5.483 5.48 5.481 5.481 0 1 1 0-10.96 5.482 5.482 0 0 1 5.483 5.48m73.108-49.324a5.48 5.48 0 0 1-5.482 5.48 5.481 5.481 0 0 1-5.484-5.48 5.482 5.482 0 0 1 5.484-5.48 5.482 5.482 0 0 1 5.482 5.48M47.592 292.238a5.482 5.482 0 0 1-5.483 5.48 5.481 5.481 0 1 1 0-10.96 5.482 5.482 0 0 1 5.483 5.48m150.124-16.948c5.187 0 9.392 4.204 9.392 9.388s-4.205 9.387-9.392 9.387c-5.187 0-9.393-4.203-9.393-9.387s4.206-9.387 9.393-9.387m-42.669-9.352c0 5.444-4.416 9.858-9.863 9.858-5.448 0-9.863-4.414-9.863-9.858 0-5.445 4.415-9.858 9.863-9.858 5.447 0 9.863 4.413 9.863 9.858" fill="#FFF"/><path d="M46.639 270.654a8.25 8.25 0 0 1-4.832-10.624l27.204-72.512a8.26 8.26 0 0 1 10.63-4.829 8.25 8.25 0 0 1 4.831 10.624l-27.204 72.512a8.256 8.256 0 0 1-10.629 4.83" fill-opacity=".5" fill="#FFF"/><path d="M0 0h240v319.844H0z"/></g></svg>