<svg width="240" height="320" xmlns="http://www.w3.org/2000/svg" xmlns:xlink="http://www.w3.org/1999/xlink"><defs><path id="a" d="M0 319.828h240V64H0z"/></defs><g fill="none" fill-rule="evenodd"><path d="M25.948 262.508h167.019s-2.917 12.089-2.917 25.23c0 12.762 2.917 25.228 2.917 25.228H25.947c-5.923 0-10.727-4.803-10.727-10.727v-28.991c0-5.937 4.804-10.74 10.728-10.74" fill="#FAE0B2"/><path d="M195.22 255.647a3.434 3.434 0 0 1 3.431 3.43c0 .95-.378 1.807-1.007 2.425a3.376 3.376 0 0 1-2.424 1.006H25.947c-5.923 0-10.727 4.804-10.727 10.74v28.991c0 5.924 4.804 10.727 10.728 10.727H195.22a3.427 3.427 0 0 1 3.431 3.432c0 .949-.378 1.795-1.007 2.424a3.422 3.422 0 0 1-2.424 1.006H25.948c-9.721 0-17.59-7.88-17.59-17.589v-29.003c0-9.71 7.869-17.59 17.59-17.59H195.22z" fill="#184655"/><path d="M36.963 272.274a1009.99 1009.99 0 0 1 29.67-.888c9.891-.183 19.781-.231 29.671-.254 9.89.02 19.78.069 29.671.25 9.89.15 19.78.448 29.67.892-9.89.445-19.78.743-29.67.893-9.89.182-19.78.23-29.67.25-9.89-.022-19.78-.071-29.671-.253-9.89-.15-19.78-.447-29.67-.89m-6.186 15.464c3.737-.473 7.474-.72 11.211-.89 3.737-.181 7.474-.23 11.211-.253 3.737.02 7.474.069 11.211.25 3.737.169 7.474.417 11.211.893-3.737.476-7.474.725-11.21.893-3.738.181-7.475.23-11.212.25-3.737-.023-7.474-.071-11.21-.254-3.738-.168-7.475-.415-11.212-.889m28.608 15.85c3.737-.473 7.474-.72 11.21-.89 3.738-.18 7.475-.23 11.212-.252 3.737.02 7.474.068 11.21.25 3.738.168 7.475.416 11.212.892-3.737.476-7.474.725-11.212.893-3.736.181-7.473.23-11.21.25-3.737-.023-7.474-.071-11.211-.254-3.737-.168-7.474-.415-11.211-.889m23.594-9.278a768.994 768.994 0 0 1 25.908-.889c8.636-.182 17.271-.231 25.908-.254 8.635.02 17.27.07 25.907.25a760.8 760.8 0 0 1 25.908.893 760.8 760.8 0 0 1-25.908.893c-8.636.181-17.272.23-25.907.25-8.637-.023-17.272-.072-25.908-.254a768.994 768.994 0 0 1-25.907-.889" fill="#E5BD83"/><path d="M65.571 318.278a32.633 32.633 0 0 1 0-30.54H36.964a32.633 32.633 0 0 0 0 30.54 235.826 235.826 0 0 1 11.298-8.14 242.523 242.523 0 0 0 17.31 8.14" fill="#50BFA5"/><mask id="b" fill="#fff"><use xlink:href="#a"/></mask><path fill="#FE875E" mask="url(#b)" d="M25.444 255.647H240v-49.87H25.444z"/><path fill="#F7A491" mask="url(#b)" d="M46.61 255.647h12.696v-49.87H46.61zm159.527 0h12.697v-49.87h-12.697zM25.444 226.652S9.207 234.48 6.598 255.647l6.958-5.8 2.465 5.8s1.595-17.977 9.423-24.935v-4.06z"/><path d="M72.28 179.453s4.93 11.448-.183 25.503l-19.407-1.064-48.675-2.653v-.011s1.476-5.547 1.476-12.043c0-5.97-1.476-12.054-1.476-12.054v-.011l47.977 1.636 20.288.697z" fill="#FAE0B2" mask="url(#b)"/><path d="m2.998 201.182 1.018.057 48.673 2.653 19.408 1.064c5.112-14.055.183-25.503.183-25.503l-20.288-.698-47.976-1.635-1.156-.035a2.854 2.854 0 0 1-2.756-2.859c0-1.566 1.281-2.848 2.836-2.848h.126l72.062 2.665s9.515 15.805 0 36.266L2.723 206.9a2.878 2.878 0 0 1-2.722-2.962 2.873 2.873 0 0 1 2.871-2.756h.126z" fill="#3C8F7C" mask="url(#b)"/><path fill="#3C8F7C" mask="url(#b)" d="m3.066 171.378 197.475-2.493-1.087.046-124.326 5.112z"/><path d="m77.538 173.944 121.916-5.013c6.073-.24 11.14 4.609 11.174 10.693l.08 15.188c.034 5.81-4.54 10.59-10.338 10.807l-125.242 4.69c9.515-20.46 0-36.266 0-36.266l2.41-.099z" fill="#184655" mask="url(#b)"/><path d="M71.919 189.26c-3.764.265-7.514.305-11.26.266-3.748-.026-7.487-.185-11.225-.37-3.736-.227-7.47-.483-11.198-.872-3.728-.375-7.45-.83-11.161-1.514 3.763-.267 7.514-.308 11.26-.268 3.747.026 7.487.185 11.225.372 3.736.23 7.47.486 11.198.876 3.727.376 7.45.83 11.16 1.51m-39.768 5.996c-4.165.27-8.302.113-12.432-.143-4.127-.3-8.247-.702-12.339-1.532 4.166-.273 8.303-.117 12.433.142 4.127.303 8.247.705 12.338 1.533" fill="#E5BD83" mask="url(#b)"/><path d="M38.826 211.662c-3.8-5.597-3.415-18.892.705-24.26 7.469.217 14.663 1.138 22.133 1.355-4.121 5.368-4.23 17.957-.428 23.557-4.65-1.662-9.157-3.808-13.356-6.226-3.27 2.2-6.233 4.13-9.054 5.574" fill="#F47458" mask="url(#b)"/><path d="m85.648 137.876 3.53.314c-8.782.64-15.377 8.264-14.737 17.047l.352 4.866c.535 7.327 5.953 13.136 12.842 14.471l-56.736-4.469c-9.457-.902-16.358-9.34-15.398-18.785l.266-2.615c.947-9.32 9.19-16.144 18.522-15.322h.012l51.347 4.493z" fill="#355389" mask="url(#b)"/><path fill="#355389" mask="url(#b)" d="M222.234 134.966 89.178 138.19l-3.53-.314-51.347-4.493h-.012l-.617-.055z"/><path d="m218.416 140.332-128.943 3.57c-2.909.243-5.537 1.693-7.321 4.058-1.54 2.059-2.172 4.658-1.98 7.234l.335 4.488c.382 5.233 4.782 9.403 10.02 9.478.297.004.606-.014.904-.032l.137-.01 127.06-3.071 3.158-.08a2.63 2.63 0 0 1 2.684 2.67l-.007.468a2.621 2.621 0 0 1-2.553 2.583L91.85 174.83a15.66 15.66 0 0 1-4.216-.256c-6.89-1.335-12.307-7.143-12.842-14.47l-.353-4.867c-.639-8.782 5.956-16.407 14.739-17.047l133.056-3.224a2.624 2.624 0 0 1 2.683 2.669 2.613 2.613 0 0 1-2.542 2.583l-3.96.114z" fill="#86B1F2" mask="url(#b)"/><path d="m218.628 166.047-127.06 3.07-.137.01c-.298.02-.607.037-.904.033-5.238-.076-9.638-4.246-10.02-9.478l-.336-4.488c-.191-2.576.441-5.175 1.98-7.234 1.785-2.366 4.413-3.814 7.322-4.058l128.943-3.57c-.048.228-1.669 7.903-1.74 12.83-.071 4.906 1.952 12.885 1.952 12.885" fill="#FAE0B2" mask="url(#b)"/><path d="M91.338 151.35c3.721-.627 7.45-1.027 11.183-1.349 3.732-.336 7.47-.538 11.208-.714 3.741-.134 7.483-.239 11.23-.21 3.746.014 7.496.109 11.255.43-3.72.63-7.45 1.033-11.182 1.353-3.732.336-7.47.537-11.209.71-3.74.132-7.482.236-11.229.207-3.747-.014-7.496-.108-11.256-.427m30.776 10.412c3.72-.627 7.45-1.027 11.182-1.35 3.732-.335 7.47-.537 11.208-.713 3.741-.134 7.482-.238 11.23-.21 3.746.013 7.496.109 11.255.431-3.72.63-7.45 1.032-11.182 1.352-3.733.335-7.47.538-11.209.711-3.74.13-7.482.235-11.23.207-3.746-.015-7.495-.108-11.254-.428" fill="#E5BD83" mask="url(#b)"/><path d="M127.214 181.166c5.156-6.925 5.463-24.046.51-31.118-9.534-.137-18.006.882-27.54.745 4.955 7.071 3.583 23.033-1.574 29.96 6.02-1.86 11.884-4.346 17.371-7.195 4.047 2.985 7.718 5.611 11.233 7.608" fill="#50BFA5" mask="url(#b)"/><path d="M155.054 155.021c5.12-.628 10.248-1.03 15.38-1.353 5.128-.338 10.262-.542 15.397-.72 5.136-.135 10.272-.24 15.413-.214 5.14.012 10.283.106 15.433.426-5.121.632-10.25 1.035-15.38 1.358-5.13.337-10.263.54-15.397.715-5.136.133-10.273.24-15.413.212-5.141-.013-10.283-.105-15.433-.424" fill="#E5BD83" mask="url(#b)"/><path fill="#FE875E" mask="url(#b)" d="M.036 134.965H170.33V95.383H.036z"/><path fill="#F7A491" mask="url(#b)" d="M22.967 134.965h124.43V95.383H22.968z"/><path d="M147.431 73.312s-4.344 10.089.162 22.475l17.103-.937 42.893-2.339v-.01s-1.3-4.888-1.3-10.612c0-5.26 1.3-10.622 1.3-10.622v-.01l-42.279 1.44-17.879.615z" fill="#FAE0B2" mask="url(#b)"/><path d="m208.485 92.461-.896.05-42.894 2.339-17.102.937c-4.506-12.386-.162-22.475-.162-22.475l17.88-.615 42.278-1.441 1.018-.03a2.516 2.516 0 0 0-.071-5.03h-.111l-63.503 2.35s-8.385 13.927 0 31.958l63.805-3.003a2.537 2.537 0 0 0 2.399-2.61 2.532 2.532 0 0 0-2.53-2.43h-.11z" fill="#3C8F7C" mask="url(#b)"/><path fill="#3C8F7C" mask="url(#b)" d="M208.425 66.197 34.404 64l.957.04 109.56 4.506z"/><path d="M142.798 68.458 35.361 64.041c-5.351-.212-9.816 4.061-9.846 9.422l-.071 13.385c-.03 5.12 4.001 9.332 9.11 9.523l110.368 4.133c-8.385-18.03 0-31.958 0-31.958l-2.124-.088z" fill="#50BFA5" mask="url(#b)"/><path d="M147.75 81.955c3.316.233 6.621.269 9.923.234 3.302-.022 6.597-.162 9.892-.325 3.292-.2 6.582-.427 9.867-.769 3.285-.33 6.566-.732 9.836-1.334-3.317-.236-6.622-.272-9.923-.237-3.303.023-6.598.164-9.892.328-3.292.203-6.583.43-9.867.772-3.285.331-6.566.732-9.836 1.331m35.045 5.284c3.67.237 7.316.1 10.956-.125 3.637-.264 7.268-.62 10.873-1.352-3.671-.24-7.316-.102-10.956.126-3.637.267-7.267.621-10.873 1.35" fill="#E5BD83" mask="url(#b)"/><path d="M176.912 101.696c3.35-4.933 3.01-16.648-.62-21.378-6.583.191-12.923 1.003-19.505 1.194 3.631 4.73 3.727 15.824.376 20.759 4.098-1.465 8.07-3.356 11.77-5.487 2.882 1.939 5.494 3.64 7.98 4.912" fill="#355389" mask="url(#b)"/><path d="M0 0h240v320H0z"/></g></svg>