<svg width="580" height="200" xmlns="http://www.w3.org/2000/svg" xmlns:xlink="http://www.w3.org/1999/xlink"><defs><path id="a" d="M0 0h92.706v82.566H0z"/><path id="c" d="M0 0h67.264v67.872H0z"/><path id="e" d="M0 0h36.41v84.774H0z"/></defs><g fill="none" fill-rule="evenodd"><path d="M89.465 80.24h-.78c-1.82 0-2.167-1.04-2.773-2.86-3.035-11.096-6.069-21.932-9.102-33.374a4355.324 4355.324 0 0 1-9.015 33.373c-.607 1.82-.954 2.86-2.774 2.86H56.18c-1.82 0-1.994-1.04-2.775-2.86-3.987-16.556-9.62-38.574-14.475-55.65-.607-2.08-.173-3.467 1.56-3.9l9.795-2.6c1.82-.52 3.468-.174 3.815 1.56 2.08 9.967 4.593 22.45 7.194 34.759 3.12-11.356 6.155-22.624 8.235-30.946.433-1.734.78-2.601 2.6-2.601h9.448c1.821 0 2.168.867 2.601 2.601 2.08 8.495 5.2 19.937 8.321 31.552l7.802-35.279c.347-1.733 2.08-2.08 3.814-1.56l8.148 2.34c1.734.52 2.08 1.82 1.56 3.9-4.074 16.557-8.755 36.234-13.522 55.824-.607 1.82-.953 2.86-2.774 2.86h-8.062z" fill="#FEFEFE"/><g transform="translate(30 6.34)"><mask id="b" fill="#fff"><use xlink:href="#a"/></mask><path d="m15.614 12.219.019.088-.019-.088m51.913 70.347h-8.842c-5.352 0-9.052-2.955-10.996-8.784l-.138-.457-.698-2.55a3869.7 3869.7 0 0 0-.697 2.55l-.139.457c-1.944 5.829-5.643 8.784-10.996 8.784H26.18c-4.92 0-8.464-2.56-10.532-7.612-.065-.157-.132-.323-.208-.499l-.288-.674-.172-.713C11.4 58.2 5.74 35.863.592 17.759c-1.283-4.4-.241-7.627.862-9.548C2.908 5.676 5.34 3.863 8.306 3.099L17.998.527c3.49-.975 6.924-.588 9.676 1.09 2.487 1.517 4.206 3.939 4.863 6.842 2.58-4.668 6.926-5.466 9.592-5.466h9.449c2.843 0 7.6.909 10.085 6.457l.161-.73c.631-2.996 2.392-5.494 4.968-7.041 2.813-1.69 6.274-2.052 9.752-1.025l8.208 2.358c5.119 1.535 9.417 6.553 7.48 14.304-2.334 9.486-4.856 19.95-7.527 31.03-1.951 8.099-3.959 16.43-5.982 24.742l-.2.694c-1.944 5.829-5.644 8.784-10.996 8.784" fill="#EF8070" mask="url(#b)"/></g><path d="M151.439 50.768c-.694-4.681-5.374-8.148-11.096-7.889-6.154.26-9.968 4.075-10.488 8.755l21.584-.866zm9.275 21.064c.693 1.04.78 2.34-.607 3.553-5.027 4.161-11.009 6.068-18.896 6.068-14.997 0-25.833-9.621-25.833-25.051 0-15.43 10.577-25.484 24.532-25.484 14.909 0 23.924 9.62 24.271 22.797.087 4.248-2.254 7.888-7.195 7.975l-26.697.692c.953 4.943 5.807 7.976 11.961 7.889 4.681-.087 8.322-1.127 11.529-3.034 1.734-.953 3.121-.78 3.901.347l3.034 4.248z" fill="#FEFEFE"/><path d="M141.21 90.12c-20.312 0-34.499-13.865-34.499-33.718 0-19.79 13.962-34.153 33.2-34.153 18.907 0 32.451 12.846 32.935 31.238.097 4.769-1.49 9.072-4.47 12.166-.271.282-.553.552-.844.81l.393.56c3.234 4.849 2.366 10.97-2.111 14.886l-.18.153c-6.552 5.423-14.54 8.059-24.424 8.059" fill="#EF8070"/><path d="M175.273 80.327c-1.733 0-2.6-.868-2.6-2.602l-1.04-61.457c0-1.734.78-2.6 2.513-2.6h10.575c1.734 0 2.601.866 2.514 2.6l-.866 61.457c0 1.734-.867 2.602-2.602 2.602h-8.494z" fill="#FEFEFE"/><path d="M183.768 88.994h-8.495c-6.499 0-11.224-4.694-11.268-11.177l-1.04-61.549c0-6.53 4.702-11.268 11.18-11.268h10.576c3.25 0 6.175 1.194 8.235 3.36 2.013 2.115 3.055 5.002 2.945 8.145l-.865 61.297c-.037 6.49-4.765 11.192-11.268 11.192" fill="#EF8070"/><path d="M240.889 70.531c.693.954.866 2.254-.434 3.554-4.68 4.42-10.834 7.369-19.156 7.369-15.603 0-26.178-10.143-26.092-25.053.087-14.908 10.576-25.398 24.531-25.484 12.656-.086 20.11 6.762 23.664 13.955.608 1.3.52 1.908-.433 2.515l-8.668 3.728c-.953.606-1.993.26-2.687-.781-1.993-2.86-6.068-5.114-9.795-5.114-6.934 0-12.223 5.2-12.136 12.221.087 8.582 6.588 12.83 13.09 12.83 4.766 0 7.368-1.474 10.921-3.901 1.56-1.04 3.034-.953 3.9.088l3.295 4.073z" fill="#FEFEFE"/><path d="M221.819 53.888c-1.076 0-1.97.329-2.584.951-.592.6-.898 1.462-.885 2.496.036 3.531 2.424 4.268 4.422 4.268 2.178 0 3.023-.335 6.035-2.39l.08-.055.063-.042c-1.722-.808-3.269-2.105-4.462-3.848-.427-.578-1.856-1.38-2.67-1.38m-.52 36.233c-10.09 0-19.128-3.5-25.449-9.858-6.057-6.094-9.364-14.585-9.31-23.912.113-19.325 14.362-33.985 33.146-34.101 14.062-.118 25.544 6.75 31.489 18.784l.083.173c2.97 6.361-.102 11.244-3.634 13.493l-.588.373-6.678 2.873c1.469.655 2.8 1.647 3.895 2.962l.084.1 3.56 4.422c3.342 4.592 2.802 10.671-1.313 14.785l-.177.17c-6.838 6.46-15.286 9.736-25.107 9.736" fill="#EF8070"/><path d="M286.566 57.615c0-7.28-5.027-12.135-11.962-12.135-7.281 0-11.962 4.854-11.962 12.135s4.941 12.136 11.962 12.136c6.935 0 11.962-4.855 11.962-12.136m-37.534-1.213c0-15.43 11.01-25.485 24.965-25.485 13.87 0 24.965 10.055 24.965 25.485s-11.096 25.051-24.965 25.051c-13.956 0-24.965-9.622-24.965-25.051" fill="#FEFEFE"/><path d="M274.604 54.147c-2.086 0-3.295.567-3.295 3.468 0 2.432.986 3.468 3.295 3.468 2.248 0 3.295-1.102 3.295-3.468 0-2.366-1.047-3.468-3.295-3.468m-.607 35.974c-19.488 0-33.632-14.18-33.632-33.72 0-19.47 14.458-34.152 33.632-34.152 19.173 0 33.633 14.683 33.633 34.153 0 19.539-14.145 33.719-33.633 33.719" fill="#EF8070"/><path d="M359.722 80.24c-1.733 0-2.6-.867-2.427-2.6.954-9.882 1.387-19.765.52-26.526-.52-4.247-2.687-6.675-5.721-6.675-3.12 0-5.46 2.688-5.2 6.415.52 7.975.26 17.076-.52 26.785-.174 1.734-.868 2.6-2.601 2.6h-9.102c-1.734 0-2.6-.866-2.427-2.6.953-9.881 1.213-18.897.607-26.525-.347-4.42-2.34-6.847-5.894-6.675-3.64.174-5.635 2.774-5.722 5.982l-.52 27.305c0 1.733-.867 2.6-2.6 2.6h-8.495c-1.734 0-2.6-.867-2.6-2.6l-1.04-42.995c-.088-1.733.78-2.6 2.513-2.6h10.575c1.387 0 2.167.606 2.427 1.734v3.467c1.127-3.467 5.982-6.414 10.316-6.414 5.028 0 9.015 2.426 11.528 7.02 2.6-4.507 6.848-7.02 11.79-7.02 9.534 0 14.474 6.154 16.035 14.302 1.734 9.275 1.214 22.624.26 32.42-.173 1.733-.866 2.6-2.6 2.6h-9.102z" fill="#FEFEFE"/><path d="M312.828 92.053v-3.059h-3.209c-6.484 0-11.204-4.675-11.267-11.137l-1.036-42.835c-.124-3.165.92-6.072 2.943-8.2 2.061-2.166 4.985-3.358 8.234-3.358h10.575c1.5 0 2.912.254 4.195.73 2.665-1.234 5.606-1.945 8.547-1.945 4.284 0 8.242 1.161 11.615 3.325 3.424-2.163 7.414-3.325 11.703-3.325 12.813 0 21.99 7.977 24.55 21.34 2.238 11.972 1.006 28.386.373 34.89-.625 6.246-5.135 10.428-11.227 10.428h-9.102c-3.146 0-5.968-1.11-8.006-3.136-1.992 1.987-4.751 3.136-7.943 3.136h-9.102c-3.26 0-6.17-1.19-8.222-3.358-2.014 2.158-4.93 3.445-8.334 3.445h-4.294l-.993 3.059z" fill="#EF8070"/><path d="M414.933 50.768c-.693-4.681-5.374-8.148-11.095-7.889-6.154.26-9.968 4.075-10.488 8.755l21.583-.866zm9.275 21.064c.694 1.04.78 2.34-.606 3.553-5.028 4.161-11.01 6.068-18.898 6.068-14.996 0-25.831-9.621-25.831-25.051 0-15.43 10.576-25.484 24.531-25.484 14.91 0 23.925 9.62 24.272 22.797.086 4.248-2.254 7.888-7.196 7.975l-26.697.692c.954 4.943 5.807 7.976 11.962 7.889 4.68-.087 8.321-1.127 11.528-3.034 1.734-.953 3.122-.78 3.9.347l3.035 4.248z" fill="#FEFEFE"/><path d="M404.705 90.12c-20.313 0-34.5-13.865-34.5-33.718 0-19.79 13.963-34.153 33.2-34.153 18.907 0 32.45 12.846 32.936 31.237.096 4.77-1.492 9.073-4.471 12.167a14.31 14.31 0 0 1-.844.81l.396.562c3.23 4.848 2.362 10.969-2.113 14.883l-.18.155c-6.553 5.422-14.542 8.058-24.424 8.058" fill="#EF8070"/><path d="M465.81 80.327c-1.733 0-2.6-.868-2.6-2.602l-.521-32.072-9.361.174c-1.56 0-2.6-1.04-2.6-2.6v-8.843c0-1.56 1.04-2.6 2.6-2.6l9.102.087-.087-9.708c-.088-1.734.78-2.6 2.513-2.6h10.402c1.733 0 2.427.866 2.514 2.6l-.173 9.881 9.188.087c1.56 0 2.6 1.04 2.6 2.6v7.889c0 1.56-1.04 2.513-2.6 2.6l-9.362.173-.52 32.332c0 1.734-.866 2.602-2.6 2.602h-8.495z" fill="#FEFEFE"/><path d="M474.305 88.994h-8.495c-6.499 0-11.224-4.695-11.268-11.179l-.378-23.335-.837.015c-6.318 0-11.268-4.95-11.268-11.268v-8.842c0-6.319 4.95-11.268 11.268-11.268l.357.002-.007-.749c-.103-3.131.938-6.005 2.944-8.115 2.06-2.167 4.985-3.36 8.235-3.36h10.402c6.257 0 10.85 4.454 11.171 10.832l.015.294-.026 1.438.45.004c6.237 0 11.187 4.95 11.187 11.268v7.889c0 6.075-4.638 10.913-10.79 11.254l-1.308.03-.384 23.911c-.043 6.484-4.77 11.179-11.268 11.179z" fill="#EF8070"/><path d="M529.52 57.615c0-7.28-5.028-12.135-11.963-12.135-7.28 0-11.962 4.854-11.962 12.135s4.941 12.136 11.962 12.136c6.935 0 11.962-4.855 11.962-12.136m-37.533-1.213c0-15.43 11.008-25.485 24.964-25.485 13.87 0 24.965 10.055 24.965 25.485s-11.096 25.051-24.965 25.051c-13.956 0-24.964-9.622-24.964-25.051" fill="#FEFEFE"/><g transform="translate(483.318 22.25)"><mask id="d" fill="#fff"><use xlink:href="#c"/></mask><path d="M34.24 31.898c-2.087 0-3.295.567-3.295 3.468 0 2.431.985 3.468 3.294 3.468 2.248 0 3.295-1.103 3.295-3.468 0-2.366-1.047-3.468-3.295-3.468m-.607 35.974C14.144 67.872 0 53.692 0 34.152 0 14.682 14.459 0 33.632 0s33.633 14.682 33.633 34.152c0 19.54-14.145 33.72-33.633 33.72" fill="#EF8070" mask="url(#d)"/></g><path d="M94.708 151.4c11.963 1.126 19.937-1.561 19.937-9.103 0-7.54-7.714-10.489-19.763-9.188l-.174 18.29zm31.986 32.332c-1.214 1.82-2.774 1.82-4.247 1.04-8.409-4.247-14.563-11.702-17.77-21.497-3.034.346-6.241.346-9.622.086l-.347 18.377c0 1.733-.866 2.601-2.6 2.601h-8.495c-1.734 0-2.6-.868-2.6-2.601l-.954-56.95c-.087-4.074 2.514-5.721 6.068-6.068 27.651-2.427 42.994 6.068 42.994 22.538 0 8.668-4.507 15.082-12.135 18.81 3.294 5.807 7.714 9.622 13.175 12.395 2.167 1.127 2.254 2.947 1.387 4.248l-4.854 7.021z" fill="#FEFEFE"/><path d="m103.468 141.712-.01 1.008c.954-.152 1.626-.344 2.078-.511-.465-.174-1.145-.358-2.068-.497m20.715 52.205c-1.895 0-3.84-.469-5.705-1.439a42.358 42.358 0 0 1-15.063-12.767l-.04 2.132c-.05 6.476-4.773 11.164-11.267 11.164h-8.495c-6.5 0-11.225-4.696-11.268-11.18l-.952-56.894c-.175-8.159 5.278-13.999 13.891-14.84 19.837-1.74 34.428 1.563 43.437 9.817 5.932 5.434 9.068 12.817 9.068 21.348 0 8.022-2.951 15.126-8.331 20.492 1.345 1.112 2.872 2.093 4.629 2.985 3.256 1.693 5.464 4.377 6.292 7.597.797 3.1.207 6.449-1.62 9.187l-.08.12-4.823 6.976c-2.333 3.448-5.902 5.302-9.673 5.302" fill="#EF8070"/><path d="M141.773 184.339c-1.734 0-2.6-.868-2.6-2.601l-1.04-42.908c0-1.733.78-2.6 2.513-2.6h10.575c1.734 0 2.6.867 2.514 2.6l-.867 42.908c0 1.733-.866 2.6-2.6 2.6h-8.495zm-4.68-60.505c0-4.94 3.9-8.841 8.84-8.841 4.941 0 8.842 3.9 8.842 8.841 0 4.942-3.901 8.842-8.842 8.842-4.94 0-8.84-3.9-8.84-8.842z" fill="#FEFEFE"/><path d="M145.934 123.66c-.155 0-.175.02-.175.174s.02.174.175.174c.154 0 .174-.02.174-.174s-.02-.173-.174-.173m4.334 69.346h-8.495c-6.485 0-11.205-4.677-11.268-11.137l-1.04-43.04c0-2.214.54-4.221 1.507-5.908a17.404 17.404 0 0 1-2.548-9.088c0-9.654 7.855-17.509 17.51-17.509 9.655 0 17.51 7.855 17.51 17.51 0 3.307-.923 6.404-2.523 9.045 1.048 1.811 1.563 3.949 1.478 6.22l-.863 42.748c-.053 6.473-4.775 11.159-11.268 11.159" fill="#EF8070"/><path d="M165.695 184.339c-1.734 0-2.6-.868-2.6-2.601l-1.04-43.081c-.088-1.734.78-2.6 2.513-2.6h10.575c1.734 0 2.34.606 2.34 2.34v2.6c3.208-4.68 9.883-6.5 16.73-6.067 1.734.086 2.6 1.04 2.6 2.6v8.928c0 1.734-1.126 2.687-2.6 2.427-7.368-1.386-16.73 1.56-16.903 8.582l-.52 24.27c0 1.734-.867 2.602-2.6 2.602h-8.495z" fill="#FEFEFE"/><path d="M174.19 193.007h-8.496c-6.485 0-11.204-4.677-11.267-11.14l-1.036-42.92c-.123-3.165.918-6.072 2.943-8.2 2.06-2.166 4.985-3.358 8.234-3.358h10.575c1.827 0 3.5.36 4.959 1.022 4.193-1.724 9.164-2.474 14.616-2.134 6.24.345 10.764 5.067 10.764 11.253v8.928c0 3.419-1.423 6.572-3.902 8.652-2.428 2.036-5.663 2.882-8.877 2.31l-.093-.017c-2.803-.526-5.617.181-6.647.847l-.505 23.606c-.057 6.468-4.778 11.15-11.268 11.15" fill="#EF8070"/><path d="M236.425 161.628c0-7.281-3.987-12.136-11.268-12.136-6.935 0-11.27 4.855-11.27 12.136 0 7.28 4.335 12.135 11.27 12.135 7.02 0 11.268-4.854 11.268-12.135zm2.513 22.71c-1.56 0-2.34-.694-2.34-2.08v-3.988c-2.427 4.162-7.8 7.196-13.956 7.196-13.002 0-23.23-9.622-23.23-25.052s10.228-25.311 23.23-25.137c5.722.086 11.182 3.034 12.83 7.02v-3.553c-.087-1.733.78-2.6 2.513-2.6h10.575c1.734 0 2.514.867 2.514 2.6l-1.04 42.994c0 1.733-.867 2.6-2.6 2.6h-8.496z" fill="#FEFEFE"/><path d="M225.156 158.16c-1.159 0-2.6 0-2.6 3.468s1.441 3.468 2.6 3.468c1.16 0 2.6 0 2.6-3.468s-1.09-3.468-2.6-3.468m-2.513 35.973c-18.484 0-31.9-14.18-31.9-33.719 0-9.935 3.47-18.83 9.768-25.046 5.84-5.76 13.759-8.856 22.247-8.758a26.03 26.03 0 0 1 9.86 2.099c1.596-.806 3.424-1.233 5.367-1.233h10.575c6.48 0 11.182 4.739 11.182 11.268l-.002.21-1.039 42.915c-.063 6.462-4.782 11.138-11.267 11.138h-8.495c-1.976 0-3.784-.434-5.339-1.218a26.776 26.776 0 0 1-10.957 2.344" fill="#EF8070"/><path d="M297.616 184.339c-1.733 0-2.6-.868-2.6-2.601l-.78-48.975-15.863-.087c-1.82 0-3.035-1.213-3.035-3.034v-7.108c0-1.82 1.215-3.034 3.035-3.034l47.068-.086c1.82 0 3.034 1.213 3.034 3.033v7.109c0 1.82-1.214 3.033-3.034 3.033l-15.863.174-.866 48.975c0 1.733-.867 2.6-2.6 2.6h-8.496z" fill="#FEFEFE"/><path d="M306.111 193.006h-8.495c-6.5 0-11.225-4.696-11.267-11.181l-.645-40.441-7.379-.04c-6.514 0-11.653-5.14-11.653-11.702v-7.108c0-6.562 5.14-11.701 11.7-11.701l47.054-.088c6.577 0 11.716 5.14 11.716 11.702v7.108c0 6.542-5.107 11.67-11.64 11.702l-7.406.081-.718 40.496c-.045 6.48-4.77 11.172-11.267 11.172z" fill="#EF8070"/><path d="M360.198 154.78c-.694-4.68-5.374-8.148-11.096-7.889-6.154.26-9.968 4.075-10.488 8.756l21.584-.867zm9.274 21.064c.694 1.04.781 2.34-.606 3.553-5.028 4.161-11.008 6.068-18.897 6.068-14.996 0-25.831-9.62-25.831-25.051 0-15.43 10.575-25.484 24.531-25.484 14.91 0 23.925 9.621 24.27 22.797.088 4.248-2.252 7.888-7.194 7.975l-26.698.693c.953 4.942 5.808 7.976 11.962 7.888 4.682-.087 8.322-1.127 11.53-3.034 1.733-.953 3.12-.779 3.9.347l3.033 4.248z" fill="#FEFEFE"/><path d="M349.97 194.133c-20.313 0-34.5-13.865-34.5-33.719 0-19.789 13.962-34.152 33.2-34.152 18.908 0 32.451 12.845 32.935 31.237.097 4.768-1.49 9.071-4.47 12.166-.27.282-.553.552-.844.81l.395.562c3.231 4.85 2.362 10.972-2.115 14.885l-.179.152c-6.55 5.423-14.54 8.06-24.423 8.06" fill="#EF8070"/><path d="M424.426 174.544c.693.953.867 2.253-.433 3.553-4.68 4.421-10.836 7.369-19.158 7.369-15.602 0-26.178-10.143-26.09-25.052.086-14.909 10.574-25.398 24.531-25.484 12.655-.087 20.11 6.761 23.663 13.955.607 1.3.52 1.908-.434 2.514l-8.667 3.728c-.954.606-1.994.26-2.687-.78-1.994-2.861-6.068-5.115-9.796-5.115-6.934 0-12.222 5.2-12.135 12.222.087 8.582 6.588 12.829 13.09 12.829 4.767 0 7.367-1.474 10.921-3.9 1.56-1.04 3.034-.953 3.9.087l3.295 4.074z" fill="#FEFEFE"/><path d="M405.355 157.9c-1.075 0-1.968.33-2.583.952-.592.599-.898 1.461-.885 2.496.036 3.53 2.425 4.267 4.423 4.267 2.177 0 3.022-.335 6.034-2.39l.078-.053c.022-.015.044-.029.064-.044-1.72-.808-3.27-2.104-4.463-3.848-.425-.577-1.855-1.38-2.668-1.38m-.52 36.233c-10.09 0-19.128-3.5-25.449-9.858-6.058-6.094-9.364-14.584-9.309-23.912.112-19.324 14.362-33.985 33.145-34.101h.292c13.933 0 25.294 6.834 31.196 18.785l.084.172c2.97 6.363-.103 11.246-3.636 13.493l-.587.375-6.676 2.871a10.79 10.79 0 0 1 3.896 2.964l.08.098 3.565 4.425c3.338 4.59 2.798 10.668-1.314 14.781l-.178.172c-6.839 6.46-15.286 9.735-25.109 9.735" fill="#EF8070"/><path d="M466.983 184.252c-1.734 0-2.6-.867-2.428-2.6.955-9.882 1.474-18.898.607-26.525-.519-4.421-3.467-6.675-7.974-6.675-4.854 0-7.715 3.294-7.802 6.848l-.26 26.438c0 1.734-.867 2.601-2.6 2.601h-8.495c-1.733 0-2.6-.867-2.6-2.6l-1.04-61.46c-.088-1.733.78-2.6 2.514-2.6h10.574c1.388 0 2.427.608 2.427 2.6l-.26 21.932c2.947-4.767 7.542-7.281 13.61-7.281 8.668 0 13.955 6.154 15.602 14.302 1.907 9.536 1.56 21.757.693 32.42-.172 1.733-.866 2.6-2.6 2.6h-9.968z" fill="#FEFEFE"/><path d="m440.46 181.646-.001.091v-.091zm6.066 11.36h-8.495c-6.498 0-11.223-4.694-11.267-11.176l-1.039-61.299c-.113-3.149.928-6.04 2.943-8.159 2.061-2.166 4.986-3.36 8.236-3.36h10.576c6.428 0 11.093 4.74 11.093 11.268v.102l-.074 6.28a27.905 27.905 0 0 1 4.757-.4c12.214 0 21.448 8.144 24.098 21.253 1.756 8.782 2.029 20.172.837 34.839l-.015.157c-.62 6.226-5.131 10.409-11.225 10.409h-9.967c-3.346 0-6.323-1.255-8.385-3.532a10.354 10.354 0 0 1-1.791-2.76c-1.715 3.86-5.523 6.378-10.282 6.378z" fill="#EF8070"/><path d="M487.349 178.444c0-4.421 3.467-7.888 7.888-7.888 4.42 0 7.888 3.467 7.888 7.888 0 4.422-3.468 7.889-7.888 7.889-4.421 0-7.888-3.467-7.888-7.889zm4.074-13.176c-1.734 0-2.6-.866-2.6-2.6l-2.774-41.174c0-1.734.779-2.6 2.513-2.6h14.043c1.733 0 2.6.866 2.514 2.6l-2.6 41.174c0 1.734-.868 2.6-2.601 2.6h-8.495z" fill="#FEFEFE"/><g transform="translate(477.381 110.226)"><mask id="f" fill="#fff"><use xlink:href="#e"/></mask><path d="m17.764 17.335.468 6.938.437-6.938h-.905zm.091 50.104c-.364 0-.779.415-.779.78 0 .363.415.78.78.78.364 0 .78-.417.78-.78 0-.365-.416-.78-.78-.78zm0 17.335C8.572 84.774 1.3 77.502 1.3 68.218c0-3.663 1.133-7.015 3.075-9.728-.97-1.624-1.538-3.552-1.596-5.683L0 11.56v-.292C0 4.738 4.702 0 11.18 0h14.043c3.25 0 6.174 1.193 8.234 3.359 2.055 2.159 3.097 5.12 2.938 8.34l-.007.115-2.587 40.97c-.063 2.433-.788 4.605-2.02 6.358 1.67 2.591 2.63 5.701 2.63 9.076 0 9.284-7.272 16.556-16.556 16.556z" fill="#EF8070" mask="url(#f)"/></g><path d="M85.132 75.906h-.78c-1.82 0-2.167-1.04-2.774-2.86-3.035-11.096-6.068-21.932-9.102-33.374-3.034 11.442-5.98 22.278-9.014 33.373-.608 1.82-.955 2.86-2.775 2.86h-8.841c-1.82 0-1.994-1.04-2.775-2.86-3.987-16.556-9.62-38.574-14.475-55.65-.606-2.08-.173-3.467 1.56-3.9l9.795-2.6c1.82-.52 3.468-.174 3.815 1.56 2.08 9.967 4.594 22.45 7.194 34.759 3.12-11.356 6.155-22.624 8.235-30.946.433-1.733.78-2.6 2.6-2.6h9.448c1.821 0 2.168.867 2.601 2.6 2.08 8.495 5.201 19.937 8.321 31.552l7.802-35.279c.347-1.733 2.08-2.08 3.814-1.56l8.148 2.34c1.734.52 2.08 1.82 1.56 3.9-4.074 16.557-8.755 36.234-13.522 55.824-.607 1.82-.953 2.86-2.774 2.86h-8.061zm61.973-29.472c-.694-4.68-5.374-8.148-11.096-7.889-6.154.26-9.968 4.075-10.488 8.756l21.584-.867zm9.275 21.064c.693 1.04.78 2.34-.607 3.553-5.027 4.161-11.008 6.068-18.896 6.068-14.997 0-25.832-9.621-25.832-25.051 0-15.43 10.576-25.484 24.53-25.484 14.91 0 23.925 9.621 24.272 22.797.087 4.248-2.253 7.888-7.195 7.975l-26.697.692c.953 4.943 5.807 7.976 11.961 7.889 4.682-.087 8.322-1.127 11.53-3.034 1.733-.953 3.12-.779 3.9.347l3.034 4.248zm14.56 8.495c-1.734 0-2.601-.868-2.601-2.601l-1.04-61.458c0-1.733.78-2.6 2.513-2.6h10.575c1.734 0 2.601.867 2.514 2.6l-.866 61.458c0 1.733-.867 2.6-2.601 2.6h-8.495zm65.615-9.795c.693.953.866 2.253-.434 3.553-4.68 4.42-10.834 7.369-19.156 7.369-15.603 0-26.178-10.143-26.092-25.053.087-14.908 10.576-25.398 24.532-25.483 12.655-.087 20.11 6.761 23.663 13.955.608 1.3.52 1.907-.433 2.514l-8.668 3.728c-.953.606-1.993.26-2.687-.78-1.993-2.861-6.068-5.115-9.795-5.115-6.934 0-12.222 5.2-12.136 12.222.087 8.581 6.589 12.829 13.09 12.829 4.767 0 7.368-1.474 10.922-3.9 1.56-1.04 3.033-.953 3.9.087l3.294 4.074zm45.677-12.917c0-7.28-5.027-12.135-11.962-12.135-7.28 0-11.962 4.855-11.962 12.135 0 7.281 4.941 12.136 11.962 12.136 6.935 0 11.962-4.855 11.962-12.136M244.7 52.068c0-15.43 11.008-25.485 24.964-25.485 13.87 0 24.965 10.056 24.965 25.485 0 15.43-11.096 25.051-24.965 25.051-13.956 0-24.964-9.622-24.964-25.051m110.688 23.838c-1.733 0-2.6-.867-2.427-2.6.954-9.882 1.387-19.765.52-26.526-.52-4.247-2.686-6.675-5.721-6.675-3.12 0-5.46 2.688-5.2 6.415.52 7.975.26 17.077-.52 26.785-.174 1.734-.867 2.6-2.601 2.6h-9.102c-1.733 0-2.6-.866-2.427-2.6.954-9.88 1.214-18.897.607-26.525-.347-4.42-2.34-6.847-5.894-6.675-3.64.174-5.635 2.774-5.722 5.982l-.52 27.305c0 1.733-.867 2.601-2.6 2.601h-8.495c-1.734 0-2.6-.868-2.6-2.601l-1.04-42.994c-.087-1.734.78-2.6 2.513-2.6h10.575c1.387 0 2.167.605 2.427 1.733v3.467c1.127-3.467 5.982-6.414 10.316-6.414 5.028 0 9.015 2.426 11.529 7.02 2.6-4.507 6.847-7.02 11.789-7.02 9.534 0 14.475 6.154 16.036 14.302 1.733 9.275 1.213 22.624.26 32.42-.174 1.733-.867 2.6-2.6 2.6h-9.103zM410.6 46.434c-.694-4.68-5.375-8.148-11.096-7.889-6.154.26-9.968 4.075-10.488 8.756l21.583-.867zm9.275 21.064c.693 1.04.78 2.34-.607 3.553-5.028 4.161-11.009 6.068-18.897 6.068-14.996 0-25.832-9.621-25.832-25.051 0-15.43 10.576-25.484 24.531-25.484 14.91 0 23.925 9.621 24.272 22.797.086 4.248-2.254 7.888-7.195 7.975l-26.698.692c.954 4.943 5.808 7.976 11.962 7.889 4.681-.087 8.322-1.127 11.529-3.034 1.733-.953 3.12-.779 3.9.347l3.035 4.248zm41.601 8.495c-1.733 0-2.6-.868-2.6-2.601l-.521-32.073-9.361.174c-1.56 0-2.6-1.04-2.6-2.6V30.05c0-1.56 1.04-2.6 2.6-2.6l9.102.086-.087-9.708c-.087-1.733.78-2.6 2.513-2.6h10.402c1.734 0 2.427.867 2.515 2.6l-.174 9.881 9.188.087c1.56 0 2.6 1.04 2.6 2.6v7.889c0 1.56-1.04 2.513-2.6 2.6l-9.362.173-.52 32.333c0 1.733-.866 2.6-2.6 2.6h-8.495zm63.709-22.712c0-7.28-5.027-12.135-11.962-12.135-7.28 0-11.962 4.855-11.962 12.135 0 7.281 4.941 12.136 11.962 12.136 6.935 0 11.962-4.855 11.962-12.136m-37.533-1.213c0-15.43 11.009-25.485 24.964-25.485 13.87 0 24.965 10.056 24.965 25.485 0 15.43-11.095 25.051-24.965 25.051-13.955 0-24.964-9.622-24.964-25.051" fill="#FCD391"/><path d="M90.375 147.065c11.962 1.127 19.936-1.56 19.936-9.102 0-7.54-7.714-10.488-19.763-9.188l-.173 18.29zm31.985 32.333c-1.213 1.82-2.774 1.82-4.247 1.04-8.409-4.247-14.563-11.702-17.77-21.497-3.034.347-6.241.347-9.622.087l-.346 18.376c0 1.734-.867 2.601-2.6 2.601h-8.496c-1.733 0-2.6-.867-2.6-2.601l-.954-56.95c-.086-4.074 2.514-5.72 6.068-6.068 27.651-2.427 42.994 6.068 42.994 22.538 0 8.668-4.507 15.082-12.135 18.81 3.294 5.807 7.715 9.622 13.175 12.396 2.167 1.126 2.254 2.947 1.387 4.247l-4.854 7.021zm15.08.607c-1.734 0-2.601-.868-2.601-2.601l-1.04-42.908c0-1.733.78-2.6 2.513-2.6h10.575c1.734 0 2.601.867 2.514 2.6l-.866 42.908c0 1.733-.867 2.601-2.602 2.601h-8.494zm-4.681-60.505c0-4.94 3.9-8.84 8.84-8.84 4.941 0 8.843 3.9 8.843 8.84 0 4.942-3.902 8.842-8.842 8.842-4.941 0-8.841-3.9-8.841-8.842zm28.601 60.505c-1.733 0-2.6-.868-2.6-2.601l-1.04-43.081c-.086-1.734.78-2.6 2.514-2.6h10.575c1.734 0 2.34.606 2.34 2.34v2.6c3.208-4.68 9.883-6.5 16.73-6.067 1.734.086 2.6 1.04 2.6 2.6v8.929c0 1.733-1.125 2.687-2.6 2.427-7.367-1.387-16.73 1.56-16.903 8.581l-.52 24.27c0 1.734-.867 2.602-2.6 2.602h-8.495zm70.73-22.711c0-7.281-3.986-12.136-11.267-12.136-6.935 0-11.269 4.855-11.269 12.136 0 7.28 4.334 12.135 11.269 12.135 7.02 0 11.268-4.854 11.268-12.135zm2.515 22.71c-1.56 0-2.34-.693-2.34-2.08v-3.987c-2.428 4.161-7.802 7.195-13.957 7.195-13.002 0-23.23-9.622-23.23-25.052 0-15.429 10.228-25.311 23.23-25.137 5.722.086 11.183 3.034 12.83 7.02v-3.553c-.087-1.733.78-2.6 2.513-2.6h10.576c1.733 0 2.513.867 2.513 2.6l-1.04 42.994c0 1.733-.867 2.6-2.6 2.6h-8.495zm58.677.001c-1.733 0-2.6-.868-2.6-2.601l-.78-48.975-15.863-.087c-1.82 0-3.034-1.213-3.034-3.034V118.2c0-1.82 1.214-3.034 3.034-3.034l47.068-.086c1.82 0 3.034 1.213 3.034 3.033v7.109c0 1.82-1.213 3.033-3.034 3.033l-15.862.174-.867 48.975c0 1.733-.867 2.601-2.6 2.601h-8.496zm62.582-29.559c-.694-4.68-5.374-8.148-11.095-7.888-6.154.26-9.97 4.074-10.49 8.755l21.585-.867zm9.275 21.064c.693 1.04.78 2.34-.607 3.553-5.027 4.162-11.008 6.068-18.897 6.068-14.996 0-25.831-9.62-25.831-25.05 0-15.43 10.575-25.485 24.531-25.485 14.91 0 23.925 9.621 24.27 22.797.088 4.248-2.252 7.889-7.194 7.975l-26.698.693c.954 4.942 5.808 7.976 11.962 7.888 4.682-.086 8.322-1.127 11.53-3.033 1.733-.954 3.12-.78 3.9.346l3.034 4.248zm54.953-1.3c.694.953.867 2.253-.433 3.554-4.68 4.42-10.836 7.368-19.157 7.368-15.603 0-26.179-10.143-26.091-25.052.086-14.909 10.574-25.398 24.531-25.484 12.655-.087 20.11 6.762 23.663 13.955.608 1.3.52 1.908-.433 2.514l-8.668 3.728c-.954.606-1.994.26-2.687-.78-1.994-2.86-6.067-5.115-9.795-5.115-6.935 0-12.223 5.201-12.136 12.222.087 8.582 6.588 12.829 13.09 12.829 4.767 0 7.367-1.474 10.921-3.9 1.56-1.04 3.034-.953 3.9.087l3.295 4.074zm42.558 9.708c-1.735 0-2.602-.867-2.428-2.6.954-9.882 1.473-18.898.606-26.525-.519-4.42-3.467-6.675-7.974-6.675-4.854 0-7.715 3.294-7.802 6.848l-.26 26.438c0 1.734-.867 2.601-2.6 2.601h-8.494c-1.734 0-2.6-.867-2.6-2.6l-1.042-61.459c-.086-1.734.78-2.6 2.515-2.6h10.574c1.388 0 2.427.607 2.427 2.6l-.26 21.931c2.947-4.767 7.542-7.28 13.61-7.28 8.668 0 13.955 6.153 15.602 14.302 1.907 9.535 1.56 21.756.694 32.419-.173 1.733-.867 2.6-2.6 2.6h-9.969zm20.365-5.808c0-4.421 3.467-7.888 7.889-7.888 4.42 0 7.887 3.467 7.887 7.888 0 4.422-3.468 7.889-7.887 7.889-4.422 0-7.889-3.467-7.889-7.889zm4.074-13.175c-1.734 0-2.6-.867-2.6-2.6l-2.774-41.175c0-1.733.78-2.6 2.513-2.6h14.043c1.734 0 2.6.867 2.514 2.6l-2.6 41.174c0 1.734-.867 2.6-2.6 2.6h-8.496z" fill="#FEFEFE"/><path d="M0 0h580v200H0z"/></g></svg>