<svg width="48" height="48" viewBox="0 0 48 48" xmlns="http://www.w3.org/2000/svg" xmlns:xlink="http://www.w3.org/1999/xlink">
    <defs>
        <path id="a" d="M0 0h48v40.696H0z"/>
    </defs>
    <g fill="none" fill-rule="evenodd">
        <path d="M0 0h48v48H0z"/>
        <g transform="translate(0 4)">
            <mask id="b" fill="#fff">
                <use xlink:href="#a"/>
            </mask>
            <path d="M15.706 23.763c-1.873 0-3.391 2.105-3.391 4.693 0 2.593 1.518 4.699 3.391 4.699 1.876 0 3.395-2.106 3.395-4.7 0-2.587-1.519-4.692-3.395-4.692m8.366 14.625h-.145c-9.838 0-17.502-1.172-17.502-10.735 0-2.293.808-4.417 2.731-6.181 3.201-2.94 8.621-1.384 14.771-1.384h.145c6.15 0 11.572-1.555 14.777 1.384 1.917 1.764 2.725 3.888 2.725 6.18 0 9.564-7.662 10.736-17.502 10.736m20.03-26.841c.389-.952.405-6.363-1.657-11.547 0 0-4.723.52-11.872 5.427-1.5-.418-4.038-.621-6.571-.621-2.538 0-5.073.203-6.573.62C10.277.52 5.554 0 5.554 0 3.495 5.184 3.516 10.595 3.899 11.547 1.478 14.176 0 17.335 0 21.645 0 40.39 15.556 40.69 19.478 40.69l4.524.005 4.518-.005c3.929 0 19.48-.3 19.48-19.046 0-4.31-1.477-7.47-3.898-10.098M32.295 23.763c-1.873 0-3.391 2.105-3.391 4.693 0 2.593 1.518 4.699 3.391 4.699s3.391-2.106 3.391-4.7c-.002-2.587-1.518-4.692-3.391-4.692" fill="#020303" mask="url(#b)"/>
        </g>
    </g>
</svg>
