<svg width="348" height="620" viewBox="0 0 348 620" xmlns="http://www.w3.org/2000/svg" xmlns:xlink="http://www.w3.org/1999/xlink">
    <defs>
        <path id="a" d="M0 0h348v593.56H0z"/>
        <path id="c" d="M0 620h348V0H0z"/>
    </defs>
    <g fill="none" fill-rule="evenodd">
        <g transform="translate(0 26.44)">
            <mask id="b" fill="#fff">
                <use xlink:href="#a"/>
            </mask>
            <path d="M343.499 593.56H4.502A4.502 4.502 0 0 1 0 589.059V4.502A4.502 4.502 0 0 1 4.502 0h338.997a4.502 4.502 0 0 1 4.5 4.502v584.557a4.501 4.501 0 0 1-4.5 4.501" fill="#C48E57" mask="url(#b)"/>
        </g>
        <mask id="d" fill="#fff">
            <use xlink:href="#c"/>
        </mask>
        <path fill="#FEFEFE" mask="url(#d)" d="M9.667 608.181h328.667V38.26H9.667z"/>
        <path d="M224.368 20.564h-21.995C202.373 9.208 189.67 0 174 0c-15.67 0-28.372 9.207-28.372 20.563h-21.995c-8.913 0-16.14 7.226-16.14 16.139V52.84h133.014V36.703c0-8.913-7.226-16.14-16.14-16.14" fill="#FCC50C" mask="url(#d)"/>
        <path fill="#F8B34A" mask="url(#d)" d="M107.494 52.841h133.013v-6.768H107.494z"/>
    </g>
</svg>
