<svg width="1440" height="459" viewBox="0 0 1440 459" xmlns="http://www.w3.org/2000/svg" xmlns:xlink="http://www.w3.org/1999/xlink">
    <defs>
        <path id="a" d="M0 0h94.82v77.7H0z"/>
        <path id="c" d="M0 0h80.019v49.813H0z"/>
        <path id="e" d="M0 0h223.96v122.456H0z"/>
        <path id="g" d="M0 0h203.15v119.293H0z"/>
        <path id="i" d="M0 0h200.173v136.638H0z"/>
        <path id="k" d="M0 0h179.873v132.186H0z"/>
        <path id="m" d="M0 0h179.593v156.451H0z"/>
        <path id="o" d="M0 0h160.108v150.161H0z"/>
        <path id="q" d="M0 458.702h1440V0H0z"/>
    </defs>
    <g fill="none" fill-rule="evenodd">
        <path d="M1322.453 413.79s-3.75-16.16-25.34-49.344c-15.998-24.591-50.988-78.608-68.072-104.987-1.157-1.788 1.27-3.696 2.754-2.167l85.359 88.092s32.754 28.65 49.555 39.797c13.352 8.857-13.695 23.56-13.695 23.56l-16.208-12.082 5.599 15.78-19.952 1.35z" fill="#B5B7DB"/>
        <path fill="#525050" d="m1336.805 396.659-19.65-51.275 7.634 6.58 17.764 48.98z"/>
        <g transform="translate(1345.18 381.002)">
            <mask id="b" fill="#fff">
                <use xlink:href="#a"/>
            </mask>
            <path d="M65.531 36.323c.222.159.446.321.672.487 37.701 27.708 34.665 30.889 36.83 44.722.769 4.912 1.58 9.436.445 13.635-2.289 8.471-10.676 13.679-19.221 11.679-8.371-1.959-18.425-8.624-23.854-27.941-3.761-13.381-7.522-22.45-10.794-28.578-5.411-10.136 6.582-20.697 15.922-14.004M26.882 45.51c25.343 22.8 10.2 55.564 52.43 72.155 42.232 16.592 43.495-31.489 35.649-48.804-7.846-17.313-26.493-32.474-52.224-44.383C36.102 12.15 18.248 0 18.248 0L0 24.983s13.459 8.45 26.882 20.527" fill="#F3BC61" mask="url(#b)"/>
        </g>
        <g transform="translate(1320.8 408.889)">
            <mask id="d" fill="#fff">
                <use xlink:href="#c"/>
            </mask>
            <path d="M47.283 68.848c6.334 5.94 25.334 32.979 10.61 40.937-8.453 4.569-16.691 2.206-23.4-2.008-10.971-6.892-17.384-19.174-17.718-32.126l-.335-13.019c-.114-4.463 4.37-7.597 8.512-5.928 7.362 2.97 17.449 7.566 22.33 12.144M7.04 94.021c7.386 33.125 71.773 52.548 72.969 6.225.699-27.11-36.023-43.388-46.395-67.002C23.243 9.63 22.258 0 22.258 0L.124 2.247S-1.503 55.705 7.04 94.021" fill="#F3BC61" mask="url(#d)"/>
        </g>
        <path d="M1300.35 350.742a9.023 9.023 0 1 1 14.57 10.645 9.023 9.023 0 0 1-14.57-10.645" fill="#241C19"/>
        <path fill="#B0B3C6" d="m1304.764 362.344 6.903-11.8-1.345-.983-6.79 11.883z"/>
        <path fill="#EE7862" d="m14.238 194.667 79.623-5.311 2.754 41.275-79.624 5.31z"/>
        <path fill="#EAA" d="m59.893 262.17 75.047-27.13 14.063 38.903-75.047 27.13z"/>
        <g transform="translate(0 57.426)">
            <mask id="f" fill="#fff">
                <use xlink:href="#e"/>
            </mask>
            <path d="M223.433 120.308 201.887 106-66.898 0s-9.552 2.492-4.944 12.326L196.7 119.293l25.944 3.153c1.226.149 1.817-1.454.79-2.138" fill="#DFCE99" mask="url(#f)"/>
        </g>
        <path d="m211.636 178.534 11.009 1.338c1.225.149 1.817-1.454.789-2.138l-9.37-6.221c-1.217 2.302-2.096 4.65-2.428 7.02" fill="#EAB306"/>
        <g transform="translate(0 57.427)">
            <mask id="h" fill="#fff">
                <use xlink:href="#g"/>
            </mask>
            <path d="M-71.842 12.325 196.7 119.293l3.766-1.615c-.074-.553-2.063-3.326-4.454-4.789 3.051-1.031 4.118-1.145 7.138-1.434-.318-1.624-3.159-4.151-4.573-4.761 1.125-.311 1.865-.69 2.954-.835L-66.898 0s-9.55 2.491-4.944 12.325" fill="#EAB306" mask="url(#h)"/>
        </g>
        <g transform="translate(0 4.531)">
            <mask id="j" fill="#fff">
                <use xlink:href="#i"/>
            </mask>
            <path d="m199.693 134.522-20.812-15.355L-84.33 0s-9.663 2.014-5.548 12.064l262.922 120.122 25.755 4.433c1.217.209 1.888-1.364.895-2.097" fill="#DFCE99" mask="url(#j)"/>
        </g>
        <path d="m187.87 139.27 10.929 1.88c1.217.21 1.887-1.363.894-2.097l-9.051-6.678c-1.329 2.241-2.323 4.541-2.772 6.894" fill="#EE7862"/>
        <g transform="translate(0 4.531)">
            <mask id="l" fill="#fff">
                <use xlink:href="#k"/>
            </mask>
            <path d="m-89.88 12.064 262.923 120.122 3.84-1.427c-.045-.556-1.895-3.424-4.211-5.003 3.098-.879 4.17-.94 7.2-1.079-.237-1.637-2.95-4.302-4.331-4.981 1.139-.256 1.896-.597 2.99-.688L-84.33 0s-9.662 2.014-5.548 12.064" fill="#EE7862" mask="url(#l)"/>
        </g>
        <g transform="translate(0 59.287)">
            <mask id="n" fill="#fff">
                <use xlink:href="#m"/>
            </mask>
            <path d="m179.178 154.387-19.667-16.798L-94.557 0s-9.783 1.323-6.393 11.64l253.71 138.52 25.377 6.254c1.198.295 1.979-1.225 1.04-2.027" fill="#DFCE99" mask="url(#n)"/>
        </g>
        <path d="m167.369 213.048 10.768 2.654c1.198.294 1.979-1.226 1.041-2.028l-8.553-7.305c-1.485 2.14-2.641 4.364-3.256 6.679" fill="#B5B7DB"/>
        <g transform="translate(0 59.287)">
            <mask id="p" fill="#fff">
                <use xlink:href="#o"/>
            </mask>
            <path d="m-100.95 11.64 253.71 138.521 3.934-1.151c-.006-.558-1.647-3.549-3.846-5.289 3.154-.657 4.226-.642 7.26-.564-.121-1.651-2.636-4.502-3.967-5.278 1.154-.174 1.934-.46 3.033-.472L-94.557 0s-9.783 1.323-6.393 11.64" fill="#B5B7DB" mask="url(#p)"/>
        </g>
        <mask id="r" fill="#fff">
            <use xlink:href="#q"/>
        </mask>
        <path fill="#EE7862" mask="url(#r)" d="M.575 468.878h148.879V319.999H.575z"/>
        <path fill="#86A8C6" mask="url(#r)" d="m-1.424 315.462 148.583 9.37-9.37 148.582-148.583-9.37z"/>
        <path fill="#F3BC61" mask="url(#r)" d="m2.24 310.055 147.325 21.44-21.438 147.326-147.327-21.44z"/>
        <path d="m1490.553-27.582 136.523 172.588a.529.529 0 0 1-.085.745L1373.985 345.89a.532.532 0 0 1-.745-.087l-131.166-165.9a.522.522 0 0 1-.066-.55c.543-1.136 2.226-5.305-1.914-6.017-.438-.075-.563-.653-.216-.932l249.928-200.071a.532.532 0 0 1 .747.085" fill="#B5B7DB" mask="url(#r)"/>
        <path fill="#DFDFDF" mask="url(#r)" d="m1495.703-21.16 137.184 173.423-253.838 200.796-137.185-173.422z"/>
        <path d="M1366.297 324.497a3.282 3.282 0 1 1 4.072 5.148 3.282 3.282 0 0 1-4.072-5.148M1353.34 308.119a3.283 3.283 0 1 1 4.073 5.15 3.283 3.283 0 0 1-4.072-5.15M1340.385 291.74a3.283 3.283 0 1 1 4.072 5.151 3.283 3.283 0 0 1-4.072-5.15M1327.43 275.363a3.282 3.282 0 1 1 4.072 5.148 3.282 3.282 0 0 1-4.072-5.148M1314.474 258.985a3.283 3.283 0 1 1 4.072 5.15 3.283 3.283 0 0 1-4.072-5.15M1301.518 242.607a3.282 3.282 0 1 1 4.072 5.148 3.282 3.282 0 0 1-4.072-5.148M1288.562 226.23a3.282 3.282 0 1 1 4.074 5.147 3.282 3.282 0 0 1-4.074-5.147M1275.607 209.852a3.28 3.28 0 1 1 4.072 5.148 3.281 3.281 0 1 1-4.072-5.148M1262.651 193.474a3.283 3.283 0 1 1 4.074 5.15 3.283 3.283 0 0 1-4.074-5.15" fill="#2B2B34" mask="url(#r)"/>
        <path d="m1367.713 326.288 1.24 1.567a.805.805 0 0 1-.133 1.133l-8.427 6.667a.805.805 0 0 1-1.133-.133l-1.24-1.566a.807.807 0 0 1 .132-1.134l8.428-6.666a.806.806 0 0 1 1.133.132M1354.758 309.91l1.239 1.567a.806.806 0 0 1-.132 1.133l-8.427 6.667a.805.805 0 0 1-1.133-.133l-1.24-1.566a.808.808 0 0 1 .132-1.134l8.427-6.666a.807.807 0 0 1 1.134.132M1341.802 293.532l1.239 1.567a.805.805 0 0 1-.132 1.133l-8.427 6.667a.805.805 0 0 1-1.133-.133l-1.24-1.566a.807.807 0 0 1 .132-1.134l8.428-6.666a.807.807 0 0 1 1.133.132M1328.847 277.154l1.238 1.567a.806.806 0 0 1-.131 1.133l-8.428 6.667a.807.807 0 0 1-1.134-.133l-1.239-1.566a.807.807 0 0 1 .131-1.133l8.428-6.667a.808.808 0 0 1 1.135.132M1315.89 260.776l1.24 1.567a.805.805 0 0 1-.133 1.133l-8.427 6.667a.805.805 0 0 1-1.133-.133l-1.239-1.566a.806.806 0 0 1 .131-1.133l8.428-6.667a.807.807 0 0 1 1.133.132M1302.935 244.398l1.24 1.567a.805.805 0 0 1-.134 1.133l-8.426 6.667a.807.807 0 0 1-1.134-.133l-1.239-1.566a.807.807 0 0 1 .131-1.133l8.428-6.667a.808.808 0 0 1 1.134.132M1289.98 228.02l1.238 1.567a.805.805 0 0 1-.132 1.133l-8.427 6.667a.806.806 0 0 1-1.133-.132l-1.24-1.567a.806.806 0 0 1 .132-1.133l8.428-6.667a.807.807 0 0 1 1.133.132M1277.023 211.642l1.24 1.567a.805.805 0 0 1-.133 1.133l-8.426 6.667a.807.807 0 0 1-1.134-.132l-1.239-1.567a.806.806 0 0 1 .131-1.133l8.428-6.667a.807.807 0 0 1 1.133.132M1264.068 195.264l1.24 1.567a.805.805 0 0 1-.133 1.133l-8.427 6.667a.806.806 0 0 1-1.133-.132l-1.24-1.567a.806.806 0 0 1 .132-1.133l8.428-6.667a.807.807 0 0 1 1.133.132" fill="#2B2B34" mask="url(#r)"/>
        <path fill="#F3BC61" mask="url(#r)" d="m677.753 334.773-8.123-3.956 8.837-18.144 8.122 3.955z"/>
        <path d="m571.684 552.23-4.068 2.65c-1.164.758-2.716.002-2.836-1.38l-.422-4.838a42.743 42.743 0 0 1 4.152-22.425l93.648-192.283c2.457-5.044 8.538-7.143 13.583-4.686s7.142 8.54 4.685 13.583L586.78 535.134a42.737 42.737 0 0 1-15.095 17.096" fill="#F3BC61" mask="url(#r)"/>
        <path d="M662.36 333.542s-12.552 1.2-23.805 24.305l-18.002 36.964c-.623 1.279.245 2.836 1.667 2.876 2.485.07 6.192-1.038 9.202-7.012 2.717-5.393 7.425-14.975 11.171-22.627a135.34 135.34 0 0 1 13.482-21.96l.49-.65 5.794-11.896z" fill="#EE7862" mask="url(#r)"/>
        <path d="m740.278 274.872-1.328-4.67a1.84 1.84 0 0 0-3.047-.82l-3.494 3.37a42.739 42.739 0 0 0-11.593 19.64l-55.63 206.514c-1.46 5.418 1.75 10.994 7.167 12.453 5.418 1.46 10.994-1.75 12.453-7.168l55.63-206.512a42.738 42.738 0 0 0-.158-22.807M665.066 499.35s-8.677-9.147-1.992-33.962l10.693-39.699c.37-1.374 2.048-1.979 3.147-1.075 1.92 1.58 3.988 4.848 2.336 11.331-1.493 5.85-4.233 16.17-6.433 24.401a135.213 135.213 0 0 0-4.252 25.414l-.057.812-3.442 12.777z" fill="#BBB1B0" mask="url(#r)"/>
        <path fill="#EB647D" mask="url(#r)" d="m734.696 318.99-19.62-5.285-13.174 48.902 19.62 5.286zM353.256 361.1l10.03-7.348-7.017-5.996-10.704 5.695zM335.037 396.158l-118.438 59.448a7.212 7.212 0 0 1-9.335-2.596l-11.568-18.324a7.213 7.213 0 0 1 2.154-9.89l110.561-72.24 26.626 43.602z"/>
        <path d="M335.037 396.158s4.688-4.911 4.204-11.233c-1.087-14.186 16.141-24 16.141-24l-7.813-10.224s-15.257 10.745-23.897 5.802c-8.641-4.944-15.261-3.946-15.261-3.946l26.626 43.6z" fill="#100F1A" mask="url(#r)"/>
        <path d="M578.148 328.65c12.012 19.045 6.311 44.22-12.733 56.231l-284.57 179.484c-19.045 12.012-44.219 6.31-56.23-12.734-12.013-19.044-6.312-44.219 12.732-56.23l284.57-179.484c19.044-12.012 44.22-6.311 56.231 12.733" fill="#86A8C6" mask="url(#r)"/>
        <path d="M580.34 332.127c12.013 19.044 6.312 44.22-12.732 56.23l-284.57 179.485c-19.044 12.012-44.22 6.31-56.231-12.735-12.011-19.043-6.311-44.218 12.733-56.23l284.57-179.483c19.044-12.012 44.22-6.312 56.23 12.733" fill="#CDE9F6" mask="url(#r)"/>
        <path fill="#020303" mask="url(#r)" d="m567.864 339.316.614.974-315.942 199.271-.614-.975zM422.135 458.045l9.957 15.785-.975.615-9.956-15.786zM445.736 443.159l9.956 15.786-.974.615-9.956-15.787zM469.338 428.273l9.956 15.786-.974.614-9.957-15.786zM492.938 413.387l9.957 15.786-.975.614-9.956-15.786zM516.54 398.502l9.957 15.785-.975.615-9.957-15.786zM540.141 383.615l9.957 15.786-.974.615-9.957-15.786zM439.958 457.837l4.979 7.892-.975.615-4.98-7.894zM463.733 442.84l4.978 7.894-.974.614-4.979-7.893zM486.116 428.723l4.98 7.893-.976.615-4.978-7.894zM509.718 413.837l4.979 7.894-.975.615-4.978-7.894zM533.32 398.95l4.978 7.895-.975.615-4.979-7.894zM556.92 384.065l4.98 7.894-.975.614-4.98-7.893z"/>
        <path d="m212.701 251.815 64.068-7.794c11.34-1.38 21.651 6.694 23.031 18.034 1.379 11.339 2.446 20.111-18.035 23.03l-58.11 11.858-5.882-3.431-5.072-41.697z" fill="#8D8D8D" mask="url(#r)"/>
        <path d="m218.659 255.879 64.476-7.844c8.141-.99 15.544 4.806 16.534 12.948l1.409 11.582c.99 8.14-4.807 15.543-12.947 16.534l-64.476 7.844-4.996-41.064z" fill="#DCDCDC" mask="url(#r)"/>
        <path fill="#F3BC61" mask="url(#r)" d="m227.333 254.823 39.539-4.81 4.995 41.065-39.538 4.809z"/>
        <path fill="#C88A25" mask="url(#r)" d="m266.872 250.013-3.721-4.336-40.702 4.951 4.884 4.195z"/>
        <path fill="#CDE9F6" mask="url(#r)" d="m1196.764 277.88 21.397 30.103 23.609 27.794-33.711 26.204-21.254-29.92-23.752-27.977z"/>
        <path fill="#86A8C6" mask="url(#r)" d="m1194.682 288.017 37.035 47.646-21.176 16.46-37.035-47.646z"/>
        <path fill="#7B7C7C" mask="url(#r)" d="m1231.718 335.663-37.035-47.646-1.041.81 37.035 47.646z"/>
        <path fill="#E1E0E0" mask="url(#r)" d="m1230.677 336.472-37.035-47.646-7.838 6.093 32.643 51.06z"/>
        <path d="M1202.62 315.723a4.61 4.61 0 1 1 9.15 1.139 4.61 4.61 0 0 1-9.15-1.139" fill="#B9B9B9" mask="url(#r)"/>
        <path fill="#E1E0E0" mask="url(#r)" d="m1207.236 311.684.828.103-1.13 9.105-.83-.104z"/>
        <path d="M1248.362 458.895 1132.65 638.251l-12.595 1.006-250.46-170.716 115.71-179.357c7.217-11.185 22.134-14.402 33.32-7.186l222.55 143.58c11.186 7.214 14.403 22.132 7.187 33.317" fill="#EAA" mask="url(#r)"/>
        <path d="M1242.523 459.097 1129.59 634.145l-6.755.803-259.08-166.205 115.711-179.358c7.216-11.184 22.133-14.402 33.32-7.186l222.55 143.58c11.185 7.215 14.403 22.132 7.187 33.318" fill="#DFDFDF" mask="url(#r)"/>
        <path d="m1233.072 464.079-113.017 175.179L857 469.546l116.055-179.89c7.027-10.89 21.551-14.023 32.443-6.997l218.905 141.228c13.492 8.704 17.374 26.699 8.67 40.192" fill="#F2DDD9" mask="url(#r)"/>
        <path d="M1229.028 466.011 969.16 298.357a4.894 4.894 0 0 0-6.765 1.46l-5.704 8.84a4.894 4.894 0 0 0 1.46 6.765l259.867 167.654a10.419 10.419 0 0 0 6.228 1.648l8.333-.436c.361-.019.692-.21.888-.515l9.9-15.344a.753.753 0 0 0-.672-1.159l-7.44.388a10.408 10.408 0 0 1-6.227-1.647" fill="#EAA" mask="url(#r)"/>
        <path d="m763.912 444.656 94.804-127.406a3.39 3.39 0 0 1 4.742-.7 3.39 3.39 0 0 1 .683 4.77l-95.82 126.645a2.758 2.758 0 0 1-4.003.42 2.758 2.758 0 0 1-.406-3.73" fill="#EE7862" mask="url(#r)"/>
        <path fill="#CDE9F6" mask="url(#r)" d="m755.26 432.71 88.419-104.837 4.643 3.346-83.525 112.248z"/>
        <path fill="#CDE9F6" mask="url(#r)" d="m762.19 404.536 61.526-93.697 13.832 11.147-79.346 114.043z"/>
        <path d="m754.563 439.75-6.644-8.948a13.733 13.733 0 0 1-2.182-11.93c6.378-22.534 28.89-97.114 55.546-127.767a4.498 4.498 0 0 1 4.353-1.457l8.077 1.76c2.772.606 4.29 3.597 3.134 6.187-7.853 17.606-34.216 76.949-44.425 103.08-9.054 23.175-13.836 34.575-15.658 38.819a1.279 1.279 0 0 1-2.2.256" fill="#EE7862" mask="url(#r)"/>
        <path d="m764.604 426.828 32.044-74.768-11.038 16.81c-1.959 2.615-27.408 67.159-27.408 67.159l6.402-9.201z" fill="#7A7C87" mask="url(#r)"/>
        <path fill="#100F1A" mask="url(#r)" d="m265.098 337.815-45.622-11.306-12.548 22.729 36.59 32.363z"/>
    </g>
</svg>
