<svg width="340" height="340" viewBox="0 0 340 340" xmlns="http://www.w3.org/2000/svg" xmlns:xlink="http://www.w3.org/1999/xlink">
    <defs>
        <path id="a" d="M0 0h201.928v82.278H0z"/>
        <path id="c" d="M0 0h135.39v91.915H0z"/>
        <path id="e" d="M0 255.608h256.673V0H0z"/>
    </defs>
    <g fill="none" fill-rule="evenodd">
        <path d="M182.064 212.362h28.219l14.109-24.438-14.11-24.438h-28.218l-14.11 24.438 14.11 24.438zm29.23 1.753h-30.242l-15.122-26.19 15.122-26.192h30.242l15.122 26.191-15.122 26.191z" fill="#000"/>
        <path d="M137.72 187.047h28.219l14.109-24.438-14.11-24.438H137.72l-14.11 24.438 14.11 24.438zm29.23 1.753h-30.242l-15.121-26.19 15.12-26.192h30.244l15.122 26.191L166.95 188.8z" fill="#000"/>
        <path d="M93.901 212.505h28.22l14.109-24.438-14.11-24.438H93.901l-14.109 24.438 14.11 24.438zm29.231 1.753H92.89l-15.12-26.19 15.12-26.192h30.243l15.123 26.191-15.123 26.191zM226.062 237.677h28.219l14.109-24.438-14.11-24.438h-28.218l-14.108 24.438 14.108 24.438zm29.23 1.752H225.05l-15.121-26.19 15.12-26.191h30.244l15.122 26.19-15.122 26.19zM182.064 161.733h28.219l14.109-24.438-14.11-24.438h-28.218l-14.11 24.438 14.11 24.438zm29.23 1.753h-30.242l-15.122-26.191 15.122-26.191h30.242l15.122 26.19-15.122 26.192z" fill="#000"/>
        <path fill="#000" d="m260.337 255.584-6.369-16.72 1.638-.623 6.37 16.72zM269.526 214.106l-.247-1.735 18.666-2.661.247 1.735zM93.07 164.177l-9.266-16.403 1.528-.863 9.264 16.404zM83.677 233.598l-1.548-.821L92.62 212.97l1.549.82z"/>
        <g transform="translate(42 42)">
            <path d="m11.218 54.62-.017.045-.001.01a7.383 7.383 0 0 0 .028.078l.099-.138-.11.006" fill="#E67259"/>
            <mask id="b" fill="#fff">
                <use xlink:href="#a"/>
            </mask>
            <path d="M196.315 37.617c-1.325-.055-2.65-.121-3.976-.185a16.808 16.808 0 0 0-3.64-3.337c-3.84-2.598-8.714-3.21-13.25-2.387-2.311-2.414-5.491-3.72-9.31-3.702-2.323.01-4.651.451-6.941.82-.554.088-1.11.174-1.664.261l-.027.005-.126.01c-1.051.081-2.082.159-3.138.1a4.421 4.421 0 0 0-.71.027c-.66-4.528-1.7-8.825-3.998-12.93-2.16-3.854-5.676-7.288-9.5-9.476-4.218-2.416-8.53-3.366-13.305-3.798-3.561-.318-7.351.218-10.783 1.116-2.15.558-4.232 1.468-6.247 2.38-1.668-1.468-3.54-2.765-5.525-3.692C100.319 1.031 96.43-.13 92.105.011c-3.838.123-7.25.925-10.73 2.394a32.782 32.782 0 0 0-7.976 4.81c-.9.73-1.763 1.505-2.594 2.32a18.63 18.63 0 0 0-1.77-.486c-6.115-1.367-12.838.22-18.138 3.992a54.93 54.93 0 0 0-2.728 2.069c-5.028 4.082-9.348 9.267-10.632 15.764a11.033 11.033 0 0 0-3.728.652c-3.466 1.26-5.941 3.881-8.471 6.442-.55.557-1.135 1.074-1.698 1.618a9.043 9.043 0 0 0-.162.16l-.165.127c-.46.357-.93.704-1.372 1.083-.594.508-1.124 1.07-1.657 1.64-.216.23-.444.459-.652.698-.05.053-.107.1-.16.153-.238.118-.507.32-.703.44l-.237.117-.384.146c-.013.004-.025.008-.04.01-.31-.005-.617-.003-.928-.027-.046-.004-.515-.064-.726-.087-.18-.027-.338-.053-.355-.054-1.368-.214-2.74-.442-4.12-.564-4.317-.383-8.032 1.611-10.291 5.278a11.465 11.465 0 0 0-1.193 9.323C2.352 64.157 8.454 68.242 14.307 70c4.713 1.416 9.884 1.3 14.389-.47 2.203 3.299 5.824 5.612 10.155 6.285 6.702 1.043 14.158-.173 20.035-3.666 2.11-1.254 3.833-2.801 4.955-4.743.52-.007 1.039-.026 1.558-.072.393-.031.778-.076 1.164-.126 2.637 7.093 8.512 12.835 16.39 14.23 5.229.925 10.27.754 15.434-.653 3.387-.925 6.794-2.306 9.872-4.105.754.522 1.533 1 2.377 1.413 3.278 1.588 6.66 2.924 10.268 3.454 2.346.342 4.716.728 7.093.732 2.397.003 4.812-.369 7.165-.747a20.04 20.04 0 0 0 2.829-.656c.256-.08.508-.165.757-.258 2.019-.745 4.17-1.544 5.998-2.732 4.595-2.983 7.997-6.878 9.633-12.172.147-.47.268-.954.373-1.444 1.32-.13 2.628-.699 3.67-1.564-.753.627.696-.447.925-.578.236-.135.479-.25.718-.373.587-.178 1.155-.383 1.756-.523.234-.055.47-.1.705-.151l.24-.054.19-.015c2.589-.206 5.169-.085 7.757.07 5.733.341 11.645.457 16.82-2.434 3.8-2.122 6.733-5.66 7.665-9.862.372.017.744.035 1.117.05 2.935.126 5.74-2.669 5.609-5.608-.141-3.146-2.464-5.476-5.61-5.61" fill="#FF8AB7" mask="url(#b)"/>
            <path fill="#FF8AB7" d="m85.71 75.701 3.97 37.493h8.027l3.918-46.826z"/>
            <g transform="translate(28.355 163.693)">
                <mask id="d" fill="#fff">
                    <use xlink:href="#c"/>
                </mask>
                <path d="M115.725 91.915h-96.06c-16.133 0-25.377-17.151-15.76-29.236L33.33 32.688 67.695 0l34.363 32.688 29.428 29.991c9.615 12.085.371 29.236-15.76 29.236" fill="#AFEEF9" mask="url(#d)"/>
            </g>
            <mask id="f" fill="#fff">
                <use xlink:href="#e"/>
            </mask>
            <path fill="#AFEEF9" mask="url(#f)" d="M79.326 200.332h33.449v-83.795H79.326z"/>
            <path d="M109.991 126.398H82.108c-5.446 0-9.86-4.415-9.86-9.86 0-5.448 4.414-9.862 9.86-9.862h27.883c5.446 0 9.861 4.414 9.861 9.861 0 5.446-4.415 9.861-9.86 9.861" fill="#34D2DF" mask="url(#f)"/>
            <path d="M144.08 255.607H48.016c-14.155 0-23.006-13.21-18.463-24.613a18.344 18.344 0 0 1 2.706-4.624l29.426-29.987h68.728l29.427 29.987a18.404 18.404 0 0 1 2.706 4.624c4.543 11.404-4.309 24.613-18.468 24.613" fill="#FF8AB7" mask="url(#f)"/>
            <path d="M162.547 230.994c-2.65 6.791-9.493 12.098-18.468 12.098H48.018c-8.975 0-15.814-5.307-18.464-12.098a18.356 18.356 0 0 1 2.706-4.624l29.427-29.987h68.727l29.427 29.987a18.356 18.356 0 0 1 2.706 4.624" fill="#F2ADAD" mask="url(#f)"/>
            <path d="M93.596 177.133a3.917 3.917 0 1 1-7.834 0 3.917 3.917 0 0 1 7.834 0" fill="#FF8AB7" mask="url(#f)"/>
            <path d="M105.542 209.562a3.917 3.917 0 1 1-7.835 0 3.917 3.917 0 1 1 7.835 0" fill="#AFEEF9" mask="url(#f)"/>
            <path d="M105.607 159.71a3.982 3.982 0 1 1-7.964 0 3.982 3.982 0 0 1 7.964 0M93.647 139.423a3.968 3.968 0 1 1-7.938 0 3.968 3.968 0 0 1 7.938 0" fill="#FF8AB7" mask="url(#f)"/>
            <path d="M79.504 211.122a7.257 7.257 0 1 1-14.514 0 7.257 7.257 0 0 1 14.514 0M135.432 224.217a5.664 5.664 0 1 1-11.329 0 5.664 5.664 0 0 1 11.329 0M107.29 236.16a5.665 5.665 0 1 1-11.33 0 5.665 5.665 0 0 1 11.33 0" fill="#AFEEF9" mask="url(#f)"/>
            <path d="m97.643 66.368 12.51-8.418s10.135 11.641 19.264 6.393c9.13-5.248 6.677-18.626 6.677-18.626s9.465-.436 8.413-7.552c-1.052-7.115 3.857 3.894 2.454 5.505-1.402 1.611-5.201 5.55-5.201 5.55s2.398 15.484-10.4 19.691c-12.794 4.207-20.506-6.755-20.506-6.755l-13.211 4.212zM130.2 209.051c-.456 0-.912-.177-1.256-.53l-25.726-26.434a1.751 1.751 0 0 1 .033-2.478 1.751 1.751 0 0 1 2.478.033l25.727 26.434a1.752 1.752 0 0 1-1.256 2.975" fill="#FFF" mask="url(#f)"/>
            <path d="M256.451 44.108c1.296 6.887-3.237 13.521-10.124 14.816l-108.91 20.488-4.693-24.942 108.911-20.487c6.887-1.295 13.521 3.238 14.816 10.125" fill="#AFEEF9" mask="url(#f)"/>
            <path d="m144.019 53.494 4.274 22.724a8.176 8.176 0 0 1-6.524 9.548 8.177 8.177 0 0 1-9.55-6.524l-4.273-22.725a8.177 8.177 0 1 1 16.073-3.023M246.328 58.923l-28.816 5.42c-.007.003-.014.003-.02.007l-60.35 11.351 52.587-35.715 31.905-6.002a12.674 12.674 0 0 1 5.241.112c4.74 1.112 8.62 4.915 9.577 10.013 1.294 6.888-3.238 13.521-10.124 14.814" fill="#34D2DF" mask="url(#f)"/>
            <path d="M185.92 52.176a1.752 1.752 0 0 1-.299-3.48l47.552-8.254a1.754 1.754 0 0 1 .601 3.454l-47.552 8.254a1.83 1.83 0 0 1-.302.026" fill="#FFF" mask="url(#f)"/>
            <path d="m246.328 58.923-28.816 5.42c37.198-10.17 29.36-30.243 29.36-30.243l.003-.004c4.74 1.112 8.62 4.915 9.577 10.013 1.294 6.888-3.238 13.521-10.124 14.814" fill="#00BFD9" mask="url(#f)"/>
            <path d="M50.557 34.096s5.608-13.331 14.723-12.044l9.115 1.285s1.402-9.464 8.413-10.165c7.012-.702 9.466 0 9.466 0s-16.08.35-12.948 16.475c-11.592-3.505-20.005-5.124-28.77 4.45" fill="#FFF" mask="url(#f)"/>
        </g>
        <path d="M0 0h340v340H0z"/>
    </g>
</svg>
