<svg width="1440" height="860" viewBox="0 0 1440 860" xmlns="http://www.w3.org/2000/svg" xmlns:xlink="http://www.w3.org/1999/xlink">
    <defs>
        <path id="o7dl6ore6a" d="M0 860h1440V0H0z"/>
    </defs>
    <g fill="none" fill-rule="evenodd">
        <path d="M0 860h1440V0H0z"/>
        <path d="M1322.346 803.374c189.687-820.67-105.683-686.492-197.816-636.565-92.133 49.926-210.586-.182-303.224-65.22C582.34-66.18 437.7-4.61 340.403 135.43c-35.507 51.105-40.857 116.53-140.911 131.057-252.013 36.59-34.237 262.289 33.508 536.887h1089.346z" fill="#D8E1F3"/>
        <g>
            <path d="M235.566 780.513c3.436-.161 7.672-.352 12.661-.56 4.98-.22 10.711-.444 17.126-.696 12.832-.503 28.411-1.05 46.293-1.626l28.467-.852 31.563-.833 34.315-.787 36.721-.715 38.785-.625 40.5-.517c27.498-.322 55.909-.546 84.785-.697 28.871-.158 58.203-.202 87.535-.183 29.327.013 58.663.114 87.535.293 28.87.183 57.28.415 84.779.773 6.875.08 13.696.16 20.445.242 6.75.097 13.438.198 20.05.295 13.241.203 26.192.38 38.793.63 25.206.443 49.042.955 71.033 1.482 21.998.53 42.164 1.087 60.039 1.638 8.94.28 17.303.529 25.034.807 7.732.262 14.836.507 21.258.755 3.203.122 6.242.234 9.095.34l8.032.328c4.98.209 9.22.386 12.658.533 6.87.318 10.54.486 10.54.486 4.853.226 8.388 2.186 7.893 4.38-.435 1.92-3.805 3.382-7.892 3.57l-10.541.487-12.659.535c-2.494.1-5.172.21-8.032.326-2.852.105-5.891.218-9.093.34-6.423.248-13.527.492-21.26.754-7.73.278-16.092.528-25.033.808-17.875.549-38.04 1.105-60.04 1.636-21.99.53-45.827 1.04-71.032 1.482-12.6.25-25.552.429-38.793.633-6.611.096-13.3.196-20.05.295l-20.446.24c-27.497.358-55.909.59-84.778.772-28.871.18-58.207.28-87.534.294-29.332.018-58.664-.026-87.536-.183-28.877-.152-57.288-.373-84.786-.696l-40.5-.52c-13.236-.212-26.181-.42-38.784-.624-12.601-.244-24.863-.484-36.721-.714-11.86-.273-23.315-.534-34.315-.786l-31.563-.834-28.466-.851c-17.882-.577-33.462-1.122-46.293-1.627-6.416-.251-12.146-.478-17.126-.695-4.99-.208-9.226-.4-12.662-.562l-10.542-.51c-4.853-.236-8.365-2.206-7.846-4.401.453-1.905 3.8-3.354 7.846-3.547 0 0 3.666-.18 10.542-.513z" fill-opacity=".5" fill="#E6E5E5"/>
            <path d="M1099.666 788.342h232.654c10.752 0 19.55-8.799 19.55-19.552V459.741c0-10.753-8.798-19.551-19.55-19.551h-232.654v348.152z" fill="#5762A8"/>
            <path d="M1095.161 788.342h232.653c10.753 0 19.553-8.799 19.553-19.552V459.741c0-10.753-8.8-19.551-19.553-19.551h-232.653v348.152z" fill="#7182BF"/>
            <mask id="yucew1jeib" fill="#fff">
                <use xlink:href="#o7dl6ore6a"/>
            </mask>
            <path fill="#CED1E5" mask="url(#yucew1jeib)" d="M1294.341 774.927h43.014V453.605h-43.014z"/>
            <path fill="#DADBE5" mask="url(#yucew1jeib)" d="m1320.713 453.605 16.642 33.47v-33.47z"/>
            <path d="M1069.508 788.342h232.653c10.753 0 19.55-8.799 19.55-19.552V459.741c0-10.753-8.797-19.551-19.55-19.551h-232.653v348.152z" fill="#5762A8" mask="url(#yucew1jeib)"/>
            <path d="M1064.102 788.342h232.653c10.753 0 19.551-8.799 19.551-19.552V459.741c0-10.753-8.798-19.551-19.55-19.551h-232.654v348.152z" fill="#7C8FC7" mask="url(#yucew1jeib)"/>
            <path d="M1049.032 788.342h209.391c9.678 0 18.403-7.919 19.385-17.597l28.255-278.147c.983-9.678-6.13-17.597-15.809-17.597h-209.39l-31.832 313.341z" fill="#F3BC61" mask="url(#yucew1jeib)"/>
            <path d="M1043.627 788.342h209.391c9.678 0 18.403-7.919 19.385-17.597l28.255-278.147c.983-9.678-6.131-17.597-15.809-17.597h-209.391l-31.831 313.341z" fill="#F6C988" mask="url(#yucew1jeib)"/>
            <path fill="#CED1E5" mask="url(#yucew1jeib)" d="M1222.766 776.269h38.713l29.376-289.193h-38.712z"/>
            <path fill="#DADBE5" mask="url(#yucew1jeib)" d="m1275.88 487.075 11.738 31.87 3.237-31.87z"/>
            <path d="M1019.187 788.342h209.39c9.678 0 18.401-7.919 19.383-17.597l28.257-278.147c.983-9.678-6.132-17.597-15.809-17.597h-209.39l-31.832 313.341z" fill="#F6C988" mask="url(#yucew1jeib)"/>
            <path d="m1270.809 492.602-28.251 278.145c-.981 9.675-9.712 17.595-19.387 17.595h-209.392l13.292-130.85 18.54-182.494h209.393c9.676 0 16.795 7.92 15.805 17.604" fill="#F3BC61" mask="url(#yucew1jeib)"/>
            <path fill="#F6C988" mask="url(#yucew1jeib)" d="m1205.864 474.998-181.35 313.344h-10.736l13.292-130.85 135.702-182.494zM1241.117 474.998 1125.98 788.342h-51.39l150.697-313.344z"/>
            <path d="M421.8 789.164H116.713c-12.375 0-22.5-10.125-22.5-22.5v-21.797c0-12.375 10.125-22.5 22.5-22.5H421.8v66.797z" fill="#E94C66" mask="url(#yucew1jeib)"/>
            <path d="M609.6 789.164H421.746c-12.375 0-22.5-10.125-22.5-22.5v-21.797c0-12.375 10.125-22.5 22.5-22.5H609.6v5.401h-5.4v55.997h5.4v5.4z" fill="#CC4E60" mask="url(#yucew1jeib)"/>
            <path d="M168.012 775.66c-4.878 0-9-4.12-9-9v-21.789c0-4.879 4.122-9 9-9h150.295c-4.88 0-9 4.121-9 9v21.79c0 4.878 4.12 9 9 9H168.012z" fill="#ED748B" mask="url(#yucew1jeib)"/>
            <path d="M604.197 727.772v55.989H421.74c-8.208 0-15.084-5.813-16.723-13.545a16.67 16.67 0 0 1-.378-3.554v-21.79c0-9.432 7.677-17.1 17.101-17.1h182.457z" fill="#DADBE5" mask="url(#yucew1jeib)"/>
            <path d="M604.197 727.772v7.578l-199.18 34.866a16.67 16.67 0 0 1-.378-3.554v-21.79c0-9.432 7.677-17.1 17.101-17.1h182.457z" fill="#CED1E5" mask="url(#yucew1jeib)"/>
            <path d="M446.7 750.65h-17.4v1.8c2.054 0 2.401 1.804 2.401 5.85v13.19l9.743-3.457 9.456 3.472V758.3c0-3.228 0-7.65-4.2-7.65" fill="#E94C66" mask="url(#yucew1jeib)"/>
            <path d="M295.49 722.367h231.52c9.391 0 17.075-7.684 17.075-17.074v-16.54c0-9.393-7.684-17.075-17.075-17.075H295.49v50.69z" fill="#7182BF" mask="url(#yucew1jeib)"/>
            <path d="M152.975 722.367h142.558c9.39 0 17.074-7.684 17.074-17.074v-16.54c0-9.393-7.684-17.075-17.074-17.075H152.975v4.097h4.098v42.494h-4.098v4.098z" fill="#7C8FC7" mask="url(#yucew1jeib)"/>
            <path d="M488.081 712.12c3.702 0 6.83-3.128 6.83-6.83v-16.535c0-3.702-3.128-6.83-6.83-6.83H374.027c3.702 0 6.83 3.128 6.83 6.83v16.534c0 3.703-3.128 6.83-6.83 6.83h114.054z" fill="#92A2D2" mask="url(#yucew1jeib)"/>
            <path d="M308.51 688.757v16.532c0 .92-.098 1.827-.286 2.7-1.243 5.87-6.463 10.28-12.691 10.28H157.077v-42.49h138.456a12.95 12.95 0 0 1 10.692 5.643 12.884 12.884 0 0 1 2.286 7.335" fill="#DADBE5" mask="url(#yucew1jeib)"/>
            <path d="M276.595 693.14h13.203v1.366c-1.558 0-1.821 1.369-1.821 4.44v10.009l-7.395-2.624-7.175 2.636v-10.021c0-2.451 0-5.805 3.188-5.805" fill="#5762A8" mask="url(#yucew1jeib)"/>
            <path d="m306.225 681.422-149.147 28.7v-34.344h138.456a12.95 12.95 0 0 1 10.69 5.644" fill="#CED1E5" mask="url(#yucew1jeib)"/>
        </g>
    </g>
</svg>
