<svg width="780" height="180" viewBox="0 0 780 180" xmlns="http://www.w3.org/2000/svg" xmlns:xlink="http://www.w3.org/1999/xlink">
    <defs>
        <path id="a" d="M0 0h695v143.204H0z"/>
    </defs>
    <g fill="none" fill-rule="evenodd">
        <g transform="translate(42 36.796)">
            <mask id="b" fill="#fff">
                <use xlink:href="#a"/>
            </mask>
            <path fill="#CFD0D2" mask="url(#b)" d="M689.804 143.205 0 142.002 5.196 0 695 1.202z"/>
        </g>
        <path fill="#FBC360" d="M724.804 173.039 35 171.836l5.198-142.002L730 31.037z"/>
        <g fill="#EF8070">
            <path d="M122.502 16.15c-3.756-3.928-8.105-7.267-11.902-11.157-1.366-1.4-3.285-3.176-4.387-4.993L0 93.769c3.791 2.017 7.711 7.362 9.979 9.641 7.17 7.204 14.325 14.426 21.197 21.894l105.84-93.442c-5.6-4.334-9.578-10.551-14.514-15.712M774.569 60.23c1.432-5.158 2.029-10.485 3.405-15.655.495-1.861 1.024-4.372 2.026-6.243L640.85 2.256c.265 4.163-2.322 10.215-3.105 13.28-2.474 9.69-4.972 19.376-7.835 28.963l138.661 35.95c.798-6.876 4.118-13.442 5.998-20.22"/>
        </g>
    </g>
</svg>
